<?xml version="1.0" encoding="ISO-8859-1"?>
<!DOCTYPE svg PUBLIC "-//W3C//DTD SVG 1.0//EN" "http://www.w3.org/TR/2001/REC-SVG-20010904/DTD/svg10.dtd">
<!-- generated by Grace-5.1.23 -->
<svg xml:space="preserve" width="22.0000in" height="17.0000in" viewBox="0.0000 0.0000 1584.0000 1224.0000">
 <g transform="translate(0,1224.0000) scale(1,-1)">
  <g style="fill:#FFFFFF; fill-rule:nonzero">
   <path  d="M0.0000,0.0000L0.0000,1224.0000L1584.0000,1224.0000L1584.0000,0.0000z"/>
  </g>
  <g style="fill:none; stroke:#FF0000; stroke-width:  3.6720; stroke-linecap:butt; stroke-linejoin:miter; stroke-dasharray:none">
   <path d="M183.6000,237.2027L238.8691,210.5801L271.1995,224.0716L294.1382,235.8747L311.9309,248.9409L326.4686,262.0084L338.7600,275.0744L349.4073,279.1833L358.7989,291.1362L367.2000,297.3214
            L374.7997,313.5568L381.7377,318.9674L388.1200,321.1292L394.0291,325.6790L399.5304,336.1332L404.6764,344.0208L409.5104,345.1687L414.0680,342.7548L418.3792,353.4060L422.4691,356.5881
            L430.0688,360.9646L437.0068,365.5495L443.3891,372.0231L449.2982,379.0837L454.7995,377.1454L462.3992,437.5155L469.3371,443.2237L475.7195,439.5014L481.6286,439.3719L488.8823,443.3380
            L495.5309,445.3448L503.1306,451.7803L510.0686,452.2544L517.6683,537.9858L524.6062,529.0922L532.0043,524.8063L538.7739,519.1990L545.8663,506.2100L553.1569,533.8713L560.5452,523.3460
            L567.9522,496.7166L575.3177,533.0525L582.5970,544.5356L589.7576,554.4459L597.2238,553.2216L604.4582,582.7355L611.8357,573.1394L619.2666,568.8820L626.6818,613.6908L634.0292,614.8179
            L641.5268,619.6922L649.0800,612.7997L656.6163,624.9015L664.0813,621.8684L671.6109,630.1661L679.1309,653.1283L686.7306,630.3736L694.3303,639.2367L701.8701,640.3905L709.4152,640.3924
            L717.0050,644.6822L724.5686,647.2507L732.1355,638.3323L739.7203,650.2380L747.2590,650.0667L754.8278,641.1902L762.4163,535.2174L770.0109,486.3036L777.5967,491.5587L785.1584,483.2991
            L792.7581,475.8069L800.3264,485.1688L807.9071,491.8709L815.4952,491.9966L823.0818,492.4345L830.6791,487.7297L838.2680,496.0083L845.8500,492.9886L853.4389,489.8698L861.0386,490.4315
            L868.6309,458.6366L876.2252,487.7164L883.8224,483.3658L891.4177,435.8381L899.0123,470.0340L906.6111,456.0510L914.2033,457.5285L921.7992,443.4465L929.3933,415.2521L936.9893,425.7050
            L944.5838,384.2607L952.1799,359.9049L959.7786,361.1737L967.3753,355.4362L974.9731,351.2015L982.5721,345.7484L990.1701,344.0691L997.7693,343.6162L1005.3679,343.9918L1012.9669,344.0710
            L1020.5657,344.0470L1028.1646,344.0586L1035.7637,341.0067L1043.3628,340.5981L1050.9620,341.9993L1058.5617,344.0518L1066.1603,344.0358L1073.7592,344.1040L1081.3581,336.2338L1088.9578,344.0392
            L1096.5568,344.0063L1104.1564,344.0413L1111.7555,344.0295L1119.3550,335.5706L1126.9547,344.0276L1134.5541,344.0110L1142.1534,344.0697L1149.7529,344.0402L1157.3524,340.7670L1164.9519,344.0979
            L1172.5514,337.2004L1180.1511,340.3510L1187.7506,344.0706L1195.3501,344.0811L1202.9496,344.0048L1210.5493,344.0916L1218.1488,344.1082L1225.7484,344.1500L1233.3480,344.1184L1240.9476,344.0758
            L1248.5473,344.1102L1256.1470,344.0657L1263.7466,344.0725L1271.3463,342.0516L1278.9459,332.6240L1286.5456,320.2211L1294.1452,308.5159L1301.7449,291.3931L1309.3446,279.9395L1316.9443,270.6039
            L1324.5440,263.1440L1332.1437,261.0126L1339.7433,261.1905L1347.3430,260.7398L1354.9427,262.4224L1362.5424,256.3448L1370.1420,258.9005L1377.7417,261.0978L1385.3414,262.8249L1392.9411,262.6678
            L1400.5408,261.7769L1408.1405,261.8871L1415.7402,261.4287L1423.3399,261.1094L1430.9396,262.0505L1438.5393,261.6191L1446.1390,261.7691L1453.7387,261.8076L1461.3384,260.6973L1468.8000,261.7853"/>
  </g>
  <g style="fill:none; stroke:#00FF00; stroke-width:  3.6720; stroke-linecap:butt; stroke-linejoin:miter; stroke-dasharray:none">
   <path d="M183.6000,235.8659L238.8691,267.2136L271.1995,288.1279L294.1382,303.0591L311.9309,314.2226L326.4686,321.1594L338.7600,365.4400L349.4073,416.6610L358.7989,403.6586L367.2000,403.4815
            L374.7997,416.7372L381.7377,434.5186L388.1200,422.0722L394.0291,437.7440L399.5304,439.1492L404.6764,462.3951L409.5104,467.9586L414.0680,462.3970L418.3792,463.3052L422.4691,482.3109
            L430.0688,480.3822L437.0068,497.2497L443.3891,494.2547L449.2982,503.4187L454.7995,503.4320L462.3992,516.9466L469.3371,522.9766L475.7195,527.5843L481.6286,530.1718L488.8823,536.7730
            L495.5309,544.1167L503.1306,548.6539L510.0686,559.3525L517.6683,562.9016L524.6062,570.4566L532.0043,563.3319L538.7739,575.8849L545.8663,580.0452L553.1569,571.6600L560.5452,583.2724
            L567.9522,590.2392L575.3177,523.8448L582.5970,599.9515L589.7576,536.8091L597.2238,541.7786L604.4582,549.1033L611.8357,550.6017L619.2666,558.2158L626.6818,558.4005L634.0292,564.8360
            L641.5268,568.2042L649.0800,568.1852L656.6163,573.9409L664.0813,567.3836L671.6109,573.9448L679.1309,579.0779L686.7306,572.5986L694.3303,582.3623L701.8701,581.4941L709.4152,582.0310
            L717.0050,583.1125L724.5686,584.3787L732.1355,586.0275L739.7203,587.2328L747.2590,588.4247L754.8278,581.9244L762.4163,512.7216L770.0109,503.1616L777.5967,468.9392L785.1584,462.4884
            L792.7581,457.3647L800.3264,463.8669L807.9071,467.8405L815.4952,467.2446L823.0818,469.6170L830.6791,458.1854L838.2680,471.3915L845.8500,468.7297L853.4389,468.6555L861.0386,470.7213
            L868.6309,442.1784L876.2252,468.5127L883.8224,465.9594L891.4177,451.2510L899.0123,452.1421L906.6111,447.2088L914.2033,439.4119L921.7992,422.9804L929.3933,402.6571L936.9893,416.3335
            L944.5838,399.7535L952.1799,377.1245L959.7786,355.1192L967.3753,347.8076L974.9731,345.0824L982.5721,344.6081L990.1701,344.4473L997.7693,342.6093L1005.3679,343.9937L1012.9669,343.8370
            L1020.5657,344.5067L1028.1646,344.1268L1035.7637,336.0259L1043.3628,334.2658L1050.9620,344.5221L1058.5617,344.0326L1066.1603,344.0474L1073.7592,344.0139L1081.3581,340.7268L1088.9578,344.5287
            L1096.5568,344.5992L1104.1564,344.5042L1111.7555,344.5695L1119.3550,338.9586L1126.9547,344.4751L1134.5541,344.4627L1142.1534,344.5826L1149.7529,344.0269L1157.3524,340.3030L1164.9519,343.9604
            L1172.5514,339.9506L1180.1511,333.8639L1187.7506,344.5941L1195.3501,344.0061L1202.9496,344.5152L1210.5493,344.1268L1218.1488,344.5981L1225.7484,344.0604L1233.3480,344.1289L1240.9476,344.4794
            L1248.5473,344.5386L1256.1470,344.6226L1263.7466,344.0663L1271.3463,340.0323L1278.9459,329.3343L1286.5456,319.0249L1294.1452,306.1963L1301.7449,292.6116L1309.3446,280.8101L1316.9443,271.4896
            L1324.5440,263.7974L1332.1437,260.4102L1339.7433,260.3323L1347.3430,260.4483L1354.9427,262.2554L1362.5424,256.8859L1370.1420,257.4619L1377.7417,260.0753L1385.3414,262.5836L1392.9411,263.0781
            L1400.5408,261.5555L1408.1405,262.0180L1415.7402,261.5178L1423.3399,260.3573L1430.9396,261.7681L1438.5393,261.4490L1446.1390,261.3306L1453.7387,261.6690L1461.3384,260.6568L1468.8000,261.4367"/>
  </g>
  <g style="fill:none; stroke:#0000FF; stroke-width:  3.6720; stroke-linecap:butt; stroke-linejoin:miter; stroke-dasharray:none">
   <path d="M183.6000,288.1534L238.8691,322.9842L271.1995,340.3994L294.1382,341.6615L311.9309,357.8449L326.4686,309.0595L338.7600,419.2600L349.4073,518.1214L358.7989,475.6603L367.2000,484.2283
            L374.7997,479.2779L381.7377,510.5701L388.1200,468.9315L394.0291,491.7376L399.5304,479.7691L404.6764,518.1499L409.5104,506.7374L414.0680,482.2081L418.3792,496.9184L422.4691,511.2232
            L430.0688,493.8701L437.0068,512.8492L443.3891,527.1654L449.2982,521.6971L454.7995,535.1051L462.3992,521.5467L469.3371,532.6013L475.7195,554.2498L481.6286,534.3263L488.8823,543.3170
            L495.5309,548.1436L503.1306,566.9247L510.0686,556.5117L517.6683,559.5429L524.6062,563.2405L532.0043,576.8769L538.7739,567.7872L545.8663,570.9288L553.1569,582.4099L560.5452,573.5068
            L567.9522,577.6042L575.3177,545.2591L582.5970,548.4350L589.7576,556.0833L597.2238,559.7600L604.4582,560.4816L611.8357,566.1936L619.2666,567.2522L626.6818,571.8161L634.0292,572.5053
            L641.5268,574.9139L649.0800,578.7466L656.6163,578.6800L664.0813,576.6465L671.6109,582.5070L679.1309,584.5443L686.7306,582.7393L694.3303,587.0481L701.8701,587.2994L709.4152,589.4833
            L717.0050,589.5042L724.5686,590.7285L732.1355,592.1146L739.7203,592.7296L747.2590,594.0719L754.8278,593.1314L762.4163,510.7015L770.0109,506.8059L777.5967,486.2122L785.1584,477.3986
            L792.7581,469.0382L800.3264,479.4721L807.9071,485.7896L815.4952,484.2606L823.0818,486.9434L830.6791,469.5751L838.2680,488.6684L845.8500,486.1189L853.4389,485.4088L861.0386,486.4293
            L868.6309,440.7580L876.2252,479.2512L883.8224,471.7323L891.4177,458.7642L899.0123,464.3791L906.6111,451.5956L914.2033,447.7610L921.7992,438.3247L929.3933,414.7380L936.9893,428.2830
            L944.5838,399.6583L952.1799,376.7665L959.7786,356.6376L967.3753,348.3215L974.9731,344.2374L982.5721,344.2673L990.1701,344.2532L997.7693,341.8645L1005.3679,344.0213L1012.9669,343.9515
            L1020.5657,344.2595L1028.1646,344.2022L1035.7637,335.3469L1043.3628,333.9766L1050.9620,344.3439L1058.5617,344.0623L1066.1603,344.1447L1073.7592,344.0145L1081.3581,339.9685L1088.9578,344.2797
            L1096.5568,344.3460L1104.1564,344.2351L1111.7555,344.3572L1119.3550,338.4824L1126.9547,344.2654L1134.5541,344.2629L1142.1534,344.3747L1149.7529,344.1514L1157.3524,341.3929L1164.9519,344.0194
            L1172.5514,339.2210L1180.1511,333.4115L1187.7506,344.4145L1195.3501,344.0270L1202.9496,344.3235L1210.5493,344.2572L1218.1488,344.3960L1225.7484,344.0615L1233.3480,344.2287L1240.9476,344.2944
            L1248.5473,344.3307L1256.1470,344.4071L1263.7466,343.9823L1271.3463,341.1680L1278.9459,334.4335L1286.5456,320.5583L1294.1452,306.8933L1301.7449,290.7339L1309.3446,280.1187L1316.9443,270.8961
            L1324.5440,263.1779L1332.1437,260.2423L1339.7433,260.4102L1347.3430,259.6195L1354.9427,262.1299L1362.5424,256.8956L1370.1420,258.1827L1377.7417,260.3017L1385.3414,262.4256L1392.9411,262.8127
            L1400.5408,261.7556L1408.1405,261.9772L1415.7402,261.9526L1423.3399,260.3116L1430.9396,261.9589L1438.5393,261.6311L1446.1390,261.5804L1453.7387,261.6882L1461.3384,260.3914L1468.8000,261.4104"/>
  </g>
  <g style="fill:none; stroke:#670748; stroke-width:  3.6720; stroke-linecap:butt; stroke-linejoin:miter; stroke-dasharray:none">
   <path d="M183.6000,229.9567L238.8691,247.1980L271.1995,272.7925L294.1382,294.4819L311.9309,306.3476L326.4686,322.6188L338.7600,344.3401L349.4073,335.3319L358.7989,354.2826L367.2000,365.0447
            L374.7997,381.3552L381.7377,383.8760L388.1200,400.5113L394.0291,407.9026L399.5304,420.2520L404.6764,422.2226L409.5104,437.1957L414.0680,442.8981L418.3792,452.2868L422.4691,448.1265
            L430.0688,465.2644L437.0068,470.0073L443.3891,485.2679L449.2982,491.2121L454.7995,501.7774L462.3992,513.4337L469.3371,517.7292L475.7195,523.0223L481.6286,534.9794L488.8823,536.7501
            L495.5309,535.6039L503.1306,542.3041L510.0686,568.9144L517.6683,576.4656L524.6062,584.5024L532.0043,579.3445L538.7739,522.3749L545.8663,589.3824L553.1569,594.4356L560.5452,605.8196
            L567.9522,613.5061L575.3177,615.9280L582.5970,573.1698L589.7576,573.1527L597.2238,577.3910L604.4582,573.4611L611.8357,581.8673L619.2666,577.7032L626.6818,585.1231L634.0292,581.6693
            L641.5268,582.5813L649.0800,588.6760L656.6163,587.8420L664.0813,584.5177L671.6109,587.3584L679.1309,589.6013L686.7306,588.0553L694.3303,592.9848L701.8701,589.6223L709.4152,593.1847
            L717.0050,590.6562L724.5686,591.5777L732.1355,592.5164L739.7203,593.7387L747.2590,596.1149L754.8278,591.3740L762.4163,508.3310L770.0109,504.7077L777.5967,483.7485L785.1584,475.9573
            L792.7581,468.7564L800.3264,479.5121L807.9071,484.3025L815.4952,484.8261L823.0818,487.2556L830.6791,468.7621L838.2680,485.4564L845.8500,485.9343L853.4389,486.3665L861.0386,485.5972
            L868.6309,441.1598L876.2252,483.7485L883.8224,480.1309L891.4177,466.5953L899.0123,470.1768L906.6111,463.9583L914.2033,454.4345L921.7992,449.0900L929.3933,409.3287L936.9893,428.5991
            L944.5838,386.6273L952.1799,363.0415L959.7786,356.2690L967.3753,351.0357L974.9731,347.7861L982.5721,346.4049L990.1701,344.8688L997.7693,342.0926L1005.3679,344.1733L1012.9669,344.1933
            L1020.5657,344.5078L1028.1646,344.3791L1035.7637,335.4320L1043.3628,333.9874L1050.9620,344.6413L1058.5617,344.2976L1066.1603,344.4014L1073.7592,344.2515L1081.3581,340.1463L1088.9578,344.5343
            L1096.5568,344.5910L1104.1564,344.5070L1111.7555,344.6017L1119.3550,338.6402L1126.9547,344.5030L1134.5541,344.4756L1142.1534,344.6238L1149.7529,344.3730L1157.3524,338.7257L1164.9519,344.2220
            L1172.5514,339.2828L1180.1511,333.4461L1187.7506,344.6655L1195.3501,344.2584L1202.9496,344.5782L1210.5493,344.5310L1218.1488,344.6474L1225.7484,344.2961L1233.3480,344.4541L1240.9476,344.5371
            L1248.5473,344.5668L1256.1470,342.0901L1263.7466,338.2667L1271.3463,328.3364L1278.9459,316.7873L1286.5456,298.5591L1294.1452,285.3246L1301.7449,267.8406L1309.3446,256.7328L1316.9443,250.6859
            L1324.5440,243.1714L1332.1437,245.3762L1339.7433,247.0881L1347.3430,247.9801L1354.9427,246.7100L1362.5424,248.4662L1370.1420,258.9466L1377.7417,260.6945L1385.3414,263.2182L1392.9411,263.4003
            L1400.5408,262.4879L1408.1405,262.2320L1415.7402,262.4412L1423.3399,260.3600L1430.9396,262.6126L1438.5393,262.1579L1446.1390,262.2651L1453.7387,262.1943L1461.3384,260.8276L1468.8000,262.2310"/>
  </g>
  <g style="fill:none; stroke:#BC8F8F; stroke-width:  3.6720; stroke-linecap:butt; stroke-linejoin:miter; stroke-dasharray:none">
   <path d="M183.6000,230.0645L238.8691,257.4472L271.1995,274.8698L294.1382,271.6385L311.9309,278.6412L326.4686,283.9621L338.7600,341.5242L349.4073,369.1324L358.7989,381.3723L367.2000,387.2347
            L374.7997,393.3104L381.7377,399.5326L388.1200,408.9993L394.0291,426.7332L399.5304,431.8740L404.6764,440.6648L409.5104,446.5519L414.0680,452.0773L418.3792,457.2105L422.4691,462.1876
            L430.0688,470.7365L437.0068,478.6553L443.3891,485.3193L449.2982,484.5348L454.7995,497.0346L462.3992,504.3935L469.3371,509.1421L475.7195,516.2574L481.6286,521.2344L488.8823,527.0016
            L495.5309,531.9882L503.1306,537.3727L510.0686,549.0728L517.6683,546.7118L524.6062,560.4759L532.0043,554.7791L538.7739,558.1911L545.8663,561.5478L553.1569,564.7694L560.5452,567.7644
            L567.9522,588.8950L575.3177,539.8536L582.5970,540.5067L589.7576,546.1997L597.2238,550.5579L604.4582,557.5304L611.8357,558.3072L619.2666,564.5200L626.6818,565.0340L634.0292,570.1710
            L641.5268,572.8233L649.0800,573.4021L656.6163,574.9996L664.0813,574.9748L671.6109,577.5624L679.1309,583.3543L686.7306,581.4827L694.3303,584.5805L701.8701,585.1898L709.4152,586.9091
            L717.0050,588.7027L724.5686,589.4700L732.1355,590.7875L739.7203,590.9303L747.2590,592.0366L754.8278,590.8904L762.4163,507.6722L770.0109,504.1422L777.5967,485.9381L785.1584,476.6504
            L792.7581,468.2385L800.3264,479.0208L807.9071,483.9903L815.4952,483.8341L823.0818,486.8368L830.6791,468.7830L838.2680,486.8329L845.8500,486.0161L853.4389,484.7861L861.0386,486.1627
            L868.6309,440.5467L876.2252,474.4227L883.8224,470.3976L891.4177,457.9740L899.0123,462.7397L906.6111,454.8648L914.2033,447.2869L921.7992,442.6697L929.3933,419.7417L936.9893,429.5644
            L944.5838,416.9371L952.1799,367.3948L959.7786,356.8299L967.3753,352.3110L974.9731,346.9017L982.5721,344.8103L990.1701,344.5564L997.7693,342.1800L1005.3679,344.2302L1012.9669,344.2062
            L1020.5657,344.5225L1028.1646,344.4888L1035.7637,335.4859L1043.3628,333.9705L1050.9620,344.6089L1058.5617,344.2523L1066.1603,344.3479L1073.7592,344.2841L1081.3581,340.0671L1088.9578,344.4983
            L1096.5568,344.5981L1104.1564,344.4895L1111.7555,344.6000L1119.3550,338.6795L1126.9547,344.5068L1134.5541,344.4855L1142.1534,344.6245L1149.7529,344.3871L1157.3524,341.1263L1164.9519,344.2045
            L1172.5514,339.2857L1180.1511,333.4536L1187.7506,344.6639L1195.3501,344.2637L1202.9496,344.5609L1210.5493,344.5021L1218.1488,344.6689L1225.7484,344.2942L1233.3480,344.4560L1240.9476,344.5404
            L1248.5473,344.5756L1256.1470,344.1955L1263.7466,340.5172L1271.3463,332.0381L1278.9459,320.3676L1286.5456,311.5406L1294.1452,301.6411L1301.7449,291.3814L1309.3446,281.4913L1316.9443,272.5657
            L1324.5440,264.7144L1332.1437,262.3698L1339.7433,261.4883L1347.3430,260.8013L1354.9427,262.3506L1362.5424,258.3023L1370.1420,258.7336L1377.7417,261.0660L1385.3414,262.9898L1392.9411,263.3955
            L1400.5408,262.3698L1408.1405,262.3691L1415.7402,262.7032L1423.3399,260.8649L1430.9396,262.5297L1438.5393,261.9460L1446.1390,262.1309L1453.7387,262.2106L1461.3384,260.6435L1468.8000,262.1331"/>
  </g>
  <g style="fill:none; stroke:#DCDCDC; stroke-width:  3.6720; stroke-linecap:butt; stroke-linejoin:miter; stroke-dasharray:none">
   <path d="M183.6000,225.1887L238.8691,322.6525L271.1995,280.1052L294.1382,411.2708L311.9309,322.9844L326.4686,433.8941L338.7600,337.6616L349.4073,482.8041L358.7989,354.6677L367.2000,403.6986
            L374.7997,367.6026L381.7377,411.7030L388.1200,377.7604L394.0291,417.7825L399.5304,385.9514L404.6764,422.5615L409.5104,392.6878L414.0680,426.4209L418.3792,398.3464L422.4691,429.5911
            L430.0688,432.2472L437.0068,434.5110L443.3891,436.4588L449.2982,438.1458L454.7995,439.6385L462.3992,421.5353L469.3371,443.1647L475.7195,427.0226L481.6286,445.7389L488.8823,447.1155
            L495.5309,448.2750L503.1306,436.3522L510.0686,450.5294L517.6683,432.2700L524.6062,452.4391L532.0043,420.6080L538.7739,433.3572L545.8663,442.2222L553.1569,447.8600L560.5452,456.7555
            L567.9522,468.5222L575.3177,476.7665L582.5970,481.7378L589.7576,489.2739L597.2238,496.8080L604.4582,506.2994L611.8357,510.5511L619.2666,519.2885L626.6818,523.1346L634.0292,530.8687
            L641.5268,536.2360L649.0800,539.5185L656.6163,544.3680L664.0813,549.6192L671.6109,552.7171L679.1309,558.3148L686.7306,561.2660L694.3303,564.0611L701.8701,566.6429L709.4152,569.8226
            L717.0050,573.1908L724.5686,575.6203L732.1355,577.8346L739.7203,579.2245L747.2590,581.2637L754.8278,583.4095L762.4163,525.4860L770.0109,516.3830L777.5967,483.7523L785.1584,476.1058
            L792.7581,471.5457L800.3264,477.3586L807.9071,484.8223L815.4952,483.2325L823.0818,486.9719L830.6791,471.2639L838.2680,486.7282L845.8500,485.0641L853.4389,484.7595L861.0386,483.8665
            L868.6309,441.6415L876.2252,482.5109L883.8224,477.8689L891.4177,458.9108L899.0123,462.2123L906.6111,459.2211L914.2033,450.3885L921.7992,441.9024L929.3933,413.5842L936.9893,428.3573
            L944.5838,414.2963L952.1799,370.7331L959.7786,358.7566L967.3753,348.6591L974.9731,345.2848L982.5721,344.5880L990.1701,344.5457L997.7693,342.0688L1005.3679,344.2706L1012.9669,344.2079
            L1020.5657,344.4613L1028.1646,344.3467L1035.7637,335.1740L1043.3628,333.6480L1050.9620,344.6289L1058.5617,344.2233L1066.1603,344.4240L1073.7592,344.2458L1081.3581,340.0146L1088.9578,344.4124
            L1096.5568,344.5872L1104.1564,344.4541L1111.7555,344.5415L1119.3550,338.7111L1126.9547,344.5107L1134.5541,344.5032L1142.1534,344.5552L1149.7529,344.4248L1157.3524,340.5783L1164.9519,344.2540
            L1172.5514,339.2509L1180.1511,333.2449L1187.7506,344.6358L1195.3501,344.2331L1202.9496,344.5674L1210.5493,344.4457L1218.1488,344.6584L1225.7484,344.2538L1233.3480,344.5061L1240.9476,344.5282
            L1248.5473,344.5765L1256.1470,344.6194L1263.7466,343.7203L1271.3463,340.9576L1278.9459,333.2792L1286.5456,322.0296L1294.1452,309.0548L1301.7449,292.1278L1309.3446,280.3055L1316.9443,270.6901
            L1324.5440,263.0221L1332.1437,262.4052L1339.7433,260.7621L1347.3430,260.5186L1354.9427,262.7059L1362.5424,258.0451L1370.1420,258.5241L1377.7417,260.6667L1385.3414,263.4861L1392.9411,263.3770
            L1400.5408,262.2274L1408.1405,262.2040L1415.7402,262.3748L1423.3399,260.6956L1430.9396,262.4452L1438.5393,261.8822L1446.1390,262.0528L1453.7387,262.0075L1461.3384,260.8213L1468.8000,262.1472"/>
  </g>
  <g style="fill:none; stroke:#9400D3; stroke-width:  3.6720; stroke-linecap:butt; stroke-linejoin:miter; stroke-dasharray:none">
   <path d="M183.6000,242.7879L238.8691,302.0084L271.1995,361.3264L294.1382,420.5376L311.9309,413.6832L326.4686,452.6809L338.7600,506.2004L349.4073,552.2411L358.7989,438.9835L367.2000,531.7654
            L374.7997,566.1574L381.7377,600.7302L388.1200,542.0242L394.0291,578.0174L399.5304,597.5048L404.6764,684.8699L409.5104,611.3812L414.0680,636.7729L418.3792,661.8144L422.4691,686.9510
            L430.0688,637.5041L437.0068,683.2724L443.3891,654.1717L449.2982,673.0042L454.7995,664.8208L462.3992,561.2851L469.3371,704.1745L475.7195,736.0608L481.6286,723.9685L488.8823,688.0134
            L495.5309,740.8304L503.1306,729.7453L510.0686,802.8722L517.6683,803.5995L524.6062,744.0329L532.0043,723.6334L538.7739,714.9931L545.8663,737.0700L553.1569,818.0813L560.5452,792.5792
            L567.9522,803.2873L575.3177,782.1833L582.5970,841.9708L589.7576,835.7467L597.2238,839.2633L604.4582,854.5258L611.8357,851.6908L619.2666,855.3940L626.6818,853.4291L634.0292,861.2298
            L641.5268,869.5331L649.0800,883.9007L656.6163,852.6770L664.0813,915.0483L671.6109,911.2650L679.1309,939.5794L686.7306,911.9885L694.3303,913.1462L701.8701,891.3035L709.4152,893.0285
            L717.0050,962.0980L724.5686,972.0464L732.1355,921.8760L739.7203,956.2337L747.2590,962.3969L754.8278,720.7622L762.4163,576.6484L770.0109,491.1798L777.5967,441.5711L785.1584,435.4897
            L792.7581,439.6347L800.3264,436.9577L807.9071,441.4720L815.4952,437.6450L823.0818,437.8982L830.6791,441.1979L838.2680,441.7957L845.8500,442.1899L853.4389,441.9214L861.0386,440.1640
            L868.6309,433.9284L876.2252,439.1339L883.8224,436.4931L891.4177,396.2787L899.0123,431.1714L906.6111,423.8124L914.2033,423.2013L921.7992,392.2936L929.3933,404.1270L936.9893,395.9474
            L944.5838,386.0752L952.1799,352.3721L959.7786,351.6389L967.3753,346.3533L974.9731,344.6207L982.5721,341.1337L990.1701,341.1986L997.7693,340.6815L1005.3679,341.0463L1012.9669,341.2095
            L1020.5657,341.0713L1028.1646,341.2162L1035.7637,339.8710L1043.3628,339.6676L1050.9620,338.7570L1058.5617,341.1231L1066.1603,341.1608L1073.7592,341.2251L1081.3581,333.4149L1088.9578,341.1495
            L1096.5568,339.9270L1104.1564,340.2659L1111.7555,340.7019L1119.3550,335.0508L1126.9547,340.8731L1134.5541,340.4589L1142.1534,339.7731L1149.7529,339.8017L1157.3524,335.0897L1164.9519,339.9730
            L1172.5514,337.3293L1180.1511,338.5237L1187.7506,341.0103L1195.3501,340.8622L1202.9496,340.5667L1210.5493,340.6280L1218.1488,340.3106L1225.7484,340.1065L1233.3480,339.8797L1240.9476,340.3380
            L1248.5473,340.3424L1256.1470,338.5487L1263.7466,336.4021L1271.3463,331.6945L1278.9459,323.9732L1286.5456,314.0356L1294.1452,303.6074L1301.7449,291.9294L1309.3446,280.9494L1316.9443,271.4300
            L1324.5440,263.2790L1332.1437,262.8416L1339.7433,261.4829L1347.3430,261.6547L1354.9427,262.1946L1362.5424,257.7661L1370.1420,258.0395L1377.7417,261.3900L1385.3414,263.2567L1392.9411,263.2908
            L1400.5408,263.3085L1408.1405,263.8553L1415.7402,263.0612L1423.3399,263.0541L1430.9396,263.7232L1438.5393,263.2864L1446.1390,263.4193L1453.7387,263.5333L1461.3384,262.2055L1468.8000,263.3180"/>
  </g>
  <g style="fill:none; stroke:#000000; stroke-width:  3.6720; stroke-linecap:butt; stroke-linejoin:miter; stroke-dasharray: 18 11">
   <path d="M183.4776,1021.3600L1468.8000,1021.3600"/>
  </g>
  <g style="fill:none; stroke:#000000; stroke-width:  1.8360; stroke-linecap:butt; stroke-linejoin:miter; stroke-dasharray:none">
   <path d="M183.6000,183.6000L1468.8000,183.6000"/>
  </g>
  <g style="fill:none; stroke:#000000; stroke-width:  3.6720; stroke-linecap:butt; stroke-linejoin:miter; stroke-dasharray:none">
   <path d="M238.8691,183.6000L238.8691,189.7200"/>
   <path d="M271.1995,183.6000L271.1995,189.7200"/>
   <path d="M294.1382,183.6000L294.1382,189.7200"/>
   <path d="M311.9309,183.6000L311.9309,189.7200"/>
   <path d="M326.4686,183.6000L326.4686,189.7200"/>
   <path d="M338.7600,183.6000L338.7600,189.7200"/>
   <path d="M349.4073,183.6000L349.4073,189.7200"/>
   <path d="M358.7989,183.6000L358.7989,189.7200"/>
   <path d="M367.2000,183.6000L367.2000,189.7200"/>
   <path d="M422.4691,183.6000L422.4691,189.7200"/>
   <path d="M454.7995,183.6000L454.7995,189.7200"/>
   <path d="M477.7382,183.6000L477.7382,189.7200"/>
   <path d="M495.5309,183.6000L495.5309,189.7200"/>
   <path d="M510.0686,183.6000L510.0686,189.7200"/>
   <path d="M522.3600,183.6000L522.3600,189.7200"/>
   <path d="M533.0073,183.6000L533.0073,189.7200"/>
   <path d="M542.3989,183.6000L542.3989,189.7200"/>
   <path d="M550.8000,183.6000L550.8000,189.7200"/>
   <path d="M606.0691,183.6000L606.0691,189.7200"/>
   <path d="M638.3995,183.6000L638.3995,189.7200"/>
   <path d="M661.3382,183.6000L661.3382,189.7200"/>
   <path d="M679.1309,183.6000L679.1309,189.7200"/>
   <path d="M693.6686,183.6000L693.6686,189.7200"/>
   <path d="M705.9600,183.6000L705.9600,189.7200"/>
   <path d="M716.6073,183.6000L716.6073,189.7200"/>
   <path d="M725.9989,183.6000L725.9989,189.7200"/>
   <path d="M734.4000,183.6000L734.4000,189.7200"/>
   <path d="M789.6691,183.6000L789.6691,189.7200"/>
   <path d="M821.9995,183.6000L821.9995,189.7200"/>
   <path d="M844.9382,183.6000L844.9382,189.7200"/>
   <path d="M862.7309,183.6000L862.7309,189.7200"/>
   <path d="M877.2686,183.6000L877.2686,189.7200"/>
   <path d="M889.5600,183.6000L889.5600,189.7200"/>
   <path d="M900.2073,183.6000L900.2073,189.7200"/>
   <path d="M909.5989,183.6000L909.5989,189.7200"/>
   <path d="M918.0000,183.6000L918.0000,189.7200"/>
   <path d="M973.2691,183.6000L973.2691,189.7200"/>
   <path d="M1005.5995,183.6000L1005.5995,189.7200"/>
   <path d="M1028.5382,183.6000L1028.5382,189.7200"/>
   <path d="M1046.3309,183.6000L1046.3309,189.7200"/>
   <path d="M1060.8686,183.6000L1060.8686,189.7200"/>
   <path d="M1073.1600,183.6000L1073.1600,189.7200"/>
   <path d="M1083.8073,183.6000L1083.8073,189.7200"/>
   <path d="M1093.1989,183.6000L1093.1989,189.7200"/>
   <path d="M1101.6000,183.6000L1101.6000,189.7200"/>
   <path d="M1156.8691,183.6000L1156.8691,189.7200"/>
   <path d="M1189.1995,183.6000L1189.1995,189.7200"/>
   <path d="M1212.1382,183.6000L1212.1382,189.7200"/>
   <path d="M1229.9309,183.6000L1229.9309,189.7200"/>
   <path d="M1244.4686,183.6000L1244.4686,189.7200"/>
   <path d="M1256.7600,183.6000L1256.7600,189.7200"/>
   <path d="M1267.4073,183.6000L1267.4073,189.7200"/>
   <path d="M1276.7989,183.6000L1276.7989,189.7200"/>
   <path d="M1285.2000,183.6000L1285.2000,189.7200"/>
   <path d="M1340.4691,183.6000L1340.4691,189.7200"/>
   <path d="M1372.7995,183.6000L1372.7995,189.7200"/>
   <path d="M1395.7382,183.6000L1395.7382,189.7200"/>
   <path d="M1413.5309,183.6000L1413.5309,189.7200"/>
   <path d="M1428.0686,183.6000L1428.0686,189.7200"/>
   <path d="M1440.3600,183.6000L1440.3600,189.7200"/>
   <path d="M1451.0073,183.6000L1451.0073,189.7200"/>
   <path d="M1460.3989,183.6000L1460.3989,189.7200"/>
   <path d="M1468.8000,183.6000L1468.8000,189.7200"/>
   <path d="M183.6000,183.6000L183.6000,195.8400"/>
   <path d="M367.2000,183.6000L367.2000,195.8400"/>
   <path d="M550.8000,183.6000L550.8000,195.8400"/>
   <path d="M734.4000,183.6000L734.4000,195.8400"/>
   <path d="M918.0000,183.6000L918.0000,195.8400"/>
   <path d="M1101.6000,183.6000L1101.6000,195.8400"/>
   <path d="M1285.2000,183.6000L1285.2000,195.8400"/>
   <path d="M1468.8000,183.6000L1468.8000,195.8400"/>
  </g>
  <g style="fill:#000000; fill-rule:nonzero">
   <text   style="font-family:'Helvetica','Nimbus Sans L'; font-style:normal; font-weight:normal; font-size:1224.0000" transform="matrix(0.0280,0.0000,-0.0000,-0.0280,177.6000,147.3600)">1</text>
   <text   style="font-family:'Helvetica','Nimbus Sans L'; font-style:normal; font-weight:normal; font-size:1224.0000" transform="matrix(0.0280,0.0000,-0.0000,-0.0280,349.2000,147.3600)">10</text>
   <text   style="font-family:'Helvetica','Nimbus Sans L'; font-style:normal; font-weight:normal; font-size:1224.0000" transform="matrix(0.0280,0.0000,-0.0000,-0.0280,523.3000,147.3600)">100</text>
   <text   style="font-family:'Helvetica','Nimbus Sans L'; font-style:normal; font-weight:normal; font-size:1224.0000" transform="matrix(0.0280,0.0000,-0.0000,-0.0280,697.4000,147.3600)">1000</text>
   <text   style="font-family:'Helvetica','Nimbus Sans L'; font-style:normal; font-weight:normal; font-size:1224.0000" transform="matrix(0.0280,0.0000,-0.0000,-0.0280,871.5000,147.3600)">10000</text>
   <text   style="font-family:'Helvetica','Nimbus Sans L'; font-style:normal; font-weight:normal; font-size:1224.0000" transform="matrix(0.0280,0.0000,-0.0000,-0.0280,1045.6000,147.3600)">100000</text>
   <text   style="font-family:'Helvetica','Nimbus Sans L'; font-style:normal; font-weight:normal; font-size:1224.0000" transform="matrix(0.0280,0.0000,-0.0000,-0.0280,1219.7000,147.3600)">1000000</text>
   <text   style="font-family:'Helvetica','Nimbus Sans L'; font-style:normal; font-weight:normal; font-size:1224.0000" transform="matrix(0.0280,0.0000,-0.0000,-0.0280,1393.8000,147.3600)">10000000</text>
   <text   style="font-family:'Helvetica','Nimbus Sans L'; font-style:normal; font-weight:normal; font-size:1224.0000" transform="matrix(0.0336,0.0000,-0.0000,-0.0336,711.9400,75.1800)">Vector Length</text>
  </g>
  <g style="fill:none; stroke:#000000; stroke-width:  1.8360; stroke-linecap:butt; stroke-linejoin:miter; stroke-dasharray:none">
   <path d="M183.6000,183.6000L183.6000,1040.4000"/>
   <path d="M1468.8000,183.6000L1468.8000,1040.4000"/>
  </g>
  <g style="fill:none; stroke:#000000; stroke-width:  3.6720; stroke-linecap:butt; stroke-linejoin:miter; stroke-dasharray:none">
   <path d="M183.6000,183.6000L195.8400,183.6000"/>
   <path d="M1468.8000,183.6000L1456.5600,183.6000"/>
   <path d="M183.6000,278.8000L195.8400,278.8000"/>
   <path d="M1468.8000,278.8000L1456.5600,278.8000"/>
   <path d="M183.6000,374.0000L195.8400,374.0000"/>
   <path d="M1468.8000,374.0000L1456.5600,374.0000"/>
   <path d="M183.6000,469.2000L195.8400,469.2000"/>
   <path d="M1468.8000,469.2000L1456.5600,469.2000"/>
   <path d="M183.6000,564.4000L195.8400,564.4000"/>
   <path d="M1468.8000,564.4000L1456.5600,564.4000"/>
   <path d="M183.6000,659.6000L195.8400,659.6000"/>
   <path d="M1468.8000,659.6000L1456.5600,659.6000"/>
   <path d="M183.6000,754.8000L195.8400,754.8000"/>
   <path d="M1468.8000,754.8000L1456.5600,754.8000"/>
   <path d="M183.6000,850.0000L195.8400,850.0000"/>
   <path d="M1468.8000,850.0000L1456.5600,850.0000"/>
   <path d="M183.6000,945.2000L195.8400,945.2000"/>
   <path d="M1468.8000,945.2000L1456.5600,945.2000"/>
   <path d="M183.6000,1040.4000L195.8400,1040.4000"/>
   <path d="M1468.8000,1040.4000L1456.5600,1040.4000"/>
  </g>
  <g style="fill:#000000; fill-rule:nonzero">
   <text   style="font-family:'Helvetica','Nimbus Sans L'; font-style:normal; font-weight:normal; font-size:1224.0000" transform="matrix(0.0280,0.0000,-0.0000,-0.0280,154.3600,171.6000)">0</text>
   <text   style="font-family:'Helvetica','Nimbus Sans L'; font-style:normal; font-weight:normal; font-size:1224.0000" transform="matrix(0.0280,0.0000,-0.0000,-0.0280,116.3600,266.8000)">500</text>
   <text   style="font-family:'Helvetica','Nimbus Sans L'; font-style:normal; font-weight:normal; font-size:1224.0000" transform="matrix(0.0280,0.0000,-0.0000,-0.0280,97.3600,362.0000)">1000</text>
   <text   style="font-family:'Helvetica','Nimbus Sans L'; font-style:normal; font-weight:normal; font-size:1224.0000" transform="matrix(0.0280,0.0000,-0.0000,-0.0280,97.3600,457.2000)">1500</text>
   <text   style="font-family:'Helvetica','Nimbus Sans L'; font-style:normal; font-weight:normal; font-size:1224.0000" transform="matrix(0.0280,0.0000,-0.0000,-0.0280,97.3600,552.4000)">2000</text>
   <text   style="font-family:'Helvetica','Nimbus Sans L'; font-style:normal; font-weight:normal; font-size:1224.0000" transform="matrix(0.0280,0.0000,-0.0000,-0.0280,97.3600,647.6000)">2500</text>
   <text   style="font-family:'Helvetica','Nimbus Sans L'; font-style:normal; font-weight:normal; font-size:1224.0000" transform="matrix(0.0280,0.0000,-0.0000,-0.0280,97.3600,742.8000)">3000</text>
   <text   style="font-family:'Helvetica','Nimbus Sans L'; font-style:normal; font-weight:normal; font-size:1224.0000" transform="matrix(0.0280,0.0000,-0.0000,-0.0280,97.3600,838.0000)">3500</text>
   <text   style="font-family:'Helvetica','Nimbus Sans L'; font-style:normal; font-weight:normal; font-size:1224.0000" transform="matrix(0.0280,0.0000,-0.0000,-0.0280,97.3600,933.2000)">4000</text>
   <text   style="font-family:'Helvetica','Nimbus Sans L'; font-style:normal; font-weight:normal; font-size:1224.0000" transform="matrix(0.0280,0.0000,-0.0000,-0.0280,97.3600,1028.4000)">4500</text>
   <text   style="font-family:'Helvetica','Nimbus Sans L'; font-style:normal; font-weight:normal; font-size:1224.0000" transform="matrix(0.0000,0.0336,0.0336,-0.0000,76.1200,539.5000)">MFlop/s</text>
  </g>
  <g style="fill:none; stroke:#000000; stroke-width:  3.6720; stroke-linecap:butt; stroke-linejoin:miter; stroke-dasharray:none">
   <path d="M183.6000,183.6000L183.6000,1040.4000L1468.8000,1040.4000L1468.8000,183.6000z"/>
  </g>
  <g style="fill:#FFFFFF; fill-rule:nonzero">
   <path  d="M1101.6000,918.0000L1101.6000,638.0800L1335.0120,638.0800L1335.0120,918.0000z"/>
  </g>
  <g style="fill:none; stroke:#FFFFFF; stroke-width:  1.8360; stroke-linecap:butt; stroke-linejoin:miter; stroke-dasharray:none">
   <path d="M1101.6000,918.0000L1101.6000,638.0800L1335.0120,638.0800L1335.0120,918.0000z"/>
  </g>
  <g style="fill:#000000; fill-rule:nonzero">
   <text   style="font-family:'Helvetica','Nimbus Sans L'; font-style:normal; font-weight:normal; font-size:1224.0000" transform="matrix(0.0280,0.0000,-0.0000,-0.0280,1181.7720,880.7600)">Blitz++</text>
  </g>
  <g style="fill:none; stroke:#FF0000; stroke-width:  3.6720; stroke-linecap:butt; stroke-linejoin:miter; stroke-dasharray:none">
   <path d="M1115.6760,893.2600L1164.6360,893.2600"/>
  </g>
  <g style="fill:#000000; fill-rule:nonzero">
   <text   style="font-family:'Helvetica','Nimbus Sans L'; font-style:normal; font-weight:normal; font-size:1224.0000" transform="matrix(0.0280,0.0000,-0.0000,-0.0280,1181.7720,843.5200)">uBLAS</text>
  </g>
  <g style="fill:none; stroke:#00FF00; stroke-width:  3.6720; stroke-linecap:butt; stroke-linejoin:miter; stroke-dasharray:none">
   <path d="M1115.6760,856.0200L1164.6360,856.0200"/>
  </g>
  <g style="fill:#000000; fill-rule:nonzero">
   <text   style="font-family:'Helvetica','Nimbus Sans L'; font-style:normal; font-weight:normal; font-size:1224.0000" transform="matrix(0.0280,0.0000,-0.0000,-0.0280,1181.7720,806.2800)">GMM++</text>
  </g>
  <g style="fill:none; stroke:#0000FF; stroke-width:  3.6720; stroke-linecap:butt; stroke-linejoin:miter; stroke-dasharray:none">
   <path d="M1115.6760,818.7800L1164.6360,818.7800"/>
  </g>
  <g style="fill:#000000; fill-rule:nonzero">
   <text   style="font-family:'Helvetica','Nimbus Sans L'; font-style:normal; font-weight:normal; font-size:1224.0000" transform="matrix(0.0280,0.0000,-0.0000,-0.0280,1181.7720,769.0400)">Armadillo</text>
  </g>
  <g style="fill:none; stroke:#670748; stroke-width:  3.6720; stroke-linecap:butt; stroke-linejoin:miter; stroke-dasharray:none">
   <path d="M1115.6760,781.5400L1164.6360,781.5400"/>
  </g>
  <g style="fill:#000000; fill-rule:nonzero">
   <text   style="font-family:'Helvetica','Nimbus Sans L'; font-style:normal; font-weight:normal; font-size:1224.0000" transform="matrix(0.0280,0.0000,-0.0000,-0.0280,1181.7720,731.8000)">MTL4</text>
  </g>
  <g style="fill:none; stroke:#BC8F8F; stroke-width:  3.6720; stroke-linecap:butt; stroke-linejoin:miter; stroke-dasharray:none">
   <path d="M1115.6760,744.3000L1164.6360,744.3000"/>
  </g>
  <g style="fill:#000000; fill-rule:nonzero">
   <text   style="font-family:'Helvetica','Nimbus Sans L'; font-style:normal; font-weight:normal; font-size:1224.0000" transform="matrix(0.0280,0.0000,-0.0000,-0.0280,1181.7720,694.5600)">Eigen3</text>
  </g>
  <g style="fill:none; stroke:#DCDCDC; stroke-width:  3.6720; stroke-linecap:butt; stroke-linejoin:miter; stroke-dasharray:none">
   <path d="M1115.6760,703.5600L1164.6360,703.5600"/>
  </g>
  <g style="fill:#000000; fill-rule:nonzero">
   <text   style="font-family:'Helvetica','Nimbus Sans L'; font-style:normal; font-weight:normal; font-size:1224.0000" transform="matrix(0.0280,0.0000,-0.0000,-0.0280,1181.7720,650.3200)">Blaze</text>
  </g>
  <g style="fill:none; stroke:#9400D3; stroke-width:  3.6720; stroke-linecap:butt; stroke-linejoin:miter; stroke-dasharray:none">
   <path d="M1115.6760,662.8200L1164.6360,662.8200"/>
  </g>
  <g style="fill:#000000; fill-rule:nonzero">
   <text   style="font-family:'Helvetica','Nimbus Sans L'; font-style:normal; font-weight:normal; font-size:1224.0000" transform="matrix(0.0196,0.0000,-0.0000,-0.0196,636.4800,660.9600)">Blitz++</text>
   <text   style="font-family:'Helvetica','Nimbus Sans L'; font-style:normal; font-weight:normal; font-size:1224.0000" transform="matrix(0.0196,0.0000,-0.0000,-0.0196,581.4000,459.0000)">Eigen3</text>
   <text   style="font-family:'Helvetica','Nimbus Sans L'; font-style:normal; font-weight:normal; font-size:1224.0000" transform="matrix(0.0196,0.0000,-0.0000,-0.0196,594.8640,918.0000)">Blaze</text>
   <text   style="font-family:'Helvetica','Nimbus Sans L'; font-style:normal; font-weight:normal; font-size:1224.0000" transform="matrix(0.0196,0.0000,-0.0000,-0.0196,979.2000,993.8880)">Theoretical Peak Performance</text>
  </g>
 </g>
</svg>
