<?xml version="1.0" encoding="ISO-8859-1"?>
<!DOCTYPE svg PUBLIC "-//W3C//DTD SVG 1.0//EN" "http://www.w3.org/TR/2001/REC-SVG-20010904/DTD/svg10.dtd">
<!-- generated by Grace-5.1.23 -->
<svg xml:space="preserve" width="22.0000in" height="17.0000in" viewBox="0.0000 0.0000 1584.0000 1224.0000">
 <g transform="translate(0,1224.0000) scale(1,-1)">
  <g style="fill:#FFFFFF; fill-rule:nonzero">
   <path  d="M0.0000,0.0000L0.0000,1224.0000L1584.0000,1224.0000L1584.0000,0.0000z"/>
  </g>
  <g style="fill:none; stroke:#FF0000; stroke-width:  3.6720; stroke-linecap:butt; stroke-linejoin:miter; stroke-dasharray:none">
   <path d="M183.6000,186.6155L284.9267,200.3994L344.1990,222.7972L386.2534,252.1972L418.8733,271.8054L445.5257,303.9418L468.0600,338.7090L487.5801,375.5925L504.7980,397.1292L520.2000,426.2118
            L534.1328,460.4114L546.8524,488.0268L558.5533,480.7768L569.3867,510.2450L579.4723,539.2091L588.9068,568.0711L597.7691,465.1166L606.1247,484.9316L614.0285,502.7269L621.5267,522.4233
            L635.4595,518.3382L648.1791,557.4076L659.8800,545.1839L670.7134,575.1469L680.7990,628.3435L694.7318,558.2536L707.4514,590.3015L719.1523,584.5503L729.9857,593.7216L743.2843,617.5728
            L755.4733,576.2964L769.4061,580.1592L782.1257,574.0509L796.0585,453.8893L808.7781,418.6684L822.3413,413.7247L834.7522,406.3137L847.7548,410.1436L861.1210,414.3926L874.6662,411.4627
            L888.2457,419.2803L901.7492,426.1426L915.0945,416.3690L928.2223,422.1867L941.9103,462.1646L955.1734,511.8008L968.6988,540.1605L982.3222,627.1082L995.9167,663.8328L1009.3870,746.5069
            L1023.1324,842.0544L1036.9800,479.8522L1050.7965,831.4872L1064.4823,601.8041L1078.2866,557.9288L1092.0733,629.9035L1106.0061,801.6634L1119.9389,604.1174L1133.7618,727.2753L1147.5946,765.3565
            L1161.5092,727.4966L1175.3758,770.5151L1189.2485,772.2823L1203.1539,841.6688L1216.9747,987.4355L1230.8510,867.6620L1244.7632,854.7100L1258.6866,878.6540L1272.5939,964.5946L1286.4570,864.1598
            L1300.3898,667.6742L1314.2651,537.7922L1328.1630,480.5208L1342.0746,461.7344L1355.9833,454.8640L1369.9117,454.0432L1383.8246,457.1209L1397.7249,460.2893L1411.6380,458.3533L1425.5708,462.0322
            L1439.4900,463.8925L1453.4129,465.4126L1467.3412,467.0516L1481.2658,468.4874L1495.1893,468.1026L1509.1204,467.4964L1523.0393,473.0035L1530.0000,474.1841"/>
  </g>
  <g style="fill:none; stroke:#FFA500; stroke-width:  3.6720; stroke-linecap:butt; stroke-linejoin:miter; stroke-dasharray:none">
   <path d="M183.6000,186.6155L284.9267,200.3994L344.1990,222.7972L386.2534,252.1972L418.8733,271.8054L445.5257,303.9418L468.0600,338.7090L487.5801,375.5925L504.7980,397.1292L520.2000,426.2118
            L534.1328,460.4114L546.8524,488.0268L558.5533,480.7768L569.3867,510.2450L579.4723,539.2091L588.9068,568.0711L597.7691,465.1166L606.1247,484.9316L614.0285,502.7269L621.5267,522.4233
            L635.4595,518.3382L648.1791,557.4076L659.8800,545.1839L670.7134,575.1469L680.7990,628.3435L694.7318,558.2536L707.4514,590.3015L719.1523,584.5503L729.9857,593.7216L743.2843,617.5728
            L755.4733,576.2964L769.4061,580.1592L782.1257,574.0509L796.0585,453.8893L808.7781,418.6684L822.3413,413.7247L834.7522,406.3137L847.7548,410.1436L861.1210,414.3926L874.6662,411.4627
            L888.2457,419.2803L901.7492,426.1426L915.0945,416.3690L928.2223,423.7764L941.9103,472.6643L955.1734,507.7953L968.6988,570.1739L982.3222,645.9828L995.9167,651.4235L1009.3870,412.1889
            L1023.1324,478.8604L1036.9800,541.6210L1050.7965,505.8864L1064.4823,529.5426L1078.2866,600.8330L1092.0733,561.2489L1106.0061,541.9994L1119.9389,630.6068L1133.7618,655.4291L1147.5946,700.6681
            L1161.5092,857.7945L1175.3758,666.1390L1189.2485,783.0566L1203.1539,851.2328L1216.9747,805.2013L1230.8510,842.7398L1244.7632,871.3998L1258.6866,905.0827L1272.5939,876.9118L1286.4570,827.4995
            L1300.3898,675.4889L1314.2651,572.3873L1328.1630,514.2984L1342.0746,488.2427L1355.9833,473.4604L1369.9117,478.3549L1383.8246,480.5819L1397.7249,480.1553L1411.6380,478.2514L1425.5708,482.6528
            L1439.4900,483.0284L1453.4129,486.6851L1467.3412,488.3252L1481.2658,486.7483L1495.1893,490.1730L1509.1204,491.5246L1523.0393,497.5222L1530.0000,498.4304"/>
  </g>
  <g style="fill:none; stroke:#00FF00; stroke-width:  3.6720; stroke-linecap:butt; stroke-linejoin:miter; stroke-dasharray:none">
   <path d="M183.6000,186.6155L284.9267,200.3994L344.1990,222.7972L386.2534,252.1972L418.8733,271.8054L445.5257,303.9418L468.0600,338.7090L487.5801,375.5925L504.7980,397.1292L520.2000,426.2118
            L534.1328,460.4114L546.8524,488.0268L558.5533,480.7768L569.3867,510.2450L579.4723,539.2091L588.9068,568.0711L597.7691,465.1166L606.1247,484.9316L614.0285,502.7269L621.5267,522.4233
            L635.4595,518.3382L648.1791,557.4076L659.8800,545.1839L670.7134,575.1469L680.7990,628.3435L694.7318,558.2536L707.4514,590.3015L719.1523,584.5503L729.9857,593.7216L743.2843,617.5728
            L755.4733,576.2964L769.4061,580.1592L782.1257,574.0509L796.0585,453.8893L808.7781,418.6684L822.3413,413.7247L834.7522,406.3137L847.7548,410.1436L861.1210,414.3926L874.6662,411.4627
            L888.2457,419.2803L901.7492,426.1426L915.0945,416.3690L928.2223,446.0910L941.9103,474.5464L955.1734,403.8387L968.6988,388.1667L982.3222,465.5500L995.9167,398.1231L1009.3870,489.2927
            L1023.1324,407.9370L1036.9800,415.7949L1050.7965,485.7519L1064.4823,443.3139L1078.2866,509.7334L1092.0733,474.3636L1106.0061,598.5340L1119.9389,491.4200L1133.7618,518.3311L1147.5946,524.7885
            L1161.5092,655.3826L1175.3758,581.2337L1189.2485,641.3276L1203.1539,655.4826L1216.9747,712.4812L1230.8510,652.6409L1244.7632,772.0574L1258.6866,666.9030L1272.5939,715.7299L1286.4570,684.4781
            L1300.3898,614.9381L1314.2651,507.2044L1328.1630,449.3879L1342.0746,433.1187L1355.9833,423.5625L1369.9117,422.2127L1383.8246,415.8742L1397.7249,416.5075L1411.6380,412.5862L1425.5708,416.6521
            L1439.4900,419.7969L1453.4129,417.7056L1467.3412,417.7252L1481.2658,415.9838L1495.1893,419.5213L1509.1204,425.2112L1523.0393,423.6846L1530.0000,426.6338"/>
  </g>
  <g style="fill:none; stroke:#0000FF; stroke-width:  3.6720; stroke-linecap:butt; stroke-linejoin:miter; stroke-dasharray:none">
   <path d="M183.6000,186.6155L284.9267,200.3994L344.1990,222.7972L386.2534,252.1972L418.8733,271.8054L445.5257,303.9418L468.0600,338.7090L487.5801,375.5925L504.7980,397.1292L520.2000,426.2118
            L534.1328,460.4114L546.8524,488.0268L558.5533,480.7768L569.3867,510.2450L579.4723,539.2091L588.9068,568.0711L597.7691,465.1166L606.1247,484.9316L614.0285,502.7269L621.5267,522.4233
            L635.4595,518.3382L648.1791,557.4076L659.8800,545.1839L670.7134,575.1469L680.7990,628.3435L694.7318,558.2536L707.4514,590.3015L719.1523,584.5503L729.9857,593.7216L743.2843,617.5728
            L755.4733,576.2964L769.4061,580.1592L782.1257,574.0509L796.0585,453.8893L808.7781,418.6684L822.3413,413.7247L834.7522,406.3137L847.7548,410.1436L861.1210,414.3926L874.6662,411.4627
            L888.2457,419.2803L901.7492,426.1426L915.0945,416.3690L928.2223,323.2084L941.9103,328.3671L955.1734,324.9570L968.6988,339.3737L982.3222,357.7724L995.9167,345.2853L1009.3870,338.9046
            L1023.1324,423.3066L1036.9800,421.3027L1050.7965,386.9333L1064.4823,376.8580L1078.2866,402.5131L1092.0733,480.1438L1106.0061,420.4959L1119.9389,415.5193L1133.7618,412.3117L1147.5946,434.8427
            L1161.5092,422.7379L1175.3758,443.3764L1189.2485,434.6028L1203.1539,460.4553L1216.9747,471.1724L1230.8510,488.0203L1244.7632,474.0116L1258.6866,475.5932L1272.5939,470.6990L1286.4570,445.7937
            L1300.3898,408.4971L1314.2651,372.7625L1328.1630,352.8337L1342.0746,344.7077L1355.9833,332.3640L1369.9117,327.2911L1383.8246,323.4776L1397.7249,325.9523L1411.6380,321.5234L1425.5708,324.7781
            L1439.4900,326.9673L1453.4129,323.0949L1467.3412,322.8468L1481.2658,314.5637L1495.1893,313.4548L1509.1204,319.7862L1523.0393,320.8412L1530.0000,323.3430"/>
  </g>
  <g style="fill:none; stroke:#9400D3; stroke-width:  3.6720; stroke-linecap:butt; stroke-linejoin:miter; stroke-dasharray:none">
   <path d="M183.6000,186.6155L284.9267,200.3994L344.1990,222.7972L386.2534,252.1972L418.8733,271.8054L445.5257,303.9418L468.0600,338.7090L487.5801,375.5925L504.7980,397.1292L520.2000,426.2118
            L534.1328,460.4114L546.8524,488.0268L558.5533,480.7768L569.3867,510.2450L579.4723,539.2091L588.9068,568.0711L597.7691,465.1166L606.1247,484.9316L614.0285,502.7269L621.5267,522.4233
            L635.4595,518.3382L648.1791,557.4076L659.8800,545.1839L670.7134,575.1469L680.7990,628.3435L694.7318,558.2536L707.4514,590.3015L719.1523,584.5503L729.9857,593.7216L743.2843,617.5728
            L755.4733,576.2964L769.4061,580.1592L782.1257,574.0509L796.0585,453.8893L808.7781,418.6684L822.3413,413.7247L834.7522,406.3137L847.7548,410.1436L861.1210,414.3926L874.6662,411.4627
            L888.2457,419.2803L901.7492,426.1426L915.0945,416.3690L928.2223,397.3916L941.9103,395.7815L955.1734,372.9460L968.6988,362.2535L982.3222,359.3058L995.9167,356.9703L1009.3870,357.3141
            L1023.1324,360.8448L1036.9800,358.8592L1050.7965,357.6132L1064.4823,359.8841L1078.2866,361.3539L1092.0733,360.6627L1106.0061,360.6806L1119.9389,362.1646L1133.7618,359.1880L1147.5946,358.2612
            L1161.5092,355.3181L1175.3758,350.6717L1189.2485,351.2097L1203.1539,350.0994L1216.9747,347.3741L1230.8510,345.5216L1244.7632,347.2120L1258.6866,345.7869L1272.5939,335.6866L1286.4570,315.1791
            L1300.3898,297.3666L1314.2651,288.6719L1328.1630,284.4075L1342.0746,284.4461L1355.9833,284.2847L1369.9117,285.4810L1383.8246,284.0752L1397.7249,283.8781L1411.6380,282.8749L1425.5708,283.3626
            L1439.4900,282.7243L1453.4129,280.4038L1467.3412,278.3542L1481.2658,273.6200L1495.1893,269.4499L1509.1204,269.6092L1523.0393,266.4497L1530.0000,266.5132"/>
  </g>
  <g style="fill:none; stroke:#000000; stroke-width:  3.6720; stroke-linecap:butt; stroke-linejoin:miter; stroke-dasharray: 18 11">
   <path d="M915.0945,183.6000L915.0945,1040.5224"/>
  </g>
  <g style="fill:none; stroke:#000000; stroke-width:  1.8360; stroke-linecap:butt; stroke-linejoin:miter; stroke-dasharray:none">
   <path d="M183.6000,183.6000L1530.0000,183.6000"/>
  </g>
  <g style="fill:none; stroke:#000000; stroke-width:  3.6720; stroke-linecap:butt; stroke-linejoin:miter; stroke-dasharray:none">
   <path d="M284.9267,183.6000L284.9267,189.7200"/>
   <path d="M344.1990,183.6000L344.1990,189.7200"/>
   <path d="M386.2534,183.6000L386.2534,189.7200"/>
   <path d="M418.8733,183.6000L418.8733,189.7200"/>
   <path d="M445.5257,183.6000L445.5257,189.7200"/>
   <path d="M468.0600,183.6000L468.0600,189.7200"/>
   <path d="M487.5801,183.6000L487.5801,189.7200"/>
   <path d="M504.7980,183.6000L504.7980,189.7200"/>
   <path d="M520.2000,183.6000L520.2000,189.7200"/>
   <path d="M621.5267,183.6000L621.5267,189.7200"/>
   <path d="M680.7990,183.6000L680.7990,189.7200"/>
   <path d="M722.8534,183.6000L722.8534,189.7200"/>
   <path d="M755.4733,183.6000L755.4733,189.7200"/>
   <path d="M782.1257,183.6000L782.1257,189.7200"/>
   <path d="M804.6600,183.6000L804.6600,189.7200"/>
   <path d="M824.1801,183.6000L824.1801,189.7200"/>
   <path d="M841.3980,183.6000L841.3980,189.7200"/>
   <path d="M856.8000,183.6000L856.8000,189.7200"/>
   <path d="M958.1267,183.6000L958.1267,189.7200"/>
   <path d="M1017.3990,183.6000L1017.3990,189.7200"/>
   <path d="M1059.4534,183.6000L1059.4534,189.7200"/>
   <path d="M1092.0733,183.6000L1092.0733,189.7200"/>
   <path d="M1118.7257,183.6000L1118.7257,189.7200"/>
   <path d="M1141.2600,183.6000L1141.2600,189.7200"/>
   <path d="M1160.7801,183.6000L1160.7801,189.7200"/>
   <path d="M1177.9980,183.6000L1177.9980,189.7200"/>
   <path d="M1193.4000,183.6000L1193.4000,189.7200"/>
   <path d="M1294.7267,183.6000L1294.7267,189.7200"/>
   <path d="M1353.9990,183.6000L1353.9990,189.7200"/>
   <path d="M1396.0534,183.6000L1396.0534,189.7200"/>
   <path d="M1428.6733,183.6000L1428.6733,189.7200"/>
   <path d="M1455.3257,183.6000L1455.3257,189.7200"/>
   <path d="M1477.8600,183.6000L1477.8600,189.7200"/>
   <path d="M1497.3801,183.6000L1497.3801,189.7200"/>
   <path d="M1514.5980,183.6000L1514.5980,189.7200"/>
   <path d="M1530.0000,183.6000L1530.0000,189.7200"/>
   <path d="M183.6000,183.6000L183.6000,195.8400"/>
   <path d="M520.2000,183.6000L520.2000,195.8400"/>
   <path d="M856.8000,183.6000L856.8000,195.8400"/>
   <path d="M1193.4000,183.6000L1193.4000,195.8400"/>
   <path d="M1530.0000,183.6000L1530.0000,195.8400"/>
  </g>
  <g style="fill:#000000; fill-rule:nonzero">
   <text   style="font-family:'Helvetica','Nimbus Sans L'; font-style:normal; font-weight:normal; font-size:1224.0000" transform="matrix(0.0280,0.0000,-0.0000,-0.0280,177.6000,147.3600)">1</text>
   <text   style="font-family:'Helvetica','Nimbus Sans L'; font-style:normal; font-weight:normal; font-size:1224.0000" transform="matrix(0.0280,0.0000,-0.0000,-0.0280,502.2000,147.3600)">10</text>
   <text   style="font-family:'Helvetica','Nimbus Sans L'; font-style:normal; font-weight:normal; font-size:1224.0000" transform="matrix(0.0280,0.0000,-0.0000,-0.0280,829.3000,147.3600)">100</text>
   <text   style="font-family:'Helvetica','Nimbus Sans L'; font-style:normal; font-weight:normal; font-size:1224.0000" transform="matrix(0.0280,0.0000,-0.0000,-0.0280,1156.4000,147.3600)">1000</text>
   <text   style="font-family:'Helvetica','Nimbus Sans L'; font-style:normal; font-weight:normal; font-size:1224.0000" transform="matrix(0.0280,0.0000,-0.0000,-0.0280,1483.5000,147.3600)">10000</text>
   <text   style="font-family:'Helvetica','Nimbus Sans L'; font-style:normal; font-weight:normal; font-size:1224.0000" transform="matrix(0.0336,0.0000,-0.0000,-0.0336,703.0400,70.6800)">Matrix/Vector Size</text>
  </g>
  <g style="fill:none; stroke:#000000; stroke-width:  1.8360; stroke-linecap:butt; stroke-linejoin:miter; stroke-dasharray:none">
   <path d="M183.6000,183.6000L183.6000,1040.4000"/>
   <path d="M1530.0000,183.6000L1530.0000,1040.4000"/>
  </g>
  <g style="fill:none; stroke:#000000; stroke-width:  3.6720; stroke-linecap:butt; stroke-linejoin:miter; stroke-dasharray:none">
   <path d="M183.6000,183.6000L195.8400,183.6000"/>
   <path d="M1530.0000,183.6000L1517.7600,183.6000"/>
   <path d="M183.6000,255.0000L195.8400,255.0000"/>
   <path d="M1530.0000,255.0000L1517.7600,255.0000"/>
   <path d="M183.6000,326.4000L195.8400,326.4000"/>
   <path d="M1530.0000,326.4000L1517.7600,326.4000"/>
   <path d="M183.6000,397.8000L195.8400,397.8000"/>
   <path d="M1530.0000,397.8000L1517.7600,397.8000"/>
   <path d="M183.6000,469.2000L195.8400,469.2000"/>
   <path d="M1530.0000,469.2000L1517.7600,469.2000"/>
   <path d="M183.6000,540.6000L195.8400,540.6000"/>
   <path d="M1530.0000,540.6000L1517.7600,540.6000"/>
   <path d="M183.6000,612.0000L195.8400,612.0000"/>
   <path d="M1530.0000,612.0000L1517.7600,612.0000"/>
   <path d="M183.6000,683.4000L195.8400,683.4000"/>
   <path d="M1530.0000,683.4000L1517.7600,683.4000"/>
   <path d="M183.6000,754.8000L195.8400,754.8000"/>
   <path d="M1530.0000,754.8000L1517.7600,754.8000"/>
   <path d="M183.6000,826.2000L195.8400,826.2000"/>
   <path d="M1530.0000,826.2000L1517.7600,826.2000"/>
   <path d="M183.6000,897.6000L195.8400,897.6000"/>
   <path d="M1530.0000,897.6000L1517.7600,897.6000"/>
   <path d="M183.6000,969.0000L195.8400,969.0000"/>
   <path d="M1530.0000,969.0000L1517.7600,969.0000"/>
   <path d="M183.6000,1040.4000L195.8400,1040.4000"/>
   <path d="M1530.0000,1040.4000L1517.7600,1040.4000"/>
  </g>
  <g style="fill:#000000; fill-rule:nonzero">
   <text   style="font-family:'Helvetica','Nimbus Sans L'; font-style:normal; font-weight:normal; font-size:1224.0000" transform="matrix(0.0280,0.0000,-0.0000,-0.0280,154.3600,171.6000)">0</text>
   <text   style="font-family:'Helvetica','Nimbus Sans L'; font-style:normal; font-weight:normal; font-size:1224.0000" transform="matrix(0.0280,0.0000,-0.0000,-0.0280,97.3600,243.0000)">2000</text>
   <text   style="font-family:'Helvetica','Nimbus Sans L'; font-style:normal; font-weight:normal; font-size:1224.0000" transform="matrix(0.0280,0.0000,-0.0000,-0.0280,97.3600,314.4000)">4000</text>
   <text   style="font-family:'Helvetica','Nimbus Sans L'; font-style:normal; font-weight:normal; font-size:1224.0000" transform="matrix(0.0280,0.0000,-0.0000,-0.0280,97.3600,385.8000)">6000</text>
   <text   style="font-family:'Helvetica','Nimbus Sans L'; font-style:normal; font-weight:normal; font-size:1224.0000" transform="matrix(0.0280,0.0000,-0.0000,-0.0280,97.3600,457.2000)">8000</text>
   <text   style="font-family:'Helvetica','Nimbus Sans L'; font-style:normal; font-weight:normal; font-size:1224.0000" transform="matrix(0.0280,0.0000,-0.0000,-0.0280,78.3600,528.6000)">10000</text>
   <text   style="font-family:'Helvetica','Nimbus Sans L'; font-style:normal; font-weight:normal; font-size:1224.0000" transform="matrix(0.0280,0.0000,-0.0000,-0.0280,78.3600,600.0000)">12000</text>
   <text   style="font-family:'Helvetica','Nimbus Sans L'; font-style:normal; font-weight:normal; font-size:1224.0000" transform="matrix(0.0280,0.0000,-0.0000,-0.0280,78.3600,671.4000)">14000</text>
   <text   style="font-family:'Helvetica','Nimbus Sans L'; font-style:normal; font-weight:normal; font-size:1224.0000" transform="matrix(0.0280,0.0000,-0.0000,-0.0280,78.3600,742.8000)">16000</text>
   <text   style="font-family:'Helvetica','Nimbus Sans L'; font-style:normal; font-weight:normal; font-size:1224.0000" transform="matrix(0.0280,0.0000,-0.0000,-0.0280,78.3600,814.2000)">18000</text>
   <text   style="font-family:'Helvetica','Nimbus Sans L'; font-style:normal; font-weight:normal; font-size:1224.0000" transform="matrix(0.0280,0.0000,-0.0000,-0.0280,78.3600,885.6000)">20000</text>
   <text   style="font-family:'Helvetica','Nimbus Sans L'; font-style:normal; font-weight:normal; font-size:1224.0000" transform="matrix(0.0280,0.0000,-0.0000,-0.0280,78.3600,957.0000)">22000</text>
   <text   style="font-family:'Helvetica','Nimbus Sans L'; font-style:normal; font-weight:normal; font-size:1224.0000" transform="matrix(0.0280,0.0000,-0.0000,-0.0280,78.3600,1028.4000)">24000</text>
   <text   style="font-family:'Helvetica','Nimbus Sans L'; font-style:normal; font-weight:normal; font-size:1224.0000" transform="matrix(0.0000,0.0336,0.0336,-0.0000,57.1200,539.5000)">MFlop/s</text>
  </g>
  <g style="fill:none; stroke:#000000; stroke-width:  3.6720; stroke-linecap:butt; stroke-linejoin:miter; stroke-dasharray:none">
   <path d="M183.6000,183.6000L183.6000,1040.4000L1530.0000,1040.4000L1530.0000,183.6000z"/>
  </g>
  <g style="fill:#FFFFFF; fill-rule:nonzero">
   <path  d="M244.8000,918.0000L244.8000,684.5600L622.5560,684.5600L622.5560,918.0000z"/>
  </g>
  <g style="fill:none; stroke:#FFFFFF; stroke-width:  1.8360; stroke-linecap:butt; stroke-linejoin:miter; stroke-dasharray:none">
   <path d="M244.8000,918.0000L244.8000,684.5600L622.5560,684.5600L622.5560,918.0000z"/>
  </g>
  <g style="fill:#000000; fill-rule:nonzero">
   <text   style="font-family:'Helvetica','Nimbus Sans L'; font-style:normal; font-weight:normal; font-size:1224.0000" transform="matrix(0.0280,0.0000,-0.0000,-0.0280,332.3160,880.7600)">Blaze (10 threads)</text>
  </g>
  <g style="fill:none; stroke:#FF0000; stroke-width:  3.6720; stroke-linecap:butt; stroke-linejoin:miter; stroke-dasharray:none">
   <path d="M258.8760,889.7600L307.8360,889.7600"/>
  </g>
  <g style="fill:#000000; fill-rule:nonzero">
   <text   style="font-family:'Helvetica','Nimbus Sans L'; font-style:normal; font-weight:normal; font-size:1224.0000" transform="matrix(0.0280,0.0000,-0.0000,-0.0280,332.3160,836.5200)">Blaze (8 threads)</text>
  </g>
  <g style="fill:none; stroke:#FFA500; stroke-width:  3.6720; stroke-linecap:butt; stroke-linejoin:miter; stroke-dasharray:none">
   <path d="M258.8760,845.5200L307.8360,845.5200"/>
  </g>
  <g style="fill:#000000; fill-rule:nonzero">
   <text   style="font-family:'Helvetica','Nimbus Sans L'; font-style:normal; font-weight:normal; font-size:1224.0000" transform="matrix(0.0280,0.0000,-0.0000,-0.0280,332.3160,792.2800)">Blaze (4 threads)</text>
  </g>
  <g style="fill:none; stroke:#00FF00; stroke-width:  3.6720; stroke-linecap:butt; stroke-linejoin:miter; stroke-dasharray:none">
   <path d="M258.8760,801.2800L307.8360,801.2800"/>
  </g>
  <g style="fill:#000000; fill-rule:nonzero">
   <text   style="font-family:'Helvetica','Nimbus Sans L'; font-style:normal; font-weight:normal; font-size:1224.0000" transform="matrix(0.0280,0.0000,-0.0000,-0.0280,332.3160,748.0400)">Blaze (2 threads)</text>
  </g>
  <g style="fill:none; stroke:#0000FF; stroke-width:  3.6720; stroke-linecap:butt; stroke-linejoin:miter; stroke-dasharray:none">
   <path d="M258.8760,757.0400L307.8360,757.0400"/>
  </g>
  <g style="fill:#000000; fill-rule:nonzero">
   <text   style="font-family:'Helvetica','Nimbus Sans L'; font-style:normal; font-weight:normal; font-size:1224.0000" transform="matrix(0.0280,0.0000,-0.0000,-0.0280,332.3160,703.8000)">Blaze (1 thread)</text>
  </g>
  <g style="fill:none; stroke:#9400D3; stroke-width:  3.6720; stroke-linecap:butt; stroke-linejoin:miter; stroke-dasharray:none">
   <path d="M258.8760,712.8000L307.8360,712.8000"/>
  </g>
  <g style="fill:#000000; fill-rule:nonzero">
   <text   style="font-family:'Helvetica','Nimbus Sans L'; font-style:normal; font-weight:normal; font-size:1224.0000" transform="matrix(0.0196,0.0000,-0.0000,-0.0196,1077.1200,323.1360)">Blaze (1 thread)</text>
   <text   style="font-family:'Helvetica','Nimbus Sans L'; font-style:normal; font-weight:normal; font-size:1224.0000" transform="matrix(0.0196,0.0000,-0.0000,-0.0196,1108.9440,385.5600)">Blaze (2 threads)</text>
   <text   style="font-family:'Helvetica','Nimbus Sans L'; font-style:normal; font-weight:normal; font-size:1224.0000" transform="matrix(0.0196,0.0000,-0.0000,-0.0196,1110.1680,526.3200)">Blaze (4 threads)</text>
   <text   style="font-family:'Helvetica','Nimbus Sans L'; font-style:normal; font-weight:normal; font-size:1224.0000" transform="matrix(0.0196,0.0000,-0.0000,-0.0196,1006.1280,930.2400)">Blaze (10 threads)</text>
   <text   style="font-family:'Helvetica','Nimbus Sans L'; font-style:normal; font-weight:normal; font-size:1224.0000" transform="matrix(0.0000,0.0196,0.0196,-0.0000,905.7600,538.5600)">Parallelization threshold</text>
  </g>
 </g>
</svg>
