<?xml version="1.0" encoding="ISO-8859-1"?>
<!DOCTYPE svg PUBLIC "-//W3C//DTD SVG 1.0//EN" "http://www.w3.org/TR/2001/REC-SVG-20010904/DTD/svg10.dtd">
<!-- generated by Grace-5.1.23 -->
<svg xml:space="preserve" width="22.0000in" height="17.0000in" viewBox="0.0000 0.0000 1584.0000 1224.0000">
 <g transform="translate(0,1224.0000) scale(1,-1)">
  <g style="fill:#FFFFFF; fill-rule:nonzero">
   <path  d="M0.0000,0.0000L0.0000,1224.0000L1584.0000,1224.0000L1584.0000,0.0000z"/>
  </g>
  <g style="fill:none; stroke:#FF0000; stroke-width:  3.6720; stroke-linecap:butt; stroke-linejoin:miter; stroke-dasharray:none">
   <path d="M183.6000,183.8489L289.0087,186.0599L350.6688,190.8387L394.4174,198.2360L428.3514,199.5261L456.0775,207.2547L479.5196,212.7814L499.8261,219.6475L517.7377,210.2253L533.7601,214.6554
            L548.2542,218.2160L561.4862,223.4707L573.6585,227.8414L584.9283,233.0635L605.2348,241.5306L623.1464,230.5533L639.1688,237.1748L660.4228,238.5594L679.0672,234.9385L700.8290,242.3822
            L719.8628,238.3733L740.7274,250.7160L762.4891,277.9889L784.4759,314.5143L806.2377,358.6266L827.4916,407.2096L848.0733,473.6673L867.8978,453.4611L888.4153,483.0130L909.0905,532.1819
            L929.5579,552.2520L950.5668,581.7683L969.8890,645.4014L989.3289,721.7704L1010.5829,725.1500L1031.5491,749.2641L1050.9891,733.9084L1072.2430,751.0206L1093.2093,820.2310L1114.3296,817.2893
            L1135.5109,809.2972L1156.3978,880.5830L1177.6517,852.7275L1198.8099,877.6413L1220.0722,885.0003L1241.2101,878.7076L1261.8065,897.2811L1283.0604,875.0424L1304.3144,882.9297L1325.5642,887.9943
            L1346.9087,892.8305L1368.1627,903.6880L1389.4030,923.7848L1410.6307,932.6955L1431.8868,953.4253L1453.1119,953.3110L1474.3565,947.7276L1495.6036,957.1333L1516.8469,952.1115L1530.0000,967.4102"/>
  </g>
  <g style="fill:none; stroke:#FFA500; stroke-width:  3.6720; stroke-linecap:butt; stroke-linejoin:miter; stroke-dasharray:none">
   <path d="M183.6000,183.8489L289.0087,186.0599L350.6688,190.8387L394.4174,198.2360L428.3514,199.5261L456.0775,207.2547L479.5196,212.7814L499.8261,219.6475L517.7377,210.2253L533.7601,214.6554
            L548.2542,218.2160L561.4862,223.4707L573.6585,227.8414L584.9283,233.0635L605.2348,241.5306L623.1464,230.5533L639.1688,237.1748L660.4228,238.5594L679.0672,234.9385L700.8290,242.3822
            L719.8628,238.3733L740.7274,254.2398L762.4891,283.8889L784.4759,323.4536L806.2377,365.6433L827.4916,374.2946L848.0733,406.9197L867.8978,460.2407L888.4153,469.7117L909.0905,475.1000
            L929.5579,498.9728L950.5668,512.8430L969.8890,574.9620L989.3289,589.4866L1010.5829,604.1074L1031.5491,634.1635L1050.9891,638.0819L1072.2430,673.3136L1093.2093,687.0462L1114.3296,693.8387
            L1135.5109,709.7418L1156.3978,730.3812L1177.6517,736.7834L1198.8099,742.8000L1220.0722,739.8584L1241.2101,745.9083L1261.8065,747.4744L1283.0604,746.8841L1304.3144,751.0824L1325.5642,759.2506
            L1346.9087,779.3902L1368.1627,789.4052L1389.4030,787.7535L1410.6307,785.5877L1431.8868,806.0176L1453.1119,804.4516L1474.3565,804.8704L1495.6036,799.5440L1516.8469,792.6706L1530.0000,809.7685"/>
  </g>
  <g style="fill:none; stroke:#00FF00; stroke-width:  3.6720; stroke-linecap:butt; stroke-linejoin:miter; stroke-dasharray:none">
   <path d="M183.6000,183.8489L289.0087,186.0599L350.6688,190.8387L394.4174,198.2360L428.3514,199.5261L456.0775,207.2547L479.5196,212.7814L499.8261,219.6475L517.7377,210.2253L533.7601,214.6554
            L548.2542,218.2160L561.4862,223.4707L573.6585,227.8414L584.9283,233.0635L605.2348,241.5306L623.1464,230.5533L639.1688,237.1748L660.4228,238.5594L679.0672,234.9385L700.8290,242.3822
            L719.8628,238.3733L740.7274,251.5661L762.4891,277.6762L784.4759,291.7196L806.2377,319.1800L827.4916,321.8775L848.0733,343.4308L867.8978,347.0922L888.4153,349.1561L909.0905,375.3709
            L929.5579,396.2240L950.5668,410.4454L969.8890,428.8685L989.3289,435.4026L1010.5829,436.6026L1031.5491,448.3898L1050.9891,452.6547L1072.2430,447.3097L1093.2093,461.8306L1114.3296,457.2029
            L1135.5109,464.4733L1156.3978,469.7355L1177.6517,472.5877L1198.8099,478.7019L1220.0722,481.7202L1241.2101,480.4455L1261.8065,479.4126L1283.0604,484.4944L1304.3144,482.8350L1325.5642,484.1283
            L1346.9087,486.7815L1368.1627,495.7275L1389.4030,491.5829L1410.6307,491.6325L1431.8868,498.7748L1453.1119,499.2727L1474.3565,500.2542L1495.6036,499.9672L1516.8469,496.5700L1530.0000,501.3248"/>
  </g>
  <g style="fill:none; stroke:#0000FF; stroke-width:  3.6720; stroke-linecap:butt; stroke-linejoin:miter; stroke-dasharray:none">
   <path d="M183.6000,183.8489L289.0087,186.0599L350.6688,190.8387L394.4174,198.2360L428.3514,199.5261L456.0775,207.2547L479.5196,212.7814L499.8261,219.6475L517.7377,210.2253L533.7601,214.6554
            L548.2542,218.2160L561.4862,223.4707L573.6585,227.8414L584.9283,233.0635L605.2348,241.5306L623.1464,230.5533L639.1688,237.1748L660.4228,238.5594L679.0672,234.9385L700.8290,242.3822
            L719.8628,238.3733L740.7274,243.1024L762.4891,253.4601L784.4759,262.4965L806.2377,268.6207L827.4916,273.0709L848.0733,288.4776L867.8978,286.6178L888.4153,294.5228L909.0905,293.4656
            L929.5579,306.3528L950.5668,306.9502L969.8890,320.2020L989.3289,318.3865L1010.5829,316.3531L1031.5491,322.9495L1050.9891,320.3829L1072.2430,319.6360L1093.2093,326.1187L1114.3296,324.6517
            L1135.5109,327.8842L1156.3978,333.2649L1177.6517,333.9898L1198.8099,334.2654L1220.0722,335.9414L1241.2101,336.0495L1261.8065,335.7586L1283.0604,336.2575L1304.3144,336.7887L1325.5642,337.1157
            L1346.9087,338.0301L1368.1627,341.2736L1389.4030,339.6875L1410.6307,338.9378L1431.8868,342.8472L1453.1119,342.7063L1474.3565,343.1509L1495.6036,343.0100L1516.8469,341.0318L1530.0000,343.3109"/>
  </g>
  <g style="fill:none; stroke:#9400D3; stroke-width:  3.6720; stroke-linecap:butt; stroke-linejoin:miter; stroke-dasharray:none">
   <path d="M183.6000,183.8489L289.0087,186.0599L350.6688,190.8387L394.4174,198.2360L428.3514,199.5261L456.0775,207.2547L479.5196,212.7814L499.8261,219.6475L517.7377,210.2253L533.7601,214.6554
            L548.2542,218.2160L561.4862,223.4707L573.6585,227.8414L584.9283,233.0635L605.2348,241.5306L623.1464,230.5533L639.1688,237.1748L660.4228,238.5594L679.0672,234.9385L700.8290,242.3822
            L719.8628,238.3733L740.7274,240.7800L762.4891,240.9975L784.4759,240.8014L806.2377,242.2418L827.4916,241.8338L848.0733,240.4525L867.8978,242.6035L888.4153,247.3264L909.0905,249.5669
            L929.5579,245.6328L950.5668,245.5005L969.8890,249.1995L989.3289,254.3926L1010.5829,254.5473L1031.5491,254.8258L1050.9891,256.0496L1072.2430,254.9662L1093.2093,257.7399L1114.3296,255.9734
            L1135.5109,257.2615L1156.3978,259.0993L1177.6517,260.0527L1198.8099,260.8272L1220.0722,260.4345L1241.2101,260.1299L1261.8065,260.6420L1283.0604,261.2608L1304.3144,261.1994L1325.5642,261.3974
            L1346.9087,261.6112L1368.1627,263.0687L1389.4030,262.1195L1410.6307,261.9010L1431.8868,263.6299L1453.1119,263.6113L1474.3565,263.7846L1495.6036,263.6813L1516.8469,262.6141L1530.0000,263.7089"/>
  </g>
  <g style="fill:none; stroke:#000000; stroke-width:  3.6720; stroke-linecap:butt; stroke-linejoin:miter; stroke-dasharray: 18 11">
   <path d="M719.8628,183.6000L719.8628,1040.4000"/>
  </g>
  <g style="fill:none; stroke:#000000; stroke-width:  1.8360; stroke-linecap:butt; stroke-linejoin:miter; stroke-dasharray:none">
   <path d="M183.6000,183.6000L1530.0000,183.6000"/>
  </g>
  <g style="fill:none; stroke:#000000; stroke-width:  3.6720; stroke-linecap:butt; stroke-linejoin:miter; stroke-dasharray:none">
   <path d="M289.0087,183.6000L289.0087,189.7200"/>
   <path d="M350.6688,183.6000L350.6688,189.7200"/>
   <path d="M394.4174,183.6000L394.4174,189.7200"/>
   <path d="M428.3514,183.6000L428.3514,189.7200"/>
   <path d="M456.0775,183.6000L456.0775,189.7200"/>
   <path d="M479.5196,183.6000L479.5196,189.7200"/>
   <path d="M499.8261,183.6000L499.8261,189.7200"/>
   <path d="M517.7377,183.6000L517.7377,189.7200"/>
   <path d="M533.7601,183.6000L533.7601,189.7200"/>
   <path d="M639.1688,183.6000L639.1688,189.7200"/>
   <path d="M700.8290,183.6000L700.8290,189.7200"/>
   <path d="M744.5775,183.6000L744.5775,189.7200"/>
   <path d="M778.5115,183.6000L778.5115,189.7200"/>
   <path d="M806.2377,183.6000L806.2377,189.7200"/>
   <path d="M829.6798,183.6000L829.6798,189.7200"/>
   <path d="M849.9862,183.6000L849.9862,189.7200"/>
   <path d="M867.8978,183.6000L867.8978,189.7200"/>
   <path d="M883.9202,183.6000L883.9202,189.7200"/>
   <path d="M989.3289,183.6000L989.3289,189.7200"/>
   <path d="M1050.9891,183.6000L1050.9891,189.7200"/>
   <path d="M1094.7376,183.6000L1094.7376,189.7200"/>
   <path d="M1128.6717,183.6000L1128.6717,189.7200"/>
   <path d="M1156.3978,183.6000L1156.3978,189.7200"/>
   <path d="M1179.8399,183.6000L1179.8399,189.7200"/>
   <path d="M1200.1463,183.6000L1200.1463,189.7200"/>
   <path d="M1218.0579,183.6000L1218.0579,189.7200"/>
   <path d="M1234.0804,183.6000L1234.0804,189.7200"/>
   <path d="M1339.4891,183.6000L1339.4891,189.7200"/>
   <path d="M1401.1492,183.6000L1401.1492,189.7200"/>
   <path d="M1444.8978,183.6000L1444.8978,189.7200"/>
   <path d="M1478.8318,183.6000L1478.8318,189.7200"/>
   <path d="M1506.5579,183.6000L1506.5579,189.7200"/>
   <path d="M1530.0000,183.6000L1530.0000,189.7200"/>
   <path d="M183.6000,183.6000L183.6000,195.8400"/>
   <path d="M533.7601,183.6000L533.7601,195.8400"/>
   <path d="M883.9202,183.6000L883.9202,195.8400"/>
   <path d="M1234.0804,183.6000L1234.0804,195.8400"/>
  </g>
  <g style="fill:#000000; fill-rule:nonzero">
   <text   style="font-family:'Helvetica','Nimbus Sans L'; font-style:normal; font-weight:normal; font-size:1224.0000" transform="matrix(0.0280,0.0000,-0.0000,-0.0280,177.6000,147.3600)">1</text>
   <text   style="font-family:'Helvetica','Nimbus Sans L'; font-style:normal; font-weight:normal; font-size:1224.0000" transform="matrix(0.0280,0.0000,-0.0000,-0.0280,515.7601,147.3600)">10</text>
   <text   style="font-family:'Helvetica','Nimbus Sans L'; font-style:normal; font-weight:normal; font-size:1224.0000" transform="matrix(0.0280,0.0000,-0.0000,-0.0280,856.4202,147.3600)">100</text>
   <text   style="font-family:'Helvetica','Nimbus Sans L'; font-style:normal; font-weight:normal; font-size:1224.0000" transform="matrix(0.0280,0.0000,-0.0000,-0.0280,1197.0804,147.3600)">1000</text>
   <text   style="font-family:'Helvetica','Nimbus Sans L'; font-style:normal; font-weight:normal; font-size:1224.0000" transform="matrix(0.0336,0.0000,-0.0000,-0.0336,768.0400,70.6800)">Matrix Size</text>
  </g>
  <g style="fill:none; stroke:#000000; stroke-width:  1.8360; stroke-linecap:butt; stroke-linejoin:miter; stroke-dasharray:none">
   <path d="M183.6000,183.6000L183.6000,1040.4000"/>
   <path d="M1530.0000,183.6000L1530.0000,1040.4000"/>
  </g>
  <g style="fill:none; stroke:#000000; stroke-width:  3.6720; stroke-linecap:butt; stroke-linejoin:miter; stroke-dasharray:none">
   <path d="M183.6000,183.6000L195.8400,183.6000"/>
   <path d="M1530.0000,183.6000L1517.7600,183.6000"/>
   <path d="M183.6000,278.8000L195.8400,278.8000"/>
   <path d="M1530.0000,278.8000L1517.7600,278.8000"/>
   <path d="M183.6000,374.0000L195.8400,374.0000"/>
   <path d="M1530.0000,374.0000L1517.7600,374.0000"/>
   <path d="M183.6000,469.2000L195.8400,469.2000"/>
   <path d="M1530.0000,469.2000L1517.7600,469.2000"/>
   <path d="M183.6000,564.4000L195.8400,564.4000"/>
   <path d="M1530.0000,564.4000L1517.7600,564.4000"/>
   <path d="M183.6000,659.6000L195.8400,659.6000"/>
   <path d="M1530.0000,659.6000L1517.7600,659.6000"/>
   <path d="M183.6000,754.8000L195.8400,754.8000"/>
   <path d="M1530.0000,754.8000L1517.7600,754.8000"/>
   <path d="M183.6000,850.0000L195.8400,850.0000"/>
   <path d="M1530.0000,850.0000L1517.7600,850.0000"/>
   <path d="M183.6000,945.2000L195.8400,945.2000"/>
   <path d="M1530.0000,945.2000L1517.7600,945.2000"/>
   <path d="M183.6000,1040.4000L195.8400,1040.4000"/>
   <path d="M1530.0000,1040.4000L1517.7600,1040.4000"/>
  </g>
  <g style="fill:#000000; fill-rule:nonzero">
   <text   style="font-family:'Helvetica','Nimbus Sans L'; font-style:normal; font-weight:normal; font-size:1224.0000" transform="matrix(0.0280,0.0000,-0.0000,-0.0280,154.3600,171.6000)">0</text>
   <text   style="font-family:'Helvetica','Nimbus Sans L'; font-style:normal; font-weight:normal; font-size:1224.0000" transform="matrix(0.0280,0.0000,-0.0000,-0.0280,78.3600,266.8000)">20000</text>
   <text   style="font-family:'Helvetica','Nimbus Sans L'; font-style:normal; font-weight:normal; font-size:1224.0000" transform="matrix(0.0280,0.0000,-0.0000,-0.0280,78.3600,362.0000)">40000</text>
   <text   style="font-family:'Helvetica','Nimbus Sans L'; font-style:normal; font-weight:normal; font-size:1224.0000" transform="matrix(0.0280,0.0000,-0.0000,-0.0280,78.3600,457.2000)">60000</text>
   <text   style="font-family:'Helvetica','Nimbus Sans L'; font-style:normal; font-weight:normal; font-size:1224.0000" transform="matrix(0.0280,0.0000,-0.0000,-0.0280,78.3600,552.4000)">80000</text>
   <text   style="font-family:'Helvetica','Nimbus Sans L'; font-style:normal; font-weight:normal; font-size:1224.0000" transform="matrix(0.0280,0.0000,-0.0000,-0.0280,59.3600,647.6000)">100000</text>
   <text   style="font-family:'Helvetica','Nimbus Sans L'; font-style:normal; font-weight:normal; font-size:1224.0000" transform="matrix(0.0280,0.0000,-0.0000,-0.0280,59.3600,742.8000)">120000</text>
   <text   style="font-family:'Helvetica','Nimbus Sans L'; font-style:normal; font-weight:normal; font-size:1224.0000" transform="matrix(0.0280,0.0000,-0.0000,-0.0280,59.3600,838.0000)">140000</text>
   <text   style="font-family:'Helvetica','Nimbus Sans L'; font-style:normal; font-weight:normal; font-size:1224.0000" transform="matrix(0.0280,0.0000,-0.0000,-0.0280,59.3600,933.2000)">160000</text>
   <text   style="font-family:'Helvetica','Nimbus Sans L'; font-style:normal; font-weight:normal; font-size:1224.0000" transform="matrix(0.0280,0.0000,-0.0000,-0.0280,59.3600,1028.4000)">180000</text>
   <text   style="font-family:'Helvetica','Nimbus Sans L'; font-style:normal; font-weight:normal; font-size:1224.0000" transform="matrix(0.0000,0.0336,0.0336,-0.0000,38.1200,539.5000)">MFlop/s</text>
  </g>
  <g style="fill:none; stroke:#000000; stroke-width:  3.6720; stroke-linecap:butt; stroke-linejoin:miter; stroke-dasharray:none">
   <path d="M183.6000,183.6000L183.6000,1040.4000L1530.0000,1040.4000L1530.0000,183.6000z"/>
  </g>
  <g style="fill:#FFFFFF; fill-rule:nonzero">
   <path  d="M244.8000,918.0000L244.8000,684.5600L622.5560,684.5600L622.5560,918.0000z"/>
  </g>
  <g style="fill:none; stroke:#FFFFFF; stroke-width:  1.8360; stroke-linecap:butt; stroke-linejoin:miter; stroke-dasharray:none">
   <path d="M244.8000,918.0000L244.8000,684.5600L622.5560,684.5600L622.5560,918.0000z"/>
  </g>
  <g style="fill:#000000; fill-rule:nonzero">
   <text   style="font-family:'Helvetica','Nimbus Sans L'; font-style:normal; font-weight:normal; font-size:1224.0000" transform="matrix(0.0280,0.0000,-0.0000,-0.0280,332.3160,880.7600)">Blaze (10 threads)</text>
  </g>
  <g style="fill:none; stroke:#FF0000; stroke-width:  3.6720; stroke-linecap:butt; stroke-linejoin:miter; stroke-dasharray:none">
   <path d="M258.8760,889.7600L307.8360,889.7600"/>
  </g>
  <g style="fill:#000000; fill-rule:nonzero">
   <text   style="font-family:'Helvetica','Nimbus Sans L'; font-style:normal; font-weight:normal; font-size:1224.0000" transform="matrix(0.0280,0.0000,-0.0000,-0.0280,332.3160,836.5200)">Blaze (8 threads)</text>
  </g>
  <g style="fill:none; stroke:#FFA500; stroke-width:  3.6720; stroke-linecap:butt; stroke-linejoin:miter; stroke-dasharray:none">
   <path d="M258.8760,845.5200L307.8360,845.5200"/>
  </g>
  <g style="fill:#000000; fill-rule:nonzero">
   <text   style="font-family:'Helvetica','Nimbus Sans L'; font-style:normal; font-weight:normal; font-size:1224.0000" transform="matrix(0.0280,0.0000,-0.0000,-0.0280,332.3160,792.2800)">Blaze (4 threads)</text>
  </g>
  <g style="fill:none; stroke:#00FF00; stroke-width:  3.6720; stroke-linecap:butt; stroke-linejoin:miter; stroke-dasharray:none">
   <path d="M258.8760,801.2800L307.8360,801.2800"/>
  </g>
  <g style="fill:#000000; fill-rule:nonzero">
   <text   style="font-family:'Helvetica','Nimbus Sans L'; font-style:normal; font-weight:normal; font-size:1224.0000" transform="matrix(0.0280,0.0000,-0.0000,-0.0280,332.3160,748.0400)">Blaze (2 threads)</text>
  </g>
  <g style="fill:none; stroke:#0000FF; stroke-width:  3.6720; stroke-linecap:butt; stroke-linejoin:miter; stroke-dasharray:none">
   <path d="M258.8760,757.0400L307.8360,757.0400"/>
  </g>
  <g style="fill:#000000; fill-rule:nonzero">
   <text   style="font-family:'Helvetica','Nimbus Sans L'; font-style:normal; font-weight:normal; font-size:1224.0000" transform="matrix(0.0280,0.0000,-0.0000,-0.0280,332.3160,703.8000)">Blaze (1 thread)</text>
  </g>
  <g style="fill:none; stroke:#9400D3; stroke-width:  3.6720; stroke-linecap:butt; stroke-linejoin:miter; stroke-dasharray:none">
   <path d="M258.8760,712.8000L307.8360,712.8000"/>
  </g>
  <g style="fill:#000000; fill-rule:nonzero">
   <text   style="font-family:'Helvetica','Nimbus Sans L'; font-style:normal; font-weight:normal; font-size:1224.0000" transform="matrix(0.0196,0.0000,-0.0000,-0.0196,1101.6000,269.2800)">Blaze (1 thread)</text>
   <text   style="font-family:'Helvetica','Nimbus Sans L'; font-style:normal; font-weight:normal; font-size:1224.0000" transform="matrix(0.0196,0.0000,-0.0000,-0.0196,1101.6000,345.1680)">Blaze (2 threads)</text>
   <text   style="font-family:'Helvetica','Nimbus Sans L'; font-style:normal; font-weight:normal; font-size:1224.0000" transform="matrix(0.0196,0.0000,-0.0000,-0.0196,1126.0800,492.0480)">Blaze (4 threads)</text>
   <text   style="font-family:'Helvetica','Nimbus Sans L'; font-style:normal; font-weight:normal; font-size:1224.0000" transform="matrix(0.0196,0.0000,-0.0000,-0.0196,1140.7680,758.8800)">Blaze (8 threads)</text>
   <text   style="font-family:'Helvetica','Nimbus Sans L'; font-style:normal; font-weight:normal; font-size:1224.0000" transform="matrix(0.0196,0.0000,-0.0000,-0.0196,1113.8400,898.4160)">Blaze (10 threads)</text>
   <text   style="font-family:'Helvetica','Nimbus Sans L'; font-style:normal; font-weight:normal; font-size:1224.0000" transform="matrix(0.0000,0.0196,0.0196,-0.0000,714.8160,538.5600)">Parallelization threshold</text>
  </g>
 </g>
</svg>
