<?xml version="1.0" encoding="ISO-8859-1"?>
<!DOCTYPE svg PUBLIC "-//W3C//DTD SVG 1.0//EN" "http://www.w3.org/TR/2001/REC-SVG-20010904/DTD/svg10.dtd">
<!-- generated by Grace-5.1.23 -->
<svg xml:space="preserve" width="22.0000in" height="17.0000in" viewBox="0.0000 0.0000 1584.0000 1224.0000">
 <g transform="translate(0,1224.0000) scale(1,-1)">
  <g style="fill:#FFFFFF; fill-rule:nonzero">
   <path  d="M0.0000,0.0000L0.0000,1224.0000L1584.0000,1224.0000L1584.0000,0.0000z"/>
  </g>
  <g style="fill:none; stroke:#FF0000; stroke-width:  3.6720; stroke-linecap:butt; stroke-linejoin:miter; stroke-dasharray:none">
   <path d="M183.6000,183.8271L289.0087,185.9213L350.6688,190.2204L394.4174,197.2041L428.3514,198.8570L456.0775,205.7310L479.5196,211.7216L499.8261,219.8487L517.7377,210.1524L533.7601,215.2151
            L548.2542,218.2079L561.4862,223.4624L573.6585,228.4646L584.9283,233.7218L605.2348,238.5766L623.1464,229.9576L639.1688,235.8519L660.4228,236.7649L679.0672,234.9480L700.8290,242.4802
            L719.8628,238.5632L740.7274,241.1613L762.4891,242.1518L784.4759,243.5536L806.2377,333.4001L827.4916,332.5851L848.0733,367.3707L867.8978,445.0635L888.4153,424.8187L909.0905,462.4241
            L929.5579,469.9045L950.5668,497.5863L969.8890,640.0507L989.3289,711.1413L1010.5829,711.9743L1031.5491,742.4145L1050.9891,735.7267L1072.2430,750.6302L1093.2093,816.8942L1114.3296,812.0818
            L1135.5109,809.6590L1156.3978,877.5318L1177.6517,856.3308L1198.8099,878.0935L1220.0722,889.0368L1241.2101,872.1673L1261.8065,872.8813L1283.0604,880.9257L1304.3144,881.9253L1325.5642,888.6464
            L1346.9087,892.4497L1368.1627,907.8388L1389.4030,923.6610L1410.6307,931.4531L1431.8868,957.2666L1453.1119,954.3297L1474.3565,954.6343L1495.6036,943.1580L1516.8469,950.1504L1530.0000,964.3066"/>
  </g>
  <g style="fill:none; stroke:#FFA500; stroke-width:  3.6720; stroke-linecap:butt; stroke-linejoin:miter; stroke-dasharray:none">
   <path d="M183.6000,183.8271L289.0087,185.9213L350.6688,190.2204L394.4174,197.2041L428.3514,198.8570L456.0775,205.7310L479.5196,211.7216L499.8261,219.8487L517.7377,210.1524L533.7601,215.2151
            L548.2542,218.2079L561.4862,223.4624L573.6585,228.4646L584.9283,233.7218L605.2348,238.5766L623.1464,229.9576L639.1688,235.8519L660.4228,236.7649L679.0672,234.9480L700.8290,242.4802
            L719.8628,238.5632L740.7274,241.1613L762.4891,242.1518L784.4759,243.5536L806.2377,339.2572L827.4916,335.9210L848.0733,347.2507L867.8978,451.1006L888.4153,422.6800L909.0905,463.5427
            L929.5579,455.3360L950.5668,474.9458L969.8890,579.6320L989.3289,595.7765L1010.5829,611.3931L1031.5491,638.1453L1050.9891,642.5963L1072.2430,672.4187L1093.2093,688.5503L1114.3296,700.5884
            L1135.5109,709.5943L1156.3978,741.5386L1177.6517,739.3157L1198.8099,743.3665L1220.0722,735.8885L1241.2101,750.7064L1261.8065,754.2002L1283.0604,743.9853L1304.3144,752.0249L1325.5642,756.2899
            L1346.9087,779.8566L1368.1627,788.4056L1389.4030,787.4012L1410.6307,789.1862L1431.8868,808.1548L1453.1119,804.7324L1474.3565,811.0870L1495.6036,809.6495L1516.8469,804.8752L1530.0000,813.0338"/>
  </g>
  <g style="fill:none; stroke:#00FF00; stroke-width:  3.6720; stroke-linecap:butt; stroke-linejoin:miter; stroke-dasharray:none">
   <path d="M183.6000,183.8271L289.0087,185.9213L350.6688,190.2204L394.4174,197.2041L428.3514,198.8570L456.0775,205.7310L479.5196,211.7216L499.8261,219.8487L517.7377,210.1524L533.7601,215.2151
            L548.2542,218.2079L561.4862,223.4624L573.6585,228.4646L584.9283,233.7218L605.2348,238.5766L623.1464,229.9576L639.1688,235.8519L660.4228,236.7649L679.0672,234.9480L700.8290,242.4802
            L719.8628,238.5632L740.7274,241.1613L762.4891,242.1518L784.4759,243.5536L806.2377,304.7634L827.4916,303.9404L848.0733,315.5620L867.8978,346.1849L888.4153,367.5397L909.0905,375.5413
            L929.5579,401.5304L950.5668,409.8828L969.8890,431.4061L989.3289,438.1334L1010.5829,440.7899L1031.5491,450.9863L1050.9891,456.9406L1072.2430,452.8199L1093.2093,467.8082L1114.3296,461.9400
            L1135.5109,466.7753L1156.3978,473.1413L1177.6517,472.5858L1198.8099,478.7509L1220.0722,481.7402L1241.2101,477.7480L1261.8065,483.1144L1283.0604,483.6437L1304.3144,483.4100L1325.5642,485.4292
            L1346.9087,486.3493L1368.1627,494.3875L1389.4030,492.8015L1410.6307,492.6601L1431.8868,498.8082L1453.1119,499.2442L1474.3565,500.2780L1495.6036,499.8949L1516.8469,496.8061L1530.0000,501.4181"/>
  </g>
  <g style="fill:none; stroke:#0000FF; stroke-width:  3.6720; stroke-linecap:butt; stroke-linejoin:miter; stroke-dasharray:none">
   <path d="M183.6000,183.8271L289.0087,185.9213L350.6688,190.2204L394.4174,197.2041L428.3514,198.8570L456.0775,205.7310L479.5196,211.7216L499.8261,219.8487L517.7377,210.1524L533.7601,215.2151
            L548.2542,218.2079L561.4862,223.4624L573.6585,228.4646L584.9283,233.7218L605.2348,238.5766L623.1464,229.9576L639.1688,235.8519L660.4228,236.7649L679.0672,234.9480L700.8290,242.4802
            L719.8628,238.5632L740.7274,241.1613L762.4891,242.1518L784.4759,243.5536L806.2377,250.1557L827.4916,272.4364L848.0733,286.6749L867.8978,281.5665L888.4153,294.1367L909.0905,296.3411
            L929.5579,307.8712L950.5668,305.0095L969.8890,319.6665L989.3289,321.6214L1010.5829,320.5476L1031.5491,325.1376L1050.9891,323.7810L1072.2430,319.9949L1093.2093,327.8042L1114.3296,326.9022
            L1135.5109,328.9433L1156.3978,332.2781L1177.6517,334.7276L1198.8099,334.2635L1220.0722,336.6454L1241.2101,336.5269L1261.8065,336.7611L1283.0604,336.2846L1304.3144,336.8849L1325.5642,337.1190
            L1346.9087,338.2134L1368.1627,341.1360L1389.4030,339.1720L1410.6307,339.3006L1431.8868,342.8420L1453.1119,342.7525L1474.3565,343.1700L1495.6036,343.0281L1516.8469,340.9913L1530.0000,343.3461"/>
  </g>
  <g style="fill:none; stroke:#9400D3; stroke-width:  3.6720; stroke-linecap:butt; stroke-linejoin:miter; stroke-dasharray:none">
   <path d="M183.6000,183.8271L289.0087,185.9213L350.6688,190.2204L394.4174,197.2041L428.3514,198.8570L456.0775,205.7310L479.5196,211.7216L499.8261,219.8487L517.7377,210.1524L533.7601,215.2151
            L548.2542,218.2079L561.4862,223.4624L573.6585,228.4646L584.9283,233.7218L605.2348,238.5766L623.1464,229.9576L639.1688,235.8519L660.4228,236.7649L679.0672,234.9480L700.8290,242.4802
            L719.8628,238.5632L740.7274,241.1613L762.4891,242.1518L784.4759,243.5536L806.2377,242.5540L827.4916,243.3380L848.0733,247.3983L867.8978,242.7992L888.4153,247.9971L909.0905,249.7664
            L929.5579,245.9922L950.5668,245.5942L969.8890,249.4713L989.3289,254.5921L1010.5829,254.9910L1031.5491,255.2942L1050.9891,255.8677L1072.2430,254.9524L1093.2093,258.2520L1114.3296,256.9902
            L1135.5109,258.2178L1156.3978,259.5358L1177.6517,260.0404L1198.8099,260.0818L1220.0722,260.3793L1241.2101,260.2103L1261.8065,260.7682L1283.0604,261.2313L1304.3144,261.2204L1325.5642,261.3874
            L1346.9087,261.6197L1368.1627,263.0454L1389.4030,262.1186L1410.6307,261.9034L1431.8868,263.6475L1453.1119,263.5937L1474.3565,263.7779L1495.6036,263.6927L1516.8469,262.6212L1530.0000,263.7346"/>
  </g>
  <g style="fill:none; stroke:#000000; stroke-width:  3.6720; stroke-linecap:butt; stroke-linejoin:miter; stroke-dasharray: 18 11">
   <path d="M784.4759,183.6000L784.4759,1040.4000"/>
  </g>
  <g style="fill:none; stroke:#000000; stroke-width:  1.8360; stroke-linecap:butt; stroke-linejoin:miter; stroke-dasharray:none">
   <path d="M183.6000,183.6000L1530.0000,183.6000"/>
  </g>
  <g style="fill:none; stroke:#000000; stroke-width:  3.6720; stroke-linecap:butt; stroke-linejoin:miter; stroke-dasharray:none">
   <path d="M289.0087,183.6000L289.0087,189.7200"/>
   <path d="M350.6688,183.6000L350.6688,189.7200"/>
   <path d="M394.4174,183.6000L394.4174,189.7200"/>
   <path d="M428.3514,183.6000L428.3514,189.7200"/>
   <path d="M456.0775,183.6000L456.0775,189.7200"/>
   <path d="M479.5196,183.6000L479.5196,189.7200"/>
   <path d="M499.8261,183.6000L499.8261,189.7200"/>
   <path d="M517.7377,183.6000L517.7377,189.7200"/>
   <path d="M533.7601,183.6000L533.7601,189.7200"/>
   <path d="M639.1688,183.6000L639.1688,189.7200"/>
   <path d="M700.8290,183.6000L700.8290,189.7200"/>
   <path d="M744.5775,183.6000L744.5775,189.7200"/>
   <path d="M778.5115,183.6000L778.5115,189.7200"/>
   <path d="M806.2377,183.6000L806.2377,189.7200"/>
   <path d="M829.6798,183.6000L829.6798,189.7200"/>
   <path d="M849.9862,183.6000L849.9862,189.7200"/>
   <path d="M867.8978,183.6000L867.8978,189.7200"/>
   <path d="M883.9202,183.6000L883.9202,189.7200"/>
   <path d="M989.3289,183.6000L989.3289,189.7200"/>
   <path d="M1050.9891,183.6000L1050.9891,189.7200"/>
   <path d="M1094.7376,183.6000L1094.7376,189.7200"/>
   <path d="M1128.6717,183.6000L1128.6717,189.7200"/>
   <path d="M1156.3978,183.6000L1156.3978,189.7200"/>
   <path d="M1179.8399,183.6000L1179.8399,189.7200"/>
   <path d="M1200.1463,183.6000L1200.1463,189.7200"/>
   <path d="M1218.0579,183.6000L1218.0579,189.7200"/>
   <path d="M1234.0804,183.6000L1234.0804,189.7200"/>
   <path d="M1339.4891,183.6000L1339.4891,189.7200"/>
   <path d="M1401.1492,183.6000L1401.1492,189.7200"/>
   <path d="M1444.8978,183.6000L1444.8978,189.7200"/>
   <path d="M1478.8318,183.6000L1478.8318,189.7200"/>
   <path d="M1506.5579,183.6000L1506.5579,189.7200"/>
   <path d="M1530.0000,183.6000L1530.0000,189.7200"/>
   <path d="M183.6000,183.6000L183.6000,195.8400"/>
   <path d="M533.7601,183.6000L533.7601,195.8400"/>
   <path d="M883.9202,183.6000L883.9202,195.8400"/>
   <path d="M1234.0804,183.6000L1234.0804,195.8400"/>
  </g>
  <g style="fill:#000000; fill-rule:nonzero">
   <text   style="font-family:'Helvetica','Nimbus Sans L'; font-style:normal; font-weight:normal; font-size:1224.0000" transform="matrix(0.0280,0.0000,-0.0000,-0.0280,177.6000,147.3600)">1</text>
   <text   style="font-family:'Helvetica','Nimbus Sans L'; font-style:normal; font-weight:normal; font-size:1224.0000" transform="matrix(0.0280,0.0000,-0.0000,-0.0280,515.7601,147.3600)">10</text>
   <text   style="font-family:'Helvetica','Nimbus Sans L'; font-style:normal; font-weight:normal; font-size:1224.0000" transform="matrix(0.0280,0.0000,-0.0000,-0.0280,856.4202,147.3600)">100</text>
   <text   style="font-family:'Helvetica','Nimbus Sans L'; font-style:normal; font-weight:normal; font-size:1224.0000" transform="matrix(0.0280,0.0000,-0.0000,-0.0280,1197.0804,147.3600)">1000</text>
   <text   style="font-family:'Helvetica','Nimbus Sans L'; font-style:normal; font-weight:normal; font-size:1224.0000" transform="matrix(0.0336,0.0000,-0.0000,-0.0336,768.0400,70.6800)">Matrix Size</text>
  </g>
  <g style="fill:none; stroke:#000000; stroke-width:  1.8360; stroke-linecap:butt; stroke-linejoin:miter; stroke-dasharray:none">
   <path d="M183.6000,183.6000L183.6000,1040.4000"/>
   <path d="M1530.0000,183.6000L1530.0000,1040.4000"/>
  </g>
  <g style="fill:none; stroke:#000000; stroke-width:  3.6720; stroke-linecap:butt; stroke-linejoin:miter; stroke-dasharray:none">
   <path d="M183.6000,183.6000L195.8400,183.6000"/>
   <path d="M1530.0000,183.6000L1517.7600,183.6000"/>
   <path d="M183.6000,278.8000L195.8400,278.8000"/>
   <path d="M1530.0000,278.8000L1517.7600,278.8000"/>
   <path d="M183.6000,374.0000L195.8400,374.0000"/>
   <path d="M1530.0000,374.0000L1517.7600,374.0000"/>
   <path d="M183.6000,469.2000L195.8400,469.2000"/>
   <path d="M1530.0000,469.2000L1517.7600,469.2000"/>
   <path d="M183.6000,564.4000L195.8400,564.4000"/>
   <path d="M1530.0000,564.4000L1517.7600,564.4000"/>
   <path d="M183.6000,659.6000L195.8400,659.6000"/>
   <path d="M1530.0000,659.6000L1517.7600,659.6000"/>
   <path d="M183.6000,754.8000L195.8400,754.8000"/>
   <path d="M1530.0000,754.8000L1517.7600,754.8000"/>
   <path d="M183.6000,850.0000L195.8400,850.0000"/>
   <path d="M1530.0000,850.0000L1517.7600,850.0000"/>
   <path d="M183.6000,945.2000L195.8400,945.2000"/>
   <path d="M1530.0000,945.2000L1517.7600,945.2000"/>
   <path d="M183.6000,1040.4000L195.8400,1040.4000"/>
   <path d="M1530.0000,1040.4000L1517.7600,1040.4000"/>
  </g>
  <g style="fill:#000000; fill-rule:nonzero">
   <text   style="font-family:'Helvetica','Nimbus Sans L'; font-style:normal; font-weight:normal; font-size:1224.0000" transform="matrix(0.0280,0.0000,-0.0000,-0.0280,154.3600,171.6000)">0</text>
   <text   style="font-family:'Helvetica','Nimbus Sans L'; font-style:normal; font-weight:normal; font-size:1224.0000" transform="matrix(0.0280,0.0000,-0.0000,-0.0280,78.3600,266.8000)">20000</text>
   <text   style="font-family:'Helvetica','Nimbus Sans L'; font-style:normal; font-weight:normal; font-size:1224.0000" transform="matrix(0.0280,0.0000,-0.0000,-0.0280,78.3600,362.0000)">40000</text>
   <text   style="font-family:'Helvetica','Nimbus Sans L'; font-style:normal; font-weight:normal; font-size:1224.0000" transform="matrix(0.0280,0.0000,-0.0000,-0.0280,78.3600,457.2000)">60000</text>
   <text   style="font-family:'Helvetica','Nimbus Sans L'; font-style:normal; font-weight:normal; font-size:1224.0000" transform="matrix(0.0280,0.0000,-0.0000,-0.0280,78.3600,552.4000)">80000</text>
   <text   style="font-family:'Helvetica','Nimbus Sans L'; font-style:normal; font-weight:normal; font-size:1224.0000" transform="matrix(0.0280,0.0000,-0.0000,-0.0280,59.3600,647.6000)">100000</text>
   <text   style="font-family:'Helvetica','Nimbus Sans L'; font-style:normal; font-weight:normal; font-size:1224.0000" transform="matrix(0.0280,0.0000,-0.0000,-0.0280,59.3600,742.8000)">120000</text>
   <text   style="font-family:'Helvetica','Nimbus Sans L'; font-style:normal; font-weight:normal; font-size:1224.0000" transform="matrix(0.0280,0.0000,-0.0000,-0.0280,59.3600,838.0000)">140000</text>
   <text   style="font-family:'Helvetica','Nimbus Sans L'; font-style:normal; font-weight:normal; font-size:1224.0000" transform="matrix(0.0280,0.0000,-0.0000,-0.0280,59.3600,933.2000)">160000</text>
   <text   style="font-family:'Helvetica','Nimbus Sans L'; font-style:normal; font-weight:normal; font-size:1224.0000" transform="matrix(0.0280,0.0000,-0.0000,-0.0280,59.3600,1028.4000)">180000</text>
   <text   style="font-family:'Helvetica','Nimbus Sans L'; font-style:normal; font-weight:normal; font-size:1224.0000" transform="matrix(0.0000,0.0336,0.0336,-0.0000,38.1200,539.5000)">MFlop/s</text>
  </g>
  <g style="fill:none; stroke:#000000; stroke-width:  3.6720; stroke-linecap:butt; stroke-linejoin:miter; stroke-dasharray:none">
   <path d="M183.6000,183.6000L183.6000,1040.4000L1530.0000,1040.4000L1530.0000,183.6000z"/>
  </g>
  <g style="fill:#FFFFFF; fill-rule:nonzero">
   <path  d="M244.8000,918.0000L244.8000,684.5600L622.5560,684.5600L622.5560,918.0000z"/>
  </g>
  <g style="fill:none; stroke:#FFFFFF; stroke-width:  1.8360; stroke-linecap:butt; stroke-linejoin:miter; stroke-dasharray:none">
   <path d="M244.8000,918.0000L244.8000,684.5600L622.5560,684.5600L622.5560,918.0000z"/>
  </g>
  <g style="fill:#000000; fill-rule:nonzero">
   <text   style="font-family:'Helvetica','Nimbus Sans L'; font-style:normal; font-weight:normal; font-size:1224.0000" transform="matrix(0.0280,0.0000,-0.0000,-0.0280,332.3160,880.7600)">Blaze (10 threads)</text>
  </g>
  <g style="fill:none; stroke:#FF0000; stroke-width:  3.6720; stroke-linecap:butt; stroke-linejoin:miter; stroke-dasharray:none">
   <path d="M258.8760,889.7600L307.8360,889.7600"/>
  </g>
  <g style="fill:#000000; fill-rule:nonzero">
   <text   style="font-family:'Helvetica','Nimbus Sans L'; font-style:normal; font-weight:normal; font-size:1224.0000" transform="matrix(0.0280,0.0000,-0.0000,-0.0280,332.3160,836.5200)">Blaze (8 threads)</text>
  </g>
  <g style="fill:none; stroke:#FFA500; stroke-width:  3.6720; stroke-linecap:butt; stroke-linejoin:miter; stroke-dasharray:none">
   <path d="M258.8760,845.5200L307.8360,845.5200"/>
  </g>
  <g style="fill:#000000; fill-rule:nonzero">
   <text   style="font-family:'Helvetica','Nimbus Sans L'; font-style:normal; font-weight:normal; font-size:1224.0000" transform="matrix(0.0280,0.0000,-0.0000,-0.0280,332.3160,792.2800)">Blaze (4 threads)</text>
  </g>
  <g style="fill:none; stroke:#00FF00; stroke-width:  3.6720; stroke-linecap:butt; stroke-linejoin:miter; stroke-dasharray:none">
   <path d="M258.8760,801.2800L307.8360,801.2800"/>
  </g>
  <g style="fill:#000000; fill-rule:nonzero">
   <text   style="font-family:'Helvetica','Nimbus Sans L'; font-style:normal; font-weight:normal; font-size:1224.0000" transform="matrix(0.0280,0.0000,-0.0000,-0.0280,332.3160,748.0400)">Blaze (2 threads)</text>
  </g>
  <g style="fill:none; stroke:#0000FF; stroke-width:  3.6720; stroke-linecap:butt; stroke-linejoin:miter; stroke-dasharray:none">
   <path d="M258.8760,757.0400L307.8360,757.0400"/>
  </g>
  <g style="fill:#000000; fill-rule:nonzero">
   <text   style="font-family:'Helvetica','Nimbus Sans L'; font-style:normal; font-weight:normal; font-size:1224.0000" transform="matrix(0.0280,0.0000,-0.0000,-0.0280,332.3160,703.8000)">Blaze (1 thread)</text>
  </g>
  <g style="fill:none; stroke:#9400D3; stroke-width:  3.6720; stroke-linecap:butt; stroke-linejoin:miter; stroke-dasharray:none">
   <path d="M258.8760,712.8000L307.8360,712.8000"/>
  </g>
  <g style="fill:#000000; fill-rule:nonzero">
   <text   style="font-family:'Helvetica','Nimbus Sans L'; font-style:normal; font-weight:normal; font-size:1224.0000" transform="matrix(0.0196,0.0000,-0.0000,-0.0196,1101.6000,269.2800)">Blaze (1 thread)</text>
   <text   style="font-family:'Helvetica','Nimbus Sans L'; font-style:normal; font-weight:normal; font-size:1224.0000" transform="matrix(0.0196,0.0000,-0.0000,-0.0196,1101.6000,345.1680)">Blaze (2 threads)</text>
   <text   style="font-family:'Helvetica','Nimbus Sans L'; font-style:normal; font-weight:normal; font-size:1224.0000" transform="matrix(0.0196,0.0000,-0.0000,-0.0196,1126.0800,492.0480)">Blaze (4 threads)</text>
   <text   style="font-family:'Helvetica','Nimbus Sans L'; font-style:normal; font-weight:normal; font-size:1224.0000" transform="matrix(0.0196,0.0000,-0.0000,-0.0196,1140.7680,758.8800)">Blaze (8 threads)</text>
   <text   style="font-family:'Helvetica','Nimbus Sans L'; font-style:normal; font-weight:normal; font-size:1224.0000" transform="matrix(0.0196,0.0000,-0.0000,-0.0196,1113.8400,895.9680)">Blaze (10 threads)</text>
   <text   style="font-family:'Helvetica','Nimbus Sans L'; font-style:normal; font-weight:normal; font-size:1224.0000" transform="matrix(0.0000,0.0196,0.0196,-0.0000,777.2400,538.5600)">Parallelization threshold</text>
  </g>
 </g>
</svg>
