<?xml version="1.0" encoding="ISO-8859-1"?>
<!DOCTYPE svg PUBLIC "-//W3C//DTD SVG 1.0//EN" "http://www.w3.org/TR/2001/REC-SVG-20010904/DTD/svg10.dtd">
<!-- generated by Grace-5.1.23 -->
<svg xml:space="preserve" width="22.0000in" height="17.0000in" viewBox="0.0000 0.0000 1584.0000 1224.0000">
 <g transform="translate(0,1224.0000) scale(1,-1)">
  <g style="fill:#FFFFFF; fill-rule:nonzero">
   <path  d="M0.0000,0.0000L0.0000,1224.0000L1584.0000,1224.0000L1584.0000,0.0000z"/>
  </g>
  <g style="fill:none; stroke:#FF0000; stroke-width:  3.6720; stroke-linecap:butt; stroke-linejoin:miter; stroke-dasharray:none">
   <path d="M183.6000,186.5403L289.0087,197.8512L350.6688,207.9321L394.4174,214.6388L428.3514,219.0263L456.0775,223.7921L479.5196,227.8779L499.8261,230.0996L517.7377,231.5413L533.7601,230.6483
            L548.2542,232.3695L561.4862,235.1732L573.6585,236.5336L584.9283,237.6469L605.2348,239.1697L623.1464,241.0280L639.1688,242.0219L660.4228,243.4979L679.0672,244.5851L700.8290,245.7485
            L719.8628,238.1382L740.7274,239.1897L762.4891,241.3926L784.4759,243.4313L806.2377,244.6346L827.4916,245.7351L848.0733,246.8447L867.8978,247.7500L888.4153,248.4569L909.0905,248.8063
            L929.5579,249.6902L950.5668,249.5536L969.8890,247.7191L989.3289,244.4223L1010.5829,242.3398L1031.5491,243.4146L1050.9891,243.9754L1072.2430,237.9130L1093.2093,244.4223L1114.3296,237.2419
            L1135.5109,240.7219L1156.3978,240.8181L1177.6517,240.7157L1198.8099,238.5552L1220.0722,244.3524L1241.2101,244.0025L1261.8065,244.4318L1283.0604,244.5042L1304.3144,238.7175L1325.5642,207.6384
            L1346.9087,220.0535L1368.1627,202.8433L1389.4030,203.5513L1410.6307,204.4473L1431.8868,212.8568L1453.1119,206.1777L1474.3565,203.1223L1495.6036,202.6842L1516.8469,207.5248L1530.0000,207.6462"/>
  </g>
  <g style="fill:none; stroke:#00FF00; stroke-width:  3.6720; stroke-linecap:butt; stroke-linejoin:miter; stroke-dasharray:none">
   <path d="M183.6000,196.6677L289.0087,219.4129L350.6688,234.7219L394.4174,240.6929L428.3514,240.9947L456.0775,243.7674L479.5196,246.0555L499.8261,247.3502L517.7377,248.2503L533.7601,248.8767
            L548.2542,246.3506L561.4862,247.0879L573.6585,247.8695L584.9283,248.3955L605.2348,249.2109L623.1464,249.9111L639.1688,250.3066L660.4228,250.8778L679.0672,251.2377L700.8290,251.5942
            L719.8628,242.8139L740.7274,245.4510L762.4891,248.1975L784.4759,250.6646L806.2377,251.9983L827.4916,252.2501L848.0733,252.6709L867.8978,253.2574L888.4153,253.0908L909.0905,253.2797
            L929.5579,253.2612L950.5668,250.8740L969.8890,251.9836L989.3289,247.0089L1010.5829,244.8607L1031.5491,245.4486L1050.9891,246.6767L1072.2430,243.9111L1093.2093,246.9347L1114.3296,240.6486
            L1135.5109,242.6307L1156.3978,241.9414L1177.6517,243.3323L1198.8099,241.3650L1220.0722,245.3758L1241.2101,245.1520L1261.8065,245.4291L1283.0604,245.6238L1304.3144,240.8038L1325.5642,208.8857
            L1346.9087,220.7416L1368.1627,203.7606L1389.4030,204.7354L1410.6307,205.1055L1431.8868,213.9163L1453.1119,206.9472L1474.3565,204.2401L1495.6036,203.7495L1516.8469,207.6671L1530.0000,207.8338"/>
  </g>
  <g style="fill:none; stroke:#BC8F8F; stroke-width:  3.6720; stroke-linecap:butt; stroke-linejoin:miter; stroke-dasharray:none">
   <path d="M183.6000,186.1408L289.0087,197.2522L350.6688,216.4201L394.4174,258.4243L428.3514,259.9042L456.0775,270.8070L479.5196,263.5214L499.8261,327.5619L517.7377,304.1884L533.7601,303.6439
            L548.2542,290.4820L561.4862,347.7743L573.6585,321.6343L584.9283,320.4195L605.2348,358.4886L623.1464,335.3179L639.1688,367.0223L660.4228,329.1479L679.0672,348.3169L700.8290,353.4349
            L719.8628,666.6258L740.7274,632.8736L762.4891,663.0082L784.4759,725.6545L806.2377,747.5934L827.4916,747.5220L848.0733,760.0741L867.8978,818.5792L888.4153,792.5373L909.0905,825.7954
            L929.5579,785.2688L950.5668,795.0886L969.8890,839.3090L989.3289,889.2129L1010.5829,884.2101L1031.5491,891.4072L1050.9891,892.7829L1072.2430,879.8642L1093.2093,919.8720L1114.3296,903.8261
            L1135.5109,916.3401L1156.3978,942.4011L1177.6517,947.3848L1198.8099,939.5451L1220.0722,947.9418L1241.2101,942.8533L1261.8065,955.1770L1283.0604,949.4078L1304.3144,947.7656L1325.5642,950.9453
            L1346.9087,953.7204L1368.1627,954.9723L1389.4030,958.6803L1410.6307,957.0096L1431.8868,963.1309L1453.1119,967.5101L1474.3565,963.6878L1495.6036,962.1504L1516.8469,964.2352L1530.0000,963.7116"/>
  </g>
  <g style="fill:none; stroke:#828282; stroke-width:  3.6720; stroke-linecap:butt; stroke-linejoin:miter; stroke-dasharray:none">
   <path d="M183.6000,183.9597L289.0087,187.3576L350.6688,194.7071L394.4174,210.7337L428.3514,222.8310L456.0775,239.9846L479.5196,249.6940L499.8261,280.8382L517.7377,281.7974L533.7601,298.8653
            L548.2542,299.7235L561.4862,334.9651L573.6585,331.1076L584.9283,346.3563L605.2348,377.6371L623.1464,378.8861L639.1688,409.6505L660.4228,395.5214L679.0672,423.5073L700.8290,438.5594
            L719.8628,446.0088L740.7274,444.7388L762.4891,471.4729L784.4759,500.0258L806.2377,510.7972L827.4916,505.6635L848.0733,504.0722L867.8978,519.9226L888.4153,515.9113L909.0905,529.5954
            L929.5579,528.2626L950.5668,535.7905L969.8890,551.0582L989.3289,559.7495L1010.5829,558.1316L1031.5491,563.2895L1050.9891,567.7468L1072.2430,565.0407L1093.2093,572.7171L1114.3296,567.2327
            L1135.5109,567.5021L1156.3978,577.6980L1177.6517,576.7432L1198.8099,577.9122L1220.0722,582.5903L1241.2101,579.1884L1261.8065,579.3616L1283.0604,583.5133L1304.3144,581.6926L1325.5642,578.8123
            L1346.9087,585.3278L1368.1627,584.5515L1389.4030,585.7496L1410.6307,586.4445L1431.8868,586.2289L1453.1119,587.0800L1474.3565,586.1998L1495.6036,587.8916L1516.8469,587.9101L1530.0000,587.1885"/>
  </g>
  <g style="fill:none; stroke:#9400D3; stroke-width:  3.6720; stroke-linecap:butt; stroke-linejoin:miter; stroke-dasharray:none">
   <path d="M183.6000,185.8712L289.0087,206.8125L350.6688,249.8040L394.4174,319.6408L428.3514,336.1699L456.0775,404.9100L479.5196,464.8160L499.8261,546.0873L517.7377,449.1237L533.7601,499.7511
            L548.2542,529.6787L561.4862,582.2243L573.6585,632.2457L584.9283,684.8185L605.2348,733.3657L623.1464,647.1759L639.1688,706.1195L660.4228,715.2492L679.0672,697.0802L700.8290,772.4025
            L719.8628,733.2324L740.7274,759.2125L762.4891,769.1181L784.4759,783.1363L806.2377,773.1403L827.4916,780.9800L848.0733,821.5828L867.8978,775.5917L888.4153,827.5709L909.0905,845.2638
            L929.5579,807.5218L950.5668,803.5424L969.8890,842.3126L989.3289,893.5207L1010.5829,897.5096L1031.5491,900.5417L1050.9891,906.2775L1072.2430,897.1240L1093.2093,930.1203L1114.3296,917.5016
            L1135.5109,929.7776L1156.3978,942.9580L1177.6517,948.0036L1198.8099,948.4178L1220.0722,951.3928L1241.2101,949.7030L1261.8065,955.2817L1283.0604,959.9132L1304.3144,959.8037L1325.5642,961.4744
            L1346.9087,963.7973L1368.1627,978.0535L1389.4030,968.7858L1410.6307,966.6343L1431.8868,984.0749L1453.1119,983.5370L1474.3565,985.3792L1495.6036,984.5271L1516.8469,973.8124L1530.0000,984.9460"/>
  </g>
  <g style="fill:none; stroke:#FFA500; stroke-width:  3.6720; stroke-linecap:butt; stroke-linejoin:miter; stroke-dasharray:none">
   <path d="M183.6000,183.8975L289.0087,186.9074L350.6688,192.5300L394.4174,210.3874L428.3514,219.3025L456.0775,239.7452L479.5196,243.6131L499.8261,259.7191L517.7377,267.6097L533.7601,291.1013
            L548.2542,306.2771L561.4862,351.3234L573.6585,354.6734L584.9283,377.2811L605.2348,480.2303L623.1464,481.5665L639.1688,540.5838L660.4228,533.7913L679.0672,608.4543L700.8290,623.6739
            L719.8628,673.4849L740.7274,607.2086L762.4891,656.5688L784.4759,743.5997L806.2377,765.0054L827.4916,793.3750L848.0733,795.4361L867.8978,817.1322L888.4153,827.2424L909.0905,845.4114
            L929.5579,807.4837L950.5668,803.6662L969.8890,842.5173L989.3289,893.9253L1010.5829,898.5377L1031.5491,902.2696L1050.9891,907.6246L1072.2430,899.1994L1093.2093,931.9196L1114.3296,920.2290
            L1135.5109,933.9188L1156.3978,950.0552L1177.6517,952.9160L1198.8099,953.3729L1220.0722,948.4511L1241.2101,942.2678L1261.8065,945.5998L1283.0604,951.5213L1304.3144,954.5391L1325.5642,960.9556
            L1346.9087,963.4213L1368.1627,977.6680L1389.4030,968.3955L1410.6307,966.3106L1431.8868,983.6322L1453.1119,983.3371L1474.3565,985.4030L1495.6036,984.5128L1516.8469,973.8171L1530.0000,984.9412"/>
  </g>
  <g style="fill:none; stroke:#000000; stroke-width:  3.6720; stroke-linecap:butt; stroke-linejoin:miter; stroke-dasharray: 18 11">
   <path d="M183.4776,1021.3600L1530.0000,1021.3600"/>
  </g>
  <g style="fill:none; stroke:#000000; stroke-width:  1.8360; stroke-linecap:butt; stroke-linejoin:miter; stroke-dasharray:none">
   <path d="M183.6000,183.6000L1530.0000,183.6000"/>
  </g>
  <g style="fill:none; stroke:#000000; stroke-width:  3.6720; stroke-linecap:butt; stroke-linejoin:miter; stroke-dasharray:none">
   <path d="M289.0087,183.6000L289.0087,189.7200"/>
   <path d="M350.6688,183.6000L350.6688,189.7200"/>
   <path d="M394.4174,183.6000L394.4174,189.7200"/>
   <path d="M428.3514,183.6000L428.3514,189.7200"/>
   <path d="M456.0775,183.6000L456.0775,189.7200"/>
   <path d="M479.5196,183.6000L479.5196,189.7200"/>
   <path d="M499.8261,183.6000L499.8261,189.7200"/>
   <path d="M517.7377,183.6000L517.7377,189.7200"/>
   <path d="M533.7601,183.6000L533.7601,189.7200"/>
   <path d="M639.1688,183.6000L639.1688,189.7200"/>
   <path d="M700.8290,183.6000L700.8290,189.7200"/>
   <path d="M744.5775,183.6000L744.5775,189.7200"/>
   <path d="M778.5115,183.6000L778.5115,189.7200"/>
   <path d="M806.2377,183.6000L806.2377,189.7200"/>
   <path d="M829.6798,183.6000L829.6798,189.7200"/>
   <path d="M849.9862,183.6000L849.9862,189.7200"/>
   <path d="M867.8978,183.6000L867.8978,189.7200"/>
   <path d="M883.9202,183.6000L883.9202,189.7200"/>
   <path d="M989.3289,183.6000L989.3289,189.7200"/>
   <path d="M1050.9891,183.6000L1050.9891,189.7200"/>
   <path d="M1094.7376,183.6000L1094.7376,189.7200"/>
   <path d="M1128.6717,183.6000L1128.6717,189.7200"/>
   <path d="M1156.3978,183.6000L1156.3978,189.7200"/>
   <path d="M1179.8399,183.6000L1179.8399,189.7200"/>
   <path d="M1200.1463,183.6000L1200.1463,189.7200"/>
   <path d="M1218.0579,183.6000L1218.0579,189.7200"/>
   <path d="M1234.0804,183.6000L1234.0804,189.7200"/>
   <path d="M1339.4891,183.6000L1339.4891,189.7200"/>
   <path d="M1401.1492,183.6000L1401.1492,189.7200"/>
   <path d="M1444.8978,183.6000L1444.8978,189.7200"/>
   <path d="M1478.8318,183.6000L1478.8318,189.7200"/>
   <path d="M1506.5579,183.6000L1506.5579,189.7200"/>
   <path d="M1530.0000,183.6000L1530.0000,189.7200"/>
   <path d="M183.6000,183.6000L183.6000,195.8400"/>
   <path d="M533.7601,183.6000L533.7601,195.8400"/>
   <path d="M883.9202,183.6000L883.9202,195.8400"/>
   <path d="M1234.0804,183.6000L1234.0804,195.8400"/>
  </g>
  <g style="fill:#000000; fill-rule:nonzero">
   <text   style="font-family:'Helvetica','Nimbus Sans L'; font-style:normal; font-weight:normal; font-size:1224.0000" transform="matrix(0.0280,0.0000,-0.0000,-0.0280,177.6000,147.3600)">1</text>
   <text   style="font-family:'Helvetica','Nimbus Sans L'; font-style:normal; font-weight:normal; font-size:1224.0000" transform="matrix(0.0280,0.0000,-0.0000,-0.0280,515.7601,147.3600)">10</text>
   <text   style="font-family:'Helvetica','Nimbus Sans L'; font-style:normal; font-weight:normal; font-size:1224.0000" transform="matrix(0.0280,0.0000,-0.0000,-0.0280,856.4202,147.3600)">100</text>
   <text   style="font-family:'Helvetica','Nimbus Sans L'; font-style:normal; font-weight:normal; font-size:1224.0000" transform="matrix(0.0280,0.0000,-0.0000,-0.0280,1197.0804,147.3600)">1000</text>
   <text   style="font-family:'Helvetica','Nimbus Sans L'; font-style:normal; font-weight:normal; font-size:1224.0000" transform="matrix(0.0336,0.0000,-0.0000,-0.0336,768.0400,70.6800)">Matrix Size</text>
  </g>
  <g style="fill:none; stroke:#000000; stroke-width:  1.8360; stroke-linecap:butt; stroke-linejoin:miter; stroke-dasharray:none">
   <path d="M183.6000,183.6000L183.6000,1040.4000"/>
   <path d="M1530.0000,183.6000L1530.0000,1040.4000"/>
  </g>
  <g style="fill:none; stroke:#000000; stroke-width:  3.6720; stroke-linecap:butt; stroke-linejoin:miter; stroke-dasharray:none">
   <path d="M183.6000,183.6000L195.8400,183.6000"/>
   <path d="M1530.0000,183.6000L1517.7600,183.6000"/>
   <path d="M183.6000,278.8000L195.8400,278.8000"/>
   <path d="M1530.0000,278.8000L1517.7600,278.8000"/>
   <path d="M183.6000,374.0000L195.8400,374.0000"/>
   <path d="M1530.0000,374.0000L1517.7600,374.0000"/>
   <path d="M183.6000,469.2000L195.8400,469.2000"/>
   <path d="M1530.0000,469.2000L1517.7600,469.2000"/>
   <path d="M183.6000,564.4000L195.8400,564.4000"/>
   <path d="M1530.0000,564.4000L1517.7600,564.4000"/>
   <path d="M183.6000,659.6000L195.8400,659.6000"/>
   <path d="M1530.0000,659.6000L1517.7600,659.6000"/>
   <path d="M183.6000,754.8000L195.8400,754.8000"/>
   <path d="M1530.0000,754.8000L1517.7600,754.8000"/>
   <path d="M183.6000,850.0000L195.8400,850.0000"/>
   <path d="M1530.0000,850.0000L1517.7600,850.0000"/>
   <path d="M183.6000,945.2000L195.8400,945.2000"/>
   <path d="M1530.0000,945.2000L1517.7600,945.2000"/>
   <path d="M183.6000,1040.4000L195.8400,1040.4000"/>
   <path d="M1530.0000,1040.4000L1517.7600,1040.4000"/>
  </g>
  <g style="fill:#000000; fill-rule:nonzero">
   <text   style="font-family:'Helvetica','Nimbus Sans L'; font-style:normal; font-weight:normal; font-size:1224.0000" transform="matrix(0.0280,0.0000,-0.0000,-0.0280,154.3600,171.6000)">0</text>
   <text   style="font-family:'Helvetica','Nimbus Sans L'; font-style:normal; font-weight:normal; font-size:1224.0000" transform="matrix(0.0280,0.0000,-0.0000,-0.0280,97.3600,266.8000)">2000</text>
   <text   style="font-family:'Helvetica','Nimbus Sans L'; font-style:normal; font-weight:normal; font-size:1224.0000" transform="matrix(0.0280,0.0000,-0.0000,-0.0280,97.3600,362.0000)">4000</text>
   <text   style="font-family:'Helvetica','Nimbus Sans L'; font-style:normal; font-weight:normal; font-size:1224.0000" transform="matrix(0.0280,0.0000,-0.0000,-0.0280,97.3600,457.2000)">6000</text>
   <text   style="font-family:'Helvetica','Nimbus Sans L'; font-style:normal; font-weight:normal; font-size:1224.0000" transform="matrix(0.0280,0.0000,-0.0000,-0.0280,97.3600,552.4000)">8000</text>
   <text   style="font-family:'Helvetica','Nimbus Sans L'; font-style:normal; font-weight:normal; font-size:1224.0000" transform="matrix(0.0280,0.0000,-0.0000,-0.0280,78.3600,647.6000)">10000</text>
   <text   style="font-family:'Helvetica','Nimbus Sans L'; font-style:normal; font-weight:normal; font-size:1224.0000" transform="matrix(0.0280,0.0000,-0.0000,-0.0280,78.3600,742.8000)">12000</text>
   <text   style="font-family:'Helvetica','Nimbus Sans L'; font-style:normal; font-weight:normal; font-size:1224.0000" transform="matrix(0.0280,0.0000,-0.0000,-0.0280,78.3600,838.0000)">14000</text>
   <text   style="font-family:'Helvetica','Nimbus Sans L'; font-style:normal; font-weight:normal; font-size:1224.0000" transform="matrix(0.0280,0.0000,-0.0000,-0.0280,78.3600,933.2000)">16000</text>
   <text   style="font-family:'Helvetica','Nimbus Sans L'; font-style:normal; font-weight:normal; font-size:1224.0000" transform="matrix(0.0280,0.0000,-0.0000,-0.0280,78.3600,1028.4000)">18000</text>
   <text   style="font-family:'Helvetica','Nimbus Sans L'; font-style:normal; font-weight:normal; font-size:1224.0000" transform="matrix(0.0000,0.0336,0.0336,-0.0000,57.1200,539.5000)">MFlop/s</text>
  </g>
  <g style="fill:none; stroke:#000000; stroke-width:  3.6720; stroke-linecap:butt; stroke-linejoin:miter; stroke-dasharray:none">
   <path d="M183.6000,183.6000L183.6000,1040.4000L1530.0000,1040.4000L1530.0000,183.6000z"/>
  </g>
  <g style="fill:#FFFFFF; fill-rule:nonzero">
   <path  d="M244.8000,918.0000L244.8000,675.3200L488.5560,675.3200L488.5560,918.0000z"/>
  </g>
  <g style="fill:none; stroke:#FFFFFF; stroke-width:  1.8360; stroke-linecap:butt; stroke-linejoin:miter; stroke-dasharray:none">
   <path d="M244.8000,918.0000L244.8000,675.3200L488.5560,675.3200L488.5560,918.0000z"/>
  </g>
  <g style="fill:#000000; fill-rule:nonzero">
   <text   style="font-family:'Helvetica','Nimbus Sans L'; font-style:normal; font-weight:normal; font-size:1224.0000" transform="matrix(0.0280,0.0000,-0.0000,-0.0280,332.3160,880.7600)">Blitz++</text>
  </g>
  <g style="fill:none; stroke:#FF0000; stroke-width:  3.6720; stroke-linecap:butt; stroke-linejoin:miter; stroke-dasharray:none">
   <path d="M258.8760,893.2600L307.8360,893.2600"/>
  </g>
  <g style="fill:#000000; fill-rule:nonzero">
   <text   style="font-family:'Helvetica','Nimbus Sans L'; font-style:normal; font-weight:normal; font-size:1224.0000" transform="matrix(0.0280,0.0000,-0.0000,-0.0280,332.3160,843.5200)">uBLAS</text>
  </g>
  <g style="fill:none; stroke:#00FF00; stroke-width:  3.6720; stroke-linecap:butt; stroke-linejoin:miter; stroke-dasharray:none">
   <path d="M258.8760,856.0200L307.8360,856.0200"/>
  </g>
  <g style="fill:#000000; fill-rule:nonzero">
   <text   style="font-family:'Helvetica','Nimbus Sans L'; font-style:normal; font-weight:normal; font-size:1224.0000" transform="matrix(0.0280,0.0000,-0.0000,-0.0280,332.3160,806.2800)">MTL4</text>
  </g>
  <g style="fill:none; stroke:#BC8F8F; stroke-width:  3.6720; stroke-linecap:butt; stroke-linejoin:miter; stroke-dasharray:none">
   <path d="M258.8760,818.7800L307.8360,818.7800"/>
  </g>
  <g style="fill:#000000; fill-rule:nonzero">
   <text   style="font-family:'Helvetica','Nimbus Sans L'; font-style:normal; font-weight:normal; font-size:1224.0000" transform="matrix(0.0280,0.0000,-0.0000,-0.0280,332.3160,769.0400)">Eigen3</text>
  </g>
  <g style="fill:none; stroke:#828282; stroke-width:  3.6720; stroke-linecap:butt; stroke-linejoin:miter; stroke-dasharray:none">
   <path d="M258.8760,778.0400L307.8360,778.0400"/>
  </g>
  <g style="fill:#000000; fill-rule:nonzero">
   <text   style="font-family:'Helvetica','Nimbus Sans L'; font-style:normal; font-weight:normal; font-size:1224.0000" transform="matrix(0.0280,0.0000,-0.0000,-0.0280,332.3160,724.8000)">Blaze</text>
  </g>
  <g style="fill:none; stroke:#9400D3; stroke-width:  3.6720; stroke-linecap:butt; stroke-linejoin:miter; stroke-dasharray:none">
   <path d="M258.8760,737.3000L307.8360,737.3000"/>
  </g>
  <g style="fill:#000000; fill-rule:nonzero">
   <text   style="font-family:'Helvetica','Nimbus Sans L'; font-style:normal; font-weight:normal; font-size:1224.0000" transform="matrix(0.0280,0.0000,-0.0000,-0.0280,332.3160,687.5600)">Intel MKL</text>
  </g>
  <g style="fill:none; stroke:#FFA500; stroke-width:  3.6720; stroke-linecap:butt; stroke-linejoin:miter; stroke-dasharray:none">
   <path d="M258.8760,700.0600L307.8360,700.0600"/>
  </g>
  <g style="fill:#000000; fill-rule:nonzero">
   <text   style="font-family:'Helvetica','Nimbus Sans L'; font-style:normal; font-weight:normal; font-size:1224.0000" transform="matrix(0.0196,0.0000,-0.0000,-0.0196,1126.0800,204.4080)">Blitz++ &amp; uBLAS</text>
   <text   style="font-family:'Helvetica','Nimbus Sans L'; font-style:normal; font-weight:normal; font-size:1224.0000" transform="matrix(0.0196,0.0000,-0.0000,-0.0196,709.9200,361.0800)">MTL4</text>
   <text   style="font-family:'Helvetica','Nimbus Sans L'; font-style:normal; font-weight:normal; font-size:1224.0000" transform="matrix(0.0196,0.0000,-0.0000,-0.0196,973.0800,572.8320)">Eigen3</text>
   <text   style="font-family:'Helvetica','Nimbus Sans L'; font-style:normal; font-weight:normal; font-size:1224.0000" transform="matrix(0.0196,0.0000,-0.0000,-0.0196,603.4320,550.8000)">MKL</text>
   <text   style="font-family:'Helvetica','Nimbus Sans L'; font-style:normal; font-weight:normal; font-size:1224.0000" transform="matrix(0.0196,0.0000,-0.0000,-0.0196,575.2800,744.1920)">Blaze</text>
   <text   style="font-family:'Helvetica','Nimbus Sans L'; font-style:normal; font-weight:normal; font-size:1224.0000" transform="matrix(0.0196,0.0000,-0.0000,-0.0196,734.4000,997.5600)">Peak Performance</text>
  </g>
 </g>
</svg>
