<?xml version="1.0" encoding="ISO-8859-1"?>
<!DOCTYPE svg PUBLIC "-//W3C//DTD SVG 1.0//EN" "http://www.w3.org/TR/2001/REC-SVG-20010904/DTD/svg10.dtd">
<!-- generated by Grace-5.1.23 -->
<svg xml:space="preserve" width="22.0000in" height="17.0000in" viewBox="0.0000 0.0000 1584.0000 1224.0000">
 <g transform="translate(0,1224.0000) scale(1,-1)">
  <g style="fill:#FFFFFF; fill-rule:nonzero">
   <path  d="M0.0000,0.0000L0.0000,1224.0000L1584.0000,1224.0000L1584.0000,0.0000z"/>
  </g>
  <g style="fill:none; stroke:#00FF00; stroke-width:  3.6720; stroke-linecap:butt; stroke-linejoin:miter; stroke-dasharray:none">
   <path d="M183.6000,200.0498L284.9267,232.9425L344.1990,249.3867L386.2534,255.4645L418.8733,259.5113L445.5257,261.8366L468.0600,263.4232L487.5801,264.5706L504.7980,265.3381L520.2000,266.1062
            L534.1328,262.5412L546.8524,263.5796L558.5533,264.5233L569.3867,265.2626L579.4723,265.7725L588.9068,266.2075L597.7691,266.3213L606.1247,267.0439L614.0285,267.1728L621.5267,267.6503
            L635.4595,268.0385L648.1791,268.4502L659.8800,268.7414L670.7134,268.9493L680.7990,269.1536L694.7318,257.4196L707.4514,264.9115L719.1523,261.3064L729.9857,262.9660L743.2843,264.8396
            L755.4733,266.4951L769.4061,268.3914L782.1257,269.2159L796.0585,269.7503L808.7781,270.9187L822.3413,270.7845L834.7522,271.3171L847.7548,271.6952L861.1210,271.1026L874.6662,271.4807
            L888.2457,272.4430L901.7492,272.7803L915.0945,269.8420L928.2223,270.1362L941.9103,267.9720L955.1734,266.0361L968.6988,260.0074L982.3222,264.6629L995.9167,258.7887L1009.3870,264.3088
            L1023.1324,261.7713L1036.9800,257.4214L1050.7965,257.5970L1064.4823,260.5101L1078.2866,257.2842L1092.0733,255.2429L1106.0061,253.1092L1119.9389,254.0182L1133.7618,251.9229L1147.5946,251.8001
            L1161.5092,220.0141L1175.3758,257.6263L1189.2485,246.4891L1203.1539,253.7060L1216.9747,255.3016L1230.8510,231.8912L1244.7632,253.5508L1258.6866,252.9804L1272.5939,223.9224L1286.4570,224.0874
            L1300.3898,209.2008L1314.2651,221.9082L1328.1630,222.1311L1342.0746,209.3570L1355.9833,210.9573L1369.9117,209.6606L1383.8246,211.9278L1397.7249,212.1081L1411.6380,211.8950L1425.5708,209.6596
            L1439.4900,214.0546L1453.4129,213.2166L1467.3412,213.0828L1481.2658,210.1001L1495.1893,208.8544L1509.1204,208.1086L1523.0393,209.0141L1530.0000,214.5261"/>
  </g>
  <g style="fill:none; stroke:#0000FF; stroke-width:  3.6720; stroke-linecap:butt; stroke-linejoin:miter; stroke-dasharray:none">
   <path d="M183.6000,187.4704L284.9267,200.2141L344.1990,213.3051L386.2534,223.9879L418.8733,232.1377L445.5257,258.4370L468.0600,269.1811L487.5801,289.3129L504.7980,297.8072L520.2000,301.7413
            L534.1328,303.9433L546.8524,324.9067L558.5533,330.5436L569.3867,326.3489L579.4723,323.5280L588.9068,346.5238L597.7691,337.6305L606.1247,342.8911L614.0285,335.9678L621.5267,355.9121
            L635.4595,353.8084L648.1791,368.9139L659.8800,368.0241L670.7134,379.1949L680.7990,376.5939L694.7318,374.3608L707.4514,391.3890L719.1523,378.8054L729.9857,393.2554L743.2843,397.3416
            L755.4733,399.9809L769.4061,391.9282L782.1257,410.8341L796.0585,399.6658L808.7781,400.5478L822.3413,382.0906L834.7522,398.0265L847.7548,399.0642L861.1210,388.6772L874.6662,392.0936
            L888.2457,407.1871L901.7492,388.4633L915.0945,379.3500L928.2223,380.1439L941.9103,379.7095L955.1734,388.1996L968.6988,373.8024L982.3222,390.4375L995.9167,383.7359L1009.3870,392.3111
            L1023.1324,393.3027L1036.9800,386.3602L1050.7965,386.9845L1064.4823,395.1487L1078.2866,388.6676L1092.0733,397.4447L1106.0061,397.9246L1119.9389,389.9714L1133.7618,390.4243L1147.5946,390.7197
            L1161.5092,399.3788L1175.3758,399.6304L1189.2485,399.6580L1203.1539,391.9935L1216.9747,392.3524L1230.8510,400.4441L1244.7632,392.5693L1258.6866,387.4962L1272.5939,360.5298L1286.4570,347.1314
            L1300.3898,332.5328L1314.2651,325.5142L1328.1630,319.8570L1342.0746,315.8839L1355.9833,317.1176L1369.9117,316.6670L1383.8246,317.0295L1397.7249,319.4405L1411.6380,318.7731L1425.5708,316.9588
            L1439.4900,318.9151L1453.4129,319.2069L1467.3412,319.1853L1481.2658,317.4939L1495.1893,316.8276L1509.1204,317.6359L1523.0393,317.3639L1530.0000,319.1775"/>
  </g>
  <g style="fill:none; stroke:#670748; stroke-width:  3.6720; stroke-linecap:butt; stroke-linejoin:miter; stroke-dasharray:none">
   <path d="M183.6000,187.4701L284.9267,208.2721L344.1990,238.3953L386.2534,283.1739L418.8733,243.2665L445.5257,252.4939L468.0600,261.7198L487.5801,266.7036L504.7980,272.9235L520.2000,276.1931
            L534.1328,281.0008L546.8524,299.0733L558.5533,288.7354L569.3867,306.1164L579.4723,312.0313L588.9068,339.2590L597.7691,331.1452L606.1247,350.7359L614.0285,352.8815L621.5267,384.6209
            L635.4595,393.1901L648.1791,425.3716L659.8800,425.8216L670.7134,457.2284L680.7990,457.4303L694.7318,449.7317L707.4514,505.3626L719.1523,470.1864L729.9857,529.5279L743.2843,540.3529
            L755.4733,559.0180L769.4061,514.5231L782.1257,589.9467L796.0585,552.8065L808.7781,555.5968L822.3413,518.3182L834.7522,569.6034L847.7548,565.1384L861.1210,536.2775L874.6662,535.1121
            L888.2457,594.5878L901.7492,601.5063L915.0945,543.5507L928.2223,507.1924L941.9103,486.7029L955.1734,512.5321L968.6988,481.9971L982.3222,485.8377L995.9167,463.5819L1009.3870,482.6669
            L1023.1324,483.3440L1036.9800,463.4746L1050.7965,466.1115L1064.4823,481.8952L1078.2866,466.9288L1092.0733,487.6831L1106.0061,480.5573L1119.9389,465.2823L1133.7618,464.9707L1147.5946,463.6166
            L1161.5092,475.1858L1175.3758,468.2673L1189.2485,468.7712L1203.1539,449.2655L1216.9747,447.6046L1230.8510,454.9030L1244.7632,447.3692L1258.6866,439.4818L1272.5939,430.0145L1286.4570,402.3171
            L1300.3898,374.3482L1314.2651,359.4765L1328.1630,353.1326L1342.0746,353.3818L1355.9833,353.6694L1369.9117,355.8102L1383.8246,350.8126L1397.7249,349.2344L1411.6380,348.2602L1425.5708,350.2776
            L1439.4900,345.9438L1453.4129,345.5058L1467.3412,337.4351L1481.2658,330.9684L1495.1893,325.2674L1509.1204,325.3573L1523.0393,322.0763L1530.0000,320.9882"/>
  </g>
  <g style="fill:none; stroke:#BC8F8F; stroke-width:  3.6720; stroke-linecap:butt; stroke-linejoin:miter; stroke-dasharray:none">
   <path d="M183.6000,188.2998L284.9267,204.3772L344.1990,220.1524L386.2534,263.9385L418.8733,272.6059L445.5257,277.7455L468.0600,279.5484L487.5801,337.5987L504.7980,327.0667L520.2000,322.3662
            L534.1328,316.0775L546.8524,369.0475L558.5533,357.8156L569.3867,348.3740L579.4723,338.7904L588.9068,385.7587L597.7691,374.9390L606.1247,364.3794L614.0285,353.9205L621.5267,397.1044
            L635.4595,372.7826L648.1791,398.9696L659.8800,377.7461L670.7134,405.6514L680.7990,385.8581L694.7318,394.0445L707.4514,393.2931L719.1523,367.9618L729.9857,380.4333L743.2843,382.9198
            L755.4733,386.0517L769.4061,381.1937L782.1257,397.1391L796.0585,379.7281L808.7781,386.0870L822.3413,377.4309L834.7522,380.7203L847.7548,382.2949L861.1210,380.5106L874.6662,388.3590
            L888.2457,387.5639L901.7492,391.7281L915.0945,384.3560L928.2223,373.7437L941.9103,373.3584L955.1734,332.3435L968.6988,331.2422L982.3222,334.6658L995.9167,331.0583L1009.3870,339.2105
            L1023.1324,331.7227L1036.9800,314.1781L1050.7965,311.2716L1064.4823,310.4196L1078.2866,291.4106L1092.0733,313.5646L1106.0061,314.0942L1119.9389,311.6808L1133.7618,317.1494L1147.5946,323.4525
            L1161.5092,334.8318L1175.3758,335.1314L1189.2485,332.4849L1203.1539,324.1601L1216.9747,323.7030L1230.8510,331.5502L1244.7632,320.5628L1258.6866,301.0086L1272.5939,284.6185L1286.4570,252.5934
            L1300.3898,239.3740L1314.2651,236.6527L1328.1630,235.0044L1342.0746,231.5474L1355.9833,232.3995L1369.9117,231.7946L1383.8246,231.2762L1397.7249,224.6969L1411.6380,226.9287L1425.5708,231.9631
            L1439.4900,237.2136L1453.4129,233.5420L1467.3412,234.2949L1481.2658,231.7341L1495.1893,229.9951L1509.1204,225.7080L1523.0393,232.7745L1530.0000,238.2066"/>
  </g>
  <g style="fill:none; stroke:#828282; stroke-width:  3.6720; stroke-linecap:butt; stroke-linejoin:miter; stroke-dasharray:none">
   <path d="M183.6000,185.1148L284.9267,192.9214L344.1990,201.6776L386.2534,217.6027L418.8733,225.5528L445.5257,244.3333L468.0600,248.7438L487.5801,288.9864L504.7980,280.7066L520.2000,304.6461
            L534.1328,295.7509L546.8524,350.3926L558.5533,322.1853L569.3867,352.5634L579.4723,328.2524L588.9068,379.0906L597.7691,352.4471L606.1247,379.7784L614.0285,356.6029L621.5267,418.0426
            L635.4595,406.9228L648.1791,435.7682L659.8800,431.3374L670.7134,447.5405L680.7990,436.8317L694.7318,411.3872L707.4514,465.7898L719.1523,418.3464L729.9857,468.8922L743.2843,481.4866
            L755.4733,486.4488L769.4061,443.7478L782.1257,508.7724L796.0585,494.7742L808.7781,469.1307L822.3413,433.3009L834.7522,481.5207L847.7548,485.1846L861.1210,448.3925L874.6662,456.4171
            L888.2457,510.9869L901.7492,496.8287L915.0945,461.5034L928.2223,455.4045L941.9103,456.6220L955.1734,479.2655L968.6988,441.6466L982.3222,469.0222L995.9167,447.1553L1009.3870,466.7946
            L1023.1324,461.8617L1036.9800,450.9090L1050.7965,457.3212L1064.4823,473.8695L1078.2866,457.4153L1092.0733,470.5208L1106.0061,477.0480L1119.9389,466.1151L1133.7618,463.2457L1147.5946,463.4818
            L1161.5092,470.7652L1175.3758,463.1283L1189.2485,465.7323L1203.1539,453.8946L1216.9747,449.3236L1230.8510,454.9761L1244.7632,452.1379L1258.6866,451.1271L1272.5939,434.7305L1286.4570,404.9354
            L1300.3898,378.2272L1314.2651,362.8623L1328.1630,355.1200L1342.0746,356.2236L1355.9833,354.9510L1369.9117,359.0295L1383.8246,354.2788L1397.7249,353.6430L1411.6380,352.0097L1425.5708,353.9989
            L1439.4900,352.4986L1453.4129,348.2907L1467.3412,343.7042L1481.2658,336.6532L1495.1893,328.7066L1509.1204,330.8156L1523.0393,323.8066L1530.0000,325.0499"/>
  </g>
  <g style="fill:none; stroke:#9400D3; stroke-width:  3.6720; stroke-linecap:butt; stroke-linejoin:miter; stroke-dasharray:none">
   <path d="M183.6000,188.6610L284.9267,211.7948L344.1990,249.3855L386.2534,298.7282L418.8733,331.6371L445.5257,385.5723L468.0600,443.9228L487.5801,505.8251L504.7980,541.9707L520.2000,590.7807
            L534.1328,648.1785L546.8524,694.5260L558.5533,682.3583L569.3867,731.8154L579.4723,780.4265L588.9068,828.8663L597.7691,656.0755L606.1247,689.3313L614.0285,719.1977L621.5267,752.2546
            L635.4595,745.3984L648.1791,810.9693L659.8800,790.4541L670.7134,840.7416L680.7990,930.0226L694.7318,812.3893L707.4514,866.1760L719.1523,856.5235L729.9857,871.9160L743.2843,911.9459
            L755.4733,842.6709L769.4061,849.1539L782.1257,838.9022L796.0585,637.2325L808.7781,578.1205L822.3413,569.8233L834.7522,557.3853L847.7548,563.8131L861.1210,570.9443L874.6662,566.0270
            L888.2457,579.1474L901.7492,590.6645L915.0945,574.2613L928.2223,542.4111L941.9103,539.7088L955.1734,501.3835L968.6988,483.4381L982.3222,478.4908L995.9167,474.5711L1009.3870,475.1481
            L1023.1324,481.0738L1036.9800,477.7412L1050.7965,475.6502L1064.4823,479.4614L1078.2866,481.9282L1092.0733,480.7682L1106.0061,480.7982L1119.9389,483.2889L1133.7618,478.2931L1147.5946,476.7376
            L1161.5092,471.7982L1175.3758,464.0001L1189.2485,464.9030L1203.1539,463.0396L1216.9747,458.4656L1230.8510,455.3566L1244.7632,458.1936L1258.6866,455.8018L1272.5939,438.8503L1286.4570,404.4321
            L1300.3898,374.5370L1314.2651,359.9444L1328.1630,352.7874L1342.0746,352.8522L1355.9833,352.5813L1369.9117,354.5891L1383.8246,352.2296L1397.7249,351.8989L1411.6380,350.2152L1425.5708,351.0337
            L1439.4900,349.9624L1453.4129,346.0679L1467.3412,342.6281L1481.2658,334.6826L1495.1893,327.6838L1509.1204,327.9510L1523.0393,322.6485L1530.0000,322.7551"/>
  </g>
  <g style="fill:none; stroke:#FFA500; stroke-width:  3.6720; stroke-linecap:butt; stroke-linejoin:miter; stroke-dasharray:none">
   <path d="M183.6000,184.2954L284.9267,187.6738L344.1990,193.3176L386.2534,200.7527L418.8733,208.1567L445.5257,219.6851L468.0600,229.6698L487.5801,250.8007L504.7980,256.6155L520.2000,272.2608
            L534.1328,282.3950L546.8524,304.7132L558.5533,294.8090L569.3867,310.3800L579.4723,318.6874L588.9068,339.7084L597.7691,333.1332L606.1247,354.4196L614.0285,358.2212L621.5267,383.7772
            L635.4595,392.2973L648.1791,424.0438L659.8800,431.0133L670.7134,456.3512L680.7990,458.0930L694.7318,463.9276L707.4514,499.6046L719.1523,506.3763L729.9857,524.8383L743.2843,538.2379
            L755.4733,552.4230L769.4061,548.7430L782.1257,567.2714L796.0585,534.9629L808.7781,546.5477L822.3413,549.2367L834.7522,557.2307L847.7548,563.3673L861.1210,571.6357L874.6662,566.4758
            L888.2457,579.1378L901.7492,590.7585L915.0945,574.5045L928.2223,542.6064L941.9103,540.1211L955.1734,501.0282L968.6988,483.2703L982.3222,478.4117L995.9167,474.5267L1009.3870,475.0708
            L1023.1324,481.0953L1036.9800,477.6879L1050.7965,475.6526L1064.4823,479.4243L1078.2866,481.9246L1092.0733,480.7604L1106.0061,480.8101L1119.9389,483.2577L1133.7618,478.2859L1147.5946,476.7263
            L1161.5092,471.7323L1175.3758,464.0121L1189.2485,464.8886L1203.1539,463.0109L1216.9747,458.4297L1230.8510,455.3290L1244.7632,458.2110L1258.6866,455.9689L1272.5939,439.1978L1286.4570,404.5022
            L1300.3898,374.4154L1314.2651,359.9139L1328.1630,352.7635L1342.0746,352.8504L1355.9833,352.6496L1369.9117,354.6586L1383.8246,352.2644L1397.7249,351.9432L1411.6380,350.2536L1425.5708,351.1092
            L1439.4900,349.9594L1453.4129,346.1350L1467.3412,342.6772L1481.2658,334.6724L1495.1893,327.7168L1509.1204,327.9930L1523.0393,322.6772L1530.0000,322.7797"/>
  </g>
  <g style="fill:none; stroke:#000000; stroke-width:  3.6720; stroke-linecap:butt; stroke-linejoin:miter; stroke-dasharray: 18 11">
   <path d="M183.4776,1027.2185L1530.0000,1027.2185"/>
  </g>
  <g style="fill:none; stroke:#000000; stroke-width:  1.8360; stroke-linecap:butt; stroke-linejoin:miter; stroke-dasharray:none">
   <path d="M183.6000,183.6000L1530.0000,183.6000"/>
  </g>
  <g style="fill:none; stroke:#000000; stroke-width:  3.6720; stroke-linecap:butt; stroke-linejoin:miter; stroke-dasharray:none">
   <path d="M284.9267,183.6000L284.9267,189.7200"/>
   <path d="M344.1990,183.6000L344.1990,189.7200"/>
   <path d="M386.2534,183.6000L386.2534,189.7200"/>
   <path d="M418.8733,183.6000L418.8733,189.7200"/>
   <path d="M445.5257,183.6000L445.5257,189.7200"/>
   <path d="M468.0600,183.6000L468.0600,189.7200"/>
   <path d="M487.5801,183.6000L487.5801,189.7200"/>
   <path d="M504.7980,183.6000L504.7980,189.7200"/>
   <path d="M520.2000,183.6000L520.2000,189.7200"/>
   <path d="M621.5267,183.6000L621.5267,189.7200"/>
   <path d="M680.7990,183.6000L680.7990,189.7200"/>
   <path d="M722.8534,183.6000L722.8534,189.7200"/>
   <path d="M755.4733,183.6000L755.4733,189.7200"/>
   <path d="M782.1257,183.6000L782.1257,189.7200"/>
   <path d="M804.6600,183.6000L804.6600,189.7200"/>
   <path d="M824.1801,183.6000L824.1801,189.7200"/>
   <path d="M841.3980,183.6000L841.3980,189.7200"/>
   <path d="M856.8000,183.6000L856.8000,189.7200"/>
   <path d="M958.1267,183.6000L958.1267,189.7200"/>
   <path d="M1017.3990,183.6000L1017.3990,189.7200"/>
   <path d="M1059.4534,183.6000L1059.4534,189.7200"/>
   <path d="M1092.0733,183.6000L1092.0733,189.7200"/>
   <path d="M1118.7257,183.6000L1118.7257,189.7200"/>
   <path d="M1141.2600,183.6000L1141.2600,189.7200"/>
   <path d="M1160.7801,183.6000L1160.7801,189.7200"/>
   <path d="M1177.9980,183.6000L1177.9980,189.7200"/>
   <path d="M1193.4000,183.6000L1193.4000,189.7200"/>
   <path d="M1294.7267,183.6000L1294.7267,189.7200"/>
   <path d="M1353.9990,183.6000L1353.9990,189.7200"/>
   <path d="M1396.0534,183.6000L1396.0534,189.7200"/>
   <path d="M1428.6733,183.6000L1428.6733,189.7200"/>
   <path d="M1455.3257,183.6000L1455.3257,189.7200"/>
   <path d="M1477.8600,183.6000L1477.8600,189.7200"/>
   <path d="M1497.3801,183.6000L1497.3801,189.7200"/>
   <path d="M1514.5980,183.6000L1514.5980,189.7200"/>
   <path d="M1530.0000,183.6000L1530.0000,189.7200"/>
   <path d="M183.6000,183.6000L183.6000,195.8400"/>
   <path d="M520.2000,183.6000L520.2000,195.8400"/>
   <path d="M856.8000,183.6000L856.8000,195.8400"/>
   <path d="M1193.4000,183.6000L1193.4000,195.8400"/>
   <path d="M1530.0000,183.6000L1530.0000,195.8400"/>
  </g>
  <g style="fill:#000000; fill-rule:nonzero">
   <text   style="font-family:'Helvetica','Nimbus Sans L'; font-style:normal; font-weight:normal; font-size:1224.0000" transform="matrix(0.0280,0.0000,-0.0000,-0.0280,177.6000,147.3600)">1</text>
   <text   style="font-family:'Helvetica','Nimbus Sans L'; font-style:normal; font-weight:normal; font-size:1224.0000" transform="matrix(0.0280,0.0000,-0.0000,-0.0280,502.2000,147.3600)">10</text>
   <text   style="font-family:'Helvetica','Nimbus Sans L'; font-style:normal; font-weight:normal; font-size:1224.0000" transform="matrix(0.0280,0.0000,-0.0000,-0.0280,829.3000,147.3600)">100</text>
   <text   style="font-family:'Helvetica','Nimbus Sans L'; font-style:normal; font-weight:normal; font-size:1224.0000" transform="matrix(0.0280,0.0000,-0.0000,-0.0280,1156.4000,147.3600)">1000</text>
   <text   style="font-family:'Helvetica','Nimbus Sans L'; font-style:normal; font-weight:normal; font-size:1224.0000" transform="matrix(0.0280,0.0000,-0.0000,-0.0280,1483.5000,147.3600)">10000</text>
   <text   style="font-family:'Helvetica','Nimbus Sans L'; font-style:normal; font-weight:normal; font-size:1224.0000" transform="matrix(0.0336,0.0000,-0.0000,-0.0336,703.0400,70.6800)">Matrix/Vector Size</text>
  </g>
  <g style="fill:none; stroke:#000000; stroke-width:  1.8360; stroke-linecap:butt; stroke-linejoin:miter; stroke-dasharray:none">
   <path d="M183.6000,183.6000L183.6000,1040.4000"/>
   <path d="M1530.0000,183.6000L1530.0000,1040.4000"/>
  </g>
  <g style="fill:none; stroke:#000000; stroke-width:  3.6720; stroke-linecap:butt; stroke-linejoin:miter; stroke-dasharray:none">
   <path d="M183.6000,183.6000L195.8400,183.6000"/>
   <path d="M1530.0000,183.6000L1517.7600,183.6000"/>
   <path d="M183.6000,243.5161L195.8400,243.5161"/>
   <path d="M1530.0000,243.5161L1517.7600,243.5161"/>
   <path d="M183.6000,303.4322L195.8400,303.4322"/>
   <path d="M1530.0000,303.4322L1517.7600,303.4322"/>
   <path d="M183.6000,363.3483L195.8400,363.3483"/>
   <path d="M1530.0000,363.3483L1517.7600,363.3483"/>
   <path d="M183.6000,423.2643L195.8400,423.2643"/>
   <path d="M1530.0000,423.2643L1517.7600,423.2643"/>
   <path d="M183.6000,483.1804L195.8400,483.1804"/>
   <path d="M1530.0000,483.1804L1517.7600,483.1804"/>
   <path d="M183.6000,543.0965L195.8400,543.0965"/>
   <path d="M1530.0000,543.0965L1517.7600,543.0965"/>
   <path d="M183.6000,603.0126L195.8400,603.0126"/>
   <path d="M1530.0000,603.0126L1517.7600,603.0126"/>
   <path d="M183.6000,662.9287L195.8400,662.9287"/>
   <path d="M1530.0000,662.9287L1517.7600,662.9287"/>
   <path d="M183.6000,722.8448L195.8400,722.8448"/>
   <path d="M1530.0000,722.8448L1517.7600,722.8448"/>
   <path d="M183.6000,782.7608L195.8400,782.7608"/>
   <path d="M1530.0000,782.7608L1517.7600,782.7608"/>
   <path d="M183.6000,842.6769L195.8400,842.6769"/>
   <path d="M1530.0000,842.6769L1517.7600,842.6769"/>
   <path d="M183.6000,902.5930L195.8400,902.5930"/>
   <path d="M1530.0000,902.5930L1517.7600,902.5930"/>
   <path d="M183.6000,962.5091L195.8400,962.5091"/>
   <path d="M1530.0000,962.5091L1517.7600,962.5091"/>
   <path d="M183.6000,1022.4252L195.8400,1022.4252"/>
   <path d="M1530.0000,1022.4252L1517.7600,1022.4252"/>
  </g>
  <g style="fill:#000000; fill-rule:nonzero">
   <text   style="font-family:'Helvetica','Nimbus Sans L'; font-style:normal; font-weight:normal; font-size:1224.0000" transform="matrix(0.0280,0.0000,-0.0000,-0.0280,154.3600,171.6000)">0</text>
   <text   style="font-family:'Helvetica','Nimbus Sans L'; font-style:normal; font-weight:normal; font-size:1224.0000" transform="matrix(0.0280,0.0000,-0.0000,-0.0280,97.3600,231.5161)">1000</text>
   <text   style="font-family:'Helvetica','Nimbus Sans L'; font-style:normal; font-weight:normal; font-size:1224.0000" transform="matrix(0.0280,0.0000,-0.0000,-0.0280,97.3600,291.4322)">2000</text>
   <text   style="font-family:'Helvetica','Nimbus Sans L'; font-style:normal; font-weight:normal; font-size:1224.0000" transform="matrix(0.0280,0.0000,-0.0000,-0.0280,97.3600,351.3483)">3000</text>
   <text   style="font-family:'Helvetica','Nimbus Sans L'; font-style:normal; font-weight:normal; font-size:1224.0000" transform="matrix(0.0280,0.0000,-0.0000,-0.0280,97.3600,411.2643)">4000</text>
   <text   style="font-family:'Helvetica','Nimbus Sans L'; font-style:normal; font-weight:normal; font-size:1224.0000" transform="matrix(0.0280,0.0000,-0.0000,-0.0280,97.3600,471.1804)">5000</text>
   <text   style="font-family:'Helvetica','Nimbus Sans L'; font-style:normal; font-weight:normal; font-size:1224.0000" transform="matrix(0.0280,0.0000,-0.0000,-0.0280,97.3600,531.0965)">6000</text>
   <text   style="font-family:'Helvetica','Nimbus Sans L'; font-style:normal; font-weight:normal; font-size:1224.0000" transform="matrix(0.0280,0.0000,-0.0000,-0.0280,97.3600,591.0126)">7000</text>
   <text   style="font-family:'Helvetica','Nimbus Sans L'; font-style:normal; font-weight:normal; font-size:1224.0000" transform="matrix(0.0280,0.0000,-0.0000,-0.0280,97.3600,650.9287)">8000</text>
   <text   style="font-family:'Helvetica','Nimbus Sans L'; font-style:normal; font-weight:normal; font-size:1224.0000" transform="matrix(0.0280,0.0000,-0.0000,-0.0280,97.3600,710.8448)">9000</text>
   <text   style="font-family:'Helvetica','Nimbus Sans L'; font-style:normal; font-weight:normal; font-size:1224.0000" transform="matrix(0.0280,0.0000,-0.0000,-0.0280,78.3600,770.7608)">10000</text>
   <text   style="font-family:'Helvetica','Nimbus Sans L'; font-style:normal; font-weight:normal; font-size:1224.0000" transform="matrix(0.0280,0.0000,-0.0000,-0.0280,78.3600,830.6769)">11000</text>
   <text   style="font-family:'Helvetica','Nimbus Sans L'; font-style:normal; font-weight:normal; font-size:1224.0000" transform="matrix(0.0280,0.0000,-0.0000,-0.0280,78.3600,890.5930)">12000</text>
   <text   style="font-family:'Helvetica','Nimbus Sans L'; font-style:normal; font-weight:normal; font-size:1224.0000" transform="matrix(0.0280,0.0000,-0.0000,-0.0280,78.3600,950.5091)">13000</text>
   <text   style="font-family:'Helvetica','Nimbus Sans L'; font-style:normal; font-weight:normal; font-size:1224.0000" transform="matrix(0.0280,0.0000,-0.0000,-0.0280,78.3600,1010.4252)">14000</text>
   <text   style="font-family:'Helvetica','Nimbus Sans L'; font-style:normal; font-weight:normal; font-size:1224.0000" transform="matrix(0.0000,0.0336,0.0336,-0.0000,57.1200,539.5000)">MFlop/s</text>
  </g>
  <g style="fill:none; stroke:#000000; stroke-width:  3.6720; stroke-linecap:butt; stroke-linejoin:miter; stroke-dasharray:none">
   <path d="M183.6000,183.6000L183.6000,1040.4000L1530.0000,1040.4000L1530.0000,183.6000z"/>
  </g>
  <g style="fill:#FFFFFF; fill-rule:nonzero">
   <path  d="M1150.5600,930.2400L1150.5600,650.3200L1394.3160,650.3200L1394.3160,930.2400z"/>
  </g>
  <g style="fill:none; stroke:#FFFFFF; stroke-width:  1.8360; stroke-linecap:butt; stroke-linejoin:miter; stroke-dasharray:none">
   <path d="M1150.5600,930.2400L1150.5600,650.3200L1394.3160,650.3200L1394.3160,930.2400z"/>
  </g>
  <g style="fill:#000000; fill-rule:nonzero">
   <text   style="font-family:'Helvetica','Nimbus Sans L'; font-style:normal; font-weight:normal; font-size:1224.0000" transform="matrix(0.0280,0.0000,-0.0000,-0.0280,1238.0760,893.0000)">uBLAS</text>
  </g>
  <g style="fill:none; stroke:#00FF00; stroke-width:  3.6720; stroke-linecap:butt; stroke-linejoin:miter; stroke-dasharray:none">
   <path d="M1164.6360,905.5000L1213.5960,905.5000"/>
  </g>
  <g style="fill:#000000; fill-rule:nonzero">
   <text   style="font-family:'Helvetica','Nimbus Sans L'; font-style:normal; font-weight:normal; font-size:1224.0000" transform="matrix(0.0280,0.0000,-0.0000,-0.0280,1238.0760,855.7600)">GMM++</text>
  </g>
  <g style="fill:none; stroke:#0000FF; stroke-width:  3.6720; stroke-linecap:butt; stroke-linejoin:miter; stroke-dasharray:none">
   <path d="M1164.6360,868.2600L1213.5960,868.2600"/>
  </g>
  <g style="fill:#000000; fill-rule:nonzero">
   <text   style="font-family:'Helvetica','Nimbus Sans L'; font-style:normal; font-weight:normal; font-size:1224.0000" transform="matrix(0.0280,0.0000,-0.0000,-0.0280,1238.0760,818.5200)">Armadillo</text>
  </g>
  <g style="fill:none; stroke:#670748; stroke-width:  3.6720; stroke-linecap:butt; stroke-linejoin:miter; stroke-dasharray:none">
   <path d="M1164.6360,831.0200L1213.5960,831.0200"/>
  </g>
  <g style="fill:#000000; fill-rule:nonzero">
   <text   style="font-family:'Helvetica','Nimbus Sans L'; font-style:normal; font-weight:normal; font-size:1224.0000" transform="matrix(0.0280,0.0000,-0.0000,-0.0280,1238.0760,781.2800)">MTL4</text>
  </g>
  <g style="fill:none; stroke:#BC8F8F; stroke-width:  3.6720; stroke-linecap:butt; stroke-linejoin:miter; stroke-dasharray:none">
   <path d="M1164.6360,793.7800L1213.5960,793.7800"/>
  </g>
  <g style="fill:#000000; fill-rule:nonzero">
   <text   style="font-family:'Helvetica','Nimbus Sans L'; font-style:normal; font-weight:normal; font-size:1224.0000" transform="matrix(0.0280,0.0000,-0.0000,-0.0280,1238.0760,744.0400)">Eigen3</text>
  </g>
  <g style="fill:none; stroke:#828282; stroke-width:  3.6720; stroke-linecap:butt; stroke-linejoin:miter; stroke-dasharray:none">
   <path d="M1164.6360,753.0400L1213.5960,753.0400"/>
  </g>
  <g style="fill:#000000; fill-rule:nonzero">
   <text   style="font-family:'Helvetica','Nimbus Sans L'; font-style:normal; font-weight:normal; font-size:1224.0000" transform="matrix(0.0280,0.0000,-0.0000,-0.0280,1238.0760,699.8000)">Blaze</text>
  </g>
  <g style="fill:none; stroke:#9400D3; stroke-width:  3.6720; stroke-linecap:butt; stroke-linejoin:miter; stroke-dasharray:none">
   <path d="M1164.6360,712.3000L1213.5960,712.3000"/>
  </g>
  <g style="fill:#000000; fill-rule:nonzero">
   <text   style="font-family:'Helvetica','Nimbus Sans L'; font-style:normal; font-weight:normal; font-size:1224.0000" transform="matrix(0.0280,0.0000,-0.0000,-0.0280,1238.0760,662.5600)">Intel MKL</text>
  </g>
  <g style="fill:none; stroke:#FFA500; stroke-width:  3.6720; stroke-linecap:butt; stroke-linejoin:miter; stroke-dasharray:none">
   <path d="M1164.6360,675.0600L1213.5960,675.0600"/>
  </g>
  <g style="fill:#000000; fill-rule:nonzero">
   <text   style="font-family:'Helvetica','Nimbus Sans L'; font-style:normal; font-weight:normal; font-size:1224.0000" transform="matrix(0.0196,0.0000,-0.0000,-0.0196,709.9200,277.8480)">Boost uBLAS</text>
   <text   style="font-family:'Helvetica','Nimbus Sans L'; font-style:normal; font-weight:normal; font-size:1224.0000" transform="matrix(0.0196,0.0000,-0.0000,-0.0196,884.9520,330.4800)">MTL4</text>
   <text   style="font-family:'Helvetica','Nimbus Sans L'; font-style:normal; font-weight:normal; font-size:1224.0000" transform="matrix(0.0196,0.0000,-0.0000,-0.0196,1040.4000,402.6960)">GMM++</text>
   <text   style="font-family:'Helvetica','Nimbus Sans L'; font-style:normal; font-weight:normal; font-size:1224.0000" transform="matrix(0.0196,0.0000,-0.0000,-0.0196,881.2800,434.5200)">Eigen3</text>
   <text   style="font-family:'Helvetica','Nimbus Sans L'; font-style:normal; font-weight:normal; font-size:1224.0000" transform="matrix(0.0196,0.0000,-0.0000,-0.0196,789.4800,844.5600)">Blaze</text>
   <text   style="font-family:'Helvetica','Nimbus Sans L'; font-style:normal; font-weight:normal; font-size:1224.0000" transform="matrix(0.0196,0.0000,-0.0000,-0.0196,924.1200,563.0400)">Armadillo &amp; MKL</text>
   <text   style="font-family:'Helvetica','Nimbus Sans L'; font-style:normal; font-weight:normal; font-size:1224.0000" transform="matrix(0.0196,0.0000,-0.0000,-0.0196,734.4000,1003.6800)">Theoretical Peak Performance</text>
  </g>
 </g>
</svg>
