<?xml version="1.0" encoding="ISO-8859-1"?>
<!DOCTYPE svg PUBLIC "-//W3C//DTD SVG 1.0//EN" "http://www.w3.org/TR/2001/REC-SVG-20010904/DTD/svg10.dtd">
<!-- generated by Grace-5.1.23 -->
<svg xml:space="preserve" width="22.0000in" height="17.0000in" viewBox="0.0000 0.0000 1584.0000 1224.0000">
 <g transform="translate(0,1224.0000) scale(1,-1)">
  <g style="fill:#FFFFFF; fill-rule:nonzero">
   <path  d="M0.0000,0.0000L0.0000,1224.0000L1584.0000,1224.0000L1584.0000,0.0000z"/>
  </g>
  <g style="fill:none; stroke:#FF0000; stroke-width:  3.6720; stroke-linecap:butt; stroke-linejoin:miter; stroke-dasharray:none">
   <path d="M171.3600,230.0666L228.2082,212.4367L261.4623,225.4115L285.0564,237.5519L303.3575,248.8962L318.3105,267.2218L330.9531,278.0216L341.9047,284.9642L351.5646,294.2738L360.2057,310.2722
            L368.0225,318.8525L375.1588,326.9417L381.7234,334.5624L387.8014,343.6579L393.4598,346.9156L398.7529,361.6116L403.7250,364.0906L408.4128,362.7883L412.8471,363.9574L417.0539,371.8399
            L424.8708,371.6248L432.0070,375.9468L438.5717,379.3131L444.6496,378.8324L450.3080,377.4262L458.1248,443.9025L465.2611,462.2980L471.8257,465.3968L477.9037,463.1729L485.3647,455.8996
            L492.2032,464.4172L500.0200,455.5512L507.1562,458.4015L514.9731,531.1961L522.1093,527.9184L529.7187,515.4939L536.6817,496.3158L543.9767,489.1815L551.4757,550.7750L559.0751,547.1431
            L566.6937,525.5213L574.2697,536.6597L581.7569,550.9663L589.1221,521.8637L596.8016,535.0622L604.2427,555.8425L611.8310,552.5609L619.4743,578.5067L627.1013,594.1966L634.6587,595.0430
            L642.3704,600.3237L650.1394,594.9183L657.8910,604.0241L665.5693,603.4111L673.3141,600.4361L681.0489,604.0270L688.8657,605.6625L696.6826,607.8855L704.4378,609.6971L712.1985,605.7406
            L720.0052,608.9155L727.7849,607.9530L735.5680,613.0796L743.3695,614.6113L751.1235,608.1787L758.9086,613.8259L766.7139,611.9096L774.5255,611.8820L782.3280,610.3787L790.1058,602.7932
            L797.9226,583.0868L805.7071,513.7031L813.5044,501.8184L821.3094,499.5012L829.1127,496.6823L836.9271,501.7574L844.7328,499.1566L852.5314,502.2411L860.3372,498.3893L868.1540,501.9031
            L875.9632,504.6972L883.7745,503.2511L891.5888,502.8856L899.4011,466.5154L907.2127,504.2469L915.0286,498.4997L922.8377,502.1649L930.6506,503.4244L938.4617,494.9735L946.2747,483.5114
            L954.0862,472.0598L961.8993,457.7950L969.7152,452.8113L977.5289,451.7613L985.3437,438.1048L993.1598,423.1251L1000.9750,405.6340L1008.7912,394.2900L1016.6070,393.8768L1024.4231,392.0804
            L1032.2390,392.2194L1040.0550,392.5078L1047.8713,392.4241L1055.6874,388.5047L1063.5038,389.1425L1071.3206,389.0197L1079.1363,389.0968L1086.9523,389.0578L1094.7683,389.0654L1102.5851,389.0702
            L1110.4013,389.2310L1118.2180,389.0930L1126.0343,389.1892L1133.8509,382.8089L1141.6677,388.8207L1149.4842,388.6694L1157.3007,388.0706L1165.1173,388.5209L1172.9339,379.2855L1180.7505,388.2629
            L1188.5671,388.1753L1196.3840,386.7111L1204.2006,388.2610L1212.0172,388.3295L1219.8339,388.8769L1227.6507,388.4780L1235.4674,388.8103L1243.2841,388.6227L1251.1008,389.5014L1258.9175,388.8683
            L1266.7344,389.6537L1274.5512,388.9721L1282.3679,388.8864L1290.1847,388.1505L1298.0015,387.1414L1305.8183,383.3258L1313.6351,372.6434L1321.4519,381.8273L1329.2688,370.5585L1337.0856,357.6513
            L1344.9024,346.2511L1352.7192,330.4727L1360.5360,318.0900L1368.3528,307.9959L1376.1696,304.5107L1383.9864,300.8150L1391.8032,297.1622L1399.6201,298.3950L1407.4369,299.3051L1415.2537,299.6650
            L1423.0705,294.9126L1430.8874,295.3715L1438.7042,294.2167L1446.5210,293.2095L1454.3378,295.2686L1462.1547,294.7974L1469.9715,294.8812L1477.7883,294.5337L1485.6052,292.6630L1493.2800,294.8374"/>
  </g>
  <g style="fill:none; stroke:#00FF00; stroke-width:  3.6720; stroke-linecap:butt; stroke-linejoin:miter; stroke-dasharray:none">
   <path d="M171.3600,230.0665L228.2082,276.5250L261.4623,293.9044L285.0564,322.0893L303.3575,283.1078L318.3105,378.7943L330.9531,382.3966L341.9047,448.3845L351.5646,421.8361L360.2057,429.0104
            L368.0225,427.8661L375.1588,447.7162L381.7234,451.2548L387.8014,462.3808L393.4598,462.9444L398.7529,470.4233L403.7250,479.8091L408.4128,474.8701L412.8471,477.5110L417.0539,493.3770
            L424.8708,498.8243L432.0070,507.3562L438.5717,509.3915L444.6496,518.1423L450.3080,521.7180L458.1248,522.5615L465.2611,533.7037L471.8257,527.2168L477.9037,540.6162L485.3647,544.0996
            L492.2032,549.8963L500.0200,544.4927L507.1562,558.0863L514.9731,561.4336L522.1093,557.2629L529.7187,543.8796L536.6817,545.8741L543.9767,545.5399L551.4757,543.4227L559.0751,543.4293
            L566.6937,563.5813L574.2697,520.6128L581.7569,525.0253L589.1221,542.6411L596.8016,532.8412L604.2427,547.6086L611.8310,559.7971L619.4743,555.7339L627.1013,563.0758L634.6587,562.8111
            L642.3704,566.4049L650.1394,572.7091L657.8910,575.2004L665.5693,558.1987L673.3141,558.6375L681.0489,561.2774L688.8657,560.1674L696.6826,567.9529L704.4378,563.8088L712.1985,561.8163
            L720.0052,564.1496L727.7849,564.9360L735.5680,566.2669L743.3695,568.0738L751.1235,567.6616L758.9086,567.0761L766.7139,569.1705L774.5255,570.2986L782.3280,568.6602L790.1058,566.8752
            L797.9226,551.8212L805.7071,489.7365L813.5044,479.6958L821.3094,475.8564L829.1127,479.1189L836.9271,477.3425L844.7328,478.1231L852.5314,479.0789L860.3372,474.6159L868.1540,479.8986
            L875.9632,480.1594L883.7745,479.2883L891.5888,477.7404L899.4011,467.2008L907.2127,478.5648L915.0286,479.2664L922.8377,474.2323L930.6506,471.5076L938.4617,463.5185L946.2747,461.5097
            L954.0862,453.5415L961.8993,442.3022L969.7152,436.0095L977.5289,436.2618L985.3437,422.5396L993.1598,410.3464L1000.9750,401.7717L1008.7912,396.6766L1016.6070,388.0791L1024.4231,383.8361
            L1032.2390,381.2999L1040.0550,380.4289L1047.8713,379.8491L1055.6874,378.9466L1063.5038,379.8558L1071.3206,380.1014L1079.1363,380.2394L1086.9523,380.2375L1094.7683,380.1137L1102.5851,379.8986
            L1110.4013,380.0252L1118.2180,380.0195L1126.0343,379.9995L1133.8509,372.1036L1141.6677,379.4949L1149.4842,379.4835L1157.3007,379.1598L1165.1173,379.5425L1172.9339,373.7077L1180.7505,379.1989
            L1188.5671,378.9713L1196.3840,376.6761L1204.2006,379.9919L1212.0172,380.1585L1219.8339,379.8729L1227.6507,379.6606L1235.4674,379.6425L1243.2841,380.1452L1251.1008,380.1594L1258.9175,380.2775
            L1266.7344,380.0262L1274.5512,380.1585L1282.3679,379.9291L1290.1847,379.6587L1298.0015,378.8800L1305.8183,380.5802L1313.6351,376.4390L1321.4519,375.7622L1329.2688,366.7258L1337.0856,356.1938
            L1344.9024,344.6003L1352.7192,332.6232L1360.5360,320.3291L1368.3528,311.0024L1376.1696,307.8036L1383.9864,305.6216L1391.8032,300.9835L1399.6201,303.7767L1407.4369,303.6396L1415.2537,303.7338
            L1423.0705,299.7183L1430.8874,300.2000L1438.7042,300.2609L1446.5210,299.0157L1454.3378,300.6408L1462.1547,300.7731L1469.9715,301.0949L1477.7883,300.6494L1485.6052,298.8586L1493.2800,301.2177"/>
  </g>
  <g style="fill:none; stroke:#0000FF; stroke-width:  3.6720; stroke-linecap:butt; stroke-linejoin:miter; stroke-dasharray:none">
   <path d="M171.3600,230.0658L228.2082,276.5315L261.4623,306.5441L285.0564,322.5596L303.3575,356.7897L318.3105,384.4977L330.9531,427.9993L341.9047,460.4264L351.5646,448.5454L360.2057,474.2732
            L368.0225,475.8431L375.1588,481.2990L381.7234,451.9450L387.8014,476.2791L393.4598,477.4310L398.7529,494.8164L403.7250,481.4884L408.4128,469.8873L412.8471,502.8656L417.0539,481.5008
            L424.8708,482.5375L432.0070,529.6653L438.5717,518.7459L444.6496,508.4729L450.3080,529.3750L458.1248,510.2198L465.2611,520.0654L471.8257,554.2374L477.9037,549.2994L485.3647,553.4844
            L492.2032,556.8973L500.0200,566.9000L507.1562,545.4933L514.9731,566.8390L522.1093,550.9701L529.7187,556.8583L536.6817,562.4094L543.9767,555.2389L551.4757,556.5308L559.0751,550.6922
            L566.6937,565.3015L574.2697,529.3436L581.7569,538.9264L589.1221,553.7433L596.8016,546.2473L604.2427,561.3155L611.8310,564.4209L619.4743,567.6159L627.1013,570.4100L634.6587,572.9823
            L642.3704,575.4032L650.1394,577.5566L657.8910,578.8875L665.5693,560.4454L673.3141,561.9705L681.0489,567.0904L688.8657,562.0705L696.6826,565.8032L704.4378,565.4662L712.1985,563.9545
            L720.0052,564.9826L727.7849,565.6462L735.5680,567.3579L743.3695,568.4831L751.1235,569.6912L758.9086,568.3042L766.7139,569.7150L774.5255,571.5695L782.3280,569.1248L790.1058,570.2634
            L797.9226,555.9415L805.7071,490.1259L813.5044,480.9524L821.3094,476.1439L829.1127,480.4764L836.9271,479.0884L844.7328,478.6058L852.5314,480.0081L860.3372,474.8682L868.1540,480.0890
            L875.9632,480.0680L883.7745,479.0770L891.5888,478.0793L899.4011,467.5235L907.2127,478.8276L915.0286,479.2255L922.8377,476.2477L930.6506,470.2796L938.4617,469.1353L946.2747,456.7707
            L954.0862,446.6062L961.8993,426.6485L969.7152,418.8497L977.5289,420.6708L985.3437,422.0931L993.1598,410.2969L1000.9750,400.6560L1008.7912,393.5598L1016.6070,389.1654L1024.4231,384.0436
            L1032.2390,382.5880L1040.0550,380.7021L1047.8713,379.8872L1055.6874,379.0294L1063.5038,379.9966L1071.3206,380.1442L1079.1363,380.2756L1086.9523,380.2137L1094.7683,380.1671L1102.5851,379.9281
            L1110.4013,379.9957L1118.2180,379.9843L1126.0343,380.0547L1133.8509,372.1198L1141.6677,379.5492L1149.4842,379.4892L1157.3007,379.2208L1165.1173,379.5178L1172.9339,373.7715L1180.7505,379.2189
            L1188.5671,379.0075L1196.3840,376.6970L1204.2006,379.9024L1212.0172,380.1404L1219.8339,379.8815L1227.6507,379.6796L1235.4674,379.6673L1243.2841,379.7082L1251.1008,380.7916L1258.9175,380.3137
            L1266.7344,380.0404L1274.5512,380.1899L1282.3679,379.9881L1290.1847,379.3721L1298.0015,378.2688L1305.8183,380.5926L1313.6351,374.7264L1321.4519,374.0352L1329.2688,364.5086L1337.0856,354.7677
            L1344.9024,343.1133L1352.7192,331.8911L1360.5360,321.2887L1368.3528,311.4679L1376.1696,307.7617L1383.9864,303.1426L1391.8032,301.7470L1399.6201,303.8148L1407.4369,303.3902L1415.2537,303.0855
            L1423.0705,299.7526L1430.8874,300.5351L1438.7042,300.7674L1446.5210,299.4118L1454.3378,299.9925L1462.1547,301.1901L1469.9715,300.5246L1477.7883,300.8036L1485.6052,298.9091L1493.2800,301.0787"/>
  </g>
  <g style="fill:none; stroke:#670748; stroke-width:  3.6720; stroke-linecap:butt; stroke-linejoin:miter; stroke-dasharray:none">
   <path d="M171.3600,230.0668L228.2082,276.5325L261.4623,299.1204L285.0564,311.6192L303.3575,329.7939L318.3105,359.3430L330.9531,363.0596L341.9047,359.6762L351.5646,380.7687L360.2057,411.4917
            L368.0225,406.2404L375.1588,390.7076L381.7234,407.0125L387.8014,433.5790L393.4598,432.4109L398.7529,410.8224L403.7250,425.1005L408.4128,446.6633L412.8471,451.9678L417.0539,426.3590
            L424.8708,457.2276L432.0070,438.2476L438.5717,466.1517L444.6496,446.7433L450.3080,472.1350L458.1248,462.6969L465.2611,459.9713L471.8257,488.7693L477.9037,483.9741L485.3647,486.7539
            L492.2032,488.9978L500.0200,496.6804L507.1562,480.4460L514.9731,495.5847L522.1093,486.2503L529.7187,503.0208L536.6817,500.4161L543.9767,501.8593L551.4757,506.2937L559.0751,499.8287
            L566.6937,498.8024L574.2697,475.3375L581.7569,485.5125L589.1221,495.3790L596.8016,491.8319L604.2427,505.4417L611.8310,514.8256L619.4743,518.3070L627.1013,526.6941L634.6587,529.6863
            L642.3704,535.1298L650.1394,542.3631L657.8910,544.8174L665.5693,540.4696L673.3141,538.7446L681.0489,545.0344L688.8657,545.0773L696.6826,550.8426L704.4378,550.9311L712.1985,551.6403
            L720.0052,553.7547L727.7849,555.6768L735.5680,557.4161L743.3695,557.8436L751.1235,560.0237L758.9086,560.0798L766.7139,563.7850L774.5255,566.1345L782.3280,565.1054L790.1058,562.3760
            L797.9226,548.1941L805.7071,488.5761L813.5044,478.0184L821.3094,474.1542L829.1127,477.7156L836.9271,476.2924L844.7328,476.7608L852.5314,478.2945L860.3372,473.9448L868.1540,478.0108
            L875.9632,478.4592L883.7745,477.4491L891.5888,477.0721L899.4011,466.0070L907.2127,476.7122L915.0286,477.7413L922.8377,478.0203L930.6506,477.2863L938.4617,472.4406L946.2747,463.3157
            L954.0862,460.3883L961.8993,438.9711L969.7152,423.3736L977.5289,426.1620L985.3437,418.2870L993.1598,409.9628L1000.9750,402.2268L1008.7912,396.9489L1016.6070,389.5900L1024.4231,384.2711
            L1032.2390,381.4037L1040.0550,380.2584L1047.8713,379.7644L1055.6874,378.8152L1063.5038,379.7149L1071.3206,379.9138L1079.1363,379.9157L1086.9523,380.0262L1094.7683,379.8329L1102.5851,379.7168
            L1110.4013,379.6796L1118.2180,379.8310L1126.0343,379.7967L1133.8509,371.7990L1141.6677,379.3007L1149.4842,379.1922L1157.3007,378.9199L1165.1173,379.2189L1172.9339,371.7390L1180.7505,378.9266
            L1188.5671,378.7391L1196.3840,376.4866L1204.2006,378.8476L1212.0172,379.1094L1219.8339,380.3889L1227.6507,380.4774L1235.4674,379.8558L1243.2841,379.9662L1251.1008,379.9538L1258.9175,380.0262
            L1266.7344,379.8462L1274.5512,380.1994L1282.3679,380.0224L1290.1847,379.7339L1298.0015,379.3674L1305.8183,377.3101L1313.6351,369.3742L1321.4519,377.9213L1329.2688,368.1576L1337.0856,357.4047
            L1344.9024,345.2582L1352.7192,332.2967L1360.5360,321.3411L1368.3528,311.7478L1376.1696,308.0397L1383.9864,306.4147L1391.8032,301.1425L1399.6201,303.4454L1407.4369,304.4069L1415.2537,303.4444
            L1423.0705,300.0344L1430.8874,300.3771L1438.7042,300.7664L1446.5210,299.2461L1454.3378,300.7379L1462.1547,300.7550L1469.9715,300.9473L1477.7883,300.1743L1485.6052,298.9434L1493.2800,300.3685"/>
  </g>
  <g style="fill:none; stroke:#BC8F8F; stroke-width:  3.6720; stroke-linecap:butt; stroke-linejoin:miter; stroke-dasharray:none">
   <path d="M171.3600,229.9554L228.2082,274.5406L261.4623,293.4694L285.0564,295.6780L303.3575,308.6233L318.3105,330.8554L330.9531,347.8038L341.9047,392.3431L351.5646,391.9899L360.2057,392.0090
            L368.0225,400.0877L375.1588,433.6533L381.7234,429.7501L387.8014,426.6922L393.4598,429.6920L398.7529,466.8143L403.7250,462.8978L408.4128,454.1279L412.8471,452.4039L417.0539,485.5849
            L424.8708,469.1362L432.0070,499.0462L438.5717,485.8752L444.6496,505.6416L450.3080,492.5973L458.1248,502.5590L465.2611,516.9485L471.8257,508.4272L477.9037,521.0697L485.3647,522.5682
            L492.2032,527.4833L500.0200,528.7866L507.1562,540.1059L514.9731,542.5449L522.1093,544.5518L529.7187,532.5670L536.6817,535.4183L543.9767,533.7704L551.4757,531.0591L559.0751,512.0733
            L566.6937,498.8719L574.2697,516.0394L581.7569,536.1218L589.1221,538.9759L596.8016,529.0770L604.2427,552.9465L611.8310,551.6775L619.4743,560.3911L627.1013,562.2618L634.6587,566.7914
            L642.3704,569.7579L650.1394,569.5627L657.8910,571.5724L665.5693,558.4567L673.3141,554.7391L681.0489,560.2759L688.8657,559.2630L696.6826,564.0192L704.4378,563.6812L712.1985,561.6820
            L720.0052,560.3369L727.7849,561.6878L735.5680,563.4851L743.3695,567.0780L751.1235,568.6954L758.9086,565.7614L766.7139,568.6259L774.5255,568.8944L782.3280,567.3998L790.1058,565.2330
            L797.9226,551.2024L805.7071,490.2230L813.5044,479.4426L821.3094,475.5108L829.1127,478.4906L836.9271,477.9422L844.7328,477.7490L852.5314,479.1808L860.3372,475.0158L868.1540,480.3251
            L875.9632,479.8148L883.7745,479.5778L891.5888,478.0669L899.4011,467.2046L907.2127,478.8190L915.0286,478.1440L922.8377,476.1553L930.6506,470.9450L938.4617,466.5858L946.2747,457.4676
            L954.0862,449.9325L961.8993,434.3996L969.7152,425.2880L977.5289,426.6513L985.3437,420.3700L993.1598,410.2008L1000.9750,400.8121L1008.7912,391.8805L1016.6070,388.5247L1024.4231,382.3386
            L1032.2390,381.3913L1040.0550,380.5564L1047.8713,379.9119L1055.6874,379.0170L1063.5038,379.9300L1071.3206,380.0976L1079.1363,380.2318L1086.9523,380.3099L1094.7683,380.2242L1102.5851,380.0633
            L1110.4013,380.0519L1118.2180,380.0738L1126.0343,380.0557L1133.8509,372.2083L1141.6677,379.6044L1149.4842,379.5216L1157.3007,379.2103L1165.1173,379.6054L1172.9339,371.8561L1180.7505,379.2684
            L1188.5671,379.0618L1196.3840,376.7703L1204.2006,380.0090L1212.0172,380.2413L1219.8339,379.9471L1227.6507,379.7882L1235.4674,379.7577L1243.2841,379.8024L1251.1008,380.9153L1258.9175,380.3632
            L1266.7344,380.1166L1274.5512,380.2594L1282.3679,379.8281L1290.1847,379.2284L1298.0015,378.4201L1305.8183,380.6830L1313.6351,376.4171L1321.4519,375.8507L1329.2688,366.1022L1337.0856,355.3151
            L1344.9024,344.3490L1352.7192,332.0692L1360.5360,320.4986L1368.3528,309.6581L1376.1696,307.7322L1383.9864,304.4459L1391.8032,300.5066L1399.6201,303.0969L1407.4369,303.4606L1415.2537,303.2007
            L1423.0705,300.3038L1430.8874,300.8483L1438.7042,300.7027L1446.5210,299.6498L1454.3378,300.0010L1462.1547,301.1739L1469.9715,301.1806L1477.7883,301.0816L1485.6052,299.1423L1493.2800,301.5014"/>
  </g>
  <g style="fill:none; stroke:#828282; stroke-width:  3.6720; stroke-linecap:butt; stroke-linejoin:miter; stroke-dasharray:none">
   <path d="M171.3600,230.0649L228.2082,276.5283L261.4623,322.9956L285.0564,369.4628L303.3575,415.9166L318.3105,462.3627L330.9531,448.6511L341.9047,457.8350L351.5646,469.0144L360.2057,478.4182
            L368.0225,490.2582L375.1588,434.3939L381.7234,468.2985L387.8014,438.1458L393.4598,467.5178L398.7529,440.9418L403.7250,463.4490L408.4128,443.1590L412.8471,460.6996L417.0539,444.9564
            L424.8708,446.2473L432.0070,447.5049L438.5717,448.5987L444.6496,449.5517L450.3080,450.3628L458.1248,462.5617L465.2611,452.2877L471.8257,462.5208L477.9037,453.6786L485.3647,454.4145
            L492.2032,455.0380L500.0200,462.3999L507.1562,456.2423L514.9731,436.5759L522.1093,457.2438L529.7187,426.8284L536.6817,433.9322L543.9767,442.8172L551.4757,452.9322L559.0751,463.5956
            L566.6937,471.0059L574.2697,479.1722L581.7569,487.9582L589.1221,495.1201L596.8016,502.4343L604.2427,508.2710L611.8310,515.6557L619.4743,521.0545L627.1013,527.6547L634.6587,532.4461
            L642.3704,537.7154L650.1394,543.2437L657.8910,547.8580L665.5693,550.6426L673.3141,555.1666L681.0489,559.3639L688.8657,562.0904L696.6826,566.4592L704.4378,568.7364L712.1985,571.5076
            L720.0052,573.7743L727.7849,576.1534L735.5680,578.3430L743.3695,580.5840L751.1235,582.4023L758.9086,583.9170L766.7139,585.9561L774.5255,587.3299L782.3280,588.5789L790.1058,589.2148
            L797.9226,577.8565L805.7071,518.0833L813.5044,509.5505L821.3094,506.6669L829.1127,509.7285L836.9271,508.3738L844.7328,506.8592L852.5314,508.9669L860.3372,502.7942L868.1540,507.8817
            L875.9632,510.0770L883.7745,509.0250L891.5888,507.0734L899.4011,495.9959L907.2127,508.6623L915.0286,509.3363L922.8377,504.7753L930.6506,505.3817L938.4617,503.8795L946.2747,490.0869
            L954.0862,478.6734L961.8993,448.7691L969.7152,432.5956L977.5289,433.6000L985.3437,425.1776L993.1598,416.9857L1000.9750,408.4500L1008.7912,401.0511L1016.6070,393.2266L1024.4231,387.0357
            L1032.2390,385.1517L1040.0550,382.9145L1047.8713,382.8841L1055.6874,381.8216L1063.5038,382.8117L1071.3206,383.0926L1079.1363,382.9202L1086.9523,382.9193L1094.7683,382.8688L1102.5851,382.9478
            L1110.4013,382.6261L1118.2180,382.9145L1126.0343,383.0754L1133.8509,374.1114L1141.6677,382.6166L1149.4842,382.4880L1157.3007,382.1396L1165.1173,382.3176L1172.9339,369.4751L1180.7505,382.0587
            L1188.5671,382.0044L1196.3840,379.7310L1204.2006,382.0063L1212.0172,383.0240L1219.8339,382.7908L1227.6507,382.3567L1235.4674,382.5908L1243.2841,381.9225L1251.1008,382.4557L1258.9175,383.1668
            L1266.7344,382.9821L1274.5512,382.9650L1282.3679,382.0730L1290.1847,382.0425L1298.0015,381.0934L1305.8183,378.9618L1313.6351,376.0363L1321.4519,377.1102L1329.2688,368.2280L1337.0856,356.5641
            L1344.9024,343.6683L1352.7192,330.8306L1360.5360,319.6170L1368.3528,311.1804L1376.1696,306.1300L1383.9864,302.9722L1391.8032,300.0582L1399.6201,303.3673L1407.4369,302.0945L1415.2537,302.5895
            L1423.0705,299.8240L1430.8874,298.5207L1438.7042,300.2819L1446.5210,298.1999L1454.3378,299.7526L1462.1547,298.7701L1469.9715,299.8649L1477.7883,299.4584L1485.6052,297.8962L1493.2800,299.2985"/>
  </g>
  <g style="fill:none; stroke:#9400D3; stroke-width:  3.6720; stroke-linecap:butt; stroke-linejoin:miter; stroke-dasharray:none">
   <path d="M171.3600,225.4202L228.2082,267.2411L261.4623,309.0622L285.0564,350.8816L303.3575,387.4679L318.3105,428.1193L330.9531,468.9182L341.9047,509.7685L351.5646,471.6133L360.2057,503.5862
            L368.0225,535.6353L375.1588,567.6159L381.7234,503.3968L387.8014,527.9955L393.4598,552.5962L398.7529,474.6435L403.7250,567.7996L408.4128,590.3963L412.8471,613.0034L417.0539,635.5810
            L424.8708,643.6492L432.0070,685.6924L438.5717,705.7301L444.6496,745.8893L450.3080,729.6710L458.1248,661.2374L465.2611,754.3069L471.8257,733.4876L477.9037,728.9037L485.3647,741.6976
            L492.2032,753.6262L500.0200,782.3128L507.1562,796.3767L514.9731,783.9388L522.1093,759.3896L529.7187,803.6490L536.6817,794.2518L543.9767,807.3828L551.4757,817.3378L559.0751,812.1332
            L566.6937,831.0352L574.2697,839.3719L581.7569,828.0402L589.1221,839.3928L596.8016,843.9120L604.2427,850.4465L611.8310,851.1576L619.4743,856.0271L627.1013,859.1411L634.6587,863.1700
            L642.3704,866.3592L650.1394,867.3064L657.8910,854.7848L665.5693,870.5537L673.3141,874.9405L681.0489,868.4821L688.8657,828.9132L696.6826,843.8948L704.4378,846.9441L712.1985,850.6150
            L720.0052,858.1815L727.7849,854.1479L735.5680,855.5978L743.3695,860.8557L751.1235,862.4141L758.9086,859.4905L766.7139,868.5859L774.5255,878.3734L782.3280,877.8403L790.1058,865.1901
            L797.9226,694.0215L805.7071,501.6860L813.5044,480.4060L821.3094,478.8561L829.1127,476.3648L836.9271,478.7295L844.7328,477.4310L852.5314,480.8325L860.3372,475.4623L868.1540,479.4492
            L875.9632,481.8340L883.7745,479.7586L891.5888,478.6572L899.4011,442.3936L907.2127,479.9985L915.0286,475.6117L922.8377,478.4525L930.6506,475.5441L938.4617,472.2312L946.2747,468.5726
            L954.0862,468.5231L961.8993,429.7168L969.7152,422.3559L977.5289,444.3604L985.3437,434.0246L993.1598,422.3292L1000.9750,409.4649L1008.7912,406.4889L1016.6070,397.1993L1024.4231,396.8908
            L1032.2390,393.1685L1040.0550,392.1680L1047.8713,392.1089L1055.6874,391.5330L1063.5038,392.2403L1071.3206,392.0137L1079.1363,392.2051L1086.9523,392.1984L1094.7683,392.1223L1102.5851,392.0680
            L1110.4013,392.2556L1118.2180,392.1004L1126.0343,392.1194L1133.8509,383.0069L1141.6677,390.7276L1149.4842,391.3350L1157.3007,390.5772L1165.1173,391.0627L1172.9339,375.7298L1180.7505,388.6627
            L1188.5671,392.4859L1196.3840,391.1084L1204.2006,391.9614L1212.0172,389.3453L1219.8339,390.5315L1227.6507,392.3688L1235.4674,392.2470L1243.2841,392.4117L1251.1008,392.6782L1258.9175,392.1803
            L1266.7344,391.3702L1274.5512,391.4026L1282.3679,391.6815L1290.1847,391.6663L1298.0015,392.4050L1305.8183,391.2759L1313.6351,376.3848L1321.4519,382.9183L1329.2688,372.3959L1337.0856,358.8775
            L1344.9024,351.8403L1352.7192,334.2159L1360.5360,317.7454L1368.3528,305.5874L1376.1696,302.8894L1383.9864,300.8074L1391.8032,296.6786L1399.6201,296.5691L1407.4369,296.9213L1415.2537,298.3665
            L1423.0705,293.7940L1430.8874,294.6337L1438.7042,293.0324L1446.5210,292.9553L1454.3378,293.7378L1462.1547,295.0887L1469.9715,295.4286L1477.7883,295.2763L1485.6052,292.3984L1493.2800,295.4867"/>
  </g>
  <g style="fill:none; stroke:#FFA500; stroke-width:  3.6720; stroke-linecap:butt; stroke-linejoin:miter; stroke-dasharray:none">
   <path d="M171.3600,190.6877L228.2082,197.0895L261.4623,202.9004L285.0564,210.5793L303.3575,215.7673L318.3105,220.4969L330.9531,224.8290L341.9047,232.7976L351.5646,236.6081L360.2057,240.1102
            L368.0225,243.3384L375.1588,251.4130L381.7234,254.2010L387.8014,256.7799L393.4598,259.1727L398.7529,293.2847L403.7250,292.9734L408.4128,294.2700L412.8471,295.4886L417.0539,306.5927
            L424.8708,307.8998L432.0070,319.2257L438.5717,319.5009L444.6496,329.9805L450.3080,329.4826L458.1248,377.9546L465.2611,389.7880L471.8257,382.3129L477.9037,390.0850L485.3647,393.4151
            L492.2032,441.6329L500.0200,441.4397L507.1562,456.3109L514.9731,499.2794L522.1093,525.4175L529.7187,504.3288L536.6817,563.5470L543.9767,554.3850L551.4757,587.1176L559.0751,605.1856
            L566.6937,618.7668L574.2697,663.0434L581.7569,674.7996L589.1221,646.6576L596.8016,657.4371L604.2427,684.3691L611.8310,677.0682L619.4743,710.5291L627.1013,700.5370L634.6587,724.1294
            L642.3704,736.1199L650.1394,765.6776L657.8910,811.9581L665.5693,754.3250L673.3141,762.9158L681.0489,689.2072L688.8657,739.0511L696.6826,785.0441L704.4378,796.3653L712.1985,799.2936
            L720.0052,819.4532L727.7849,817.3226L735.5680,822.5872L743.3695,831.7625L751.1235,822.7956L758.9086,837.8677L766.7139,947.4134L774.5255,953.8775L782.3280,909.3972L790.1058,825.6745
            L797.9226,647.3763L805.7071,565.5319L813.5044,550.7245L821.3094,549.5526L829.1127,536.7415L836.9271,547.1241L844.7328,542.8086L852.5314,540.0355L860.3372,542.2489L868.1540,546.5652
            L875.9632,549.9943L883.7745,549.4412L891.5888,547.8933L899.4011,519.8340L907.2127,549.9905L915.0286,537.7707L922.8377,545.4676L930.6506,548.9519L938.4617,547.2878L946.2747,540.5714
            L954.0862,523.8886L961.8993,499.4384L969.7152,479.6987L977.5289,458.8365L985.3437,427.7794L993.1598,420.8260L1000.9750,418.0928L1008.7912,412.2799L1016.6070,406.4337L1024.4231,397.2002
            L1032.2390,395.4733L1040.0550,395.8398L1047.8713,394.9716L1055.6874,395.2791L1063.5038,396.0931L1071.3206,394.6955L1079.1363,396.1483L1086.9523,396.1321L1094.7683,395.0601L1102.5851,395.1477
            L1110.4013,396.3358L1118.2180,395.2334L1126.0343,395.7618L1133.8509,390.5734L1141.6677,395.4305L1149.4842,395.2658L1157.3007,396.1683L1165.1173,395.2639L1172.9339,391.3007L1180.7505,395.5504
            L1188.5671,396.4996L1196.3840,394.3404L1204.2006,396.5167L1212.0172,391.7272L1219.8339,396.5253L1227.6507,394.8593L1235.4674,396.7290L1243.2841,395.1953L1251.1008,396.7328L1258.9175,395.4562
            L1266.7344,395.4514L1274.5512,396.5567L1282.3679,396.4767L1290.1847,396.4843L1298.0015,394.8564L1305.8183,395.3400L1313.6351,391.2617L1321.4519,395.9322L1329.2688,388.3819L1337.0856,375.8269
            L1344.9024,352.9703L1352.7192,327.7071L1360.5360,311.2727L1368.3528,299.5536L1376.1696,299.3746L1383.9864,296.0493L1391.8032,292.5964L1399.6201,295.2077L1407.4369,294.9097L1415.2537,295.2515
            L1423.0705,292.0518L1430.8874,292.1613L1438.7042,291.9671L1446.5210,289.9641L1454.3378,291.6272L1462.1547,292.2080L1469.9715,292.0576L1477.7883,292.6116L1485.6052,289.5309L1493.2800,292.6468"/>
  </g>
  <g style="fill:none; stroke:#000000; stroke-width:  3.6720; stroke-linecap:butt; stroke-linejoin:miter; stroke-dasharray: 18 11">
   <path d="M171.2376,1021.3600L1493.2800,1021.3600"/>
  </g>
  <g style="fill:none; stroke:#000000; stroke-width:  1.8360; stroke-linecap:butt; stroke-linejoin:miter; stroke-dasharray:none">
   <path d="M171.3600,183.6000L1493.2800,183.6000"/>
  </g>
  <g style="fill:none; stroke:#000000; stroke-width:  3.6720; stroke-linecap:butt; stroke-linejoin:miter; stroke-dasharray:none">
   <path d="M228.2082,183.6000L228.2082,189.7200"/>
   <path d="M261.4623,183.6000L261.4623,189.7200"/>
   <path d="M285.0564,183.6000L285.0564,189.7200"/>
   <path d="M303.3575,183.6000L303.3575,189.7200"/>
   <path d="M318.3105,183.6000L318.3105,189.7200"/>
   <path d="M330.9531,183.6000L330.9531,189.7200"/>
   <path d="M341.9047,183.6000L341.9047,189.7200"/>
   <path d="M351.5646,183.6000L351.5646,189.7200"/>
   <path d="M360.2057,183.6000L360.2057,189.7200"/>
   <path d="M417.0539,183.6000L417.0539,189.7200"/>
   <path d="M450.3080,183.6000L450.3080,189.7200"/>
   <path d="M473.9022,183.6000L473.9022,189.7200"/>
   <path d="M492.2032,183.6000L492.2032,189.7200"/>
   <path d="M507.1562,183.6000L507.1562,189.7200"/>
   <path d="M519.7989,183.6000L519.7989,189.7200"/>
   <path d="M530.7504,183.6000L530.7504,189.7200"/>
   <path d="M540.4103,183.6000L540.4103,189.7200"/>
   <path d="M549.0514,183.6000L549.0514,189.7200"/>
   <path d="M605.8997,183.6000L605.8997,189.7200"/>
   <path d="M639.1537,183.6000L639.1537,189.7200"/>
   <path d="M662.7479,183.6000L662.7479,189.7200"/>
   <path d="M681.0489,183.6000L681.0489,189.7200"/>
   <path d="M696.0020,183.6000L696.0020,189.7200"/>
   <path d="M708.6446,183.6000L708.6446,189.7200"/>
   <path d="M719.5961,183.6000L719.5961,189.7200"/>
   <path d="M729.2560,183.6000L729.2560,189.7200"/>
   <path d="M737.8971,183.6000L737.8971,189.7200"/>
   <path d="M794.7454,183.6000L794.7454,189.7200"/>
   <path d="M827.9994,183.6000L827.9994,189.7200"/>
   <path d="M851.5936,183.6000L851.5936,189.7200"/>
   <path d="M869.8946,183.6000L869.8946,189.7200"/>
   <path d="M884.8477,183.6000L884.8477,189.7200"/>
   <path d="M897.4903,183.6000L897.4903,189.7200"/>
   <path d="M908.4418,183.6000L908.4418,189.7200"/>
   <path d="M918.1018,183.6000L918.1018,189.7200"/>
   <path d="M926.7429,183.6000L926.7429,189.7200"/>
   <path d="M983.5911,183.6000L983.5911,189.7200"/>
   <path d="M1016.8452,183.6000L1016.8452,189.7200"/>
   <path d="M1040.4393,183.6000L1040.4393,189.7200"/>
   <path d="M1058.7403,183.6000L1058.7403,189.7200"/>
   <path d="M1073.6934,183.6000L1073.6934,189.7200"/>
   <path d="M1086.3360,183.6000L1086.3360,189.7200"/>
   <path d="M1097.2875,183.6000L1097.2875,189.7200"/>
   <path d="M1106.9475,183.6000L1106.9475,189.7200"/>
   <path d="M1115.5886,183.6000L1115.5886,189.7200"/>
   <path d="M1172.4368,183.6000L1172.4368,189.7200"/>
   <path d="M1205.6909,183.6000L1205.6909,189.7200"/>
   <path d="M1229.2850,183.6000L1229.2850,189.7200"/>
   <path d="M1247.5861,183.6000L1247.5861,189.7200"/>
   <path d="M1262.5391,183.6000L1262.5391,189.7200"/>
   <path d="M1275.1817,183.6000L1275.1817,189.7200"/>
   <path d="M1286.1332,183.6000L1286.1332,189.7200"/>
   <path d="M1295.7932,183.6000L1295.7932,189.7200"/>
   <path d="M1304.4343,183.6000L1304.4343,189.7200"/>
   <path d="M1361.2825,183.6000L1361.2825,189.7200"/>
   <path d="M1394.5366,183.6000L1394.5366,189.7200"/>
   <path d="M1418.1307,183.6000L1418.1307,189.7200"/>
   <path d="M1436.4318,183.6000L1436.4318,189.7200"/>
   <path d="M1451.3848,183.6000L1451.3848,189.7200"/>
   <path d="M1464.0274,183.6000L1464.0274,189.7200"/>
   <path d="M1474.9790,183.6000L1474.9790,189.7200"/>
   <path d="M1484.6389,183.6000L1484.6389,189.7200"/>
   <path d="M1493.2800,183.6000L1493.2800,189.7200"/>
   <path d="M171.3600,183.6000L171.3600,195.8400"/>
   <path d="M360.2057,183.6000L360.2057,195.8400"/>
   <path d="M549.0514,183.6000L549.0514,195.8400"/>
   <path d="M737.8971,183.6000L737.8971,195.8400"/>
   <path d="M926.7429,183.6000L926.7429,195.8400"/>
   <path d="M1115.5886,183.6000L1115.5886,195.8400"/>
   <path d="M1304.4343,183.6000L1304.4343,195.8400"/>
   <path d="M1493.2800,183.6000L1493.2800,195.8400"/>
  </g>
  <g style="fill:#000000; fill-rule:nonzero">
   <text   style="font-family:'Helvetica','Nimbus Sans L'; font-style:normal; font-weight:normal; font-size:1224.0000" transform="matrix(0.0280,0.0000,-0.0000,-0.0280,165.3600,147.3600)">1</text>
   <text   style="font-family:'Helvetica','Nimbus Sans L'; font-style:normal; font-weight:normal; font-size:1224.0000" transform="matrix(0.0280,0.0000,-0.0000,-0.0280,342.2057,147.3600)">10</text>
   <text   style="font-family:'Helvetica','Nimbus Sans L'; font-style:normal; font-weight:normal; font-size:1224.0000" transform="matrix(0.0280,0.0000,-0.0000,-0.0280,521.5514,147.3600)">100</text>
   <text   style="font-family:'Helvetica','Nimbus Sans L'; font-style:normal; font-weight:normal; font-size:1224.0000" transform="matrix(0.0280,0.0000,-0.0000,-0.0280,700.8971,147.3600)">1000</text>
   <text   style="font-family:'Helvetica','Nimbus Sans L'; font-style:normal; font-weight:normal; font-size:1224.0000" transform="matrix(0.0280,0.0000,-0.0000,-0.0280,880.2429,147.3600)">10000</text>
   <text   style="font-family:'Helvetica','Nimbus Sans L'; font-style:normal; font-weight:normal; font-size:1224.0000" transform="matrix(0.0280,0.0000,-0.0000,-0.0280,1059.5886,147.3600)">100000</text>
   <text   style="font-family:'Helvetica','Nimbus Sans L'; font-style:normal; font-weight:normal; font-size:1224.0000" transform="matrix(0.0280,0.0000,-0.0000,-0.0280,1238.9343,147.3600)">1000000</text>
   <text   style="font-family:'Helvetica','Nimbus Sans L'; font-style:normal; font-weight:normal; font-size:1224.0000" transform="matrix(0.0280,0.0000,-0.0000,-0.0280,1418.2800,147.3600)">10000000</text>
   <text   style="font-family:'Helvetica','Nimbus Sans L'; font-style:normal; font-weight:normal; font-size:1224.0000" transform="matrix(0.0336,0.0000,-0.0000,-0.0336,718.0600,75.1800)">Vector Length</text>
  </g>
  <g style="fill:none; stroke:#000000; stroke-width:  1.8360; stroke-linecap:butt; stroke-linejoin:miter; stroke-dasharray:none">
   <path d="M171.3600,183.6000L171.3600,1040.4000"/>
   <path d="M1493.2800,183.6000L1493.2800,1040.4000"/>
  </g>
  <g style="fill:none; stroke:#000000; stroke-width:  3.6720; stroke-linecap:butt; stroke-linejoin:miter; stroke-dasharray:none">
   <path d="M171.3600,183.6000L183.6000,183.6000"/>
   <path d="M1493.2800,183.6000L1481.0400,183.6000"/>
   <path d="M171.3600,278.8000L183.6000,278.8000"/>
   <path d="M1493.2800,278.8000L1481.0400,278.8000"/>
   <path d="M171.3600,374.0000L183.6000,374.0000"/>
   <path d="M1493.2800,374.0000L1481.0400,374.0000"/>
   <path d="M171.3600,469.2000L183.6000,469.2000"/>
   <path d="M1493.2800,469.2000L1481.0400,469.2000"/>
   <path d="M171.3600,564.4000L183.6000,564.4000"/>
   <path d="M1493.2800,564.4000L1481.0400,564.4000"/>
   <path d="M171.3600,659.6000L183.6000,659.6000"/>
   <path d="M1493.2800,659.6000L1481.0400,659.6000"/>
   <path d="M171.3600,754.8000L183.6000,754.8000"/>
   <path d="M1493.2800,754.8000L1481.0400,754.8000"/>
   <path d="M171.3600,850.0000L183.6000,850.0000"/>
   <path d="M1493.2800,850.0000L1481.0400,850.0000"/>
   <path d="M171.3600,945.2000L183.6000,945.2000"/>
   <path d="M1493.2800,945.2000L1481.0400,945.2000"/>
   <path d="M171.3600,1040.4000L183.6000,1040.4000"/>
   <path d="M1493.2800,1040.4000L1481.0400,1040.4000"/>
  </g>
  <g style="fill:#000000; fill-rule:nonzero">
   <text   style="font-family:'Helvetica','Nimbus Sans L'; font-style:normal; font-weight:normal; font-size:1224.0000" transform="matrix(0.0280,0.0000,-0.0000,-0.0280,142.1200,171.6000)">0</text>
   <text   style="font-family:'Helvetica','Nimbus Sans L'; font-style:normal; font-weight:normal; font-size:1224.0000" transform="matrix(0.0280,0.0000,-0.0000,-0.0280,85.1200,266.8000)">1000</text>
   <text   style="font-family:'Helvetica','Nimbus Sans L'; font-style:normal; font-weight:normal; font-size:1224.0000" transform="matrix(0.0280,0.0000,-0.0000,-0.0280,85.1200,362.0000)">2000</text>
   <text   style="font-family:'Helvetica','Nimbus Sans L'; font-style:normal; font-weight:normal; font-size:1224.0000" transform="matrix(0.0280,0.0000,-0.0000,-0.0280,85.1200,457.2000)">3000</text>
   <text   style="font-family:'Helvetica','Nimbus Sans L'; font-style:normal; font-weight:normal; font-size:1224.0000" transform="matrix(0.0280,0.0000,-0.0000,-0.0280,85.1200,552.4000)">4000</text>
   <text   style="font-family:'Helvetica','Nimbus Sans L'; font-style:normal; font-weight:normal; font-size:1224.0000" transform="matrix(0.0280,0.0000,-0.0000,-0.0280,85.1200,647.6000)">5000</text>
   <text   style="font-family:'Helvetica','Nimbus Sans L'; font-style:normal; font-weight:normal; font-size:1224.0000" transform="matrix(0.0280,0.0000,-0.0000,-0.0280,85.1200,742.8000)">6000</text>
   <text   style="font-family:'Helvetica','Nimbus Sans L'; font-style:normal; font-weight:normal; font-size:1224.0000" transform="matrix(0.0280,0.0000,-0.0000,-0.0280,85.1200,838.0000)">7000</text>
   <text   style="font-family:'Helvetica','Nimbus Sans L'; font-style:normal; font-weight:normal; font-size:1224.0000" transform="matrix(0.0280,0.0000,-0.0000,-0.0280,85.1200,933.2000)">8000</text>
   <text   style="font-family:'Helvetica','Nimbus Sans L'; font-style:normal; font-weight:normal; font-size:1224.0000" transform="matrix(0.0280,0.0000,-0.0000,-0.0280,85.1200,1028.4000)">9000</text>
   <text   style="font-family:'Helvetica','Nimbus Sans L'; font-style:normal; font-weight:normal; font-size:1224.0000" transform="matrix(0.0000,0.0336,0.0336,-0.0000,63.8800,539.5000)">MFlop/s</text>
  </g>
  <g style="fill:none; stroke:#000000; stroke-width:  3.6720; stroke-linecap:butt; stroke-linejoin:miter; stroke-dasharray:none">
   <path d="M171.3600,183.6000L171.3600,1040.4000L1493.2800,1040.4000L1493.2800,183.6000z"/>
  </g>
  <g style="fill:#FFFFFF; fill-rule:nonzero">
   <path  d="M1064.8800,942.4800L1064.8800,625.3200L1359.2920,625.3200L1359.2920,942.4800z"/>
  </g>
  <g style="fill:none; stroke:#FFFFFF; stroke-width:  1.8360; stroke-linecap:butt; stroke-linejoin:miter; stroke-dasharray:none">
   <path d="M1064.8800,942.4800L1064.8800,625.3200L1359.2920,625.3200L1359.2920,942.4800z"/>
  </g>
  <g style="fill:#000000; fill-rule:nonzero">
   <text   style="font-family:'Helvetica','Nimbus Sans L'; font-style:normal; font-weight:normal; font-size:1224.0000" transform="matrix(0.0280,0.0000,-0.0000,-0.0280,1145.0520,905.2400)">Blitz++</text>
  </g>
  <g style="fill:none; stroke:#FF0000; stroke-width:  3.6720; stroke-linecap:butt; stroke-linejoin:miter; stroke-dasharray:none">
   <path d="M1078.9560,917.7400L1127.9160,917.7400"/>
  </g>
  <g style="fill:#000000; fill-rule:nonzero">
   <text   style="font-family:'Helvetica','Nimbus Sans L'; font-style:normal; font-weight:normal; font-size:1224.0000" transform="matrix(0.0280,0.0000,-0.0000,-0.0280,1145.0520,868.0000)">Boost uBLAS</text>
  </g>
  <g style="fill:none; stroke:#00FF00; stroke-width:  3.6720; stroke-linecap:butt; stroke-linejoin:miter; stroke-dasharray:none">
   <path d="M1078.9560,880.5000L1127.9160,880.5000"/>
  </g>
  <g style="fill:#000000; fill-rule:nonzero">
   <text   style="font-family:'Helvetica','Nimbus Sans L'; font-style:normal; font-weight:normal; font-size:1224.0000" transform="matrix(0.0280,0.0000,-0.0000,-0.0280,1145.0520,830.7600)">GMM++</text>
  </g>
  <g style="fill:none; stroke:#0000FF; stroke-width:  3.6720; stroke-linecap:butt; stroke-linejoin:miter; stroke-dasharray:none">
   <path d="M1078.9560,843.2600L1127.9160,843.2600"/>
  </g>
  <g style="fill:#000000; fill-rule:nonzero">
   <text   style="font-family:'Helvetica','Nimbus Sans L'; font-style:normal; font-weight:normal; font-size:1224.0000" transform="matrix(0.0280,0.0000,-0.0000,-0.0280,1145.0520,793.5200)">Armadillo</text>
  </g>
  <g style="fill:none; stroke:#670748; stroke-width:  3.6720; stroke-linecap:butt; stroke-linejoin:miter; stroke-dasharray:none">
   <path d="M1078.9560,806.0200L1127.9160,806.0200"/>
  </g>
  <g style="fill:#000000; fill-rule:nonzero">
   <text   style="font-family:'Helvetica','Nimbus Sans L'; font-style:normal; font-weight:normal; font-size:1224.0000" transform="matrix(0.0280,0.0000,-0.0000,-0.0280,1145.0520,756.2800)">MTL4</text>
  </g>
  <g style="fill:none; stroke:#BC8F8F; stroke-width:  3.6720; stroke-linecap:butt; stroke-linejoin:miter; stroke-dasharray:none">
   <path d="M1078.9560,768.7800L1127.9160,768.7800"/>
  </g>
  <g style="fill:#000000; fill-rule:nonzero">
   <text   style="font-family:'Helvetica','Nimbus Sans L'; font-style:normal; font-weight:normal; font-size:1224.0000" transform="matrix(0.0280,0.0000,-0.0000,-0.0280,1145.0520,719.0400)">Eigen3</text>
  </g>
  <g style="fill:none; stroke:#828282; stroke-width:  3.6720; stroke-linecap:butt; stroke-linejoin:miter; stroke-dasharray:none">
   <path d="M1078.9560,728.0400L1127.9160,728.0400"/>
  </g>
  <g style="fill:#000000; fill-rule:nonzero">
   <text   style="font-family:'Helvetica','Nimbus Sans L'; font-style:normal; font-weight:normal; font-size:1224.0000" transform="matrix(0.0280,0.0000,-0.0000,-0.0280,1145.0520,674.8000)">Blaze</text>
  </g>
  <g style="fill:none; stroke:#9400D3; stroke-width:  3.6720; stroke-linecap:butt; stroke-linejoin:miter; stroke-dasharray:none">
   <path d="M1078.9560,687.3000L1127.9160,687.3000"/>
  </g>
  <g style="fill:#000000; fill-rule:nonzero">
   <text   style="font-family:'Helvetica','Nimbus Sans L'; font-style:normal; font-weight:normal; font-size:1224.0000" transform="matrix(0.0280,0.0000,-0.0000,-0.0280,1145.0520,637.5600)">Intel MKL</text>
  </g>
  <g style="fill:none; stroke:#FFA500; stroke-width:  3.6720; stroke-linecap:butt; stroke-linejoin:miter; stroke-dasharray:none">
   <path d="M1078.9560,650.0600L1127.9160,650.0600"/>
  </g>
  <g style="fill:#000000; fill-rule:nonzero">
   <text   style="font-family:'Helvetica','Nimbus Sans L'; font-style:normal; font-weight:normal; font-size:1224.0000" transform="matrix(0.0196,0.0000,-0.0000,-0.0196,660.9600,615.6720)">Blitz++</text>
   <text   style="font-family:'Helvetica','Nimbus Sans L'; font-style:normal; font-weight:normal; font-size:1224.0000" transform="matrix(0.0196,0.0000,-0.0000,-0.0196,685.4400,520.2000)">Armadillo</text>
   <text   style="font-family:'Helvetica','Nimbus Sans L'; font-style:normal; font-weight:normal; font-size:1224.0000" transform="matrix(0.0196,0.0000,-0.0000,-0.0196,547.1280,422.2800)">Eigen3</text>
   <text   style="font-family:'Helvetica','Nimbus Sans L'; font-style:normal; font-weight:normal; font-size:1224.0000" transform="matrix(0.0196,0.0000,-0.0000,-0.0196,465.1200,807.8400)">Blaze</text>
   <text   style="font-family:'Helvetica','Nimbus Sans L'; font-style:normal; font-weight:normal; font-size:1224.0000" transform="matrix(0.0196,0.0000,-0.0000,-0.0196,527.5440,714.8160)">Intel MKL</text>
   <text   style="font-family:'Helvetica','Nimbus Sans L'; font-style:normal; font-weight:normal; font-size:1224.0000" transform="matrix(0.0196,0.0000,-0.0000,-0.0196,930.2400,996.3360)">Theoretical Peak Performance</text>
  </g>
 </g>
</svg>
