<?xml version="1.0" encoding="ISO-8859-1"?>
<!DOCTYPE svg PUBLIC "-//W3C//DTD SVG 1.0//EN" "http://www.w3.org/TR/2001/REC-SVG-20010904/DTD/svg10.dtd">
<!-- generated by Grace-5.1.23 -->
<svg xml:space="preserve" width="22.0000in" height="17.0000in" viewBox="0.0000 0.0000 1584.0000 1224.0000">
 <g transform="translate(0,1224.0000) scale(1,-1)">
  <g style="fill:#FFFFFF; fill-rule:nonzero">
   <path  d="M0.0000,0.0000L0.0000,1224.0000L1584.0000,1224.0000L1584.0000,0.0000z"/>
  </g>
  <g style="fill:none; stroke:#FF0000; stroke-width:  3.6720; stroke-linecap:butt; stroke-linejoin:miter; stroke-dasharray:none">
   <path d="M183.6000,186.5627L289.0087,197.9387L350.6688,207.9803L394.4174,214.3451L428.3514,218.5429L456.0775,223.3129L479.5196,226.7587L499.8261,229.3562L517.7377,231.6094L533.7601,230.6045
            L548.2542,231.4380L561.4862,233.4543L573.6585,234.6972L584.9283,235.9800L605.2348,238.1710L623.1464,239.9108L639.1688,241.1860L660.4228,242.7777L679.0672,243.8811L700.8290,245.1335
            L719.8628,237.6460L740.7274,239.1549L762.4891,240.9285L784.4759,243.0353L806.2377,244.4285L827.4916,245.4548L848.0733,246.6291L867.8978,247.5273L888.4153,248.3098L909.0905,248.9362
            L929.5579,249.5208L950.5668,249.7459L969.8890,247.9909L989.3289,244.0349L1010.5829,242.3479L1031.5491,242.9620L1050.9891,243.6003L1072.2430,238.5861L1093.2093,243.5674L1114.3296,237.8964
            L1135.5109,232.6171L1156.3978,234.6619L1177.6517,235.7691L1198.8099,235.5483L1220.0722,240.0079L1241.2101,240.9090L1261.8065,241.3755L1283.0604,242.5878L1304.3144,236.8972L1325.5642,207.8350
            L1346.9087,219.9882L1368.1627,202.8146L1389.4030,203.5121L1410.6307,204.4091L1431.8868,212.7530L1453.1119,206.1062L1474.3565,203.0851L1495.6036,202.6422L1516.8469,207.5472L1530.0000,207.6207"/>
  </g>
  <g style="fill:none; stroke:#00FF00; stroke-width:  3.6720; stroke-linecap:butt; stroke-linejoin:miter; stroke-dasharray:none">
   <path d="M183.6000,194.0549L289.0087,222.1956L350.6688,238.8707L394.4174,247.8995L428.3514,248.1475L456.0775,252.5505L479.5196,255.5545L499.8261,257.6366L517.7377,257.3405L533.7601,258.8513
            L548.2542,256.7441L561.4862,258.2525L573.6585,259.4211L584.9283,258.6485L605.2348,260.9548L623.1464,261.1252L639.1688,262.3490L660.4228,262.8930L679.0672,262.5893L700.8290,262.9087
            L719.8628,262.9863L740.7274,252.1183L762.4891,253.1974L784.4759,254.9162L806.2377,254.7887L827.4916,254.0199L848.0733,254.1065L867.8978,254.5026L888.4153,254.0675L909.0905,254.5925
            L929.5579,254.1422L950.5668,253.7510L969.8890,252.4367L989.3289,247.4830L1010.5829,246.6452L1031.5491,245.9627L1050.9891,247.9357L1072.2430,242.8168L1093.2093,247.8533L1114.3296,242.3751
            L1135.5109,237.3732L1156.3978,237.8078L1177.6517,240.1612L1198.8099,239.6123L1220.0722,242.6797L1241.2101,243.1057L1261.8065,243.5551L1283.0604,244.6175L1304.3144,239.6690L1325.5642,209.7512
            L1346.9087,220.7543L1368.1627,203.7847L1389.4030,204.7504L1410.6307,205.0795L1431.8868,214.0896L1453.1119,206.9584L1474.3565,204.2766L1495.6036,203.7733L1516.8469,207.6722L1530.0000,207.8487"/>
  </g>
  <g style="fill:none; stroke:#0000FF; stroke-width:  3.6720; stroke-linecap:butt; stroke-linejoin:miter; stroke-dasharray:none">
   <path d="M183.6000,185.7982L289.0087,195.8466L350.6688,206.5712L394.4174,214.9635L428.3514,219.9277L456.0775,234.2640L479.5196,242.4788L499.8261,259.2545L517.7377,251.9112L533.7601,264.2658
            L548.2542,262.7574L561.4862,284.7443L573.6585,286.3708L584.9283,283.3301L605.2348,302.6495L623.1464,296.1036L639.1688,312.1838L660.4228,298.4312L679.0672,317.2322L700.8290,325.4680
            L719.8628,332.9302L740.7274,317.2732L762.4891,333.2996L784.4759,356.2352L806.2377,360.2341L827.4916,330.8473L848.0733,329.6573L867.8978,348.6192L888.4153,333.3929L909.0905,352.8332
            L929.5579,337.2733L950.5668,329.5506L969.8890,345.9312L989.3289,344.5680L1010.5829,337.8921L1031.5491,346.9822L1050.9891,348.2565L1072.2430,336.2370L1093.2093,350.6351L1114.3296,337.8535
            L1135.5109,338.6456L1156.3978,353.6867L1177.6517,353.2692L1198.8099,340.8590L1220.0722,355.2175L1241.2101,355.6397L1261.8065,355.7525L1283.0604,356.4061L1304.3144,339.7856L1325.5642,313.2948
            L1346.9087,302.9998L1368.1627,288.9731L1389.4030,285.5516L1410.6307,287.6022L1431.8868,291.0837L1453.1119,290.9447L1474.3565,287.6983L1495.6036,288.2300L1516.8469,291.2950L1530.0000,291.3555"/>
  </g>
  <g style="fill:none; stroke:#670748; stroke-width:  3.6720; stroke-linecap:butt; stroke-linejoin:miter; stroke-dasharray:none">
   <path d="M183.6000,186.7646L289.0087,216.9371L350.6688,262.6874L394.4174,293.4294L428.3514,244.3081L456.0775,251.4100L479.5196,243.8892L499.8261,258.2239L517.7377,266.5635L533.7601,289.6994
            L548.2542,304.6092L561.4862,350.9373L573.6585,352.9846L584.9283,379.1146L605.2348,473.1389L623.1464,465.6819L639.1688,538.1229L660.4228,526.6389L679.0672,612.2228L700.8290,624.0599
            L719.8628,668.0633L740.7274,578.3877L762.4891,624.4626L784.4759,728.5819L806.2377,749.3165L827.4916,754.3002L848.0733,758.8841L867.8978,817.9128L888.4153,789.3862L909.0905,821.9684
            L929.5579,781.6892L950.5668,792.7705L969.8890,831.8692L989.3289,880.9400L1010.5829,882.5965L1031.5491,886.6615L1050.9891,888.7702L1072.2430,876.2228L1093.2093,915.9831L1114.3296,902.5837
            L1135.5109,912.7368L1156.3978,933.0049L1177.6517,947.1040L1198.8099,938.2123L1220.0722,946.0092L1241.2101,941.9727L1261.8065,947.3325L1283.0604,948.3844L1304.3144,947.4943L1325.5642,950.6074
            L1346.9087,953.2825L1368.1627,954.9532L1389.4030,958.6946L1410.6307,957.0476L1431.8868,963.2737L1453.1119,967.9004L1474.3565,963.9354L1495.6036,962.4122L1516.8469,963.9972L1530.0000,965.2444"/>
  </g>
  <g style="fill:none; stroke:#BC8F8F; stroke-width:  3.6720; stroke-linecap:butt; stroke-linejoin:miter; stroke-dasharray:none">
   <path d="M183.6000,186.1395L289.0087,198.1239L350.6688,213.7831L394.4174,254.7001L428.3514,256.0729L456.0775,267.6278L479.5196,260.6991L499.8261,317.9443L517.7377,299.9620L533.7601,301.0797
            L548.2542,288.5223L561.4862,343.1857L573.6585,318.6336L584.9283,319.9350L605.2348,354.0080L623.1464,333.3972L639.1688,364.4933L660.4228,327.5057L679.0672,345.4181L700.8290,351.0716
            L719.8628,665.4500L740.7274,626.7974L762.4891,664.5123L784.4759,722.9032L806.2377,745.3419L827.4916,750.7016L848.0733,757.6274L867.8978,817.6272L888.4153,791.2283L909.0905,820.5213
            L929.5579,782.0653L950.5668,792.4468L969.8890,829.8700L989.3289,883.3105L1010.5829,883.1629L1031.5491,886.3521L1050.9891,892.1641L1072.2430,878.3220L1093.2093,917.9395L1114.3296,903.4596
            L1135.5109,916.0212L1156.3978,939.8355L1177.6517,947.3896L1198.8099,939.4452L1220.0722,947.3087L1241.2101,942.8248L1261.8065,947.9608L1283.0604,949.2888L1304.3144,948.0132L1325.5642,951.2500
            L1346.9087,954.0203L1368.1627,955.2912L1389.4030,958.9516L1410.6307,957.2142L1431.8868,963.4641L1453.1119,967.9290L1474.3565,964.1115L1495.6036,962.2979L1516.8469,964.5732L1530.0000,963.8782"/>
  </g>
  <g style="fill:none; stroke:#828282; stroke-width:  3.6720; stroke-linecap:butt; stroke-linejoin:miter; stroke-dasharray:none">
   <path d="M183.6000,183.9666L289.0087,187.3752L350.6688,194.7577L394.4174,210.9985L428.3514,222.2891L456.0775,240.4182L479.5196,244.7055L499.8261,282.7760L517.7377,281.1015L533.7601,298.1670
            L548.2542,299.9344L561.4862,335.0661L573.6585,331.8045L584.9283,347.6915L605.2348,377.6999L623.1464,378.4882L639.1688,409.7957L660.4228,395.8379L679.0672,424.0923L700.8290,438.9040
            L719.8628,446.6638L740.7274,444.9811L762.4891,471.8775L784.4759,501.5099L806.2377,511.7177L827.4916,505.7278L848.0733,503.9213L867.8978,520.0192L888.4153,515.5710L909.0905,530.0409
            L929.5579,527.5600L950.5668,536.0347L969.8890,554.9228L989.3289,559.9504L1010.5829,557.8674L1031.5491,562.7254L1050.9891,567.8581L1072.2430,565.2973L1093.2093,574.3056L1114.3296,567.4573
            L1135.5109,568.1247L1156.3978,577.5762L1177.6517,576.5542L1198.8099,578.2973L1220.0722,582.4304L1241.2101,580.0580L1261.8065,583.0354L1283.0604,579.3540L1304.3144,577.9541L1325.5642,584.0221
            L1346.9087,585.2602L1368.1627,584.5515L1389.4030,585.9166L1410.6307,586.5535L1431.8868,586.2294L1453.1119,587.1476L1474.3565,586.4640L1495.6036,588.0320L1516.8469,588.1253L1530.0000,587.1380"/>
  </g>
  <g style="fill:none; stroke:#9400D3; stroke-width:  3.6720; stroke-linecap:butt; stroke-linejoin:miter; stroke-dasharray:none">
   <path d="M183.6000,186.0892L289.0087,208.1991L350.6688,255.9867L394.4174,329.9600L428.3514,342.8606L456.0775,420.1472L479.5196,475.4142L499.8261,544.0753L517.7377,449.8525L533.7601,494.1543
            L548.2542,529.7601L561.4862,582.3066L573.6585,626.0139L584.9283,678.2354L605.2348,762.9063L623.1464,653.1326L639.1688,719.3475L660.4228,733.1944L679.0672,696.9850L700.8290,771.4219
            L719.8628,731.3332L740.7274,755.3998L762.4891,757.5751L784.4759,755.6140L806.2377,770.0177L827.4916,765.9384L848.0733,752.1249L867.8978,773.6353L888.4153,820.8640L909.0905,843.2694
            L929.5579,803.9280L950.5668,802.6047L969.8890,839.5946L989.3289,891.5262L1010.5829,893.0732L1031.5491,895.8578L1050.9891,908.0958L1072.2430,897.2620L1093.2093,924.9986L1114.3296,907.3342
            L1135.5109,920.2148L1156.3978,938.5931L1177.6517,948.1274L1198.8099,955.8719L1220.0722,951.9449L1241.2101,948.8985L1261.8065,954.0203L1283.0604,960.2083L1304.3144,959.5942L1325.5642,961.5744
            L1346.9087,963.7116L1368.1627,978.2868L1389.4030,968.7953L1410.6307,966.6105L1431.8868,983.8988L1453.1119,983.7132L1474.3565,985.4458L1495.6036,984.4129L1516.8469,973.7410L1530.0000,984.6890"/>
  </g>
  <g style="fill:none; stroke:#FFA500; stroke-width:  3.6720; stroke-linecap:butt; stroke-linejoin:miter; stroke-dasharray:none">
   <path d="M183.6000,183.8920L289.0087,186.8810L350.6688,192.4369L394.4174,209.9773L428.3514,218.8054L456.0775,239.2292L479.5196,243.0181L499.8261,259.9309L517.7377,267.5964L533.7601,291.2284
            L548.2542,306.2147L561.4862,351.5071L573.6585,354.1537L584.9283,378.0003L605.2348,479.2941L623.1464,480.4069L639.1688,539.9850L660.4228,530.8144L679.0672,608.0830L700.8290,625.5379
            L719.8628,672.6376L740.7274,601.2795L762.4891,652.5171L784.4759,746.4224L806.2377,768.4564L827.4916,790.2620L848.0733,791.6662L867.8978,821.3781L888.4153,827.1948L909.0905,844.7497
            L929.5579,804.6277L950.5668,803.7185L969.8890,840.1135L989.3289,892.3164L1010.5829,894.2394L1031.5491,897.6524L1050.9891,910.5282L1072.2430,899.8515L1093.2093,932.5955L1114.3296,917.9823
            L1135.5109,934.7090L1156.3978,948.4939L1177.6517,954.0250L1198.8099,954.5486L1220.0722,946.6613L1241.2101,941.4301L1261.8065,951.6070L1283.0604,951.2452L1304.3144,952.8493L1325.5642,960.7557
            L1346.9087,963.4308L1368.1627,977.9726L1389.4030,968.4193L1410.6307,966.5391L1431.8868,983.4894L1453.1119,983.4466L1474.3565,985.3411L1495.6036,984.3938L1516.8469,973.7695L1530.0000,984.7128"/>
  </g>
  <g style="fill:none; stroke:#000000; stroke-width:  3.6720; stroke-linecap:butt; stroke-linejoin:miter; stroke-dasharray: 18 11">
   <path d="M183.4776,1021.3600L1530.0000,1021.3600"/>
  </g>
  <g style="fill:none; stroke:#000000; stroke-width:  1.8360; stroke-linecap:butt; stroke-linejoin:miter; stroke-dasharray:none">
   <path d="M183.6000,183.6000L1530.0000,183.6000"/>
  </g>
  <g style="fill:none; stroke:#000000; stroke-width:  3.6720; stroke-linecap:butt; stroke-linejoin:miter; stroke-dasharray:none">
   <path d="M289.0087,183.6000L289.0087,189.7200"/>
   <path d="M350.6688,183.6000L350.6688,189.7200"/>
   <path d="M394.4174,183.6000L394.4174,189.7200"/>
   <path d="M428.3514,183.6000L428.3514,189.7200"/>
   <path d="M456.0775,183.6000L456.0775,189.7200"/>
   <path d="M479.5196,183.6000L479.5196,189.7200"/>
   <path d="M499.8261,183.6000L499.8261,189.7200"/>
   <path d="M517.7377,183.6000L517.7377,189.7200"/>
   <path d="M533.7601,183.6000L533.7601,189.7200"/>
   <path d="M639.1688,183.6000L639.1688,189.7200"/>
   <path d="M700.8290,183.6000L700.8290,189.7200"/>
   <path d="M744.5775,183.6000L744.5775,189.7200"/>
   <path d="M778.5115,183.6000L778.5115,189.7200"/>
   <path d="M806.2377,183.6000L806.2377,189.7200"/>
   <path d="M829.6798,183.6000L829.6798,189.7200"/>
   <path d="M849.9862,183.6000L849.9862,189.7200"/>
   <path d="M867.8978,183.6000L867.8978,189.7200"/>
   <path d="M883.9202,183.6000L883.9202,189.7200"/>
   <path d="M989.3289,183.6000L989.3289,189.7200"/>
   <path d="M1050.9891,183.6000L1050.9891,189.7200"/>
   <path d="M1094.7376,183.6000L1094.7376,189.7200"/>
   <path d="M1128.6717,183.6000L1128.6717,189.7200"/>
   <path d="M1156.3978,183.6000L1156.3978,189.7200"/>
   <path d="M1179.8399,183.6000L1179.8399,189.7200"/>
   <path d="M1200.1463,183.6000L1200.1463,189.7200"/>
   <path d="M1218.0579,183.6000L1218.0579,189.7200"/>
   <path d="M1234.0804,183.6000L1234.0804,189.7200"/>
   <path d="M1339.4891,183.6000L1339.4891,189.7200"/>
   <path d="M1401.1492,183.6000L1401.1492,189.7200"/>
   <path d="M1444.8978,183.6000L1444.8978,189.7200"/>
   <path d="M1478.8318,183.6000L1478.8318,189.7200"/>
   <path d="M1506.5579,183.6000L1506.5579,189.7200"/>
   <path d="M1530.0000,183.6000L1530.0000,189.7200"/>
   <path d="M183.6000,183.6000L183.6000,195.8400"/>
   <path d="M533.7601,183.6000L533.7601,195.8400"/>
   <path d="M883.9202,183.6000L883.9202,195.8400"/>
   <path d="M1234.0804,183.6000L1234.0804,195.8400"/>
  </g>
  <g style="fill:#000000; fill-rule:nonzero">
   <text   style="font-family:'Helvetica','Nimbus Sans L'; font-style:normal; font-weight:normal; font-size:1224.0000" transform="matrix(0.0280,0.0000,-0.0000,-0.0280,177.6000,147.3600)">1</text>
   <text   style="font-family:'Helvetica','Nimbus Sans L'; font-style:normal; font-weight:normal; font-size:1224.0000" transform="matrix(0.0280,0.0000,-0.0000,-0.0280,515.7601,147.3600)">10</text>
   <text   style="font-family:'Helvetica','Nimbus Sans L'; font-style:normal; font-weight:normal; font-size:1224.0000" transform="matrix(0.0280,0.0000,-0.0000,-0.0280,856.4202,147.3600)">100</text>
   <text   style="font-family:'Helvetica','Nimbus Sans L'; font-style:normal; font-weight:normal; font-size:1224.0000" transform="matrix(0.0280,0.0000,-0.0000,-0.0280,1197.0804,147.3600)">1000</text>
   <text   style="font-family:'Helvetica','Nimbus Sans L'; font-style:normal; font-weight:normal; font-size:1224.0000" transform="matrix(0.0336,0.0000,-0.0000,-0.0336,768.0400,70.6800)">Matrix Size</text>
  </g>
  <g style="fill:none; stroke:#000000; stroke-width:  1.8360; stroke-linecap:butt; stroke-linejoin:miter; stroke-dasharray:none">
   <path d="M183.6000,183.6000L183.6000,1040.4000"/>
   <path d="M1530.0000,183.6000L1530.0000,1040.4000"/>
  </g>
  <g style="fill:none; stroke:#000000; stroke-width:  3.6720; stroke-linecap:butt; stroke-linejoin:miter; stroke-dasharray:none">
   <path d="M183.6000,183.6000L195.8400,183.6000"/>
   <path d="M1530.0000,183.6000L1517.7600,183.6000"/>
   <path d="M183.6000,278.8000L195.8400,278.8000"/>
   <path d="M1530.0000,278.8000L1517.7600,278.8000"/>
   <path d="M183.6000,374.0000L195.8400,374.0000"/>
   <path d="M1530.0000,374.0000L1517.7600,374.0000"/>
   <path d="M183.6000,469.2000L195.8400,469.2000"/>
   <path d="M1530.0000,469.2000L1517.7600,469.2000"/>
   <path d="M183.6000,564.4000L195.8400,564.4000"/>
   <path d="M1530.0000,564.4000L1517.7600,564.4000"/>
   <path d="M183.6000,659.6000L195.8400,659.6000"/>
   <path d="M1530.0000,659.6000L1517.7600,659.6000"/>
   <path d="M183.6000,754.8000L195.8400,754.8000"/>
   <path d="M1530.0000,754.8000L1517.7600,754.8000"/>
   <path d="M183.6000,850.0000L195.8400,850.0000"/>
   <path d="M1530.0000,850.0000L1517.7600,850.0000"/>
   <path d="M183.6000,945.2000L195.8400,945.2000"/>
   <path d="M1530.0000,945.2000L1517.7600,945.2000"/>
   <path d="M183.6000,1040.4000L195.8400,1040.4000"/>
   <path d="M1530.0000,1040.4000L1517.7600,1040.4000"/>
  </g>
  <g style="fill:#000000; fill-rule:nonzero">
   <text   style="font-family:'Helvetica','Nimbus Sans L'; font-style:normal; font-weight:normal; font-size:1224.0000" transform="matrix(0.0280,0.0000,-0.0000,-0.0280,154.3600,171.6000)">0</text>
   <text   style="font-family:'Helvetica','Nimbus Sans L'; font-style:normal; font-weight:normal; font-size:1224.0000" transform="matrix(0.0280,0.0000,-0.0000,-0.0280,97.3600,266.8000)">2000</text>
   <text   style="font-family:'Helvetica','Nimbus Sans L'; font-style:normal; font-weight:normal; font-size:1224.0000" transform="matrix(0.0280,0.0000,-0.0000,-0.0280,97.3600,362.0000)">4000</text>
   <text   style="font-family:'Helvetica','Nimbus Sans L'; font-style:normal; font-weight:normal; font-size:1224.0000" transform="matrix(0.0280,0.0000,-0.0000,-0.0280,97.3600,457.2000)">6000</text>
   <text   style="font-family:'Helvetica','Nimbus Sans L'; font-style:normal; font-weight:normal; font-size:1224.0000" transform="matrix(0.0280,0.0000,-0.0000,-0.0280,97.3600,552.4000)">8000</text>
   <text   style="font-family:'Helvetica','Nimbus Sans L'; font-style:normal; font-weight:normal; font-size:1224.0000" transform="matrix(0.0280,0.0000,-0.0000,-0.0280,78.3600,647.6000)">10000</text>
   <text   style="font-family:'Helvetica','Nimbus Sans L'; font-style:normal; font-weight:normal; font-size:1224.0000" transform="matrix(0.0280,0.0000,-0.0000,-0.0280,78.3600,742.8000)">12000</text>
   <text   style="font-family:'Helvetica','Nimbus Sans L'; font-style:normal; font-weight:normal; font-size:1224.0000" transform="matrix(0.0280,0.0000,-0.0000,-0.0280,78.3600,838.0000)">14000</text>
   <text   style="font-family:'Helvetica','Nimbus Sans L'; font-style:normal; font-weight:normal; font-size:1224.0000" transform="matrix(0.0280,0.0000,-0.0000,-0.0280,78.3600,933.2000)">16000</text>
   <text   style="font-family:'Helvetica','Nimbus Sans L'; font-style:normal; font-weight:normal; font-size:1224.0000" transform="matrix(0.0280,0.0000,-0.0000,-0.0280,78.3600,1028.4000)">18000</text>
   <text   style="font-family:'Helvetica','Nimbus Sans L'; font-style:normal; font-weight:normal; font-size:1224.0000" transform="matrix(0.0000,0.0336,0.0336,-0.0000,57.1200,539.5000)">MFlop/s</text>
  </g>
  <g style="fill:none; stroke:#000000; stroke-width:  3.6720; stroke-linecap:butt; stroke-linejoin:miter; stroke-dasharray:none">
   <path d="M183.6000,183.6000L183.6000,1040.4000L1530.0000,1040.4000L1530.0000,183.6000z"/>
  </g>
  <g style="fill:#FFFFFF; fill-rule:nonzero">
   <path  d="M244.8000,954.7200L244.8000,637.5600L488.5560,637.5600L488.5560,954.7200z"/>
  </g>
  <g style="fill:none; stroke:#FFFFFF; stroke-width:  1.8360; stroke-linecap:butt; stroke-linejoin:miter; stroke-dasharray:none">
   <path d="M244.8000,954.7200L244.8000,637.5600L488.5560,637.5600L488.5560,954.7200z"/>
  </g>
  <g style="fill:#000000; fill-rule:nonzero">
   <text   style="font-family:'Helvetica','Nimbus Sans L'; font-style:normal; font-weight:normal; font-size:1224.0000" transform="matrix(0.0280,0.0000,-0.0000,-0.0280,332.3160,917.4800)">Blitz++</text>
  </g>
  <g style="fill:none; stroke:#FF0000; stroke-width:  3.6720; stroke-linecap:butt; stroke-linejoin:miter; stroke-dasharray:none">
   <path d="M258.8760,929.9800L307.8360,929.9800"/>
  </g>
  <g style="fill:#000000; fill-rule:nonzero">
   <text   style="font-family:'Helvetica','Nimbus Sans L'; font-style:normal; font-weight:normal; font-size:1224.0000" transform="matrix(0.0280,0.0000,-0.0000,-0.0280,332.3160,880.2400)">uBLAS</text>
  </g>
  <g style="fill:none; stroke:#00FF00; stroke-width:  3.6720; stroke-linecap:butt; stroke-linejoin:miter; stroke-dasharray:none">
   <path d="M258.8760,892.7400L307.8360,892.7400"/>
  </g>
  <g style="fill:#000000; fill-rule:nonzero">
   <text   style="font-family:'Helvetica','Nimbus Sans L'; font-style:normal; font-weight:normal; font-size:1224.0000" transform="matrix(0.0280,0.0000,-0.0000,-0.0280,332.3160,843.0000)">GMM++</text>
  </g>
  <g style="fill:none; stroke:#0000FF; stroke-width:  3.6720; stroke-linecap:butt; stroke-linejoin:miter; stroke-dasharray:none">
   <path d="M258.8760,855.5000L307.8360,855.5000"/>
  </g>
  <g style="fill:#000000; fill-rule:nonzero">
   <text   style="font-family:'Helvetica','Nimbus Sans L'; font-style:normal; font-weight:normal; font-size:1224.0000" transform="matrix(0.0280,0.0000,-0.0000,-0.0280,332.3160,805.7600)">Armadillo</text>
  </g>
  <g style="fill:none; stroke:#670748; stroke-width:  3.6720; stroke-linecap:butt; stroke-linejoin:miter; stroke-dasharray:none">
   <path d="M258.8760,818.2600L307.8360,818.2600"/>
  </g>
  <g style="fill:#000000; fill-rule:nonzero">
   <text   style="font-family:'Helvetica','Nimbus Sans L'; font-style:normal; font-weight:normal; font-size:1224.0000" transform="matrix(0.0280,0.0000,-0.0000,-0.0280,332.3160,768.5200)">MTL4</text>
  </g>
  <g style="fill:none; stroke:#BC8F8F; stroke-width:  3.6720; stroke-linecap:butt; stroke-linejoin:miter; stroke-dasharray:none">
   <path d="M258.8760,781.0200L307.8360,781.0200"/>
  </g>
  <g style="fill:#000000; fill-rule:nonzero">
   <text   style="font-family:'Helvetica','Nimbus Sans L'; font-style:normal; font-weight:normal; font-size:1224.0000" transform="matrix(0.0280,0.0000,-0.0000,-0.0280,332.3160,731.2800)">Eigen3</text>
  </g>
  <g style="fill:none; stroke:#828282; stroke-width:  3.6720; stroke-linecap:butt; stroke-linejoin:miter; stroke-dasharray:none">
   <path d="M258.8760,740.2800L307.8360,740.2800"/>
  </g>
  <g style="fill:#000000; fill-rule:nonzero">
   <text   style="font-family:'Helvetica','Nimbus Sans L'; font-style:normal; font-weight:normal; font-size:1224.0000" transform="matrix(0.0280,0.0000,-0.0000,-0.0280,332.3160,687.0400)">Blaze</text>
  </g>
  <g style="fill:none; stroke:#9400D3; stroke-width:  3.6720; stroke-linecap:butt; stroke-linejoin:miter; stroke-dasharray:none">
   <path d="M258.8760,699.5400L307.8360,699.5400"/>
  </g>
  <g style="fill:#000000; fill-rule:nonzero">
   <text   style="font-family:'Helvetica','Nimbus Sans L'; font-style:normal; font-weight:normal; font-size:1224.0000" transform="matrix(0.0280,0.0000,-0.0000,-0.0280,332.3160,649.8000)">Intel MKL</text>
  </g>
  <g style="fill:none; stroke:#FFA500; stroke-width:  3.6720; stroke-linecap:butt; stroke-linejoin:miter; stroke-dasharray:none">
   <path d="M258.8760,662.3000L307.8360,662.3000"/>
  </g>
  <g style="fill:#000000; fill-rule:nonzero">
   <text   style="font-family:'Helvetica','Nimbus Sans L'; font-style:normal; font-weight:normal; font-size:1224.0000" transform="matrix(0.0196,0.0000,-0.0000,-0.0196,979.2000,354.9600)">GMM++</text>
   <text   style="font-family:'Helvetica','Nimbus Sans L'; font-style:normal; font-weight:normal; font-size:1224.0000" transform="matrix(0.0196,0.0000,-0.0000,-0.0196,1126.0800,203.1840)">Blitz++ &amp; uBLAS</text>
   <text   style="font-family:'Helvetica','Nimbus Sans L'; font-style:normal; font-weight:normal; font-size:1224.0000" transform="matrix(0.0196,0.0000,-0.0000,-0.0196,712.3680,385.5600)">MTL4</text>
   <text   style="font-family:'Helvetica','Nimbus Sans L'; font-style:normal; font-weight:normal; font-size:1224.0000" transform="matrix(0.0196,0.0000,-0.0000,-0.0196,1003.6800,575.2800)">Eigen3</text>
   <text   style="font-family:'Helvetica','Nimbus Sans L'; font-style:normal; font-weight:normal; font-size:1224.0000" transform="matrix(0.0196,0.0000,-0.0000,-0.0196,893.5200,918.0000)">Armadillo &amp; MKL</text>
   <text   style="font-family:'Helvetica','Nimbus Sans L'; font-style:normal; font-weight:normal; font-size:1224.0000" transform="matrix(0.0196,0.0000,-0.0000,-0.0196,615.6720,740.5200)">Blaze</text>
   <text   style="font-family:'Helvetica','Nimbus Sans L'; font-style:normal; font-weight:normal; font-size:1224.0000" transform="matrix(0.0196,0.0000,-0.0000,-0.0196,734.4000,997.5600)">Peak Performance</text>
  </g>
 </g>
</svg>
