<?xml version="1.0" encoding="ISO-8859-1"?>
<!DOCTYPE svg PUBLIC "-//W3C//DTD SVG 1.0//EN" "http://www.w3.org/TR/2001/REC-SVG-20010904/DTD/svg10.dtd">
<!-- generated by Grace-5.1.23 -->
<svg xml:space="preserve" width="22.0000in" height="17.0000in" viewBox="0.0000 0.0000 1584.0000 1224.0000">
 <g transform="translate(0,1224.0000) scale(1,-1)">
  <g style="fill:#FFFFFF; fill-rule:nonzero">
   <path  d="M0.0000,0.0000L0.0000,1224.0000L1584.0000,1224.0000L1584.0000,0.0000z"/>
  </g>
  <g style="fill:none; stroke:#FF0000; stroke-width:  3.6720; stroke-linecap:butt; stroke-linejoin:miter; stroke-dasharray:none">
   <path d="M183.6000,193.5038L284.9267,216.3969L344.1990,237.6972L386.2534,249.4118L418.8733,261.2921L445.5257,268.8779L468.0600,274.9477L487.5801,278.9147L504.7980,282.3479L520.2000,279.0638
            L534.1328,282.9640L546.8524,285.1325L558.5533,287.1340L569.3867,288.8296L579.4723,290.5818L588.9068,291.8875L597.7691,292.9911L606.1247,293.9721L614.0285,294.8829L621.5267,295.5401
            L635.4595,296.9855L648.1791,298.0573L659.8800,298.9913L670.7134,299.7906L680.7990,300.4598L694.7318,301.2943L707.4514,301.4588L719.1523,286.9515L729.9857,288.4543L743.2843,289.9503
            L755.4733,291.3563L769.4061,292.4307L782.1257,294.0295L796.0585,294.9994L808.7781,296.0173L822.3413,296.9701L834.7522,297.9699L847.7548,298.8250L861.1210,299.5884L874.6662,300.4007
            L888.2457,301.3303L901.7492,301.2781L915.0945,302.4090L928.2223,302.8786L941.9103,303.3566L955.1734,303.6771L968.6988,304.1440L982.3222,304.4259L995.9167,304.9117L1009.3870,305.1594
            L1023.1324,305.3641L1036.9800,305.8371L1050.7965,306.1061L1064.4823,306.3280L1078.2866,306.5791L1092.0733,306.7384L1106.0061,306.6596L1119.9389,306.7350L1133.7618,306.9184L1147.5946,307.4213
            L1161.5092,307.3185L1175.3758,307.7298L1189.2485,307.6252L1203.1539,307.8437L1216.9747,307.7940L1230.8510,307.5370L1244.7632,308.1145L1258.6866,307.9482L1272.5939,307.0632L1286.4570,304.9075
            L1300.3898,302.7552L1314.2651,302.3936L1328.1630,302.3285L1342.0746,302.4176L1355.9833,302.4330L1369.9117,302.4733L1383.8246,302.5084L1397.7249,302.4142L1411.6380,302.4159L1425.5708,302.4262
            L1439.4900,302.3396L1453.4129,302.4270L1467.3412,302.4382L1481.2658,302.4519L1495.1893,302.5136L1509.1204,302.5384L1523.0393,302.5761L1530.0000,302.5084"/>
  </g>
  <g style="fill:none; stroke:#00FF00; stroke-width:  3.6720; stroke-linecap:butt; stroke-linejoin:miter; stroke-dasharray:none">
   <path d="M183.6000,210.4848L284.9267,257.4245L344.1990,282.9939L386.2534,299.6990L418.8733,315.1728L445.5257,324.7492L468.0600,316.4743L487.5801,316.2164L504.7980,338.8102L520.2000,341.1235
            L534.1328,328.2501L546.8524,334.4268L558.5533,333.2675L569.3867,333.1450L579.4723,338.4118L588.9068,342.4139L597.7691,342.9682L606.1247,341.3120L614.0285,345.0528L621.5267,348.9136
            L635.4595,339.2292L648.1791,348.6060L659.8800,341.2221L670.7134,345.3107L680.7990,339.7741L694.7318,328.7668L707.4514,304.7909L719.1523,313.1516L729.9857,314.6458L743.2843,311.1210
            L755.4733,313.8764L769.4061,319.2769L782.1257,309.4588L796.0585,314.9209L808.7781,298.6194L822.3413,316.7056L834.7522,312.8808L847.7548,312.5741L861.1210,314.4574L874.6662,314.1403
            L888.2457,308.2575L901.7492,301.4211L915.0945,312.8731L928.2223,312.3719L941.9103,312.0626L955.1734,307.9380L968.6988,311.5160L982.3222,307.9560L995.9167,310.9402L1009.3870,307.9028
            L1023.1324,304.4097L1036.9800,310.3233L1050.7965,310.2110L1064.4823,309.3200L1078.2866,309.9592L1092.0733,307.8506L1106.0061,308.9473L1119.9389,309.4905L1133.7618,309.4091L1147.5946,309.1889
            L1161.5092,307.5104L1175.3758,307.8386L1189.2485,307.7066L1203.1539,309.1700L1216.9747,309.1281L1230.8510,309.3174L1244.7632,308.8744L1258.6866,308.5069L1272.5939,308.1033L1286.4570,305.9767
            L1300.3898,305.2168L1314.2651,303.4852L1328.1630,302.8040L1342.0746,303.4432L1355.9833,303.4406L1369.9117,303.4826L1383.8246,303.5263L1397.7249,302.8177L1411.6380,302.8400L1425.5708,303.5460
            L1439.4900,303.6171L1453.4129,302.8923L1467.3412,303.0945L1481.2658,303.6068L1495.1893,303.6891L1509.1204,303.6411L1523.0393,303.6668L1530.0000,303.7970"/>
  </g>
  <g style="fill:none; stroke:#BC8F8F; stroke-width:  3.6720; stroke-linecap:butt; stroke-linejoin:miter; stroke-dasharray:none">
   <path d="M183.6000,190.5679L284.9267,222.4657L344.1990,270.6295L386.2534,309.4665L418.8733,344.1994L445.5257,363.4706L468.0600,276.8841L487.5801,283.7042L504.7980,367.6209L520.2000,374.4334
            L534.1328,367.9122L546.8524,432.7334L558.5533,417.8962L569.3867,410.2056L579.4723,405.4332L588.9068,438.7859L597.7691,445.3138L606.1247,434.2286L614.0285,428.5051L621.5267,478.1995
            L635.4595,451.4057L648.1791,453.9932L659.8800,459.4142L670.7134,485.7531L680.7990,470.8902L694.7318,486.0461L707.4514,440.6049L719.1523,431.2400L729.9857,435.6569L743.2843,434.9766
            L755.4733,436.7741L769.4061,441.7427L782.1257,453.2838L796.0585,444.2848L808.7781,450.0836L822.3413,447.2939L834.7522,447.5218L847.7548,450.1762L861.1210,453.9230L874.6662,462.1491
            L888.2457,461.6736L901.7492,459.4322L915.0945,465.9482L928.2223,453.7636L941.9103,454.5784L955.1734,454.1363L968.6988,454.6641L982.3222,455.0437L995.9167,456.4488L1009.3870,458.0947
            L1023.1324,458.2318L1036.9800,461.3848L1050.7965,465.0991L1064.4823,462.4087L1078.2866,466.9146L1092.0733,462.7951L1106.0061,464.3391L1119.9389,470.1328L1133.7618,470.8225L1147.5946,470.6905
            L1161.5092,477.6126L1175.3758,477.6332L1189.2485,478.1687L1203.1539,472.6937L1216.9747,472.3545L1230.8510,479.5550L1244.7632,479.0863L1258.6866,478.5568L1272.5939,476.0241L1286.4570,463.3975
            L1300.3898,451.6627L1314.2651,445.4818L1328.1630,436.7133L1342.0746,439.8055L1355.9833,435.9345L1369.9117,440.3470L1383.8246,436.7056L1397.7249,439.6444L1411.6380,439.1457L1425.5708,441.3657
            L1439.4900,411.1112L1453.4129,436.3714L1467.3412,430.6034L1481.2658,407.9916L1495.1893,418.0573L1509.1204,421.2875L1523.0393,421.5188L1530.0000,427.0940"/>
  </g>
  <g style="fill:none; stroke:#828282; stroke-width:  3.6720; stroke-linecap:butt; stroke-linejoin:miter; stroke-dasharray:none">
   <path d="M183.6000,186.0440L284.9267,199.0655L344.1990,211.8072L386.2534,228.8438L418.8733,237.7436L445.5257,260.0652L468.0600,267.5870L487.5801,310.4347L504.7980,307.8643L520.2000,343.4626
            L534.1328,329.1977L546.8524,389.6844L558.5533,365.3547L569.3867,401.1749L579.4723,380.7488L588.9068,448.7222L597.7691,411.0924L606.1247,457.2645L614.0285,420.6106L621.5267,504.9171
            L635.4595,502.2062L648.1791,520.2753L659.8800,531.1721L670.7134,552.7034L680.7990,548.4417L694.7318,506.2143L707.4514,585.2156L719.1523,516.7924L729.9857,594.0783L743.2843,606.5508
            L755.4733,620.3401L769.4061,556.2172L782.1257,663.3900L796.0585,639.8092L808.7781,623.7382L822.3413,551.4859L834.7522,634.3693L847.7548,646.7698L861.1210,575.6683L874.6662,584.8154
            L888.2457,685.6942L901.7492,686.6264L915.0945,604.5236L928.2223,580.1587L941.9103,582.8834L955.1734,623.2678L968.6988,575.9347L982.3222,599.6801L995.9167,572.1125L1009.3870,596.2537
            L1023.1324,592.9473L1036.9800,579.2762L1050.7965,585.7682L1064.4823,607.1814L1078.2866,590.1782L1092.0733,606.1541L1106.0061,613.9389L1119.9389,600.1607L1133.7618,596.9195L1147.5946,598.3323
            L1161.5092,607.9311L1175.3758,598.9364L1189.2485,602.6677L1203.1539,587.1982L1216.9747,583.7110L1230.8510,594.7912L1244.7632,589.7703L1258.6866,588.0593L1272.5939,570.6671L1286.4570,514.8911
            L1300.3898,469.9160L1314.2651,446.2606L1328.1630,437.0372L1342.0746,438.6599L1355.9833,435.6097L1369.9117,441.9046L1383.8246,435.9490L1397.7249,435.8968L1411.6380,432.9639L1425.5708,434.7572
            L1439.4900,426.8164L1453.4129,420.5977L1467.3412,413.0725L1481.2658,400.4664L1495.1893,401.8715L1509.1204,411.3177L1523.0393,407.3250L1530.0000,407.9325"/>
  </g>
  <g style="fill:none; stroke:#9400D3; stroke-width:  3.6720; stroke-linecap:butt; stroke-linejoin:miter; stroke-dasharray:none">
   <path d="M183.6000,189.6640L284.9267,218.8839L344.1990,242.3059L386.2534,315.3664L418.8733,334.5913L445.5257,388.2064L468.0600,437.2531L487.5801,471.2012L504.7980,469.6204L520.2000,522.1654
            L534.1328,556.4811L546.8524,602.2196L558.5533,544.9948L569.3867,595.0859L579.4723,634.9442L588.9068,691.6361L597.7691,639.9000L606.1247,703.2321L614.0285,720.8582L621.5267,782.9393
            L635.4595,724.6615L648.1791,801.2388L659.8800,798.5365L670.7134,874.7857L680.7990,835.5443L694.7318,850.1099L707.4514,930.8333L719.1523,909.4236L729.9857,904.3239L743.2843,893.8067
            L755.4733,941.1826L769.4061,941.9194L782.1257,966.6167L796.0585,762.0488L808.7781,719.8197L822.3413,715.1536L834.7522,711.6493L847.7548,724.7549L861.1210,679.8020L874.6662,693.1081
            L888.2457,708.1467L901.7492,705.2567L915.0945,697.9370L928.2223,627.4455L941.9103,628.0916L955.1734,612.6794L968.6988,590.3084L982.3222,579.4330L995.9167,570.5095L1009.3870,573.8278
            L1023.1324,569.7820L1036.9800,572.4116L1050.7965,580.8425L1064.4823,575.4720L1078.2866,576.8027L1092.0733,582.6666L1106.0061,578.8170L1119.9389,585.2104L1133.7618,587.2034L1147.5946,586.0347
            L1161.5092,582.5526L1175.3758,576.1969L1189.2485,579.0903L1203.1539,572.6737L1216.9747,570.2533L1230.8510,571.5291L1244.7632,572.1896L1258.6866,574.3693L1272.5939,554.3416L1286.4570,509.3656
            L1300.3898,464.8506L1314.2651,443.8419L1328.1630,437.5547L1342.0746,435.7434L1355.9833,435.3424L1369.9117,439.2134L1383.8246,432.6529L1397.7249,434.1866L1411.6380,434.7923L1425.5708,432.3359
            L1439.4900,427.1634L1453.4129,422.0714L1467.3412,416.3309L1481.2658,397.5053L1495.1893,403.5277L1509.1204,409.1483L1523.0393,408.8184L1530.0000,413.7836"/>
  </g>
  <g style="fill:none; stroke:#FFA500; stroke-width:  3.6720; stroke-linecap:butt; stroke-linejoin:miter; stroke-dasharray:none">
   <path d="M183.6000,184.5517L284.9267,189.0942L344.1990,196.2757L386.2534,207.5548L418.8733,216.8352L445.5257,231.2643L468.0600,242.6674L487.5801,270.7117L504.7980,279.1118L520.2000,301.8735
            L534.1328,312.2777L546.8524,340.3644L558.5533,328.9638L569.3867,347.3353L579.4723,354.2094L588.9068,380.1371L597.7691,384.9351L606.1247,406.4374L614.0285,405.1882L621.5267,440.2467
            L635.4595,454.5287L648.1791,483.9872L659.8800,509.4693L670.7134,537.2082L680.7990,532.8445L694.7318,547.2353L707.4514,588.1038L719.1523,581.4191L729.9857,622.6783L743.2843,632.9265
            L755.4733,641.1046L769.4061,648.0156L782.1257,678.4526L796.0585,651.0401L808.7781,656.5605L822.3413,654.2934L834.7522,673.5200L847.7548,679.0335L861.1210,680.1482L874.6662,694.9597
            L888.2457,709.4627L901.7492,706.9780L915.0945,698.6987L928.2223,629.3699L941.9103,628.7162L955.1734,613.4334L968.6988,590.9621L982.3222,579.5633L995.9167,570.6954L1009.3870,573.8347
            L1023.1324,569.9243L1036.9800,572.5469L1050.7965,581.2871L1064.4823,575.7342L1078.2866,577.0803L1092.0733,583.0864L1106.0061,578.9669L1119.9389,585.4478L1133.7618,587.1331L1147.5946,586.1315
            L1161.5092,582.6066L1175.3758,576.1378L1189.2485,579.1152L1203.1539,572.9188L1216.9747,570.2816L1230.8510,571.8212L1244.7632,572.3336L1258.6866,574.5518L1272.5939,554.4282L1286.4570,509.3665
            L1300.3898,465.6868L1314.2651,444.3045L1328.1630,435.5275L1342.0746,435.7083L1355.9833,435.2105L1369.9117,439.2014L1383.8246,432.9125L1397.7249,434.0067L1411.6380,434.9980L1425.5708,432.3950
            L1439.4900,427.2302L1453.4129,422.1897L1467.3412,416.3694L1481.2658,397.4856L1495.1893,403.5603L1509.1204,409.1774L1523.0393,408.8579L1530.0000,413.8076"/>
  </g>
  <g style="fill:none; stroke:#000000; stroke-width:  1.8360; stroke-linecap:butt; stroke-linejoin:miter; stroke-dasharray:none">
   <path d="M183.6000,183.6000L1530.0000,183.6000"/>
  </g>
  <g style="fill:none; stroke:#000000; stroke-width:  3.6720; stroke-linecap:butt; stroke-linejoin:miter; stroke-dasharray:none">
   <path d="M284.9267,183.6000L284.9267,189.7200"/>
   <path d="M344.1990,183.6000L344.1990,189.7200"/>
   <path d="M386.2534,183.6000L386.2534,189.7200"/>
   <path d="M418.8733,183.6000L418.8733,189.7200"/>
   <path d="M445.5257,183.6000L445.5257,189.7200"/>
   <path d="M468.0600,183.6000L468.0600,189.7200"/>
   <path d="M487.5801,183.6000L487.5801,189.7200"/>
   <path d="M504.7980,183.6000L504.7980,189.7200"/>
   <path d="M520.2000,183.6000L520.2000,189.7200"/>
   <path d="M621.5267,183.6000L621.5267,189.7200"/>
   <path d="M680.7990,183.6000L680.7990,189.7200"/>
   <path d="M722.8534,183.6000L722.8534,189.7200"/>
   <path d="M755.4733,183.6000L755.4733,189.7200"/>
   <path d="M782.1257,183.6000L782.1257,189.7200"/>
   <path d="M804.6600,183.6000L804.6600,189.7200"/>
   <path d="M824.1801,183.6000L824.1801,189.7200"/>
   <path d="M841.3980,183.6000L841.3980,189.7200"/>
   <path d="M856.8000,183.6000L856.8000,189.7200"/>
   <path d="M958.1267,183.6000L958.1267,189.7200"/>
   <path d="M1017.3990,183.6000L1017.3990,189.7200"/>
   <path d="M1059.4534,183.6000L1059.4534,189.7200"/>
   <path d="M1092.0733,183.6000L1092.0733,189.7200"/>
   <path d="M1118.7257,183.6000L1118.7257,189.7200"/>
   <path d="M1141.2600,183.6000L1141.2600,189.7200"/>
   <path d="M1160.7801,183.6000L1160.7801,189.7200"/>
   <path d="M1177.9980,183.6000L1177.9980,189.7200"/>
   <path d="M1193.4000,183.6000L1193.4000,189.7200"/>
   <path d="M1294.7267,183.6000L1294.7267,189.7200"/>
   <path d="M1353.9990,183.6000L1353.9990,189.7200"/>
   <path d="M1396.0534,183.6000L1396.0534,189.7200"/>
   <path d="M1428.6733,183.6000L1428.6733,189.7200"/>
   <path d="M1455.3257,183.6000L1455.3257,189.7200"/>
   <path d="M1477.8600,183.6000L1477.8600,189.7200"/>
   <path d="M1497.3801,183.6000L1497.3801,189.7200"/>
   <path d="M1514.5980,183.6000L1514.5980,189.7200"/>
   <path d="M1530.0000,183.6000L1530.0000,189.7200"/>
   <path d="M183.6000,183.6000L183.6000,195.8400"/>
   <path d="M520.2000,183.6000L520.2000,195.8400"/>
   <path d="M856.8000,183.6000L856.8000,195.8400"/>
   <path d="M1193.4000,183.6000L1193.4000,195.8400"/>
   <path d="M1530.0000,183.6000L1530.0000,195.8400"/>
  </g>
  <g style="fill:#000000; fill-rule:nonzero">
   <text   style="font-family:'Helvetica','Nimbus Sans L'; font-style:normal; font-weight:normal; font-size:1224.0000" transform="matrix(0.0280,0.0000,-0.0000,-0.0280,177.6000,147.3600)">1</text>
   <text   style="font-family:'Helvetica','Nimbus Sans L'; font-style:normal; font-weight:normal; font-size:1224.0000" transform="matrix(0.0280,0.0000,-0.0000,-0.0280,502.2000,147.3600)">10</text>
   <text   style="font-family:'Helvetica','Nimbus Sans L'; font-style:normal; font-weight:normal; font-size:1224.0000" transform="matrix(0.0280,0.0000,-0.0000,-0.0280,829.3000,147.3600)">100</text>
   <text   style="font-family:'Helvetica','Nimbus Sans L'; font-style:normal; font-weight:normal; font-size:1224.0000" transform="matrix(0.0280,0.0000,-0.0000,-0.0280,1156.4000,147.3600)">1000</text>
   <text   style="font-family:'Helvetica','Nimbus Sans L'; font-style:normal; font-weight:normal; font-size:1224.0000" transform="matrix(0.0280,0.0000,-0.0000,-0.0280,1483.5000,147.3600)">10000</text>
   <text   style="font-family:'Helvetica','Nimbus Sans L'; font-style:normal; font-weight:normal; font-size:1224.0000" transform="matrix(0.0336,0.0000,-0.0000,-0.0336,703.0400,70.6800)">Matrix/Vector Size</text>
  </g>
  <g style="fill:none; stroke:#000000; stroke-width:  1.8360; stroke-linecap:butt; stroke-linejoin:miter; stroke-dasharray:none">
   <path d="M183.6000,183.6000L183.6000,1040.4000"/>
   <path d="M1530.0000,183.6000L1530.0000,1040.4000"/>
  </g>
  <g style="fill:none; stroke:#000000; stroke-width:  3.6720; stroke-linecap:butt; stroke-linejoin:miter; stroke-dasharray:none">
   <path d="M183.6000,183.6000L195.8400,183.6000"/>
   <path d="M1530.0000,183.6000L1517.7600,183.6000"/>
   <path d="M183.6000,269.2800L195.8400,269.2800"/>
   <path d="M1530.0000,269.2800L1517.7600,269.2800"/>
   <path d="M183.6000,354.9600L195.8400,354.9600"/>
   <path d="M1530.0000,354.9600L1517.7600,354.9600"/>
   <path d="M183.6000,440.6400L195.8400,440.6400"/>
   <path d="M1530.0000,440.6400L1517.7600,440.6400"/>
   <path d="M183.6000,526.3200L195.8400,526.3200"/>
   <path d="M1530.0000,526.3200L1517.7600,526.3200"/>
   <path d="M183.6000,612.0000L195.8400,612.0000"/>
   <path d="M1530.0000,612.0000L1517.7600,612.0000"/>
   <path d="M183.6000,697.6800L195.8400,697.6800"/>
   <path d="M1530.0000,697.6800L1517.7600,697.6800"/>
   <path d="M183.6000,783.3600L195.8400,783.3600"/>
   <path d="M1530.0000,783.3600L1517.7600,783.3600"/>
   <path d="M183.6000,869.0400L195.8400,869.0400"/>
   <path d="M1530.0000,869.0400L1517.7600,869.0400"/>
   <path d="M183.6000,954.7200L195.8400,954.7200"/>
   <path d="M1530.0000,954.7200L1517.7600,954.7200"/>
   <path d="M183.6000,1040.4000L195.8400,1040.4000"/>
   <path d="M1530.0000,1040.4000L1517.7600,1040.4000"/>
  </g>
  <g style="fill:#000000; fill-rule:nonzero">
   <text   style="font-family:'Helvetica','Nimbus Sans L'; font-style:normal; font-weight:normal; font-size:1224.0000" transform="matrix(0.0280,0.0000,-0.0000,-0.0280,154.3600,171.6000)">0</text>
   <text   style="font-family:'Helvetica','Nimbus Sans L'; font-style:normal; font-weight:normal; font-size:1224.0000" transform="matrix(0.0280,0.0000,-0.0000,-0.0280,97.3600,257.2800)">1000</text>
   <text   style="font-family:'Helvetica','Nimbus Sans L'; font-style:normal; font-weight:normal; font-size:1224.0000" transform="matrix(0.0280,0.0000,-0.0000,-0.0280,97.3600,342.9600)">2000</text>
   <text   style="font-family:'Helvetica','Nimbus Sans L'; font-style:normal; font-weight:normal; font-size:1224.0000" transform="matrix(0.0280,0.0000,-0.0000,-0.0280,97.3600,428.6400)">3000</text>
   <text   style="font-family:'Helvetica','Nimbus Sans L'; font-style:normal; font-weight:normal; font-size:1224.0000" transform="matrix(0.0280,0.0000,-0.0000,-0.0280,97.3600,514.3200)">4000</text>
   <text   style="font-family:'Helvetica','Nimbus Sans L'; font-style:normal; font-weight:normal; font-size:1224.0000" transform="matrix(0.0280,0.0000,-0.0000,-0.0280,97.3600,600.0000)">5000</text>
   <text   style="font-family:'Helvetica','Nimbus Sans L'; font-style:normal; font-weight:normal; font-size:1224.0000" transform="matrix(0.0280,0.0000,-0.0000,-0.0280,97.3600,685.6800)">6000</text>
   <text   style="font-family:'Helvetica','Nimbus Sans L'; font-style:normal; font-weight:normal; font-size:1224.0000" transform="matrix(0.0280,0.0000,-0.0000,-0.0280,97.3600,771.3600)">7000</text>
   <text   style="font-family:'Helvetica','Nimbus Sans L'; font-style:normal; font-weight:normal; font-size:1224.0000" transform="matrix(0.0280,0.0000,-0.0000,-0.0280,97.3600,857.0400)">8000</text>
   <text   style="font-family:'Helvetica','Nimbus Sans L'; font-style:normal; font-weight:normal; font-size:1224.0000" transform="matrix(0.0280,0.0000,-0.0000,-0.0280,97.3600,942.7200)">9000</text>
   <text   style="font-family:'Helvetica','Nimbus Sans L'; font-style:normal; font-weight:normal; font-size:1224.0000" transform="matrix(0.0280,0.0000,-0.0000,-0.0280,78.3600,1028.4000)">10000</text>
   <text   style="font-family:'Helvetica','Nimbus Sans L'; font-style:normal; font-weight:normal; font-size:1224.0000" transform="matrix(0.0000,0.0336,0.0336,-0.0000,57.1200,539.5000)">MFlop/s</text>
  </g>
  <g style="fill:none; stroke:#000000; stroke-width:  3.6720; stroke-linecap:butt; stroke-linejoin:miter; stroke-dasharray:none">
   <path d="M183.6000,183.6000L183.6000,1040.4000L1530.0000,1040.4000L1530.0000,183.6000z"/>
  </g>
  <g style="fill:#FFFFFF; fill-rule:nonzero">
   <path  d="M244.8000,1003.6800L244.8000,761.0000L488.5560,761.0000L488.5560,1003.6800z"/>
  </g>
  <g style="fill:none; stroke:#FFFFFF; stroke-width:  1.8360; stroke-linecap:butt; stroke-linejoin:miter; stroke-dasharray:none">
   <path d="M244.8000,1003.6800L244.8000,761.0000L488.5560,761.0000L488.5560,1003.6800z"/>
  </g>
  <g style="fill:#000000; fill-rule:nonzero">
   <text   style="font-family:'Helvetica','Nimbus Sans L'; font-style:normal; font-weight:normal; font-size:1224.0000" transform="matrix(0.0280,0.0000,-0.0000,-0.0280,332.3160,966.4400)">Blitz++</text>
  </g>
  <g style="fill:none; stroke:#FF0000; stroke-width:  3.6720; stroke-linecap:butt; stroke-linejoin:miter; stroke-dasharray:none">
   <path d="M258.8760,978.9400L307.8360,978.9400"/>
  </g>
  <g style="fill:#000000; fill-rule:nonzero">
   <text   style="font-family:'Helvetica','Nimbus Sans L'; font-style:normal; font-weight:normal; font-size:1224.0000" transform="matrix(0.0280,0.0000,-0.0000,-0.0280,332.3160,929.2000)">uBLAS</text>
  </g>
  <g style="fill:none; stroke:#00FF00; stroke-width:  3.6720; stroke-linecap:butt; stroke-linejoin:miter; stroke-dasharray:none">
   <path d="M258.8760,941.7000L307.8360,941.7000"/>
  </g>
  <g style="fill:#000000; fill-rule:nonzero">
   <text   style="font-family:'Helvetica','Nimbus Sans L'; font-style:normal; font-weight:normal; font-size:1224.0000" transform="matrix(0.0280,0.0000,-0.0000,-0.0280,332.3160,891.9600)">MTL4</text>
  </g>
  <g style="fill:none; stroke:#BC8F8F; stroke-width:  3.6720; stroke-linecap:butt; stroke-linejoin:miter; stroke-dasharray:none">
   <path d="M258.8760,904.4600L307.8360,904.4600"/>
  </g>
  <g style="fill:#000000; fill-rule:nonzero">
   <text   style="font-family:'Helvetica','Nimbus Sans L'; font-style:normal; font-weight:normal; font-size:1224.0000" transform="matrix(0.0280,0.0000,-0.0000,-0.0280,332.3160,854.7200)">Eigen3</text>
  </g>
  <g style="fill:none; stroke:#828282; stroke-width:  3.6720; stroke-linecap:butt; stroke-linejoin:miter; stroke-dasharray:none">
   <path d="M258.8760,863.7200L307.8360,863.7200"/>
  </g>
  <g style="fill:#000000; fill-rule:nonzero">
   <text   style="font-family:'Helvetica','Nimbus Sans L'; font-style:normal; font-weight:normal; font-size:1224.0000" transform="matrix(0.0280,0.0000,-0.0000,-0.0280,332.3160,810.4800)">Blaze</text>
  </g>
  <g style="fill:none; stroke:#9400D3; stroke-width:  3.6720; stroke-linecap:butt; stroke-linejoin:miter; stroke-dasharray:none">
   <path d="M258.8760,822.9800L307.8360,822.9800"/>
  </g>
  <g style="fill:#000000; fill-rule:nonzero">
   <text   style="font-family:'Helvetica','Nimbus Sans L'; font-style:normal; font-weight:normal; font-size:1224.0000" transform="matrix(0.0280,0.0000,-0.0000,-0.0280,332.3160,773.2400)">Intel MKL</text>
  </g>
  <g style="fill:none; stroke:#FFA500; stroke-width:  3.6720; stroke-linecap:butt; stroke-linejoin:miter; stroke-dasharray:none">
   <path d="M258.8760,785.7400L307.8360,785.7400"/>
  </g>
  <g style="fill:#000000; fill-rule:nonzero">
   <text   style="font-family:'Helvetica','Nimbus Sans L'; font-style:normal; font-weight:normal; font-size:1224.0000" transform="matrix(0.0196,0.0000,-0.0000,-0.0196,771.1200,324.3600)">uBLAS</text>
   <text   style="font-family:'Helvetica','Nimbus Sans L'; font-style:normal; font-weight:normal; font-size:1224.0000" transform="matrix(0.0196,0.0000,-0.0000,-0.0196,636.4800,269.2800)">Blitz++</text>
   <text   style="font-family:'Helvetica','Nimbus Sans L'; font-style:normal; font-weight:normal; font-size:1224.0000" transform="matrix(0.0196,0.0000,-0.0000,-0.0196,807.8400,418.6080)">MTL4</text>
   <text   style="font-family:'Helvetica','Nimbus Sans L'; font-style:normal; font-weight:normal; font-size:1224.0000" transform="matrix(0.0196,0.0000,-0.0000,-0.0196,832.3200,545.9040)">Eigen3</text>
   <text   style="font-family:'Helvetica','Nimbus Sans L'; font-style:normal; font-weight:normal; font-size:1224.0000" transform="matrix(0.0196,0.0000,-0.0000,-0.0196,801.7200,856.8000)">Blaze</text>
   <text   style="font-family:'Helvetica','Nimbus Sans L'; font-style:normal; font-weight:normal; font-size:1224.0000" transform="matrix(0.0196,0.0000,-0.0000,-0.0196,1101.6000,550.8000)">MKL</text>
  </g>
 </g>
</svg>
