<?xml version="1.0" encoding="ISO-8859-1"?>
<!DOCTYPE svg PUBLIC "-//W3C//DTD SVG 1.0//EN" "http://www.w3.org/TR/2001/REC-SVG-20010904/DTD/svg10.dtd">
<!-- generated by Grace-5.1.23 -->
<svg xml:space="preserve" width="22.0000in" height="17.0000in" viewBox="0.0000 0.0000 1584.0000 1224.0000">
 <g transform="translate(0,1224.0000) scale(1,-1)">
  <g style="fill:#FFFFFF; fill-rule:nonzero">
   <path  d="M0.0000,0.0000L0.0000,1224.0000L1584.0000,1224.0000L1584.0000,0.0000z"/>
  </g>
  <g style="fill:none; stroke:#FF0000; stroke-width:  3.6720; stroke-linecap:butt; stroke-linejoin:miter; stroke-dasharray:none">
   <path d="M183.6000,227.9910L238.8691,272.4063L271.1995,316.8948L294.1382,361.3032L311.9309,356.1624L326.4686,385.4107L338.7600,425.5503L349.4073,460.0808L358.7989,375.1376L367.2000,444.7241
            L374.7997,470.5180L381.7377,496.4477L388.1200,452.4181L394.0291,479.4131L399.5304,494.0286L404.6764,559.5524L409.5104,504.4359L414.0680,523.4797L418.3792,542.2608L422.4691,561.1132
            L430.0688,524.0281L437.0068,558.3543L443.3891,536.5288L449.2982,550.6531L454.7995,544.5156L462.3992,466.8638L469.3371,574.0309L475.7195,597.9456L481.6286,588.8764L488.8823,561.9100
            L495.5309,601.5228L503.1306,593.2089L510.0686,648.0541L517.6683,648.5996L524.6062,603.9247L532.0043,588.6251L538.7739,582.1448L545.8663,598.7025L553.1569,659.4610L560.5452,640.3344
            L567.9522,648.3654L575.3177,632.5375L582.5970,677.3781L589.7576,672.7100L597.2238,675.3475L604.4582,686.7944L611.8357,684.6681L619.2666,687.4455L626.6818,685.9718L634.0292,691.8223
            L641.5268,698.0499L649.0800,708.8255L656.6163,685.4078L664.0813,732.1862L671.6109,729.3488L679.1309,750.5845L686.7306,729.8914L694.3303,730.7596L701.8701,714.3776L709.4152,715.6714
            L717.0050,767.4735L724.5686,774.9348L732.1355,737.3070L739.7203,763.0753L747.2590,767.6977L754.8278,586.4716L762.4163,478.3863L770.0109,414.2848L777.5967,377.0783L785.1584,372.5173
            L792.7581,375.6260L800.3264,373.6182L807.9071,377.0040L815.4952,374.1338L823.0818,374.3237L830.6791,376.7984L838.2680,377.2468L845.8500,377.5424L853.4389,377.3410L861.0386,376.0230
            L868.6309,371.3463L876.2252,375.2505L883.8224,373.2698L891.4177,343.1090L899.0123,369.2786L906.6111,363.7593L914.2033,363.3009L921.7992,341.1641L929.3933,356.0753L936.9893,370.5866
            L944.5838,387.2728L952.1799,400.9016L959.7786,419.1743L967.3753,440.7842L974.9731,459.1954L982.5721,479.9600L990.1701,500.8416L997.7693,521.7804L1005.3679,545.4552L1012.9669,568.3446
            L1020.5657,589.8603L1028.1646,611.5073L1035.7637,629.3873L1043.3628,650.7431L1050.9620,674.5978L1058.5617,692.5164L1066.1603,719.0529L1073.7592,738.0239L1081.3581,758.0544L1088.9578,779.3445
            L1096.5568,796.0806L1104.1564,812.7225L1111.7555,818.0261L1119.3550,825.3975L1126.9547,854.8243L1134.5541,875.6659L1142.1534,879.2531L1149.7529,899.6706L1157.3524,880.8938L1164.9519,920.7108
            L1172.5514,926.3456L1180.1511,925.3389L1187.7506,943.2589L1195.3501,933.3029L1202.9496,965.3657L1210.5493,956.4836L1218.1488,968.3988L1225.7484,982.4975L1233.3480,988.1295L1240.9476,995.3209
            L1248.5473,991.8666L1256.1470,996.7603L1263.7466,998.8438L1271.3463,997.0573L1278.9459,967.2050L1286.5456,940.1216L1294.1452,876.6941L1301.7449,826.7069L1309.3446,753.1464L1316.9443,684.1497
            L1324.5440,604.6301L1332.1437,532.4361L1339.7433,483.4943L1347.3430,451.4799L1354.9427,435.3007L1362.5424,422.9171L1370.1420,440.4715L1377.7417,435.6563L1385.3414,419.1386L1392.9411,434.4682
            L1400.5408,423.0185L1408.1405,426.2058L1415.7402,417.1751L1423.3399,415.3273L1430.9396,410.6134L1438.5393,412.3884L1446.1390,411.6345L1453.7387,412.3756L1461.3384,399.7021L1468.8000,411.2089"/>
  </g>
  <g style="fill:none; stroke:#FFA500; stroke-width:  3.6720; stroke-linecap:butt; stroke-linejoin:miter; stroke-dasharray:none">
   <path d="M183.6000,227.9910L238.8691,272.4063L271.1995,316.8948L294.1382,361.3032L311.9309,356.1624L326.4686,385.4107L338.7600,425.5503L349.4073,460.0808L358.7989,375.1376L367.2000,444.7241
            L374.7997,470.5180L381.7377,496.4477L388.1200,452.4181L394.0291,479.4131L399.5304,494.0286L404.6764,559.5524L409.5104,504.4359L414.0680,523.4797L418.3792,542.2608L422.4691,561.1132
            L430.0688,524.0281L437.0068,558.3543L443.3891,536.5288L449.2982,550.6531L454.7995,544.5156L462.3992,466.8638L469.3371,574.0309L475.7195,597.9456L481.6286,588.8764L488.8823,561.9100
            L495.5309,601.5228L503.1306,593.2089L510.0686,648.0541L517.6683,648.5996L524.6062,603.9247L532.0043,588.6251L538.7739,582.1448L545.8663,598.7025L553.1569,659.4610L560.5452,640.3344
            L567.9522,648.3654L575.3177,632.5375L582.5970,677.3781L589.7576,672.7100L597.2238,675.3475L604.4582,686.7944L611.8357,684.6681L619.2666,687.4455L626.6818,685.9718L634.0292,691.8223
            L641.5268,698.0499L649.0800,708.8255L656.6163,685.4078L664.0813,732.1862L671.6109,729.3488L679.1309,750.5845L686.7306,729.8914L694.3303,730.7596L701.8701,714.3776L709.4152,715.6714
            L717.0050,767.4735L724.5686,774.9348L732.1355,737.3070L739.7203,763.0753L747.2590,767.6977L754.8278,586.4716L762.4163,478.3863L770.0109,414.2848L777.5967,377.0783L785.1584,372.5173
            L792.7581,375.6260L800.3264,373.6182L807.9071,377.0040L815.4952,374.1338L823.0818,374.3237L830.6791,376.7984L838.2680,377.2468L845.8500,377.5424L853.4389,377.3410L861.0386,376.0230
            L868.6309,371.3463L876.2252,375.2505L883.8224,373.2698L891.4177,343.1090L899.0123,369.2786L906.6111,363.7593L914.2033,363.3009L921.7992,359.9094L929.3933,375.3090L936.9893,390.4901
            L944.5838,408.2587L952.1799,421.4562L959.7786,438.4352L967.3753,459.9580L974.9731,475.4161L982.5721,492.5292L990.1701,511.0604L997.7693,525.4089L1005.3679,543.5859L1012.9669,560.8062
            L1020.5657,578.5748L1028.1646,594.7112L1035.7637,610.5349L1043.3628,620.5523L1050.9620,639.5176L1058.5617,651.9826L1066.1603,670.9992L1073.7592,682.0020L1081.3581,699.1708L1088.9578,711.6344
            L1096.5568,723.2997L1104.1564,733.0116L1111.7555,734.0969L1119.3550,736.4988L1126.9547,758.5585L1134.5541,770.7036L1142.1534,772.7428L1149.7529,787.7283L1157.3524,772.2516L1164.9519,802.4538
            L1172.5514,803.5976L1180.1511,802.1953L1187.7506,815.4843L1195.3501,805.4983L1202.9496,830.7396L1210.5493,823.2755L1218.1488,831.9249L1225.7484,841.4253L1233.3480,843.0633L1240.9476,846.7746
            L1248.5473,843.9243L1256.1470,847.9741L1263.7466,845.4480L1271.3463,844.3970L1278.9459,821.7789L1286.5456,805.1627L1294.1452,752.7408L1301.7449,719.7012L1309.3446,670.5137L1316.9443,632.3190
            L1324.5440,587.6455L1332.1437,547.5172L1339.7433,494.4085L1347.3430,456.9663L1354.9427,430.0043L1362.5424,404.1089L1370.1420,443.4789L1377.7417,439.9646L1385.3414,432.8902L1392.9411,430.4469
            L1400.5408,421.1378L1408.1405,418.8844L1415.7402,413.5723L1423.3399,413.3309L1430.9396,411.0376L1438.5393,410.9176L1446.1390,411.0747L1453.7387,412.0043L1461.3384,388.3052L1468.8000,383.5486"/>
  </g>
  <g style="fill:none; stroke:#00FF00; stroke-width:  3.6720; stroke-linecap:butt; stroke-linejoin:miter; stroke-dasharray:none">
   <path d="M183.6000,227.9910L238.8691,272.4063L271.1995,316.8948L294.1382,361.3032L311.9309,356.1624L326.4686,385.4107L338.7600,425.5503L349.4073,460.0808L358.7989,375.1376L367.2000,444.7241
            L374.7997,470.5180L381.7377,496.4477L388.1200,452.4181L394.0291,479.4131L399.5304,494.0286L404.6764,559.5524L409.5104,504.4359L414.0680,523.4797L418.3792,542.2608L422.4691,561.1132
            L430.0688,524.0281L437.0068,558.3543L443.3891,536.5288L449.2982,550.6531L454.7995,544.5156L462.3992,466.8638L469.3371,574.0309L475.7195,597.9456L481.6286,588.8764L488.8823,561.9100
            L495.5309,601.5228L503.1306,593.2089L510.0686,648.0541L517.6683,648.5996L524.6062,603.9247L532.0043,588.6251L538.7739,582.1448L545.8663,598.7025L553.1569,659.4610L560.5452,640.3344
            L567.9522,648.3654L575.3177,632.5375L582.5970,677.3781L589.7576,672.7100L597.2238,675.3475L604.4582,686.7944L611.8357,684.6681L619.2666,687.4455L626.6818,685.9718L634.0292,691.8223
            L641.5268,698.0499L649.0800,708.8255L656.6163,685.4078L664.0813,732.1862L671.6109,729.3488L679.1309,750.5845L686.7306,729.8914L694.3303,730.7596L701.8701,714.3776L709.4152,715.6714
            L717.0050,767.4735L724.5686,774.9348L732.1355,737.3070L739.7203,763.0753L747.2590,767.6977L754.8278,586.4716L762.4163,478.3863L770.0109,414.2848L777.5967,377.0783L785.1584,372.5173
            L792.7581,375.6260L800.3264,373.6182L807.9071,377.0040L815.4952,374.1338L823.0818,374.3237L830.6791,376.7984L838.2680,377.2468L845.8500,377.5424L853.4389,377.3410L861.0386,376.0230
            L868.6309,371.3463L876.2252,375.2505L883.8224,373.2698L891.4177,343.1090L899.0123,369.2786L906.6111,363.7593L914.2033,363.3009L921.7992,405.9039L929.3933,420.3924L936.9893,434.5310
            L944.5838,443.5788L952.1799,448.1099L959.7786,456.7107L967.3753,475.9730L974.9731,489.5876L982.5721,500.1776L990.1701,504.5916L997.7693,507.1862L1005.3679,516.7510L1012.9669,521.0121
            L1020.5657,522.7686L1028.1646,527.5267L1035.7637,534.0341L1043.3628,539.1734L1050.9620,537.0843L1058.5617,559.7366L1066.1603,564.3548L1073.7592,569.4999L1081.3581,566.5268L1088.9578,580.8882
            L1096.5568,585.5092L1104.1564,588.8107L1111.7555,594.3199L1119.3550,585.0979L1126.9547,598.6225L1134.5541,601.2129L1142.1534,602.7723L1149.7529,608.0416L1157.3524,599.3151L1164.9519,612.0471
            L1172.5514,608.7956L1180.1511,607.2662L1187.7506,614.2305L1195.3501,613.2267L1202.9496,617.0180L1210.5493,617.9847L1218.1488,620.9793L1225.7484,617.6035L1233.3480,620.2181L1240.9476,619.0300
            L1248.5473,621.5947L1256.1470,616.5111L1263.7466,618.5160L1271.3463,617.5878L1278.9459,606.6521L1286.5456,601.5513L1294.1452,578.4092L1301.7449,561.6687L1309.3446,535.8348L1316.9443,494.7498
            L1324.5440,458.4243L1332.1437,443.3989L1339.7433,417.9048L1347.3430,400.1362L1354.9427,387.5013L1362.5424,377.5452L1370.1420,372.6229L1377.7417,370.5866L1385.3414,375.1676L1392.9411,366.5568
            L1400.5408,363.0996L1408.1405,352.9594L1415.7402,352.7923L1423.3399,344.3071L1430.9396,306.2662L1438.5393,333.5814L1446.1390,324.9407L1453.7387,331.7736L1461.3384,331.0638L1468.8000,323.1864"/>
  </g>
  <g style="fill:none; stroke:#0000FF; stroke-width:  3.6720; stroke-linecap:butt; stroke-linejoin:miter; stroke-dasharray:none">
   <path d="M183.6000,227.9910L238.8691,272.4063L271.1995,316.8948L294.1382,361.3032L311.9309,356.1624L326.4686,385.4107L338.7600,425.5503L349.4073,460.0808L358.7989,375.1376L367.2000,444.7241
            L374.7997,470.5180L381.7377,496.4477L388.1200,452.4181L394.0291,479.4131L399.5304,494.0286L404.6764,559.5524L409.5104,504.4359L414.0680,523.4797L418.3792,542.2608L422.4691,561.1132
            L430.0688,524.0281L437.0068,558.3543L443.3891,536.5288L449.2982,550.6531L454.7995,544.5156L462.3992,466.8638L469.3371,574.0309L475.7195,597.9456L481.6286,588.8764L488.8823,561.9100
            L495.5309,601.5228L503.1306,593.2089L510.0686,648.0541L517.6683,648.5996L524.6062,603.9247L532.0043,588.6251L538.7739,582.1448L545.8663,598.7025L553.1569,659.4610L560.5452,640.3344
            L567.9522,648.3654L575.3177,632.5375L582.5970,677.3781L589.7576,672.7100L597.2238,675.3475L604.4582,686.7944L611.8357,684.6681L619.2666,687.4455L626.6818,685.9718L634.0292,691.8223
            L641.5268,698.0499L649.0800,708.8255L656.6163,685.4078L664.0813,732.1862L671.6109,729.3488L679.1309,750.5845L686.7306,729.8914L694.3303,730.7596L701.8701,714.3776L709.4152,715.6714
            L717.0050,767.4735L724.5686,774.9348L732.1355,737.3070L739.7203,763.0753L747.2590,767.6977L754.8278,586.4716L762.4163,478.3863L770.0109,414.2848L777.5967,377.0783L785.1584,372.5173
            L792.7581,375.6260L800.3264,373.6182L807.9071,377.0040L815.4952,374.1338L823.0818,374.3237L830.6791,376.7984L838.2680,377.2468L845.8500,377.5424L853.4389,377.3410L861.0386,376.0230
            L868.6309,371.3463L876.2252,375.2505L883.8224,373.2698L891.4177,343.1090L899.0123,369.2786L906.6111,363.7593L914.2033,363.3009L921.7992,369.1829L929.3933,393.1476L936.9893,397.9528
            L944.5838,406.0124L952.1799,377.6395L959.7786,387.4841L967.3753,421.6319L974.9731,430.1085L982.5721,422.7757L990.1701,424.9163L997.7693,406.4880L1005.3679,411.1504L1012.9669,395.1539
            L1020.5657,388.3823L1028.1646,389.9788L1035.7637,391.5853L1043.3628,392.8206L1050.9620,392.7320L1058.5617,397.6986L1066.1603,399.2994L1073.7592,400.8702L1081.3581,396.8618L1088.9578,404.1060
            L1096.5568,404.9686L1104.1564,406.4066L1111.7555,407.5033L1119.3550,402.6952L1126.9547,408.9227L1134.5541,409.6438L1142.1534,409.1240L1149.7529,408.7085L1157.3524,399.0838L1164.9519,407.7246
            L1172.5514,406.4594L1180.1511,407.0106L1187.7506,409.5453L1195.3501,408.7785L1202.9496,410.9148L1210.5493,410.2736L1218.1488,411.0033L1225.7484,412.7654L1233.3480,408.5328L1240.9476,411.8287
            L1248.5473,411.8929L1256.1470,413.6194L1263.7466,413.2652L1271.3463,413.5209L1278.9459,413.9621L1286.5456,413.1139L1294.1452,401.4028L1301.7449,406.3851L1309.3446,411.3660L1316.9443,399.1166
            L1324.5440,393.4246L1332.1437,354.4459L1339.7433,322.3927L1347.3430,248.6670L1354.9427,243.1425L1362.5424,243.0578L1370.1420,274.5497L1377.7417,267.8272L1385.3414,256.7876L1392.9411,264.3565
            L1400.5408,253.7969L1408.1405,250.6115L1415.7402,254.3010L1423.3399,255.9833L1430.9396,247.9632L1438.5393,245.8192L1446.1390,244.5202L1453.7387,252.2460L1461.3384,250.7157L1468.8000,244.2680"/>
  </g>
  <g style="fill:none; stroke:#9400D3; stroke-width:  3.6720; stroke-linecap:butt; stroke-linejoin:miter; stroke-dasharray:none">
   <path d="M183.6000,227.9910L238.8691,272.4063L271.1995,316.8948L294.1382,361.3032L311.9309,356.1624L326.4686,385.4107L338.7600,425.5503L349.4073,460.0808L358.7989,375.1376L367.2000,444.7241
            L374.7997,470.5180L381.7377,496.4477L388.1200,452.4181L394.0291,479.4131L399.5304,494.0286L404.6764,559.5524L409.5104,504.4359L414.0680,523.4797L418.3792,542.2608L422.4691,561.1132
            L430.0688,524.0281L437.0068,558.3543L443.3891,536.5288L449.2982,550.6531L454.7995,544.5156L462.3992,466.8638L469.3371,574.0309L475.7195,597.9456L481.6286,588.8764L488.8823,561.9100
            L495.5309,601.5228L503.1306,593.2089L510.0686,648.0541L517.6683,648.5996L524.6062,603.9247L532.0043,588.6251L538.7739,582.1448L545.8663,598.7025L553.1569,659.4610L560.5452,640.3344
            L567.9522,648.3654L575.3177,632.5375L582.5970,677.3781L589.7576,672.7100L597.2238,675.3475L604.4582,686.7944L611.8357,684.6681L619.2666,687.4455L626.6818,685.9718L634.0292,691.8223
            L641.5268,698.0499L649.0800,708.8255L656.6163,685.4078L664.0813,732.1862L671.6109,729.3488L679.1309,750.5845L686.7306,729.8914L694.3303,730.7596L701.8701,714.3776L709.4152,715.6714
            L717.0050,767.4735L724.5686,774.9348L732.1355,737.3070L739.7203,763.0753L747.2590,767.6977L754.8278,586.4716L762.4163,478.3863L770.0109,414.2848L777.5967,377.0783L785.1584,372.5173
            L792.7581,375.6260L800.3264,373.6182L807.9071,377.0040L815.4952,374.1338L823.0818,374.3237L830.6791,376.7984L838.2680,377.2468L845.8500,377.5424L853.4389,377.3410L861.0386,376.0230
            L868.6309,371.3463L876.2252,375.2505L883.8224,373.2698L891.4177,343.1090L899.0123,369.2786L906.6111,363.7593L914.2033,363.3009L921.7992,340.1202L929.3933,348.9952L936.9893,342.8606
            L944.5838,335.4564L952.1799,310.1791L959.7786,309.6291L967.3753,305.6650L974.9731,304.3655L982.5721,301.7503L990.1701,301.7990L997.7693,301.4111L1005.3679,301.6847L1012.9669,301.8071
            L1020.5657,301.7035L1028.1646,301.8121L1035.7637,300.8032L1043.3628,300.6507L1050.9620,299.9677L1058.5617,301.7423L1066.1603,301.7706L1073.7592,301.8188L1081.3581,295.9612L1088.9578,301.7621
            L1096.5568,300.8452L1104.1564,301.0994L1111.7555,301.4264L1119.3550,297.1881L1126.9547,301.5548L1134.5541,301.2442L1142.1534,300.7298L1149.7529,300.7513L1157.3524,297.2172L1164.9519,300.8798
            L1172.5514,298.8970L1180.1511,299.7928L1187.7506,301.6578L1195.3501,301.5467L1202.9496,301.3250L1210.5493,301.3710L1218.1488,301.1330L1225.7484,300.9799L1233.3480,300.8098L1240.9476,301.1535
            L1248.5473,301.1568L1256.1470,299.8115L1263.7466,298.2016L1271.3463,294.6708L1278.9459,288.8799L1286.5456,281.4267L1294.1452,273.6056L1301.7449,264.8471L1309.3446,256.6121L1316.9443,249.4725
            L1324.5440,243.3592L1332.1437,243.0312L1339.7433,242.0122L1347.3430,242.1410L1354.9427,242.5460L1362.5424,239.2246L1370.1420,239.4297L1377.7417,241.9425L1385.3414,243.3425L1392.9411,243.3681
            L1400.5408,243.3814L1408.1405,243.7915L1415.7402,243.1959L1423.3399,243.1906L1430.9396,243.6924L1438.5393,243.3648L1446.1390,243.4645L1453.7387,243.5500L1461.3384,242.5541L1468.8000,243.3885"/>
  </g>
  <g style="fill:none; stroke:#000000; stroke-width:  3.6720; stroke-linecap:butt; stroke-linejoin:miter; stroke-dasharray: 18 11">
   <path d="M914.2033,183.6000L914.2033,1040.4000"/>
  </g>
  <g style="fill:none; stroke:#000000; stroke-width:  1.8360; stroke-linecap:butt; stroke-linejoin:miter; stroke-dasharray:none">
   <path d="M183.6000,183.6000L1468.8000,183.6000"/>
  </g>
  <g style="fill:none; stroke:#000000; stroke-width:  3.6720; stroke-linecap:butt; stroke-linejoin:miter; stroke-dasharray:none">
   <path d="M238.8691,183.6000L238.8691,189.7200"/>
   <path d="M271.1995,183.6000L271.1995,189.7200"/>
   <path d="M294.1382,183.6000L294.1382,189.7200"/>
   <path d="M311.9309,183.6000L311.9309,189.7200"/>
   <path d="M326.4686,183.6000L326.4686,189.7200"/>
   <path d="M338.7600,183.6000L338.7600,189.7200"/>
   <path d="M349.4073,183.6000L349.4073,189.7200"/>
   <path d="M358.7989,183.6000L358.7989,189.7200"/>
   <path d="M367.2000,183.6000L367.2000,189.7200"/>
   <path d="M422.4691,183.6000L422.4691,189.7200"/>
   <path d="M454.7995,183.6000L454.7995,189.7200"/>
   <path d="M477.7382,183.6000L477.7382,189.7200"/>
   <path d="M495.5309,183.6000L495.5309,189.7200"/>
   <path d="M510.0686,183.6000L510.0686,189.7200"/>
   <path d="M522.3600,183.6000L522.3600,189.7200"/>
   <path d="M533.0073,183.6000L533.0073,189.7200"/>
   <path d="M542.3989,183.6000L542.3989,189.7200"/>
   <path d="M550.8000,183.6000L550.8000,189.7200"/>
   <path d="M606.0691,183.6000L606.0691,189.7200"/>
   <path d="M638.3995,183.6000L638.3995,189.7200"/>
   <path d="M661.3382,183.6000L661.3382,189.7200"/>
   <path d="M679.1309,183.6000L679.1309,189.7200"/>
   <path d="M693.6686,183.6000L693.6686,189.7200"/>
   <path d="M705.9600,183.6000L705.9600,189.7200"/>
   <path d="M716.6073,183.6000L716.6073,189.7200"/>
   <path d="M725.9989,183.6000L725.9989,189.7200"/>
   <path d="M734.4000,183.6000L734.4000,189.7200"/>
   <path d="M789.6691,183.6000L789.6691,189.7200"/>
   <path d="M821.9995,183.6000L821.9995,189.7200"/>
   <path d="M844.9382,183.6000L844.9382,189.7200"/>
   <path d="M862.7309,183.6000L862.7309,189.7200"/>
   <path d="M877.2686,183.6000L877.2686,189.7200"/>
   <path d="M889.5600,183.6000L889.5600,189.7200"/>
   <path d="M900.2073,183.6000L900.2073,189.7200"/>
   <path d="M909.5989,183.6000L909.5989,189.7200"/>
   <path d="M918.0000,183.6000L918.0000,189.7200"/>
   <path d="M973.2691,183.6000L973.2691,189.7200"/>
   <path d="M1005.5995,183.6000L1005.5995,189.7200"/>
   <path d="M1028.5382,183.6000L1028.5382,189.7200"/>
   <path d="M1046.3309,183.6000L1046.3309,189.7200"/>
   <path d="M1060.8686,183.6000L1060.8686,189.7200"/>
   <path d="M1073.1600,183.6000L1073.1600,189.7200"/>
   <path d="M1083.8073,183.6000L1083.8073,189.7200"/>
   <path d="M1093.1989,183.6000L1093.1989,189.7200"/>
   <path d="M1101.6000,183.6000L1101.6000,189.7200"/>
   <path d="M1156.8691,183.6000L1156.8691,189.7200"/>
   <path d="M1189.1995,183.6000L1189.1995,189.7200"/>
   <path d="M1212.1382,183.6000L1212.1382,189.7200"/>
   <path d="M1229.9309,183.6000L1229.9309,189.7200"/>
   <path d="M1244.4686,183.6000L1244.4686,189.7200"/>
   <path d="M1256.7600,183.6000L1256.7600,189.7200"/>
   <path d="M1267.4073,183.6000L1267.4073,189.7200"/>
   <path d="M1276.7989,183.6000L1276.7989,189.7200"/>
   <path d="M1285.2000,183.6000L1285.2000,189.7200"/>
   <path d="M1340.4691,183.6000L1340.4691,189.7200"/>
   <path d="M1372.7995,183.6000L1372.7995,189.7200"/>
   <path d="M1395.7382,183.6000L1395.7382,189.7200"/>
   <path d="M1413.5309,183.6000L1413.5309,189.7200"/>
   <path d="M1428.0686,183.6000L1428.0686,189.7200"/>
   <path d="M1440.3600,183.6000L1440.3600,189.7200"/>
   <path d="M1451.0073,183.6000L1451.0073,189.7200"/>
   <path d="M1460.3989,183.6000L1460.3989,189.7200"/>
   <path d="M1468.8000,183.6000L1468.8000,189.7200"/>
   <path d="M183.6000,183.6000L183.6000,195.8400"/>
   <path d="M367.2000,183.6000L367.2000,195.8400"/>
   <path d="M550.8000,183.6000L550.8000,195.8400"/>
   <path d="M734.4000,183.6000L734.4000,195.8400"/>
   <path d="M918.0000,183.6000L918.0000,195.8400"/>
   <path d="M1101.6000,183.6000L1101.6000,195.8400"/>
   <path d="M1285.2000,183.6000L1285.2000,195.8400"/>
   <path d="M1468.8000,183.6000L1468.8000,195.8400"/>
  </g>
  <g style="fill:#000000; fill-rule:nonzero">
   <text   style="font-family:'Helvetica','Nimbus Sans L'; font-style:normal; font-weight:normal; font-size:1224.0000" transform="matrix(0.0280,0.0000,-0.0000,-0.0280,177.6000,147.3600)">1</text>
   <text   style="font-family:'Helvetica','Nimbus Sans L'; font-style:normal; font-weight:normal; font-size:1224.0000" transform="matrix(0.0280,0.0000,-0.0000,-0.0280,349.2000,147.3600)">10</text>
   <text   style="font-family:'Helvetica','Nimbus Sans L'; font-style:normal; font-weight:normal; font-size:1224.0000" transform="matrix(0.0280,0.0000,-0.0000,-0.0280,523.3000,147.3600)">100</text>
   <text   style="font-family:'Helvetica','Nimbus Sans L'; font-style:normal; font-weight:normal; font-size:1224.0000" transform="matrix(0.0280,0.0000,-0.0000,-0.0280,697.4000,147.3600)">1000</text>
   <text   style="font-family:'Helvetica','Nimbus Sans L'; font-style:normal; font-weight:normal; font-size:1224.0000" transform="matrix(0.0280,0.0000,-0.0000,-0.0280,871.5000,147.3600)">10000</text>
   <text   style="font-family:'Helvetica','Nimbus Sans L'; font-style:normal; font-weight:normal; font-size:1224.0000" transform="matrix(0.0280,0.0000,-0.0000,-0.0280,1045.6000,147.3600)">100000</text>
   <text   style="font-family:'Helvetica','Nimbus Sans L'; font-style:normal; font-weight:normal; font-size:1224.0000" transform="matrix(0.0280,0.0000,-0.0000,-0.0280,1219.7000,147.3600)">1000000</text>
   <text   style="font-family:'Helvetica','Nimbus Sans L'; font-style:normal; font-weight:normal; font-size:1224.0000" transform="matrix(0.0280,0.0000,-0.0000,-0.0280,1393.8000,147.3600)">10000000</text>
   <text   style="font-family:'Helvetica','Nimbus Sans L'; font-style:normal; font-weight:normal; font-size:1224.0000" transform="matrix(0.0336,0.0000,-0.0000,-0.0336,711.9400,75.1800)">Vector Length</text>
  </g>
  <g style="fill:none; stroke:#000000; stroke-width:  1.8360; stroke-linecap:butt; stroke-linejoin:miter; stroke-dasharray:none">
   <path d="M183.6000,183.6000L183.6000,1040.4000"/>
   <path d="M1468.8000,183.6000L1468.8000,1040.4000"/>
  </g>
  <g style="fill:none; stroke:#000000; stroke-width:  3.6720; stroke-linecap:butt; stroke-linejoin:miter; stroke-dasharray:none">
   <path d="M183.6000,183.6000L195.8400,183.6000"/>
   <path d="M1468.8000,183.6000L1456.5600,183.6000"/>
   <path d="M183.6000,255.0000L195.8400,255.0000"/>
   <path d="M1468.8000,255.0000L1456.5600,255.0000"/>
   <path d="M183.6000,326.4000L195.8400,326.4000"/>
   <path d="M1468.8000,326.4000L1456.5600,326.4000"/>
   <path d="M183.6000,397.8000L195.8400,397.8000"/>
   <path d="M1468.8000,397.8000L1456.5600,397.8000"/>
   <path d="M183.6000,469.2000L195.8400,469.2000"/>
   <path d="M1468.8000,469.2000L1456.5600,469.2000"/>
   <path d="M183.6000,540.6000L195.8400,540.6000"/>
   <path d="M1468.8000,540.6000L1456.5600,540.6000"/>
   <path d="M183.6000,612.0000L195.8400,612.0000"/>
   <path d="M1468.8000,612.0000L1456.5600,612.0000"/>
   <path d="M183.6000,683.4000L195.8400,683.4000"/>
   <path d="M1468.8000,683.4000L1456.5600,683.4000"/>
   <path d="M183.6000,754.8000L195.8400,754.8000"/>
   <path d="M1468.8000,754.8000L1456.5600,754.8000"/>
   <path d="M183.6000,826.2000L195.8400,826.2000"/>
   <path d="M1468.8000,826.2000L1456.5600,826.2000"/>
   <path d="M183.6000,897.6000L195.8400,897.6000"/>
   <path d="M1468.8000,897.6000L1456.5600,897.6000"/>
   <path d="M183.6000,969.0000L195.8400,969.0000"/>
   <path d="M1468.8000,969.0000L1456.5600,969.0000"/>
   <path d="M183.6000,1040.4000L195.8400,1040.4000"/>
   <path d="M1468.8000,1040.4000L1456.5600,1040.4000"/>
  </g>
  <g style="fill:#000000; fill-rule:nonzero">
   <text   style="font-family:'Helvetica','Nimbus Sans L'; font-style:normal; font-weight:normal; font-size:1224.0000" transform="matrix(0.0280,0.0000,-0.0000,-0.0280,154.3600,171.6000)">0</text>
   <text   style="font-family:'Helvetica','Nimbus Sans L'; font-style:normal; font-weight:normal; font-size:1224.0000" transform="matrix(0.0280,0.0000,-0.0000,-0.0280,116.3600,243.0000)">500</text>
   <text   style="font-family:'Helvetica','Nimbus Sans L'; font-style:normal; font-weight:normal; font-size:1224.0000" transform="matrix(0.0280,0.0000,-0.0000,-0.0280,97.3600,314.4000)">1000</text>
   <text   style="font-family:'Helvetica','Nimbus Sans L'; font-style:normal; font-weight:normal; font-size:1224.0000" transform="matrix(0.0280,0.0000,-0.0000,-0.0280,97.3600,385.8000)">1500</text>
   <text   style="font-family:'Helvetica','Nimbus Sans L'; font-style:normal; font-weight:normal; font-size:1224.0000" transform="matrix(0.0280,0.0000,-0.0000,-0.0280,97.3600,457.2000)">2000</text>
   <text   style="font-family:'Helvetica','Nimbus Sans L'; font-style:normal; font-weight:normal; font-size:1224.0000" transform="matrix(0.0280,0.0000,-0.0000,-0.0280,97.3600,528.6000)">2500</text>
   <text   style="font-family:'Helvetica','Nimbus Sans L'; font-style:normal; font-weight:normal; font-size:1224.0000" transform="matrix(0.0280,0.0000,-0.0000,-0.0280,97.3600,600.0000)">3000</text>
   <text   style="font-family:'Helvetica','Nimbus Sans L'; font-style:normal; font-weight:normal; font-size:1224.0000" transform="matrix(0.0280,0.0000,-0.0000,-0.0280,97.3600,671.4000)">3500</text>
   <text   style="font-family:'Helvetica','Nimbus Sans L'; font-style:normal; font-weight:normal; font-size:1224.0000" transform="matrix(0.0280,0.0000,-0.0000,-0.0280,97.3600,742.8000)">4000</text>
   <text   style="font-family:'Helvetica','Nimbus Sans L'; font-style:normal; font-weight:normal; font-size:1224.0000" transform="matrix(0.0280,0.0000,-0.0000,-0.0280,97.3600,814.2000)">4500</text>
   <text   style="font-family:'Helvetica','Nimbus Sans L'; font-style:normal; font-weight:normal; font-size:1224.0000" transform="matrix(0.0280,0.0000,-0.0000,-0.0280,97.3600,885.6000)">5000</text>
   <text   style="font-family:'Helvetica','Nimbus Sans L'; font-style:normal; font-weight:normal; font-size:1224.0000" transform="matrix(0.0280,0.0000,-0.0000,-0.0280,97.3600,957.0000)">5500</text>
   <text   style="font-family:'Helvetica','Nimbus Sans L'; font-style:normal; font-weight:normal; font-size:1224.0000" transform="matrix(0.0280,0.0000,-0.0000,-0.0280,97.3600,1028.4000)">6000</text>
   <text   style="font-family:'Helvetica','Nimbus Sans L'; font-style:normal; font-weight:normal; font-size:1224.0000" transform="matrix(0.0000,0.0336,0.0336,-0.0000,76.1200,539.5000)">MFlop/s</text>
  </g>
  <g style="fill:none; stroke:#000000; stroke-width:  3.6720; stroke-linecap:butt; stroke-linejoin:miter; stroke-dasharray:none">
   <path d="M183.6000,183.6000L183.6000,1040.4000L1468.8000,1040.4000L1468.8000,183.6000z"/>
  </g>
  <g style="fill:#FFFFFF; fill-rule:nonzero">
   <path  d="M244.8000,1003.6800L244.8000,770.2400L615.2120,770.2400L615.2120,1003.6800z"/>
  </g>
  <g style="fill:none; stroke:#FFFFFF; stroke-width:  1.8360; stroke-linecap:butt; stroke-linejoin:miter; stroke-dasharray:none">
   <path d="M244.8000,1003.6800L244.8000,770.2400L615.2120,770.2400L615.2120,1003.6800z"/>
  </g>
  <g style="fill:#000000; fill-rule:nonzero">
   <text   style="font-family:'Helvetica','Nimbus Sans L'; font-style:normal; font-weight:normal; font-size:1224.0000" transform="matrix(0.0280,0.0000,-0.0000,-0.0280,324.9720,966.4400)">Blaze (10 threads)</text>
  </g>
  <g style="fill:none; stroke:#FF0000; stroke-width:  3.6720; stroke-linecap:butt; stroke-linejoin:miter; stroke-dasharray:none">
   <path d="M258.8760,975.4400L307.8360,975.4400"/>
  </g>
  <g style="fill:#000000; fill-rule:nonzero">
   <text   style="font-family:'Helvetica','Nimbus Sans L'; font-style:normal; font-weight:normal; font-size:1224.0000" transform="matrix(0.0280,0.0000,-0.0000,-0.0280,324.9720,922.2000)">Blaze (8 threads)</text>
  </g>
  <g style="fill:none; stroke:#FFA500; stroke-width:  3.6720; stroke-linecap:butt; stroke-linejoin:miter; stroke-dasharray:none">
   <path d="M258.8760,931.2000L307.8360,931.2000"/>
  </g>
  <g style="fill:#000000; fill-rule:nonzero">
   <text   style="font-family:'Helvetica','Nimbus Sans L'; font-style:normal; font-weight:normal; font-size:1224.0000" transform="matrix(0.0280,0.0000,-0.0000,-0.0280,324.9720,877.9600)">Blaze (4 threads)</text>
  </g>
  <g style="fill:none; stroke:#00FF00; stroke-width:  3.6720; stroke-linecap:butt; stroke-linejoin:miter; stroke-dasharray:none">
   <path d="M258.8760,886.9600L307.8360,886.9600"/>
  </g>
  <g style="fill:#000000; fill-rule:nonzero">
   <text   style="font-family:'Helvetica','Nimbus Sans L'; font-style:normal; font-weight:normal; font-size:1224.0000" transform="matrix(0.0280,0.0000,-0.0000,-0.0280,324.9720,833.7200)">Blaze (2 threads)</text>
  </g>
  <g style="fill:none; stroke:#0000FF; stroke-width:  3.6720; stroke-linecap:butt; stroke-linejoin:miter; stroke-dasharray:none">
   <path d="M258.8760,842.7200L307.8360,842.7200"/>
  </g>
  <g style="fill:#000000; fill-rule:nonzero">
   <text   style="font-family:'Helvetica','Nimbus Sans L'; font-style:normal; font-weight:normal; font-size:1224.0000" transform="matrix(0.0280,0.0000,-0.0000,-0.0280,324.9720,789.4800)">Blaze (1 thread)</text>
  </g>
  <g style="fill:none; stroke:#9400D3; stroke-width:  3.6720; stroke-linecap:butt; stroke-linejoin:miter; stroke-dasharray:none">
   <path d="M258.8760,798.4800L307.8360,798.4800"/>
  </g>
  <g style="fill:#000000; fill-rule:nonzero">
   <text   style="font-family:'Helvetica','Nimbus Sans L'; font-style:normal; font-weight:normal; font-size:1224.0000" transform="matrix(0.0196,0.0000,-0.0000,-0.0196,1101.6000,308.4480)">Blaze (1 thread)</text>
   <text   style="font-family:'Helvetica','Nimbus Sans L'; font-style:normal; font-weight:normal; font-size:1224.0000" transform="matrix(0.0196,0.0000,-0.0000,-0.0196,1089.3600,422.2800)">Blaze (2 threads)</text>
   <text   style="font-family:'Helvetica','Nimbus Sans L'; font-style:normal; font-weight:normal; font-size:1224.0000" transform="matrix(0.0196,0.0000,-0.0000,-0.0196,1101.6000,630.3600)">Blaze (4 threads)</text>
   <text   style="font-family:'Helvetica','Nimbus Sans L'; font-style:normal; font-weight:normal; font-size:1224.0000" transform="matrix(0.0196,0.0000,-0.0000,-0.0196,1113.8400,709.9200)">Blaze (8 threads)</text>
   <text   style="font-family:'Helvetica','Nimbus Sans L'; font-style:normal; font-weight:normal; font-size:1224.0000" transform="matrix(0.0196,0.0000,-0.0000,-0.0196,1022.0400,973.0800)">Blaze (10 threads)</text>
   <text   style="font-family:'Helvetica','Nimbus Sans L'; font-style:normal; font-weight:normal; font-size:1224.0000" transform="matrix(0.0000,0.0196,0.0196,-0.0000,905.7600,538.5600)">Parallelization threshold</text>
  </g>
 </g>
</svg>
