<?xml version="1.0" encoding="ISO-8859-1"?>
<!DOCTYPE svg PUBLIC "-//W3C//DTD SVG 1.0//EN" "http://www.w3.org/TR/2001/REC-SVG-20010904/DTD/svg10.dtd">
<!-- generated by Grace-5.1.23 -->
<svg xml:space="preserve" width="22.0000in" height="17.0000in" viewBox="0.0000 0.0000 1584.0000 1224.0000">
 <g transform="translate(0,1224.0000) scale(1,-1)">
  <g style="fill:#FFFFFF; fill-rule:nonzero">
   <path  d="M0.0000,0.0000L0.0000,1224.0000L1584.0000,1224.0000L1584.0000,0.0000z"/>
  </g>
  <g style="fill:none; stroke:#FF0000; stroke-width:  3.6720; stroke-linecap:butt; stroke-linejoin:miter; stroke-dasharray:none">
   <path d="M183.6000,210.4844L238.8691,237.3693L271.1995,264.2543L294.1382,291.1382L311.9309,314.6580L326.4686,340.7910L338.7600,367.0188L349.4073,393.2798L358.7989,368.7514L367.2000,389.3054
            L374.7997,409.9084L381.7377,430.4673L388.1200,389.1837L394.0291,404.9971L399.5304,420.8118L404.6764,370.6994L409.5104,430.5855L414.0680,445.1119L418.3792,459.6450L422.4691,474.1592
            L430.0688,479.3459L437.0068,506.3737L443.3891,519.2551L449.2982,545.0717L454.7995,534.6456L462.3992,490.6526L469.3371,550.4830L475.7195,537.0992L481.6286,534.1524L488.8823,542.3770
            L495.5309,550.0454L503.1306,568.4868L510.0686,577.5279L517.6683,569.5321L524.6062,553.7505L532.0043,582.2029L538.7739,576.1619L545.8663,584.6032L553.1569,591.0029L560.5452,587.6571
            L567.9522,599.8083L575.3177,605.1676L582.5970,597.8830L589.7576,605.1811L597.2238,608.0863L604.4582,612.2870L611.8357,612.7442L619.2666,615.8746L626.6818,617.8764L634.0292,620.4664
            L641.5268,622.5166L649.0800,623.1255L656.6163,615.0759L664.0813,625.2131L671.6109,628.0332L679.1309,623.8814L686.7306,598.4442L694.3303,608.0752L701.8701,610.0355L709.4152,612.3954
            L717.0050,617.2595L724.5686,614.6665L732.1355,615.5986L739.7203,618.9786L747.2590,619.9805L754.8278,618.1010L762.4163,623.9481L770.0109,630.2400L777.5967,629.8973L785.1584,621.7651
            L792.7581,511.7281L800.3264,388.0839L807.9071,374.4039L815.4952,373.4075L823.0818,371.8059L830.6791,373.3261L838.2680,372.4914L845.8500,374.6780L853.4389,371.2257L861.0386,373.7888
            L868.6309,375.3219L876.2252,373.9877L883.8224,373.2796L891.4177,349.9673L899.0123,374.1419L906.6111,371.3218L914.2033,373.1480L921.7992,371.2784L929.3933,369.1486L936.9893,366.7967
            L944.5838,366.7649L952.1799,376.0385L959.7786,390.5380L967.3753,409.8478L974.9731,426.1393L982.5721,445.0886L990.1701,465.8832L997.7693,482.3411L1005.3679,501.5866L1012.9669,522.1835
            L1020.5657,539.2363L1028.1646,562.1275L1035.7637,578.0187L1043.3628,601.4240L1050.9620,619.7075L1058.5617,636.7903L1066.1603,651.1882L1073.7592,674.2985L1081.3581,694.8330L1088.9578,711.6122
            L1096.5568,722.9238L1104.1564,746.4062L1111.7555,758.4804L1119.3550,767.5447L1126.9547,792.5883L1134.5541,818.4337L1142.1534,829.6333L1149.7529,851.3593L1157.3524,855.5882L1164.9519,879.4256
            L1172.5514,895.4906L1180.1511,892.6204L1187.7506,897.2716L1195.3501,910.4112L1202.9496,924.5729L1210.5493,926.8495L1218.1488,927.3697L1225.7484,938.5204L1233.3480,950.0076L1240.9476,947.4433
            L1248.5473,959.0346L1256.1470,943.3796L1263.7466,961.0175L1271.3463,956.8375L1278.9459,965.7666L1286.5456,970.9074L1294.1452,952.8718L1301.7449,967.4312L1309.3446,961.2194L1316.9443,978.9062
            L1324.5440,930.0564L1332.1437,899.6645L1339.7433,824.3456L1347.3430,754.2141L1354.9427,654.9600L1362.5424,566.6820L1370.1420,507.7011L1377.7417,463.2461L1385.3414,435.2012L1392.9411,420.4569
            L1400.5408,411.7095L1408.1405,404.2786L1415.7402,395.6898L1423.3399,390.4431L1430.9396,383.6830L1438.5393,381.4455L1446.1390,376.5159L1453.7387,374.9834L1461.3384,370.9356L1468.8000,373.2661"/>
  </g>
  <g style="fill:none; stroke:#FFA500; stroke-width:  3.6720; stroke-linecap:butt; stroke-linejoin:miter; stroke-dasharray:none">
   <path d="M183.6000,210.4844L238.8691,237.3693L271.1995,264.2543L294.1382,291.1382L311.9309,314.6580L326.4686,340.7910L338.7600,367.0188L349.4073,393.2798L358.7989,368.7514L367.2000,389.3054
            L374.7997,409.9084L381.7377,430.4673L388.1200,389.1837L394.0291,404.9971L399.5304,420.8118L404.6764,370.6994L409.5104,430.5855L414.0680,445.1119L418.3792,459.6450L422.4691,474.1592
            L430.0688,479.3459L437.0068,506.3737L443.3891,519.2551L449.2982,545.0717L454.7995,534.6456L462.3992,490.6526L469.3371,550.4830L475.7195,537.0992L481.6286,534.1524L488.8823,542.3770
            L495.5309,550.0454L503.1306,568.4868L510.0686,577.5279L517.6683,569.5321L524.6062,553.7505L532.0043,582.2029L538.7739,576.1619L545.8663,584.6032L553.1569,591.0029L560.5452,587.6571
            L567.9522,599.8083L575.3177,605.1676L582.5970,597.8830L589.7576,605.1811L597.2238,608.0863L604.4582,612.2870L611.8357,612.7442L619.2666,615.8746L626.6818,617.8764L634.0292,620.4664
            L641.5268,622.5166L649.0800,623.1255L656.6163,615.0759L664.0813,625.2131L671.6109,628.0332L679.1309,623.8814L686.7306,598.4442L694.3303,608.0752L701.8701,610.0355L709.4152,612.3954
            L717.0050,617.2595L724.5686,614.6665L732.1355,615.5986L739.7203,618.9786L747.2590,619.9805L754.8278,618.1010L762.4163,623.9481L770.0109,630.2400L777.5967,629.8973L785.1584,621.7651
            L792.7581,511.7281L800.3264,388.0839L807.9071,374.4039L815.4952,373.4075L823.0818,371.8059L830.6791,373.3261L838.2680,372.4914L845.8500,374.6780L853.4389,371.2257L861.0386,373.7888
            L868.6309,375.3219L876.2252,373.9877L883.8224,373.2796L891.4177,349.9673L899.0123,374.1419L906.6111,371.3218L914.2033,373.1480L921.7992,371.2784L929.3933,369.1486L936.9893,366.7967
            L944.5838,366.7649L952.1799,382.9186L959.7786,396.0068L967.3753,413.1514L974.9731,427.9306L982.5721,443.7135L990.1701,459.5300L997.7693,472.6525L1005.3679,487.2261L1012.9669,507.7023
            L1020.5657,522.5440L1028.1646,537.3140L1035.7637,552.3832L1043.3628,565.6355L1050.9620,576.7255L1058.5617,596.4283L1066.1603,609.4712L1073.7592,617.1182L1081.3581,637.2413L1088.9578,643.1184
            L1096.5568,659.9184L1104.1564,666.5457L1111.7555,683.7240L1119.3550,688.8054L1126.9547,697.7455L1134.5541,713.7297L1142.1534,721.4948L1149.7529,733.2188L1157.3524,739.3211L1164.9519,749.0666
            L1172.5514,764.4345L1180.1511,764.8550L1187.7506,776.0882L1195.3501,770.7430L1202.9496,790.7787L1210.5493,780.0111L1218.1488,793.1190L1225.7484,795.9550L1233.3480,796.2854L1240.9476,802.2647
            L1248.5473,803.2867L1256.1470,803.8253L1263.7466,805.8449L1271.3463,802.3687L1278.9459,806.2121L1286.5456,804.3883L1294.1452,800.2818L1301.7449,811.9282L1309.3446,802.4789L1316.9443,797.9134
            L1324.5440,787.3668L1332.1437,758.5367L1339.7433,743.5255L1347.3430,689.4229L1354.9427,649.4360L1362.5424,594.3444L1370.1420,532.4608L1377.7417,483.0975L1385.3414,441.9509L1392.9411,418.1282
            L1400.5408,409.6777L1408.1405,393.2461L1415.7402,386.0582L1423.3399,376.2980L1430.9396,369.4613L1438.5393,373.9803L1446.1390,368.2398L1453.7387,367.5060L1461.3384,366.4007L1468.8000,369.4307"/>
  </g>
  <g style="fill:none; stroke:#00FF00; stroke-width:  3.6720; stroke-linecap:butt; stroke-linejoin:miter; stroke-dasharray:none">
   <path d="M183.6000,210.4844L238.8691,237.3693L271.1995,264.2543L294.1382,291.1382L311.9309,314.6580L326.4686,340.7910L338.7600,367.0188L349.4073,393.2798L358.7989,368.7514L367.2000,389.3054
            L374.7997,409.9084L381.7377,430.4673L388.1200,389.1837L394.0291,404.9971L399.5304,420.8118L404.6764,370.6994L409.5104,430.5855L414.0680,445.1119L418.3792,459.6450L422.4691,474.1592
            L430.0688,479.3459L437.0068,506.3737L443.3891,519.2551L449.2982,545.0717L454.7995,534.6456L462.3992,490.6526L469.3371,550.4830L475.7195,537.0992L481.6286,534.1524L488.8823,542.3770
            L495.5309,550.0454L503.1306,568.4868L510.0686,577.5279L517.6683,569.5321L524.6062,553.7505L532.0043,582.2029L538.7739,576.1619L545.8663,584.6032L553.1569,591.0029L560.5452,587.6571
            L567.9522,599.8083L575.3177,605.1676L582.5970,597.8830L589.7576,605.1811L597.2238,608.0863L604.4582,612.2870L611.8357,612.7442L619.2666,615.8746L626.6818,617.8764L634.0292,620.4664
            L641.5268,622.5166L649.0800,623.1255L656.6163,615.0759L664.0813,625.2131L671.6109,628.0332L679.1309,623.8814L686.7306,598.4442L694.3303,608.0752L701.8701,610.0355L709.4152,612.3954
            L717.0050,617.2595L724.5686,614.6665L732.1355,615.5986L739.7203,618.9786L747.2590,619.9805L754.8278,618.1010L762.4163,623.9481L770.0109,630.2400L777.5967,629.8973L785.1584,621.7651
            L792.7581,511.7281L800.3264,388.0839L807.9071,374.4039L815.4952,373.4075L823.0818,371.8059L830.6791,373.3261L838.2680,372.4914L845.8500,374.6780L853.4389,371.2257L861.0386,373.7888
            L868.6309,375.3219L876.2252,373.9877L883.8224,373.2796L891.4177,349.9673L899.0123,374.1419L906.6111,371.3218L914.2033,373.1480L921.7992,371.2784L929.3933,369.1486L936.9893,366.7967
            L944.5838,366.7649L952.1799,401.6984L959.7786,409.8876L967.3753,423.6227L974.9731,431.3229L982.5721,438.3493L990.1701,447.5850L997.7693,452.3072L1005.3679,460.2271L1012.9669,468.5717
            L1020.5657,472.6482L1028.1646,476.7670L1035.7637,480.7346L1043.3628,482.2095L1050.9620,483.3441L1058.5617,490.8901L1066.1603,502.6032L1073.7592,510.4362L1081.3581,519.5311L1088.9578,530.2490
            L1096.5568,543.5307L1104.1564,551.4059L1111.7555,565.4923L1119.3550,565.3901L1126.9547,584.6895L1134.5541,589.0812L1142.1534,594.1608L1149.7529,594.4105L1157.3524,576.1490L1164.9519,598.5556
            L1172.5514,599.5874L1180.1511,595.4527L1187.7506,602.8084L1195.3501,597.1327L1202.9496,600.8787L1210.5493,604.2937L1218.1488,607.7142L1225.7484,613.1175L1233.3480,616.5355L1240.9476,614.8329
            L1248.5473,613.1457L1256.1470,606.6493L1263.7466,607.4773L1271.3463,611.1793L1278.9459,611.5820L1286.5456,606.9204L1294.1452,584.7654L1301.7449,611.0673L1309.3446,603.0360L1316.9443,605.7649
            L1324.5440,589.2465L1332.1437,582.3731L1339.7433,569.2310L1347.3430,542.2112L1354.9427,495.3253L1362.5424,454.4994L1370.1420,424.4636L1377.7417,403.2652L1385.3414,401.9659L1392.9411,389.3538
            L1400.5408,384.4266L1408.1405,384.0294L1415.7402,383.3794L1423.3399,383.8091L1430.9396,365.4723L1438.5393,365.1890L1446.1390,361.6210L1453.7387,359.8750L1461.3384,355.7782L1468.8000,360.9209"/>
  </g>
  <g style="fill:none; stroke:#0000FF; stroke-width:  3.6720; stroke-linecap:butt; stroke-linejoin:miter; stroke-dasharray:none">
   <path d="M183.6000,210.4844L238.8691,237.3693L271.1995,264.2543L294.1382,291.1382L311.9309,314.6580L326.4686,340.7910L338.7600,367.0188L349.4073,393.2798L358.7989,368.7514L367.2000,389.3054
            L374.7997,409.9084L381.7377,430.4673L388.1200,389.1837L394.0291,404.9971L399.5304,420.8118L404.6764,370.6994L409.5104,430.5855L414.0680,445.1119L418.3792,459.6450L422.4691,474.1592
            L430.0688,479.3459L437.0068,506.3737L443.3891,519.2551L449.2982,545.0717L454.7995,534.6456L462.3992,490.6526L469.3371,550.4830L475.7195,537.0992L481.6286,534.1524L488.8823,542.3770
            L495.5309,550.0454L503.1306,568.4868L510.0686,577.5279L517.6683,569.5321L524.6062,553.7505L532.0043,582.2029L538.7739,576.1619L545.8663,584.6032L553.1569,591.0029L560.5452,587.6571
            L567.9522,599.8083L575.3177,605.1676L582.5970,597.8830L589.7576,605.1811L597.2238,608.0863L604.4582,612.2870L611.8357,612.7442L619.2666,615.8746L626.6818,617.8764L634.0292,620.4664
            L641.5268,622.5166L649.0800,623.1255L656.6163,615.0759L664.0813,625.2131L671.6109,628.0332L679.1309,623.8814L686.7306,598.4442L694.3303,608.0752L701.8701,610.0355L709.4152,612.3954
            L717.0050,617.2595L724.5686,614.6665L732.1355,615.5986L739.7203,618.9786L747.2590,619.9805L754.8278,618.1010L762.4163,623.9481L770.0109,630.2400L777.5967,629.8973L785.1584,621.7651
            L792.7581,511.7281L800.3264,388.0839L807.9071,374.4039L815.4952,373.4075L823.0818,371.8059L830.6791,373.3261L838.2680,372.4914L845.8500,374.6780L853.4389,371.2257L861.0386,373.7888
            L868.6309,375.3219L876.2252,373.9877L883.8224,373.2796L891.4177,349.9673L899.0123,374.1419L906.6111,371.3218L914.2033,373.1480L921.7992,371.2784L929.3933,369.1486L936.9893,366.7967
            L944.5838,366.7649L952.1799,382.0269L959.7786,386.0092L967.3753,419.1086L974.9731,424.4624L982.5721,430.7764L990.1701,428.9655L997.7693,432.4729L1005.3679,437.5170L1012.9669,442.7410
            L1020.5657,439.4919L1028.1646,438.3750L1035.7637,430.3058L1043.3628,426.4948L1050.9620,422.1221L1058.5617,416.5095L1066.1603,416.6270L1073.7592,417.5688L1081.3581,421.9177L1088.9578,423.1350
            L1096.5568,425.3798L1104.1564,426.3467L1111.7555,428.1766L1119.3550,420.5774L1126.9547,430.9355L1134.5541,433.3437L1142.1534,433.8554L1149.7529,434.6963L1157.3524,418.6331L1164.9519,435.9147
            L1172.5514,436.5537L1180.1511,431.4943L1187.7506,426.8639L1195.3501,426.0609L1202.9496,426.9006L1210.5493,435.6351L1218.1488,441.6847L1225.7484,441.3444L1233.3480,440.9497L1240.9476,429.8651
            L1248.5473,428.4961L1256.1470,429.5518L1263.7466,423.5597L1271.3463,433.6161L1278.9459,430.2109L1286.5456,424.2561L1294.1452,414.4054L1301.7449,434.3327L1309.3446,434.4796L1316.9443,444.3818
            L1324.5440,437.3364L1332.1437,431.3125L1339.7433,427.4275L1347.3430,423.3528L1354.9427,355.4606L1362.5424,346.7629L1370.1420,342.2004L1377.7417,339.4990L1385.3414,330.4396L1392.9411,322.1470
            L1400.5408,304.0710L1408.1405,300.0911L1415.7402,297.3745L1423.3399,294.5905L1430.9396,293.4191L1438.5393,292.8157L1446.1390,293.0005L1453.7387,293.0978L1461.3384,292.9491L1468.8000,292.9112"/>
  </g>
  <g style="fill:none; stroke:#9400D3; stroke-width:  3.6720; stroke-linecap:butt; stroke-linejoin:miter; stroke-dasharray:none">
   <path d="M183.6000,210.4844L238.8691,237.3693L271.1995,264.2543L294.1382,291.1382L311.9309,314.6580L326.4686,340.7910L338.7600,367.0188L349.4073,393.2798L358.7989,368.7514L367.2000,389.3054
            L374.7997,409.9084L381.7377,430.4673L388.1200,389.1837L394.0291,404.9971L399.5304,420.8118L404.6764,370.6994L409.5104,430.5855L414.0680,445.1119L418.3792,459.6450L422.4691,474.1592
            L430.0688,479.3459L437.0068,506.3737L443.3891,519.2551L449.2982,545.0717L454.7995,534.6456L462.3992,490.6526L469.3371,550.4830L475.7195,537.0992L481.6286,534.1524L488.8823,542.3770
            L495.5309,550.0454L503.1306,568.4868L510.0686,577.5279L517.6683,569.5321L524.6062,553.7505L532.0043,582.2029L538.7739,576.1619L545.8663,584.6032L553.1569,591.0029L560.5452,587.6571
            L567.9522,599.8083L575.3177,605.1676L582.5970,597.8830L589.7576,605.1811L597.2238,608.0863L604.4582,612.2870L611.8357,612.7442L619.2666,615.8746L626.6818,617.8764L634.0292,620.4664
            L641.5268,622.5166L649.0800,623.1255L656.6163,615.0759L664.0813,625.2131L671.6109,628.0332L679.1309,623.8814L686.7306,598.4442L694.3303,608.0752L701.8701,610.0355L709.4152,612.3954
            L717.0050,617.2595L724.5686,614.6665L732.1355,615.5986L739.7203,618.9786L747.2590,619.9805L754.8278,618.1010L762.4163,623.9481L770.0109,630.2400L777.5967,629.8973L785.1584,621.7651
            L792.7581,511.7281L800.3264,388.0839L807.9071,374.4039L815.4952,373.4075L823.0818,371.8059L830.6791,373.3261L838.2680,372.4914L845.8500,374.6780L853.4389,371.2257L861.0386,373.7888
            L868.6309,375.3219L876.2252,373.9877L883.8224,373.2796L891.4177,349.9673L899.0123,374.1419L906.6111,371.3218L914.2033,373.1480L921.7992,371.2784L929.3933,369.1486L936.9893,366.7967
            L944.5838,366.7649L952.1799,341.8179L959.7786,337.0859L967.3753,351.2317L974.9731,344.5872L982.5721,337.0688L990.1701,328.7988L997.7693,326.8857L1005.3679,320.9138L1012.9669,320.7155
            L1020.5657,318.3226L1028.1646,317.6794L1035.7637,317.6415L1043.3628,317.2712L1050.9620,317.7259L1058.5617,317.5803L1066.1603,317.7033L1073.7592,317.6990L1081.3581,317.6500L1088.9578,317.6151
            L1096.5568,317.7357L1104.1564,317.6360L1111.7555,317.6482L1119.3550,311.7901L1126.9547,316.7535L1134.5541,317.1439L1142.1534,316.6568L1149.7529,316.9689L1157.3524,307.1120L1164.9519,315.4260
            L1172.5514,317.8838L1180.1511,316.9983L1187.7506,317.5466L1195.3501,315.8648L1202.9496,316.6274L1210.5493,317.8085L1218.1488,317.7302L1225.7484,317.8361L1233.3480,318.0074L1240.9476,317.6874
            L1248.5473,317.1666L1256.1470,317.1874L1263.7466,317.3667L1271.3463,317.3569L1278.9459,317.8318L1286.5456,317.1060L1294.1452,307.5331L1301.7449,311.7332L1309.3446,304.9688L1316.9443,296.2784
            L1324.5440,291.7545L1332.1437,280.4245L1339.7433,269.8363L1347.3430,262.0205L1354.9427,260.2860L1362.5424,258.9476L1370.1420,256.2934L1377.7417,256.2230L1385.3414,256.4494L1392.9411,257.3784
            L1400.5408,254.4390L1408.1405,254.9788L1415.7402,253.9494L1423.3399,253.8998L1430.9396,254.4029L1438.5393,255.2713L1446.1390,255.4898L1453.7387,255.3919L1461.3384,253.5418L1468.8000,255.5271"/>
  </g>
  <g style="fill:none; stroke:#000000; stroke-width:  3.6720; stroke-linecap:butt; stroke-linejoin:miter; stroke-dasharray: 18 11">
   <path d="M944.5838,183.6000L944.5838,1040.4000"/>
  </g>
  <g style="fill:none; stroke:#000000; stroke-width:  1.8360; stroke-linecap:butt; stroke-linejoin:miter; stroke-dasharray:none">
   <path d="M183.6000,183.6000L1468.8000,183.6000"/>
  </g>
  <g style="fill:none; stroke:#000000; stroke-width:  3.6720; stroke-linecap:butt; stroke-linejoin:miter; stroke-dasharray:none">
   <path d="M238.8691,183.6000L238.8691,189.7200"/>
   <path d="M271.1995,183.6000L271.1995,189.7200"/>
   <path d="M294.1382,183.6000L294.1382,189.7200"/>
   <path d="M311.9309,183.6000L311.9309,189.7200"/>
   <path d="M326.4686,183.6000L326.4686,189.7200"/>
   <path d="M338.7600,183.6000L338.7600,189.7200"/>
   <path d="M349.4073,183.6000L349.4073,189.7200"/>
   <path d="M358.7989,183.6000L358.7989,189.7200"/>
   <path d="M367.2000,183.6000L367.2000,189.7200"/>
   <path d="M422.4691,183.6000L422.4691,189.7200"/>
   <path d="M454.7995,183.6000L454.7995,189.7200"/>
   <path d="M477.7382,183.6000L477.7382,189.7200"/>
   <path d="M495.5309,183.6000L495.5309,189.7200"/>
   <path d="M510.0686,183.6000L510.0686,189.7200"/>
   <path d="M522.3600,183.6000L522.3600,189.7200"/>
   <path d="M533.0073,183.6000L533.0073,189.7200"/>
   <path d="M542.3989,183.6000L542.3989,189.7200"/>
   <path d="M550.8000,183.6000L550.8000,189.7200"/>
   <path d="M606.0691,183.6000L606.0691,189.7200"/>
   <path d="M638.3995,183.6000L638.3995,189.7200"/>
   <path d="M661.3382,183.6000L661.3382,189.7200"/>
   <path d="M679.1309,183.6000L679.1309,189.7200"/>
   <path d="M693.6686,183.6000L693.6686,189.7200"/>
   <path d="M705.9600,183.6000L705.9600,189.7200"/>
   <path d="M716.6073,183.6000L716.6073,189.7200"/>
   <path d="M725.9989,183.6000L725.9989,189.7200"/>
   <path d="M734.4000,183.6000L734.4000,189.7200"/>
   <path d="M789.6691,183.6000L789.6691,189.7200"/>
   <path d="M821.9995,183.6000L821.9995,189.7200"/>
   <path d="M844.9382,183.6000L844.9382,189.7200"/>
   <path d="M862.7309,183.6000L862.7309,189.7200"/>
   <path d="M877.2686,183.6000L877.2686,189.7200"/>
   <path d="M889.5600,183.6000L889.5600,189.7200"/>
   <path d="M900.2073,183.6000L900.2073,189.7200"/>
   <path d="M909.5989,183.6000L909.5989,189.7200"/>
   <path d="M918.0000,183.6000L918.0000,189.7200"/>
   <path d="M973.2691,183.6000L973.2691,189.7200"/>
   <path d="M1005.5995,183.6000L1005.5995,189.7200"/>
   <path d="M1028.5382,183.6000L1028.5382,189.7200"/>
   <path d="M1046.3309,183.6000L1046.3309,189.7200"/>
   <path d="M1060.8686,183.6000L1060.8686,189.7200"/>
   <path d="M1073.1600,183.6000L1073.1600,189.7200"/>
   <path d="M1083.8073,183.6000L1083.8073,189.7200"/>
   <path d="M1093.1989,183.6000L1093.1989,189.7200"/>
   <path d="M1101.6000,183.6000L1101.6000,189.7200"/>
   <path d="M1156.8691,183.6000L1156.8691,189.7200"/>
   <path d="M1189.1995,183.6000L1189.1995,189.7200"/>
   <path d="M1212.1382,183.6000L1212.1382,189.7200"/>
   <path d="M1229.9309,183.6000L1229.9309,189.7200"/>
   <path d="M1244.4686,183.6000L1244.4686,189.7200"/>
   <path d="M1256.7600,183.6000L1256.7600,189.7200"/>
   <path d="M1267.4073,183.6000L1267.4073,189.7200"/>
   <path d="M1276.7989,183.6000L1276.7989,189.7200"/>
   <path d="M1285.2000,183.6000L1285.2000,189.7200"/>
   <path d="M1340.4691,183.6000L1340.4691,189.7200"/>
   <path d="M1372.7995,183.6000L1372.7995,189.7200"/>
   <path d="M1395.7382,183.6000L1395.7382,189.7200"/>
   <path d="M1413.5309,183.6000L1413.5309,189.7200"/>
   <path d="M1428.0686,183.6000L1428.0686,189.7200"/>
   <path d="M1440.3600,183.6000L1440.3600,189.7200"/>
   <path d="M1451.0073,183.6000L1451.0073,189.7200"/>
   <path d="M1460.3989,183.6000L1460.3989,189.7200"/>
   <path d="M1468.8000,183.6000L1468.8000,189.7200"/>
   <path d="M183.6000,183.6000L183.6000,195.8400"/>
   <path d="M367.2000,183.6000L367.2000,195.8400"/>
   <path d="M550.8000,183.6000L550.8000,195.8400"/>
   <path d="M734.4000,183.6000L734.4000,195.8400"/>
   <path d="M918.0000,183.6000L918.0000,195.8400"/>
   <path d="M1101.6000,183.6000L1101.6000,195.8400"/>
   <path d="M1285.2000,183.6000L1285.2000,195.8400"/>
   <path d="M1468.8000,183.6000L1468.8000,195.8400"/>
  </g>
  <g style="fill:#000000; fill-rule:nonzero">
   <text   style="font-family:'Helvetica','Nimbus Sans L'; font-style:normal; font-weight:normal; font-size:1224.0000" transform="matrix(0.0280,0.0000,-0.0000,-0.0280,177.6000,147.3600)">1</text>
   <text   style="font-family:'Helvetica','Nimbus Sans L'; font-style:normal; font-weight:normal; font-size:1224.0000" transform="matrix(0.0280,0.0000,-0.0000,-0.0280,349.2000,147.3600)">10</text>
   <text   style="font-family:'Helvetica','Nimbus Sans L'; font-style:normal; font-weight:normal; font-size:1224.0000" transform="matrix(0.0280,0.0000,-0.0000,-0.0280,523.3000,147.3600)">100</text>
   <text   style="font-family:'Helvetica','Nimbus Sans L'; font-style:normal; font-weight:normal; font-size:1224.0000" transform="matrix(0.0280,0.0000,-0.0000,-0.0280,697.4000,147.3600)">1000</text>
   <text   style="font-family:'Helvetica','Nimbus Sans L'; font-style:normal; font-weight:normal; font-size:1224.0000" transform="matrix(0.0280,0.0000,-0.0000,-0.0280,871.5000,147.3600)">10000</text>
   <text   style="font-family:'Helvetica','Nimbus Sans L'; font-style:normal; font-weight:normal; font-size:1224.0000" transform="matrix(0.0280,0.0000,-0.0000,-0.0280,1045.6000,147.3600)">100000</text>
   <text   style="font-family:'Helvetica','Nimbus Sans L'; font-style:normal; font-weight:normal; font-size:1224.0000" transform="matrix(0.0280,0.0000,-0.0000,-0.0280,1219.7000,147.3600)">1000000</text>
   <text   style="font-family:'Helvetica','Nimbus Sans L'; font-style:normal; font-weight:normal; font-size:1224.0000" transform="matrix(0.0280,0.0000,-0.0000,-0.0280,1393.8000,147.3600)">10000000</text>
   <text   style="font-family:'Helvetica','Nimbus Sans L'; font-style:normal; font-weight:normal; font-size:1224.0000" transform="matrix(0.0336,0.0000,-0.0000,-0.0336,711.9400,75.1800)">Vector Length</text>
  </g>
  <g style="fill:none; stroke:#000000; stroke-width:  1.8360; stroke-linecap:butt; stroke-linejoin:miter; stroke-dasharray:none">
   <path d="M183.6000,183.6000L183.6000,1040.4000"/>
   <path d="M1468.8000,183.6000L1468.8000,1040.4000"/>
  </g>
  <g style="fill:none; stroke:#000000; stroke-width:  3.6720; stroke-linecap:butt; stroke-linejoin:miter; stroke-dasharray:none">
   <path d="M183.6000,183.6000L195.8400,183.6000"/>
   <path d="M1468.8000,183.6000L1456.5600,183.6000"/>
   <path d="M183.6000,244.8000L195.8400,244.8000"/>
   <path d="M1468.8000,244.8000L1456.5600,244.8000"/>
   <path d="M183.6000,306.0000L195.8400,306.0000"/>
   <path d="M1468.8000,306.0000L1456.5600,306.0000"/>
   <path d="M183.6000,367.2000L195.8400,367.2000"/>
   <path d="M1468.8000,367.2000L1456.5600,367.2000"/>
   <path d="M183.6000,428.4000L195.8400,428.4000"/>
   <path d="M1468.8000,428.4000L1456.5600,428.4000"/>
   <path d="M183.6000,489.6000L195.8400,489.6000"/>
   <path d="M1468.8000,489.6000L1456.5600,489.6000"/>
   <path d="M183.6000,550.8000L195.8400,550.8000"/>
   <path d="M1468.8000,550.8000L1456.5600,550.8000"/>
   <path d="M183.6000,612.0000L195.8400,612.0000"/>
   <path d="M1468.8000,612.0000L1456.5600,612.0000"/>
   <path d="M183.6000,673.2000L195.8400,673.2000"/>
   <path d="M1468.8000,673.2000L1456.5600,673.2000"/>
   <path d="M183.6000,734.4000L195.8400,734.4000"/>
   <path d="M1468.8000,734.4000L1456.5600,734.4000"/>
   <path d="M183.6000,795.6000L195.8400,795.6000"/>
   <path d="M1468.8000,795.6000L1456.5600,795.6000"/>
   <path d="M183.6000,856.8000L195.8400,856.8000"/>
   <path d="M1468.8000,856.8000L1456.5600,856.8000"/>
   <path d="M183.6000,918.0000L195.8400,918.0000"/>
   <path d="M1468.8000,918.0000L1456.5600,918.0000"/>
   <path d="M183.6000,979.2000L195.8400,979.2000"/>
   <path d="M1468.8000,979.2000L1456.5600,979.2000"/>
   <path d="M183.6000,1040.4000L195.8400,1040.4000"/>
   <path d="M1468.8000,1040.4000L1456.5600,1040.4000"/>
  </g>
  <g style="fill:#000000; fill-rule:nonzero">
   <text   style="font-family:'Helvetica','Nimbus Sans L'; font-style:normal; font-weight:normal; font-size:1224.0000" transform="matrix(0.0280,0.0000,-0.0000,-0.0280,154.3600,171.6000)">0</text>
   <text   style="font-family:'Helvetica','Nimbus Sans L'; font-style:normal; font-weight:normal; font-size:1224.0000" transform="matrix(0.0280,0.0000,-0.0000,-0.0280,97.3600,232.8000)">1000</text>
   <text   style="font-family:'Helvetica','Nimbus Sans L'; font-style:normal; font-weight:normal; font-size:1224.0000" transform="matrix(0.0280,0.0000,-0.0000,-0.0280,97.3600,294.0000)">2000</text>
   <text   style="font-family:'Helvetica','Nimbus Sans L'; font-style:normal; font-weight:normal; font-size:1224.0000" transform="matrix(0.0280,0.0000,-0.0000,-0.0280,97.3600,355.2000)">3000</text>
   <text   style="font-family:'Helvetica','Nimbus Sans L'; font-style:normal; font-weight:normal; font-size:1224.0000" transform="matrix(0.0280,0.0000,-0.0000,-0.0280,97.3600,416.4000)">4000</text>
   <text   style="font-family:'Helvetica','Nimbus Sans L'; font-style:normal; font-weight:normal; font-size:1224.0000" transform="matrix(0.0280,0.0000,-0.0000,-0.0280,97.3600,477.6000)">5000</text>
   <text   style="font-family:'Helvetica','Nimbus Sans L'; font-style:normal; font-weight:normal; font-size:1224.0000" transform="matrix(0.0280,0.0000,-0.0000,-0.0280,97.3600,538.8000)">6000</text>
   <text   style="font-family:'Helvetica','Nimbus Sans L'; font-style:normal; font-weight:normal; font-size:1224.0000" transform="matrix(0.0280,0.0000,-0.0000,-0.0280,97.3600,600.0000)">7000</text>
   <text   style="font-family:'Helvetica','Nimbus Sans L'; font-style:normal; font-weight:normal; font-size:1224.0000" transform="matrix(0.0280,0.0000,-0.0000,-0.0280,97.3600,661.2000)">8000</text>
   <text   style="font-family:'Helvetica','Nimbus Sans L'; font-style:normal; font-weight:normal; font-size:1224.0000" transform="matrix(0.0280,0.0000,-0.0000,-0.0280,97.3600,722.4000)">9000</text>
   <text   style="font-family:'Helvetica','Nimbus Sans L'; font-style:normal; font-weight:normal; font-size:1224.0000" transform="matrix(0.0280,0.0000,-0.0000,-0.0280,78.3600,783.6000)">10000</text>
   <text   style="font-family:'Helvetica','Nimbus Sans L'; font-style:normal; font-weight:normal; font-size:1224.0000" transform="matrix(0.0280,0.0000,-0.0000,-0.0280,78.3600,844.8000)">11000</text>
   <text   style="font-family:'Helvetica','Nimbus Sans L'; font-style:normal; font-weight:normal; font-size:1224.0000" transform="matrix(0.0280,0.0000,-0.0000,-0.0280,78.3600,906.0000)">12000</text>
   <text   style="font-family:'Helvetica','Nimbus Sans L'; font-style:normal; font-weight:normal; font-size:1224.0000" transform="matrix(0.0280,0.0000,-0.0000,-0.0280,78.3600,967.2000)">13000</text>
   <text   style="font-family:'Helvetica','Nimbus Sans L'; font-style:normal; font-weight:normal; font-size:1224.0000" transform="matrix(0.0280,0.0000,-0.0000,-0.0280,78.3600,1028.4000)">14000</text>
   <text   style="font-family:'Helvetica','Nimbus Sans L'; font-style:normal; font-weight:normal; font-size:1224.0000" transform="matrix(0.0000,0.0336,0.0336,-0.0000,57.1200,539.5000)">MFlop/s</text>
  </g>
  <g style="fill:none; stroke:#000000; stroke-width:  3.6720; stroke-linecap:butt; stroke-linejoin:miter; stroke-dasharray:none">
   <path d="M183.6000,183.6000L183.6000,1040.4000L1468.8000,1040.4000L1468.8000,183.6000z"/>
  </g>
  <g style="fill:#FFFFFF; fill-rule:nonzero">
   <path  d="M244.8000,918.0000L244.8000,684.5600L615.2120,684.5600L615.2120,918.0000z"/>
  </g>
  <g style="fill:none; stroke:#FFFFFF; stroke-width:  1.8360; stroke-linecap:butt; stroke-linejoin:miter; stroke-dasharray:none">
   <path d="M244.8000,918.0000L244.8000,684.5600L615.2120,684.5600L615.2120,918.0000z"/>
  </g>
  <g style="fill:#000000; fill-rule:nonzero">
   <text   style="font-family:'Helvetica','Nimbus Sans L'; font-style:normal; font-weight:normal; font-size:1224.0000" transform="matrix(0.0280,0.0000,-0.0000,-0.0280,324.9720,880.7600)">Blaze (10 threads)</text>
  </g>
  <g style="fill:none; stroke:#FF0000; stroke-width:  3.6720; stroke-linecap:butt; stroke-linejoin:miter; stroke-dasharray:none">
   <path d="M258.8760,889.7600L307.8360,889.7600"/>
  </g>
  <g style="fill:#000000; fill-rule:nonzero">
   <text   style="font-family:'Helvetica','Nimbus Sans L'; font-style:normal; font-weight:normal; font-size:1224.0000" transform="matrix(0.0280,0.0000,-0.0000,-0.0280,324.9720,836.5200)">Blaze (8 threads)</text>
  </g>
  <g style="fill:none; stroke:#FFA500; stroke-width:  3.6720; stroke-linecap:butt; stroke-linejoin:miter; stroke-dasharray:none">
   <path d="M258.8760,845.5200L307.8360,845.5200"/>
  </g>
  <g style="fill:#000000; fill-rule:nonzero">
   <text   style="font-family:'Helvetica','Nimbus Sans L'; font-style:normal; font-weight:normal; font-size:1224.0000" transform="matrix(0.0280,0.0000,-0.0000,-0.0280,324.9720,792.2800)">Blaze (4 threads)</text>
  </g>
  <g style="fill:none; stroke:#00FF00; stroke-width:  3.6720; stroke-linecap:butt; stroke-linejoin:miter; stroke-dasharray:none">
   <path d="M258.8760,801.2800L307.8360,801.2800"/>
  </g>
  <g style="fill:#000000; fill-rule:nonzero">
   <text   style="font-family:'Helvetica','Nimbus Sans L'; font-style:normal; font-weight:normal; font-size:1224.0000" transform="matrix(0.0280,0.0000,-0.0000,-0.0280,324.9720,748.0400)">Blaze (2 threads)</text>
  </g>
  <g style="fill:none; stroke:#0000FF; stroke-width:  3.6720; stroke-linecap:butt; stroke-linejoin:miter; stroke-dasharray:none">
   <path d="M258.8760,757.0400L307.8360,757.0400"/>
  </g>
  <g style="fill:#000000; fill-rule:nonzero">
   <text   style="font-family:'Helvetica','Nimbus Sans L'; font-style:normal; font-weight:normal; font-size:1224.0000" transform="matrix(0.0280,0.0000,-0.0000,-0.0280,324.9720,703.8000)">Blaze (1 thread)</text>
  </g>
  <g style="fill:none; stroke:#9400D3; stroke-width:  3.6720; stroke-linecap:butt; stroke-linejoin:miter; stroke-dasharray:none">
   <path d="M258.8760,712.8000L307.8360,712.8000"/>
  </g>
  <g style="fill:#000000; fill-rule:nonzero">
   <text   style="font-family:'Helvetica','Nimbus Sans L'; font-style:normal; font-weight:normal; font-size:1224.0000" transform="matrix(0.0196,0.0000,-0.0000,-0.0196,1101.6000,328.0320)">Blaze (1 thread)</text>
   <text   style="font-family:'Helvetica','Nimbus Sans L'; font-style:normal; font-weight:normal; font-size:1224.0000" transform="matrix(0.0196,0.0000,-0.0000,-0.0196,1101.6000,446.7600)">Blaze (2 threads)</text>
   <text   style="font-family:'Helvetica','Nimbus Sans L'; font-style:normal; font-weight:normal; font-size:1224.0000" transform="matrix(0.0196,0.0000,-0.0000,-0.0196,1126.0800,618.1200)">Blaze (4 threads)</text>
   <text   style="font-family:'Helvetica','Nimbus Sans L'; font-style:normal; font-weight:normal; font-size:1224.0000" transform="matrix(0.0196,0.0000,-0.0000,-0.0196,1144.4400,813.9600)">Blaze (8 threads)</text>
   <text   style="font-family:'Helvetica','Nimbus Sans L'; font-style:normal; font-weight:normal; font-size:1224.0000" transform="matrix(0.0196,0.0000,-0.0000,-0.0196,1113.8400,973.0800)">Blaze (10 threads)</text>
   <text   style="font-family:'Helvetica','Nimbus Sans L'; font-style:normal; font-weight:normal; font-size:1224.0000" transform="matrix(0.0000,0.0196,0.0196,-0.0000,936.3600,538.5600)">Parallelization threshold</text>
  </g>
 </g>
</svg>
