<?xml version="1.0" encoding="ISO-8859-1"?>
<!DOCTYPE svg PUBLIC "-//W3C//DTD SVG 1.0//EN" "http://www.w3.org/TR/2001/REC-SVG-20010904/DTD/svg10.dtd">
<!-- generated by Grace-5.1.23 -->
<svg xml:space="preserve" width="22.0000in" height="17.0000in" viewBox="0.0000 0.0000 1584.0000 1224.0000">
 <g transform="translate(0,1224.0000) scale(1,-1)">
  <g style="fill:#FFFFFF; fill-rule:nonzero">
   <path  d="M0.0000,0.0000L0.0000,1224.0000L1584.0000,1224.0000L1584.0000,0.0000z"/>
  </g>
  <g style="fill:none; stroke:#FF0000; stroke-width:  3.6720; stroke-linecap:butt; stroke-linejoin:miter; stroke-dasharray:none">
   <path d="M183.6000,185.1160L284.9267,192.4210L344.1990,198.2765L386.2534,216.5416L418.8733,221.3478L445.5257,234.7516L468.0600,247.0133L487.5801,255.5003L504.7980,255.1051L520.2000,268.2413
            L534.1328,276.8203L546.8524,288.2549L558.5533,273.9487L569.3867,286.4715L579.4723,296.4361L588.9068,310.6090L597.7691,297.6750L606.1247,313.5080L614.0285,317.9145L621.5267,333.4348
            L635.4595,318.8654L648.1791,338.0097L659.8800,337.3341L670.7134,356.3964L680.7990,346.5861L694.7318,350.2275L707.4514,370.4083L719.1523,365.0559L729.9857,363.7810L743.2843,361.1517
            L755.4733,372.9956L769.4061,373.1799L782.1257,379.3542L796.0585,328.2122L808.7781,317.6549L822.3413,316.4884L834.7522,315.6123L847.7548,318.8887L861.1210,307.6505L874.6662,310.9770
            L888.2457,314.7367L901.7492,314.0142L915.0945,312.1843L928.2223,328.5196L941.9103,346.1690L955.1734,380.8536L968.6988,403.8811L982.3222,424.6178L995.9167,431.0567L1009.3870,478.5834
            L1023.1324,503.0750L1036.9800,559.1097L1050.7965,520.9479L1064.4823,513.4337L1078.2866,694.2228L1092.0733,744.3092L1106.0061,778.8939L1119.9389,809.2525L1133.7618,866.4653L1147.5946,895.3866
            L1161.5092,811.9964L1175.3758,836.8714L1189.2485,981.0173L1203.1539,984.8408L1216.9747,983.7548L1230.8510,969.4462L1244.7632,1010.8982L1258.6866,1028.0964L1272.5939,973.5696L1286.4570,839.6175
            L1300.3898,652.1646L1314.2651,479.8622L1328.1630,402.7373L1342.0746,378.4136L1355.9833,372.4332L1369.9117,372.0979L1383.8246,371.2928L1397.7249,369.9870L1411.6380,367.4800L1425.5708,365.9510
            L1439.4900,365.1915L1453.4129,365.7632L1467.3412,365.8240L1481.2658,363.9138L1495.1893,364.7288L1509.1204,364.8175L1523.0393,365.6880L1530.0000,365.6265"/>
  </g>
  <g style="fill:none; stroke:#FFA500; stroke-width:  3.6720; stroke-linecap:butt; stroke-linejoin:miter; stroke-dasharray:none">
   <path d="M183.6000,185.1160L284.9267,192.4210L344.1990,198.2765L386.2534,216.5416L418.8733,221.3478L445.5257,234.7516L468.0600,247.0133L487.5801,255.5003L504.7980,255.1051L520.2000,268.2413
            L534.1328,276.8203L546.8524,288.2549L558.5533,273.9487L569.3867,286.4715L579.4723,296.4361L588.9068,310.6090L597.7691,297.6750L606.1247,313.5080L614.0285,317.9145L621.5267,333.4348
            L635.4595,318.8654L648.1791,338.0097L659.8800,337.3341L670.7134,356.3964L680.7990,346.5861L694.7318,350.2275L707.4514,370.4083L719.1523,365.0559L729.9857,363.7810L743.2843,361.1517
            L755.4733,372.9956L769.4061,373.1799L782.1257,379.3542L796.0585,328.2122L808.7781,317.6549L822.3413,316.4884L834.7522,315.6123L847.7548,318.8887L861.1210,307.6505L874.6662,310.9770
            L888.2457,314.7367L901.7492,314.0142L915.0945,312.1843L928.2223,333.3446L941.9103,346.7294L955.1734,364.9156L968.6988,383.2290L982.3222,404.3074L995.9167,424.2644L1009.3870,503.4220
            L1023.1324,355.9297L1036.9800,546.1164L1050.7965,592.6449L1064.4823,474.4965L1078.2866,584.7131L1092.0733,647.8014L1106.0061,662.1549L1119.9389,725.6781L1133.7618,791.8273L1147.5946,815.9270
            L1161.5092,820.9821L1175.3758,839.6710L1189.2485,829.5222L1203.1539,855.8324L1216.9747,868.0890L1230.8510,845.0110L1244.7632,873.5639L1258.6866,900.4674L1272.5939,860.1378L1286.4570,748.7538
            L1300.3898,616.0955L1314.2651,514.5861L1328.1630,437.4720L1342.0746,404.1746L1355.9833,392.2916L1369.9117,390.6734L1383.8246,389.1613L1397.7249,384.1293L1411.6380,382.2262L1425.5708,382.3763
            L1439.4900,381.1935L1453.4129,381.6930L1467.3412,382.2801L1481.2658,379.6046L1495.1893,381.9436L1509.1204,380.7595L1523.0393,381.6013L1530.0000,381.8031"/>
  </g>
  <g style="fill:none; stroke:#00FF00; stroke-width:  3.6720; stroke-linecap:butt; stroke-linejoin:miter; stroke-dasharray:none">
   <path d="M183.6000,185.1160L284.9267,192.4210L344.1990,198.2765L386.2534,216.5416L418.8733,221.3478L445.5257,234.7516L468.0600,247.0133L487.5801,255.5003L504.7980,255.1051L520.2000,268.2413
            L534.1328,276.8203L546.8524,288.2549L558.5533,273.9487L569.3867,286.4715L579.4723,296.4361L588.9068,310.6090L597.7691,297.6750L606.1247,313.5080L614.0285,317.9145L621.5267,333.4348
            L635.4595,318.8654L648.1791,338.0097L659.8800,337.3341L670.7134,356.3964L680.7990,346.5861L694.7318,350.2275L707.4514,370.4083L719.1523,365.0559L729.9857,363.7810L743.2843,361.1517
            L755.4733,372.9956L769.4061,373.1799L782.1257,379.3542L796.0585,328.2122L808.7781,317.6549L822.3413,316.4884L834.7522,315.6123L847.7548,318.8887L861.1210,307.6505L874.6662,310.9770
            L888.2457,314.7367L901.7492,314.0142L915.0945,312.1843L928.2223,331.0369L941.9103,347.7438L955.1734,321.2910L968.6988,407.9274L982.3222,416.5425L995.9167,422.0153L1009.3870,456.1481
            L1023.1324,452.3460L1036.9800,449.8592L1050.7965,442.9020L1064.4823,453.4192L1078.2866,506.3180L1092.0733,517.3964L1106.0061,525.4932L1119.9389,540.6350L1133.7618,541.4725L1147.5946,547.8835
            L1161.5092,550.4196L1175.3758,546.9367L1189.2485,555.2798L1203.1539,549.9291L1216.9747,548.7853L1230.8510,546.0135L1244.7632,551.9919L1258.6866,561.4788L1272.5939,550.7624L1286.4570,534.4703
            L1300.3898,504.9900L1314.2651,422.1374L1328.1630,366.7560L1342.0746,348.0812L1355.9833,344.6711L1369.9117,344.7765L1383.8246,337.0987L1397.7249,339.3437L1411.6380,335.1088L1425.5708,335.0912
            L1439.4900,337.0891L1453.4129,332.7586L1467.3412,330.9388L1481.2658,324.5348L1495.1893,328.1676L1509.1204,330.6746L1523.0393,328.7436L1530.0000,330.7048"/>
  </g>
  <g style="fill:none; stroke:#0000FF; stroke-width:  3.6720; stroke-linecap:butt; stroke-linejoin:miter; stroke-dasharray:none">
   <path d="M183.6000,185.1160L284.9267,192.4210L344.1990,198.2765L386.2534,216.5416L418.8733,221.3478L445.5257,234.7516L468.0600,247.0133L487.5801,255.5003L504.7980,255.1051L520.2000,268.2413
            L534.1328,276.8203L546.8524,288.2549L558.5533,273.9487L569.3867,286.4715L579.4723,296.4361L588.9068,310.6090L597.7691,297.6750L606.1247,313.5080L614.0285,317.9145L621.5267,333.4348
            L635.4595,318.8654L648.1791,338.0097L659.8800,337.3341L670.7134,356.3964L680.7990,346.5861L694.7318,350.2275L707.4514,370.4083L719.1523,365.0559L729.9857,363.7810L743.2843,361.1517
            L755.4733,372.9956L769.4061,373.1799L782.1257,379.3542L796.0585,328.2122L808.7781,317.6549L822.3413,316.4884L834.7522,315.6123L847.7548,318.8887L861.1210,307.6505L874.6662,310.9770
            L888.2457,314.7367L901.7492,314.0142L915.0945,312.1843L928.2223,322.1848L941.9103,334.7389L955.1734,346.4588L968.6988,342.8581L982.3222,338.1537L995.9167,328.6078L1009.3870,329.5741
            L1023.1324,337.1808L1036.9800,343.2825L1050.7965,349.2107L1064.4823,358.3041L1078.2866,363.6158L1092.0733,367.6931L1106.0061,368.9470L1119.9389,374.5936L1133.7618,376.6315L1147.5946,376.1227
            L1161.5092,374.5854L1175.3758,372.3186L1189.2485,374.4106L1203.1539,371.8644L1216.9747,372.0347L1230.8510,369.4930L1244.7632,371.2036L1258.6866,372.7332L1272.5939,366.3861L1286.4570,349.3908
            L1300.3898,358.6991L1314.2651,328.7528L1328.1630,297.0707L1342.0746,289.7350L1355.9833,283.0813L1369.9117,278.2124L1383.8246,272.4260L1397.7249,274.1777L1411.6380,270.7790L1425.5708,270.0348
            L1439.4900,271.3445L1453.4129,268.0466L1467.3412,265.9653L1481.2658,262.8242L1495.1893,261.2653L1509.1204,265.3212L1523.0393,264.0807L1530.0000,265.8687"/>
  </g>
  <g style="fill:none; stroke:#9400D3; stroke-width:  3.6720; stroke-linecap:butt; stroke-linejoin:miter; stroke-dasharray:none">
   <path d="M183.6000,185.1160L284.9267,192.4210L344.1990,198.2765L386.2534,216.5416L418.8733,221.3478L445.5257,234.7516L468.0600,247.0133L487.5801,255.5003L504.7980,255.1051L520.2000,268.2413
            L534.1328,276.8203L546.8524,288.2549L558.5533,273.9487L569.3867,286.4715L579.4723,296.4361L588.9068,310.6090L597.7691,297.6750L606.1247,313.5080L614.0285,317.9145L621.5267,333.4348
            L635.4595,318.8654L648.1791,338.0097L659.8800,337.3341L670.7134,356.3964L680.7990,346.5861L694.7318,350.2275L707.4514,370.4083L719.1523,365.0559L729.9857,363.7810L743.2843,361.1517
            L755.4733,372.9956L769.4061,373.1799L782.1257,379.3542L796.0585,328.2122L808.7781,317.6549L822.3413,316.4884L834.7522,315.6123L847.7548,318.8887L861.1210,307.6505L874.6662,310.9770
            L888.2457,314.7367L901.7492,314.0142L915.0945,312.1843L928.2223,294.5614L941.9103,294.7229L955.1734,290.8699L968.6988,285.2771L982.3222,282.5583L995.9167,280.3274L1009.3870,281.1570
            L1023.1324,280.1455L1036.9800,280.8029L1050.7965,282.9106L1064.4823,281.5680L1078.2866,281.9007L1092.0733,283.3666L1106.0061,282.4042L1119.9389,284.0026L1133.7618,284.5008L1147.5946,284.2087
            L1161.5092,283.3382L1175.3758,281.7492L1189.2485,282.4726L1203.1539,280.8684L1216.9747,280.2633L1230.8510,280.5823L1244.7632,280.7474L1258.6866,281.2923L1272.5939,276.2854L1286.4570,265.0414
            L1300.3898,253.9126L1314.2651,248.6605L1328.1630,247.0887L1342.0746,246.6358L1355.9833,246.5356L1369.9117,247.5034L1383.8246,245.8632L1397.7249,246.2466L1411.6380,246.3981L1425.5708,245.7840
            L1439.4900,244.4908L1453.4129,243.2179L1467.3412,241.7827L1481.2658,237.0763L1495.1893,238.5819L1509.1204,239.9871L1523.0393,239.9046L1530.0000,241.1459"/>
  </g>
  <g style="fill:none; stroke:#000000; stroke-width:  3.6720; stroke-linecap:butt; stroke-linejoin:miter; stroke-dasharray: 18 11">
   <path d="M915.0945,183.6000L915.0945,1040.5224"/>
  </g>
  <g style="fill:none; stroke:#000000; stroke-width:  1.8360; stroke-linecap:butt; stroke-linejoin:miter; stroke-dasharray:none">
   <path d="M183.6000,183.6000L1530.0000,183.6000"/>
  </g>
  <g style="fill:none; stroke:#000000; stroke-width:  3.6720; stroke-linecap:butt; stroke-linejoin:miter; stroke-dasharray:none">
   <path d="M284.9267,183.6000L284.9267,189.7200"/>
   <path d="M344.1990,183.6000L344.1990,189.7200"/>
   <path d="M386.2534,183.6000L386.2534,189.7200"/>
   <path d="M418.8733,183.6000L418.8733,189.7200"/>
   <path d="M445.5257,183.6000L445.5257,189.7200"/>
   <path d="M468.0600,183.6000L468.0600,189.7200"/>
   <path d="M487.5801,183.6000L487.5801,189.7200"/>
   <path d="M504.7980,183.6000L504.7980,189.7200"/>
   <path d="M520.2000,183.6000L520.2000,189.7200"/>
   <path d="M621.5267,183.6000L621.5267,189.7200"/>
   <path d="M680.7990,183.6000L680.7990,189.7200"/>
   <path d="M722.8534,183.6000L722.8534,189.7200"/>
   <path d="M755.4733,183.6000L755.4733,189.7200"/>
   <path d="M782.1257,183.6000L782.1257,189.7200"/>
   <path d="M804.6600,183.6000L804.6600,189.7200"/>
   <path d="M824.1801,183.6000L824.1801,189.7200"/>
   <path d="M841.3980,183.6000L841.3980,189.7200"/>
   <path d="M856.8000,183.6000L856.8000,189.7200"/>
   <path d="M958.1267,183.6000L958.1267,189.7200"/>
   <path d="M1017.3990,183.6000L1017.3990,189.7200"/>
   <path d="M1059.4534,183.6000L1059.4534,189.7200"/>
   <path d="M1092.0733,183.6000L1092.0733,189.7200"/>
   <path d="M1118.7257,183.6000L1118.7257,189.7200"/>
   <path d="M1141.2600,183.6000L1141.2600,189.7200"/>
   <path d="M1160.7801,183.6000L1160.7801,189.7200"/>
   <path d="M1177.9980,183.6000L1177.9980,189.7200"/>
   <path d="M1193.4000,183.6000L1193.4000,189.7200"/>
   <path d="M1294.7267,183.6000L1294.7267,189.7200"/>
   <path d="M1353.9990,183.6000L1353.9990,189.7200"/>
   <path d="M1396.0534,183.6000L1396.0534,189.7200"/>
   <path d="M1428.6733,183.6000L1428.6733,189.7200"/>
   <path d="M1455.3257,183.6000L1455.3257,189.7200"/>
   <path d="M1477.8600,183.6000L1477.8600,189.7200"/>
   <path d="M1497.3801,183.6000L1497.3801,189.7200"/>
   <path d="M1514.5980,183.6000L1514.5980,189.7200"/>
   <path d="M1530.0000,183.6000L1530.0000,189.7200"/>
   <path d="M183.6000,183.6000L183.6000,195.8400"/>
   <path d="M520.2000,183.6000L520.2000,195.8400"/>
   <path d="M856.8000,183.6000L856.8000,195.8400"/>
   <path d="M1193.4000,183.6000L1193.4000,195.8400"/>
   <path d="M1530.0000,183.6000L1530.0000,195.8400"/>
  </g>
  <g style="fill:#000000; fill-rule:nonzero">
   <text   style="font-family:'Helvetica','Nimbus Sans L'; font-style:normal; font-weight:normal; font-size:1224.0000" transform="matrix(0.0280,0.0000,-0.0000,-0.0280,177.6000,147.3600)">1</text>
   <text   style="font-family:'Helvetica','Nimbus Sans L'; font-style:normal; font-weight:normal; font-size:1224.0000" transform="matrix(0.0280,0.0000,-0.0000,-0.0280,502.2000,147.3600)">10</text>
   <text   style="font-family:'Helvetica','Nimbus Sans L'; font-style:normal; font-weight:normal; font-size:1224.0000" transform="matrix(0.0280,0.0000,-0.0000,-0.0280,829.3000,147.3600)">100</text>
   <text   style="font-family:'Helvetica','Nimbus Sans L'; font-style:normal; font-weight:normal; font-size:1224.0000" transform="matrix(0.0280,0.0000,-0.0000,-0.0280,1156.4000,147.3600)">1000</text>
   <text   style="font-family:'Helvetica','Nimbus Sans L'; font-style:normal; font-weight:normal; font-size:1224.0000" transform="matrix(0.0280,0.0000,-0.0000,-0.0280,1483.5000,147.3600)">10000</text>
   <text   style="font-family:'Helvetica','Nimbus Sans L'; font-style:normal; font-weight:normal; font-size:1224.0000" transform="matrix(0.0336,0.0000,-0.0000,-0.0336,703.0400,70.6800)">Matrix/Vector Size</text>
  </g>
  <g style="fill:none; stroke:#000000; stroke-width:  1.8360; stroke-linecap:butt; stroke-linejoin:miter; stroke-dasharray:none">
   <path d="M183.6000,183.6000L183.6000,1040.4000"/>
   <path d="M1530.0000,183.6000L1530.0000,1040.4000"/>
  </g>
  <g style="fill:none; stroke:#000000; stroke-width:  3.6720; stroke-linecap:butt; stroke-linejoin:miter; stroke-dasharray:none">
   <path d="M183.6000,183.6000L195.8400,183.6000"/>
   <path d="M1530.0000,183.6000L1517.7600,183.6000"/>
   <path d="M183.6000,269.2800L195.8400,269.2800"/>
   <path d="M1530.0000,269.2800L1517.7600,269.2800"/>
   <path d="M183.6000,354.9600L195.8400,354.9600"/>
   <path d="M1530.0000,354.9600L1517.7600,354.9600"/>
   <path d="M183.6000,440.6400L195.8400,440.6400"/>
   <path d="M1530.0000,440.6400L1517.7600,440.6400"/>
   <path d="M183.6000,526.3200L195.8400,526.3200"/>
   <path d="M1530.0000,526.3200L1517.7600,526.3200"/>
   <path d="M183.6000,612.0000L195.8400,612.0000"/>
   <path d="M1530.0000,612.0000L1517.7600,612.0000"/>
   <path d="M183.6000,697.6800L195.8400,697.6800"/>
   <path d="M1530.0000,697.6800L1517.7600,697.6800"/>
   <path d="M183.6000,783.3600L195.8400,783.3600"/>
   <path d="M1530.0000,783.3600L1517.7600,783.3600"/>
   <path d="M183.6000,869.0400L195.8400,869.0400"/>
   <path d="M1530.0000,869.0400L1517.7600,869.0400"/>
   <path d="M183.6000,954.7200L195.8400,954.7200"/>
   <path d="M1530.0000,954.7200L1517.7600,954.7200"/>
   <path d="M183.6000,1040.4000L195.8400,1040.4000"/>
   <path d="M1530.0000,1040.4000L1517.7600,1040.4000"/>
  </g>
  <g style="fill:#000000; fill-rule:nonzero">
   <text   style="font-family:'Helvetica','Nimbus Sans L'; font-style:normal; font-weight:normal; font-size:1224.0000" transform="matrix(0.0280,0.0000,-0.0000,-0.0280,154.3600,171.6000)">0</text>
   <text   style="font-family:'Helvetica','Nimbus Sans L'; font-style:normal; font-weight:normal; font-size:1224.0000" transform="matrix(0.0280,0.0000,-0.0000,-0.0280,97.3600,257.2800)">4000</text>
   <text   style="font-family:'Helvetica','Nimbus Sans L'; font-style:normal; font-weight:normal; font-size:1224.0000" transform="matrix(0.0280,0.0000,-0.0000,-0.0280,97.3600,342.9600)">8000</text>
   <text   style="font-family:'Helvetica','Nimbus Sans L'; font-style:normal; font-weight:normal; font-size:1224.0000" transform="matrix(0.0280,0.0000,-0.0000,-0.0280,78.3600,428.6400)">12000</text>
   <text   style="font-family:'Helvetica','Nimbus Sans L'; font-style:normal; font-weight:normal; font-size:1224.0000" transform="matrix(0.0280,0.0000,-0.0000,-0.0280,78.3600,514.3200)">16000</text>
   <text   style="font-family:'Helvetica','Nimbus Sans L'; font-style:normal; font-weight:normal; font-size:1224.0000" transform="matrix(0.0280,0.0000,-0.0000,-0.0280,78.3600,600.0000)">20000</text>
   <text   style="font-family:'Helvetica','Nimbus Sans L'; font-style:normal; font-weight:normal; font-size:1224.0000" transform="matrix(0.0280,0.0000,-0.0000,-0.0280,78.3600,685.6800)">24000</text>
   <text   style="font-family:'Helvetica','Nimbus Sans L'; font-style:normal; font-weight:normal; font-size:1224.0000" transform="matrix(0.0280,0.0000,-0.0000,-0.0280,78.3600,771.3600)">28000</text>
   <text   style="font-family:'Helvetica','Nimbus Sans L'; font-style:normal; font-weight:normal; font-size:1224.0000" transform="matrix(0.0280,0.0000,-0.0000,-0.0280,78.3600,857.0400)">32000</text>
   <text   style="font-family:'Helvetica','Nimbus Sans L'; font-style:normal; font-weight:normal; font-size:1224.0000" transform="matrix(0.0280,0.0000,-0.0000,-0.0280,78.3600,942.7200)">36000</text>
   <text   style="font-family:'Helvetica','Nimbus Sans L'; font-style:normal; font-weight:normal; font-size:1224.0000" transform="matrix(0.0280,0.0000,-0.0000,-0.0280,78.3600,1028.4000)">40000</text>
   <text   style="font-family:'Helvetica','Nimbus Sans L'; font-style:normal; font-weight:normal; font-size:1224.0000" transform="matrix(0.0000,0.0336,0.0336,-0.0000,57.1200,539.5000)">MFlop/s</text>
  </g>
  <g style="fill:none; stroke:#000000; stroke-width:  3.6720; stroke-linecap:butt; stroke-linejoin:miter; stroke-dasharray:none">
   <path d="M183.6000,183.6000L183.6000,1040.4000L1530.0000,1040.4000L1530.0000,183.6000z"/>
  </g>
  <g style="fill:#FFFFFF; fill-rule:nonzero">
   <path  d="M244.8000,918.0000L244.8000,684.5600L622.5560,684.5600L622.5560,918.0000z"/>
  </g>
  <g style="fill:none; stroke:#FFFFFF; stroke-width:  1.8360; stroke-linecap:butt; stroke-linejoin:miter; stroke-dasharray:none">
   <path d="M244.8000,918.0000L244.8000,684.5600L622.5560,684.5600L622.5560,918.0000z"/>
  </g>
  <g style="fill:#000000; fill-rule:nonzero">
   <text   style="font-family:'Helvetica','Nimbus Sans L'; font-style:normal; font-weight:normal; font-size:1224.0000" transform="matrix(0.0280,0.0000,-0.0000,-0.0280,332.3160,880.7600)">Blaze (10 threads)</text>
  </g>
  <g style="fill:none; stroke:#FF0000; stroke-width:  3.6720; stroke-linecap:butt; stroke-linejoin:miter; stroke-dasharray:none">
   <path d="M258.8760,889.7600L307.8360,889.7600"/>
  </g>
  <g style="fill:#000000; fill-rule:nonzero">
   <text   style="font-family:'Helvetica','Nimbus Sans L'; font-style:normal; font-weight:normal; font-size:1224.0000" transform="matrix(0.0280,0.0000,-0.0000,-0.0280,332.3160,836.5200)">Blaze (8 threads)</text>
  </g>
  <g style="fill:none; stroke:#FFA500; stroke-width:  3.6720; stroke-linecap:butt; stroke-linejoin:miter; stroke-dasharray:none">
   <path d="M258.8760,845.5200L307.8360,845.5200"/>
  </g>
  <g style="fill:#000000; fill-rule:nonzero">
   <text   style="font-family:'Helvetica','Nimbus Sans L'; font-style:normal; font-weight:normal; font-size:1224.0000" transform="matrix(0.0280,0.0000,-0.0000,-0.0280,332.3160,792.2800)">Blaze (4 threads)</text>
  </g>
  <g style="fill:none; stroke:#00FF00; stroke-width:  3.6720; stroke-linecap:butt; stroke-linejoin:miter; stroke-dasharray:none">
   <path d="M258.8760,801.2800L307.8360,801.2800"/>
  </g>
  <g style="fill:#000000; fill-rule:nonzero">
   <text   style="font-family:'Helvetica','Nimbus Sans L'; font-style:normal; font-weight:normal; font-size:1224.0000" transform="matrix(0.0280,0.0000,-0.0000,-0.0280,332.3160,748.0400)">Blaze (2 threads)</text>
  </g>
  <g style="fill:none; stroke:#0000FF; stroke-width:  3.6720; stroke-linecap:butt; stroke-linejoin:miter; stroke-dasharray:none">
   <path d="M258.8760,757.0400L307.8360,757.0400"/>
  </g>
  <g style="fill:#000000; fill-rule:nonzero">
   <text   style="font-family:'Helvetica','Nimbus Sans L'; font-style:normal; font-weight:normal; font-size:1224.0000" transform="matrix(0.0280,0.0000,-0.0000,-0.0280,332.3160,703.8000)">Blaze (1 thread)</text>
  </g>
  <g style="fill:none; stroke:#9400D3; stroke-width:  3.6720; stroke-linecap:butt; stroke-linejoin:miter; stroke-dasharray:none">
   <path d="M258.8760,712.8000L307.8360,712.8000"/>
  </g>
  <g style="fill:#000000; fill-rule:nonzero">
   <text   style="font-family:'Helvetica','Nimbus Sans L'; font-style:normal; font-weight:normal; font-size:1224.0000" transform="matrix(0.0196,0.0000,-0.0000,-0.0196,1101.6000,293.7600)">Blaze (1 thread)</text>
   <text   style="font-family:'Helvetica','Nimbus Sans L'; font-style:normal; font-weight:normal; font-size:1224.0000" transform="matrix(0.0196,0.0000,-0.0000,-0.0196,1101.6000,385.5600)">Blaze (2 threads)</text>
   <text   style="font-family:'Helvetica','Nimbus Sans L'; font-style:normal; font-weight:normal; font-size:1224.0000" transform="matrix(0.0196,0.0000,-0.0000,-0.0196,1107.7200,563.0400)">Blaze (4 threads)</text>
   <text   style="font-family:'Helvetica','Nimbus Sans L'; font-style:normal; font-weight:normal; font-size:1224.0000" transform="matrix(0.0196,0.0000,-0.0000,-0.0196,1138.3200,758.8800)">Blaze (8 threads)</text>
   <text   style="font-family:'Helvetica','Nimbus Sans L'; font-style:normal; font-weight:normal; font-size:1224.0000" transform="matrix(0.0196,0.0000,-0.0000,-0.0196,1040.4000,991.4400)">Blaze (10 threads)</text>
   <text   style="font-family:'Helvetica','Nimbus Sans L'; font-style:normal; font-weight:normal; font-size:1224.0000" transform="matrix(0.0000,0.0196,0.0196,-0.0000,905.7600,538.5600)">Parallelization threshold</text>
  </g>
 </g>
</svg>
